700 0 1 0           
30 Autodesk Translation Framework 21 ASM 229.10.0.65535 NT 24 Sat May  4 12:36:52 2024 
1 9.999999999999999547e-07 1.000000000000000036e-10 
body $1 -1 $-1 $2 $-1 $3 #
rgb_color-st-attrib $-1 -1 $4 $-1 $0 0.627450980392156854 0.627450980392156854 0.627450980392156854 #
lump $-1 -1 $-1 $-1 $5 $0 #
transform $-1 -1 1 0 0 0 1 0 0 0 1 0 0 0 1 no_rotate no_reflect no_shear #
ATTRIB_CUSTOM-attrib $-1 -1 $-1 $1 $0 @20 Timestamp_attrib_def 1 1706506935689943 #
shell $-1 -1 $-1 $-1 $-1 $6 $-1 $2 #
face $7 -1 $-1 $8 $9 $5 $-1 $10 forward single #
DXID-attrib $-1 -1 $-1 $-1 $6 @10 ASM ENTITY @1 0 #
face $11 -1 $-1 $12 $13 $5 $-1 $14 forward single #
loop $-1 -1 $-1 $-1 $15 $6 #
plane-surface $-1 -1 $-1 -6.499999999999993783 -5.999999999999992006 -30.96607798128716382 0 0 -1 10 0 0 forward_v I I I I #
DXID-attrib $-1 -1 $-1 $-1 $8 @10 ASM ENTITY @1 1 #
face $16 -1 $-1 $17 $18 $5 $-1 $19 forward single #
loop $-1 -1 $-1 $-1 $20 $8 #
plane-surface $-1 -1 $-1 -12.99999999999998934 -5.999999999999992006 -19.7077477320894765 -0.8660254037844385966 -0 -0.5000000000000003331 5.000000000000003553 0 -8.660254037844385522 forward_v I I I I #
coedge $-1 -1 $-1 $21 $22 $23 $24 reversed $9 $-1 #
DXID-attrib $-1 -1 $-1 $-1 $12 @10 ASM ENTITY @1 2 #
face $25 -1 $-1 $26 $27 $5 $-1 $28 forward single #
loop $-1 -1 $-1 $-1 $29 $12 #
plane-surface $-1 -1 $-1 -6.499999999999994671 -5.999999999999992006 -8.449417482891778519 -0.8660254037844388186 0 0.4999999999999998335 -4.999999999999998224 -0 -8.660254037844389075 forward_v I I I I #
coedge $-1 -1 $-1 $30 $31 $32 $33 forward $13 $-1 #
coedge $-1 -1 $-1 $32 $15 $34 $35 reversed $9 $-1 #
coedge $-1 -1 $-1 $15 $32 $36 $37 reversed $9 $-1 #
coedge $-1 -1 $-1 $38 $39 $15 $24 forward $40 $-1 #
edge $-1 -1 $-1 $41 -1.700000000000000178 $42 1.200000000000000178 $23 $43 forward @7 unknown #
DXID-attrib $-1 -1 $-1 $-1 $17 @10 ASM ENTITY @1 3 #
face $44 -1 $-1 $45 $46 $5 $-1 $47 forward single #
loop $-1 -1 $-1 $-1 $48 $17 #
plane-surface $-1 -1 $-1 6.499999999999992895 -5.999999999999992006 -8.449417482891776743 -1.708035422500242405e-16 0 1 -10 -0 -1.708035422500242455e-15 forward_v I I I I #
coedge $-1 -1 $-1 $49 $50 $51 $52 forward $18 $-1 #
coedge $-1 -1 $-1 $51 $20 $53 $54 reversed $13 $-1 #
coedge $-1 -1 $-1 $20 $51 $55 $56 reversed $13 $-1 #
coedge $-1 -1 $-1 $22 $21 $20 $33 reversed $9 $-1 #
edge $-1 -1 $-1 $57 -1.200000000000000178 $58 1.700000000000000178 $20 $59 forward @7 unknown #
coedge $-1 -1 $-1 $60 $53 $21 $35 forward $61 $-1 #
edge $-1 -1 $-1 $58 0 $41 1.299999999999998268 $21 $62 forward @7 unknown #
coedge $-1 -1 $-1 $55 $63 $22 $37 forward $64 $-1 #
edge $-1 -1 $-1 $42 -1.299999999999998268 $57 -0 $22 $65 forward @7 unknown #
coedge $-1 -1 $-1 $66 $23 $63 $67 reversed $40 $-1 #
coedge $-1 -1 $-1 $23 $66 $60 $68 reversed $40 $-1 #
loop $-1 -1 $-1 $-1 $66 $45 #
vertex $-1 -1 $-1 $24 $69 #
vertex $-1 -1 $-1 $24 $70 #
straight-curve $-1 -1 $-1 6.499999999999989342 -5.999999999999992006 -30.96607798128716382 0 10 0 I I #
DXID-attrib $-1 -1 $-1 $-1 $26 @10 ASM ENTITY @1 4 #
face $71 -1 $-1 $72 $40 $5 $-1 $73 forward single #
loop $-1 -1 $-1 $-1 $74 $26 #
plane-surface $-1 -1 $-1 12.99999999999998934 -5.999999999999992006 -19.7077477320894765 0.8660254037844387076 0 0.4999999999999999445 -4.999999999999999112 0 8.660254037844387298 forward_v I I I I #
coedge $-1 -1 $-1 $75 $76 $77 $78 forward $27 $-1 #
coedge $-1 -1 $-1 $79 $29 $80 $81 reversed $18 $-1 #
coedge $-1 -1 $-1 $29 $79 $82 $83 reversed $18 $-1 #
coedge $-1 -1 $-1 $31 $30 $29 $52 reversed $13 $-1 #
edge $-1 -1 $-1 $84 -1.200000000000000178 $85 1.700000000000000178 $29 $86 forward @7 unknown #
coedge $-1 -1 $-1 $34 $80 $30 $54 forward $61 $-1 #
edge $-1 -1 $-1 $85 0 $58 1.29999999999999849 $30 $87 forward @7 unknown #
coedge $-1 -1 $-1 $82 $36 $31 $56 forward $64 $-1 #
edge $-1 -1 $-1 $57 -1.29999999999999849 $84 -0 $31 $88 forward @7 unknown #
vertex $-1 -1 $-1 $33 $89 #
vertex $-1 -1 $-1 $35 $90 #
straight-curve $-1 -1 $-1 -6.499999999999993783 -5.999999999999992006 -30.96607798128716382 0 -10 0 I I #
coedge $-1 -1 $-1 $91 $34 $39 $68 forward $61 $-1 #
loop $-1 -1 $-1 $-1 $60 $72 #
straight-curve $-1 -1 $-1 -6.499999999999993783 -22.99999999999999289 -30.96607798128716382 10 0 0 I I #
coedge $-1 -1 $-1 $36 $92 $38 $67 forward $64 $-1 #
loop $-1 -1 $-1 $-1 $93 $94 #
straight-curve $-1 -1 $-1 -6.499999999999993783 6.00000000000000977 -30.96607798128716382 -10 -0 -0 I I #
coedge $-1 -1 $-1 $39 $38 $95 $96 forward $40 $-1 #
edge $-1 -1 $-1 $97 -1.299999999999998934 $42 -0 $38 $98 forward @7 unknown #
edge $-1 -1 $-1 $41 0 $99 1.299999999999998934 $39 $100 forward @7 unknown #
point $-1 -1 $-1 6.499999999999989342 -22.99999999999999289 -30.96607798128716382 #
point $-1 -1 $-1 6.499999999999989342 6.00000000000000977 -30.96607798128716382 #
DXID-attrib $-1 -1 $-1 $-1 $45 @10 ASM ENTITY @1 5 #
face $101 -1 $-1 $102 $61 $5 $-1 $103 forward single #
plane-surface $-1 -1 $-1 6.499999999999989342 -5.999999999999992006 -30.96607798128716382 0.8660254037844383745 0 -0.5000000000000004441 5.000000000000004441 0 8.660254037844383745 forward_v I I I I #
coedge $-1 -1 $-1 $104 $105 $106 $107 forward $46 $-1 #
coedge $-1 -1 $-1 $108 $48 $109 $110 reversed $27 $-1 #
coedge $-1 -1 $-1 $48 $111 $112 $113 forward $27 $-1 #
coedge $-1 -1 $-1 $114 $115 $48 $78 reversed $116 $-1 #
edge $-1 -1 $-1 $117 1.11022302462515654e-16 $118 1.200000000000000178 $48 $119 forward @7 unknown #
coedge $-1 -1 $-1 $50 $49 $108 $120 reversed $18 $-1 #
coedge $-1 -1 $-1 $53 $121 $49 $81 forward $61 $-1 #
edge $-1 -1 $-1 $122 0 $85 1.299999999999999378 $49 $123 forward @7 unknown #
coedge $-1 -1 $-1 $109 $55 $50 $83 forward $64 $-1 #
edge $-1 -1 $-1 $84 -1.299999999999999378 $124 -0 $50 $125 forward @7 unknown #
vertex $-1 -1 $-1 $52 $126 #
vertex $-1 -1 $-1 $54 $127 #
straight-curve $-1 -1 $-1 -12.99999999999998934 -5.999999999999992006 -19.7077477320894765 0 -10 0 I I #
straight-curve $-1 -1 $-1 -12.99999999999998934 -22.99999999999999289 -19.7077477320894765 5.000000000000001776 0 -8.660254037844385522 I I #
straight-curve $-1 -1 $-1 -12.99999999999998934 6.00000000000000977 -19.7077477320894765 -5.000000000000001776 0 8.660254037844385522 I I #
point $-1 -1 $-1 -6.499999999999993783 6.00000000000000977 -30.96607798128716382 #
point $-1 -1 $-1 -6.499999999999993783 -22.99999999999999289 -30.96607798128716382 #
coedge $-1 -1 $-1 $121 $60 $104 $128 forward $61 $-1 #
coedge $-1 -1 $-1 $63 $129 $105 $130 forward $64 $-1 #
coedge $-1 -1 $-1 $131 $109 $115 $132 forward $64 $-1 #
face $133 -1 $-1 $134 $64 $5 $-1 $135 forward single #
coedge $-1 -1 $-1 $105 $104 $66 $96 reversed $46 $-1 #
edge $-1 -1 $-1 $97 -1.200000000000000178 $99 1.700000000000000178 $66 $136 forward @7 unknown #
vertex $-1 -1 $-1 $96 $137 #
straight-curve $-1 -1 $-1 6.499999999999989342 6.00000000000000977 -30.96607798128716382 -5.000000000000004441 -0 -8.660254037844383745 I I #
vertex $-1 -1 $-1 $128 $138 #
straight-curve $-1 -1 $-1 6.499999999999989342 -22.99999999999999289 -30.96607798128716382 5.000000000000004441 0 8.660254037844383745 I I #
DXID-attrib $-1 -1 $-1 $-1 $72 @10 ASM ENTITY @1 6 #
face $139 -1 $-1 $94 $116 $5 $-1 $140 forward single #
plane-surface $-1 -1 $-1 0 -22.99999999999999289 -19.70774773208947295 0 -1 0 0 0 -10 forward_v I I I I #
coedge $-1 -1 $-1 $95 $74 $91 $128 reversed $46 $-1 #
coedge $-1 -1 $-1 $74 $95 $92 $130 reversed $46 $-1 #
coedge $-1 -1 $-1 $141 $142 $74 $107 reversed $27 $-1 #
edge $-1 -1 $-1 $143 -1.200000000000000178 $144 1.700000000000000178 $74 $145 forward @7 unknown #
coedge $-1 -1 $-1 $142 $75 $79 $120 forward $27 $-1 #
coedge $-1 -1 $-1 $93 $82 $75 $110 forward $64 $-1 #
edge $-1 -1 $-1 $124 -1.299999999999998712 $118 -1.249999999999999556 $75 $146 forward @7 unknown #
coedge $-1 -1 $-1 $76 $141 $147 $148 forward $27 $-1 #
coedge $-1 -1 $-1 $149 $150 $76 $113 reversed $151 $-1 #
edge $-1 -1 $-1 $152 0.02499999999999946709 $117 1.225000000000000089 $76 $153 forward @7 unknown #
coedge $-1 -1 $-1 $154 $77 $150 $155 reversed $116 $-1 #
coedge $-1 -1 $-1 $77 $154 $93 $132 reversed $116 $-1 #
loop $-1 -1 $-1 $-1 $114 $102 #
vertex $-1 -1 $-1 $78 $156 #
vertex $-1 -1 $-1 $78 $157 #
straight-curve $-1 -1 $-1 -6.000000000000000888 -5.999999999999992895 -8.449417482891778519 -9.251858538542969855e-16 10 -1.580250210779271617e-31 I I #
edge $-1 -1 $-1 $124 -1.200000000000000178 $122 1.700000000000000178 $108 $158 forward @7 unknown #
coedge $-1 -1 $-1 $80 $91 $142 $159 forward $61 $-1 #
vertex $-1 -1 $-1 $81 $160 #
straight-curve $-1 -1 $-1 -6.499999999999994671 -22.99999999999999289 -8.449417482891778519 -4.999999999999998224 -0 -8.660254037844389075 I I #
vertex $-1 -1 $-1 $120 $161 #
straight-curve $-1 -1 $-1 -6.499999999999994671 6.00000000000000977 -8.449417482891778519 4.999999999999998224 0 8.660254037844389075 I I #
point $-1 -1 $-1 -12.99999999999998934 6.00000000000000977 -19.7077477320894765 #
point $-1 -1 $-1 -12.99999999999998934 -22.99999999999999289 -19.7077477320894765 #
edge $-1 -1 $-1 $99 0 $144 1.2999999999999996 $104 $162 forward @7 unknown #
coedge $-1 -1 $-1 $92 $163 $141 $164 forward $64 $-1 #
edge $-1 -1 $-1 $143 -1.2999999999999996 $97 -0 $105 $165 forward @7 unknown #
coedge $-1 -1 $-1 $163 $93 $166 $167 reversed $64 $-1 #
edge $-1 -1 $-1 $118 -0.8449417482891778963 $168 1.400000000000000133 $93 $169 forward @7 unknown #
DXID-attrib $-1 -1 $-1 $-1 $94 @10 ASM ENTITY @1 8 #
face $170 -1 $-1 $171 $172 $5 $-1 $173 forward single #
plane-surface $-1 -1 $-1 6 6.00000000000000977 0 0 1 0 -10 -0 -0 forward_v I I I I #
straight-curve $-1 -1 $-1 12.99999999999998934 -5.999999999999992006 -19.7077477320894765 0 -10 0 I I #
point $-1 -1 $-1 12.99999999999998934 6.00000000000000977 -19.7077477320894765 #
point $-1 -1 $-1 12.99999999999998934 -22.99999999999999289 -19.7077477320894765 #
DXID-attrib $-1 -1 $-1 $-1 $102 @10 ASM ENTITY @1 7 #
plane-surface $-1 -1 $-1 -6.000000000000001776 6.00000000000000977 0 -1 -9.251858538542970348e-17 0 9.251858538542969855e-16 -10 0 forward_v I I I I #
coedge $-1 -1 $-1 $111 $106 $129 $164 reversed $27 $-1 #
coedge $-1 -1 $-1 $106 $108 $121 $159 reversed $27 $-1 #
vertex $-1 -1 $-1 $107 $174 #
vertex $-1 -1 $-1 $159 $175 #
straight-curve $-1 -1 $-1 6.499999999999992895 -5.999999999999992006 -8.449417482891776743 0 -10 0 I I #
straight-curve $-1 -1 $-1 6.499999999999992895 6.00000000000000977 -8.449417482891776743 10 0 1.708035422500242455e-15 I I #
coedge $-1 -1 $-1 $176 $177 $111 $148 reversed $172 $-1 #
edge $-1 -1 $-1 $178 -0.6000000000000000888 $152 0.6000000000000000888 $111 $179 forward @7 unknown #
coedge $-1 -1 $-1 $180 $112 $177 $181 forward $151 $-1 #
coedge $-1 -1 $-1 $112 $180 $114 $155 forward $151 $-1 #
loop $-1 -1 $-1 $-1 $149 $171 #
vertex $-1 -1 $-1 $148 $182 #
straight-curve $-1 -1 $-1 6.249999999999999112 -5.999999999999992006 -8.449417482891776743 -10 0 -1.708035422500242455e-15 I I #
coedge $-1 -1 $-1 $115 $114 $183 $184 reversed $116 $-1 #
edge $-1 -1 $-1 $185 -1.400000000000000133 $117 0.8449417482891778963 $150 $186 forward @7 unknown #
point $-1 -1 $-1 -6.000000000000000888 -5.999999999999992006 -8.449417482891778519 #
point $-1 -1 $-1 -6.000000000000001776 6.00000000000000977 -8.449417482891778519 #
straight-curve $-1 -1 $-1 -6.499999999999994671 -5.999999999999992006 -8.449417482891778519 0 -10 0 I I #
edge $-1 -1 $-1 $144 0 $122 1.299999999999998712 $142 $187 forward @7 unknown #
point $-1 -1 $-1 -6.499999999999995559 -22.99999999999999289 -8.449417482891776743 #
point $-1 -1 $-1 -6.499999999999995559 6.00000000000000977 -8.449417482891776743 #
straight-curve $-1 -1 $-1 12.99999999999998934 -22.99999999999999289 -19.7077477320894765 -4.999999999999999112 0 8.660254037844385522 I I #
coedge $-1 -1 $-1 $129 $131 $176 $188 reversed $64 $-1 #
edge $-1 -1 $-1 $178 -0.04999999999999915623 $143 -0 $141 $146 forward @7 unknown #
straight-curve $-1 -1 $-1 12.99999999999998934 6.00000000000000977 -19.7077477320894765 4.999999999999999112 0 -8.660254037844385522 I I #
coedge $-1 -1 $-1 $183 $189 $131 $167 forward $190 $-1 #
edge $-1 -1 $-1 $191 -1.200000000000000178 $168 -0 $131 $192 forward @7 unknown #
vertex $-1 -1 $-1 $184 $193 #
straight-curve $-1 -1 $-1 -6.000000000000001776 6.00000000000000977 0 0 0 10 I I #
DXID-attrib $-1 -1 $-1 $-1 $134 @10 ASM ENTITY @1 9 #
face $194 -1 $-1 $195 $151 $5 $-1 $196 forward single #
loop $-1 -1 $-1 $-1 $176 $134 #
plane-surface $-1 -1 $-1 6.000000000000004441 -5.999999999999992006 0 1 2.775557561562890858e-16 0 -2.775557561562890957e-15 10 0 forward_v I I I I #
point $-1 -1 $-1 6.499999999999992895 6.00000000000000977 -8.449417482891776743 #
point $-1 -1 $-1 6.499999999999992895 -22.99999999999999289 -8.449417482891776743 #
coedge $-1 -1 $-1 $197 $147 $163 $188 forward $172 $-1 #
coedge $-1 -1 $-1 $147 $197 $149 $181 reversed $172 $-1 #
vertex $-1 -1 $-1 $164 $198 #
straight-curve $-1 -1 $-1 6.000000000000003553 8.812395257962181617e-15 -8.449417482891776743 2.775557561562890957e-15 -10 4.740750632337814632e-31 I I #
coedge $-1 -1 $-1 $150 $149 $199 $200 reversed $151 $-1 #
edge $-1 -1 $-1 $152 -0.8449417482891776743 $201 1.400000000000000133 $149 $202 forward @7 unknown #
point $-1 -1 $-1 6.000000000000004441 -5.999999999999992006 -8.449417482891776743 #
coedge $-1 -1 $-1 $199 $166 $154 $184 forward $190 $-1 #
edge $-1 -1 $-1 $168 -1.200000000000000178 $185 -0 $154 $203 forward @7 unknown #
vertex $-1 -1 $-1 $155 $204 #
straight-curve $-1 -1 $-1 -6.000000000000000888 -5.999999999999992006 0 0 0 -10 I I #
straight-curve $-1 -1 $-1 6.499999999999992895 -22.99999999999999289 -8.449417482891776743 -10 -0 -1.708035422500242455e-15 I I #
edge $-1 -1 $-1 $178 -0.8449417482891776743 $191 1.400000000000000133 $176 $205 forward @7 unknown #
coedge $-1 -1 $-1 $166 $199 $197 $206 forward $190 $-1 #
loop $-1 -1 $-1 $-1 $199 $195 #
vertex $-1 -1 $-1 $167 $207 #
straight-curve $-1 -1 $-1 -6.000000000000001776 6.00000000000000977 14.00000000000000178 -10 -0 -0 I I #
point $-1 -1 $-1 -6.000000000000001776 6.00000000000000977 14.00000000000000178 #
DXID-attrib $-1 -1 $-1 $-1 $171 @10 ASM ENTITY @2 10 #
face $208 -1 $-1 $-1 $190 $5 $-1 $209 forward single #
plane-surface $-1 -1 $-1 -6.000000000000001776 -5.999999999999992006 0 0 -1 0 10 0 0 forward_v I I I I #
coedge $-1 -1 $-1 $177 $176 $189 $206 reversed $172 $-1 #
point $-1 -1 $-1 6.000000000000000888 6.00000000000000977 -8.449417482891776743 #
coedge $-1 -1 $-1 $189 $183 $180 $200 forward $190 $-1 #
edge $-1 -1 $-1 $185 -1.200000000000000622 $201 -0 $180 $210 forward @7 unknown #
vertex $-1 -1 $-1 $206 $211 #
straight-curve $-1 -1 $-1 6.000000000000004441 -5.999999999999992006 0 0 0 10 I I #
straight-curve $-1 -1 $-1 -6.000000000000000888 -5.999999999999992006 14.00000000000000178 9.251858538542969855e-16 -10 0 I I #
point $-1 -1 $-1 -6.000000000000001776 -5.999999999999992006 14.00000000000000178 #
straight-curve $-1 -1 $-1 6.000000000000000888 6.00000000000000977 0 0 0 10 I I #
edge $-1 -1 $-1 $201 -1.200000000000000178 $191 -0 $197 $212 forward @7 unknown #
point $-1 -1 $-1 6.000000000000000888 6.00000000000000977 14.00000000000000178 #
DXID-attrib $-1 -1 $-1 $-1 $195 @10 ASM ENTITY @2 11 #
plane-surface $-1 -1 $-1 1.11022302462515654e-15 8.881784197001252323e-15 14.00000000000000178 0 0 1 10 0 0 forward_v I I I I #
straight-curve $-1 -1 $-1 6.000000000000004441 -5.999999999999992006 14.00000000000000178 10 0 0 I I #
point $-1 -1 $-1 6.000000000000004441 -5.999999999999992006 14.00000000000000178 #
straight-curve $-1 -1 $-1 6.000000000000000888 6.00000000000000977 14.00000000000000178 -2.775557561562890957e-15 10 0 I I #
End-of-ACIS-data 