700 0 1 0           
30 Autodesk Translation Framework 21 ASM 229.10.0.65535 NT 24 Sat May  4 12:37:29 2024 
1 9.999999999999999547e-07 1.000000000000000036e-10 
body $1 -1 $-1 $2 $-1 $3 #
rgb_color-st-attrib $-1 -1 $4 $-1 $0 0.627450980392156854 0.627450980392156854 0.627450980392156854 #
lump $-1 -1 $-1 $-1 $5 $0 #
transform $-1 -1 1 0 0 0 1 0 0 0 1 0 0 0 1 no_rotate no_reflect no_shear #
ATTRIB_CUSTOM-attrib $-1 -1 $-1 $1 $0 @20 Timestamp_attrib_def 1 1706500947443525 #
shell $-1 -1 $-1 $-1 $-1 $6 $-1 $2 #
face $7 -1 $-1 $8 $9 $5 $-1 $10 forward single #
DXID-attrib $-1 -1 $-1 $-1 $6 @10 ASM ENTITY @1 0 #
face $11 -1 $-1 $12 $13 $5 $-1 $14 forward single #
loop $-1 -1 $-1 $-1 $15 $6 #
plane-surface $-1 -1 $-1 32.1606428977656762 -39.37609064564605887 0 -1 0 0 -0 -10 -0 forward_v I I I I #
DXID-attrib $-1 -1 $-1 $-1 $8 @10 ASM ENTITY @1 1 #
face $16 -1 $-1 $17 $18 $5 $-1 $19 forward single #
loop $-1 -1 $-1 $-1 $20 $8 #
plane-surface $-1 -1 $-1 38.46064289776568046 -39.37609064564605887 0 0 1 0 -10 -0 -0 forward_v I I I I #
coedge $21 -1 $-1 $22 $23 $24 $25 reversed $9 $-1 #
DXID-attrib $-1 -1 $-1 $-1 $12 @10 ASM ENTITY @1 2 #
face $26 -1 $-1 $27 $28 $5 $-1 $29 forward single #
loop $-1 -1 $-1 $-1 $30 $12 #
plane-surface $-1 -1 $-1 38.46064289776568046 -45.67609064564607024 0 1 0 0 0 10 0 forward_v I I I I #
coedge $31 -1 $-1 $32 $33 $34 $35 reversed $13 $-1 #
ATTRIB_CUSTOM-attrib $-1 -1 $-1 $-1 $15 @17 sketch_attrib_def 1 1 3 @13 148 0 1 0 1 1 #
coedge $-1 -1 $-1 $36 $15 $37 $38 forward $9 $-1 #
coedge $-1 -1 $-1 $15 $36 $32 $39 reversed $9 $-1 #
coedge $-1 -1 $-1 $34 $40 $15 $25 forward $41 $-1 #
edge $-1 -1 $-1 $42 -2.745992271583963529 $43 -2.115992271583962747 $24 $44 forward @7 unknown #
DXID-attrib $-1 -1 $-1 $-1 $17 @10 ASM ENTITY @1 3 #
face $45 -1 $-1 $46 $47 $5 $-1 $48 forward single #
loop $-1 -1 $-1 $-1 $49 $17 #
plane-surface $-1 -1 $-1 32.1606428977656762 -45.67609064564607024 0 0 -1 0 10 0 0 forward_v I I I I #
coedge $50 -1 $-1 $51 $52 $53 $54 reversed $18 $-1 #
ATTRIB_CUSTOM-attrib $-1 -1 $-1 $-1 $20 @17 sketch_attrib_def 1 1 3 @13 145 0 1 0 1 1 #
coedge $-1 -1 $-1 $55 $20 $23 $39 forward $13 $-1 #
coedge $-1 -1 $-1 $20 $55 $51 $56 reversed $13 $-1 #
coedge $-1 -1 $-1 $53 $24 $20 $35 forward $41 $-1 #
edge $-1 -1 $-1 $43 -0.3609353110643289675 $57 0.2690646889356709259 $34 $58 forward @7 unknown #
coedge $-1 -1 $-1 $23 $22 $59 $60 reversed $9 $-1 #
coedge $-1 -1 $-1 $49 $61 $22 $38 reversed $28 $-1 #
edge $-1 -1 $-1 $42 0 $62 0.5150000000000000133 $37 $63 forward @7 unknown #
edge $-1 -1 $-1 $43 0 $64 0.5150000000000000133 $32 $65 forward @7 unknown #
coedge $-1 -1 $-1 $24 $53 $49 $66 forward $41 $-1 #
loop $-1 -1 $-1 $67 $24 $68 #
vertex $-1 -1 $-1 $25 $69 #
vertex $-1 -1 $-1 $25 $70 #
straight-curve $-1 -1 $-1 32.1606428977656762 -18.21616792980643496 0 0 10 0 I I #
DXID-attrib $-1 -1 $-1 $-1 $27 @10 ASM ENTITY @1 4 #
face $71 -1 $-1 $72 $73 $5 $-1 $74 forward single #
loop $-1 -1 $-1 $-1 $75 $27 #
plane-surface $-1 -1 $-1 35.31064289776567477 -42.52609064564606456 5.150000000000000355 0 0 1 10 0 0 forward_v I I I I #
coedge $76 -1 $-1 $77 $37 $40 $66 reversed $28 $-1 #
ATTRIB_CUSTOM-attrib $-1 -1 $-1 $-1 $30 @17 sketch_attrib_def 1 1 3 @13 146 0 1 0 1 1 #
coedge $-1 -1 $-1 $78 $30 $33 $56 forward $18 $-1 #
coedge $-1 -1 $-1 $30 $78 $77 $79 reversed $18 $-1 #
coedge $-1 -1 $-1 $40 $34 $30 $54 forward $41 $-1 #
edge $-1 -1 $-1 $57 1.800992271583962356 $80 2.430992271583963138 $53 $81 forward @7 unknown #
coedge $-1 -1 $-1 $33 $32 $82 $83 reversed $13 $-1 #
edge $-1 -1 $-1 $57 0 $84 0.5150000000000000133 $51 $85 forward @7 unknown #
vertex $-1 -1 $-1 $35 $86 #
straight-curve $-1 -1 $-1 35.76999600840896676 -39.37609064564605887 0 10 0 0 I I #
coedge $-1 -1 $-1 $75 $82 $36 $60 forward $47 $-1 #
edge $-1 -1 $-1 $64 -0.6300000000000007816 $62 -0 $36 $87 forward @7 unknown #
coedge $-1 -1 $-1 $37 $77 $75 $88 reversed $28 $-1 #
vertex $-1 -1 $-1 $38 $89 #
straight-curve $-1 -1 $-1 32.1606428977656762 -45.67609064564607024 0 0 0 10 I I #
vertex $-1 -1 $-1 $60 $90 #
straight-curve $-1 -1 $-1 32.1606428977656762 -39.37609064564605887 0 0 0 10 I I #
edge $-1 -1 $-1 $80 -0.5840646889356713167 $42 0.04593531106432857669 $40 $91 forward @7 unknown #
loop $-1 -1 $-1 $-1 $92 $68 #
face $93 -1 $-1 $94 $41 $5 $-1 $95 forward single #
point $-1 -1 $-1 32.1606428977656762 -45.67609064564607024 0 #
point $-1 -1 $-1 32.1606428977656762 -39.37609064564605887 0 #
DXID-attrib $-1 -1 $-1 $-1 $46 @10 ASM ENTITY @1 5 #
face $96 -1 $-1 $97 $98 $5 $-1 $99 forward single #
loop $-1 -1 $-1 $-1 $100 $46 #
cone-surface $-1 -1 $-1 32.86267344787537326 -41.59289451004453042 0 0 0 -1 -13.53050168622801053 4.796163466380676255e-13 0 1 I I 0 1 13.53050168622801053 forward I I I I #
coedge $-1 -1 $-1 $101 $59 $61 $88 forward $47 $-1 #
ATTRIB_CUSTOM-attrib $-1 -1 $-1 $-1 $49 @17 sketch_attrib_def 1 1 3 @13 147 0 1 0 1 1 #
coedge $-1 -1 $-1 $61 $49 $52 $79 forward $28 $-1 #
coedge $-1 -1 $-1 $52 $51 $101 $102 reversed $18 $-1 #
edge $-1 -1 $-1 $80 0 $103 0.5150000000000000133 $77 $104 forward @7 unknown #
vertex $-1 -1 $-1 $54 $105 #
straight-curve $-1 -1 $-1 38.46064289776568046 -21.36616792980643709 0 0 -10 0 I I #
coedge $-1 -1 $-1 $59 $101 $55 $83 forward $47 $-1 #
edge $-1 -1 $-1 $84 -0.6299999999999998934 $64 -0 $55 $106 forward @7 unknown #
vertex $-1 -1 $-1 $83 $107 #
straight-curve $-1 -1 $-1 38.46064289776568046 -39.37609064564605887 0 0 0 10 I I #
point $-1 -1 $-1 38.46064289776568046 -39.37609064564605887 0 #
straight-curve $-1 -1 $-1 32.1606428977656762 -45.67609064564607024 5.150000000000000355 -0 -10 -0 I I #
edge $-1 -1 $-1 $62 -0.6299999999999998934 $103 -0 $61 $108 forward @7 unknown #
point $-1 -1 $-1 32.1606428977656762 -45.67609064564607024 5.150000000000000355 #
point $-1 -1 $-1 32.1606428977656762 -39.37609064564605887 5.150000000000000355 #
straight-curve $-1 -1 $-1 32.61999600840896107 -45.67609064564607024 0 -10 0 0 I I #
coedge $109 -1 $-1 $110 $111 $112 $113 forward $67 $-1 #
DXID-attrib $-1 -1 $-1 $-1 $68 @10 ASM ENTITY @2 13 #
face $114 -1 $-1 $-1 $115 $5 $-1 $116 reversed single #
plane-surface $-1 -1 $-1 33.07934911905225306 2.943754786033192516 0 0 0 1 10 0 0 forward_v I I I I #
DXID-attrib $-1 -1 $-1 $-1 $72 @10 ASM ENTITY @1 6 #
face $117 -1 $-1 $118 $119 $5 $-1 $120 forward single #
loop $-1 -1 $-1 $-1 $121 $72 #
plane-surface $-1 -1 $-1 46.82652647645714694 -28.36246193044933861 0 0.9994812326515374323 -0.03220660766618221871 0 -0.3220660766618221871 -9.994812326515374323 -0 forward_v I I I I #
coedge $122 -1 $-1 $123 $124 $110 $125 reversed $73 $-1 #
coedge $-1 -1 $-1 $82 $75 $78 $102 forward $47 $-1 #
edge $-1 -1 $-1 $103 -0.6300000000000007816 $84 -0 $78 $126 forward @7 unknown #
vertex $-1 -1 $-1 $102 $127 #
straight-curve $-1 -1 $-1 38.46064289776568046 -45.67609064564607024 0 0 0 10 I I #
point $-1 -1 $-1 38.46064289776568046 -45.67609064564607024 0 #
straight-curve $-1 -1 $-1 32.1606428977656762 -39.37609064564605887 5.150000000000000355 -10 -0 -0 I I #
point $-1 -1 $-1 38.46064289776568046 -39.37609064564605887 5.150000000000000355 #
straight-curve $-1 -1 $-1 38.46064289776568046 -45.67609064564607024 5.150000000000000355 10 0 0 I I #
ATTRIB_CUSTOM-attrib $-1 -1 $-1 $-1 $92 @17 sketch_attrib_def 1 1 3 @13 136 0 0 0 1 1 #
coedge $128 -1 $-1 $129 $92 $100 $125 forward $67 $-1 #
coedge $130 -1 $-1 $92 $131 $132 $133 reversed $67 $-1 #
coedge $134 -1 $-1 $135 $136 $92 $113 reversed $137 $-1 #
edge $-1 -1 $-1 $138 0 $139 1.287270061179638603 $92 $140 forward @7 unknown #
DXID-attrib $-1 -1 $-1 $-1 $94 @10 ASM ENTITY @2 14 #
loop $-1 -1 $-1 $-1 $141 $94 #
plane-surface $-1 -1 $-1 33.07934911905225306 2.943754786033192516 -13.09400000000000119 0 0 1 10 0 0 forward_v I I I I #
DXID-attrib $-1 -1 $-1 $-1 $97 @10 ASM ENTITY @1 7 #
face $142 -1 $-1 $143 $144 $5 $-1 $145 forward single #
loop $-1 -1 $-1 $-1 $146 $97 #
cone-surface $-1 -1 $-1 71.000404702797141 -12.47599088730610362 0 0 0 -1 -28.90533496752329512 1.112637012604924314 0 1 I I 0 -1 28.92674110069337701 forward I I I I #
coedge $147 -1 $-1 $148 $149 $129 $150 reversed $98 $-1 #
ATTRIB_CUSTOM-attrib $-1 -1 $-1 $-1 $100 @17 sketch_attrib_def 1 1 3 @13 139 0 0 0 1 1 #
coedge $-1 -1 $-1 $151 $100 $136 $152 forward $73 $-1 #
coedge $-1 -1 $-1 $100 $151 $148 $153 reversed $73 $-1 #
edge $-1 -1 $-1 $139 0 $154 3.109380475522196985 $110 $155 forward @7 unknown #
straight-curve $-1 -1 $-1 38.46064289776568046 -39.37609064564605887 5.150000000000000355 0 10 0 I I #
point $-1 -1 $-1 38.46064289776568046 -45.67609064564607024 5.150000000000000355 #
ATTRIB_CUSTOM-attrib $-1 -1 $-1 $-1 $110 @17 sketch_attrib_def 1 1 3 @13 139 0 0 0 1 1 #
coedge $156 -1 $-1 $157 $110 $121 $150 forward $67 $-1 #
ATTRIB_CUSTOM-attrib $-1 -1 $-1 $-1 $111 @17 sketch_attrib_def 1 1 3 @13 134 0 1 0 1 1 #
coedge $158 -1 $-1 $111 $159 $160 $161 reversed $67 $-1 #
coedge $162 -1 $-1 $163 $164 $111 $133 forward $165 $-1 #
edge $-1 -1 $-1 $138 0 $166 0.61847308158411618 $111 $167 forward @7 unknown #
ATTRIB_CUSTOM-attrib $-1 -1 $-1 $-1 $112 @17 sketch_attrib_def 1 1 3 @13 136 0 0 0 1 1 #
coedge $-1 -1 $-1 $168 $112 $164 $169 forward $137 $-1 #
coedge $-1 -1 $-1 $112 $168 $123 $152 reversed $137 $-1 #
loop $-1 -1 $-1 $-1 $112 $170 #
vertex $-1 -1 $-1 $133 $171 #
vertex $-1 -1 $-1 $125 $172 #
straight-curve $-1 -1 $-1 19.33217176164755102 -28.72019389824766122 0 -1.466187398262952621e-13 -10 0 F 0 F 1.287270061179638603 #
coedge $-1 -1 $-1 $173 $174 $168 $175 forward $115 $-1 #
DXID-attrib $-1 -1 $-1 $-1 $118 @10 ASM ENTITY @1 8 #
face $176 -1 $-1 $177 $178 $5 $-1 $179 forward single #
loop $-1 -1 $-1 $-1 $180 $118 #
plane-surface $-1 -1 $-1 44.86564548705000988 60.61377725679336947 0 0.9992599880817701896 -0.03846395999920703551 0 -0.384639599992070369 -9.992599880817701674 0 forward_v I I I I #
coedge $181 -1 $-1 $182 $183 $157 $184 forward $119 $-1 #
ATTRIB_CUSTOM-attrib $-1 -1 $-1 $-1 $121 @17 sketch_attrib_def 1 1 3 @13 140 0 0 0 1 1 #
coedge $-1 -1 $-1 $185 $121 $124 $153 forward $98 $-1 #
coedge $-1 -1 $-1 $121 $185 $182 $186 reversed $98 $-1 #
edge $-1 -1 $-1 $154 0 $187 1.367329739916719245 $129 $188 forward @7 unknown #
coedge $-1 -1 $-1 $124 $123 $174 $189 reversed $73 $-1 #
edge $-1 -1 $-1 $139 0 $190 1.309400000000000119 $136 $191 forward @7 tangent #
edge $-1 -1 $-1 $154 0 $192 1.309400000000000119 $148 $193 forward @7 tangent #
vertex $-1 -1 $-1 $125 $194 #
ellipse-curve $-1 -1 $-1 32.86267344787537326 -41.59289451004453042 0 0 0 1 -13.53050168622801053 4.796163466380676255e-13 0 1 F 0 F 3.109380475522196985 #
ATTRIB_CUSTOM-attrib $-1 -1 $-1 $-1 $129 @17 sketch_attrib_def 1 1 3 @13 140 0 0 0 1 1 #
coedge $195 -1 $-1 $196 $129 $146 $184 reversed $67 $-1 #
ATTRIB_CUSTOM-attrib $-1 -1 $-1 $-1 $131 @17 sketch_attrib_def 1 1 3 @13 103 0 1 0 1 1 #
coedge $197 -1 $-1 $131 $196 $198 $199 reversed $67 $-1 #
coedge $200 -1 $-1 $201 $202 $131 $161 forward $203 $-1 #
edge $-1 -1 $-1 $166 4.508967120881653929e-16 $204 7.134976809147905108 $131 $205 forward @7 unknown #
ATTRIB_CUSTOM-attrib $-1 -1 $-1 $-1 $132 @17 sketch_attrib_def 1 1 3 @13 134 0 1 0 1 1 #
coedge $-1 -1 $-1 $206 $132 $202 $207 forward $165 $-1 #
coedge $-1 -1 $-1 $132 $206 $135 $169 reversed $165 $-1 #
loop $-1 -1 $-1 $-1 $132 $208 #
vertex $-1 -1 $-1 $161 $209 #
ellipse-curve $-1 -1 $-1 -6.168969353289911695 -9.003936122047804247 0 0 0 1 25.50114111493746094 -19.71625777619985342 0 1 F 0 F 0.61847308158411618 #
coedge $-1 -1 $-1 $136 $135 $141 $175 reversed $137 $-1 #
edge $-1 -1 $-1 $138 0 $210 1.309400000000000119 $135 $211 forward @7 unknown #
face $212 -1 $-1 $68 $137 $5 $-1 $213 forward single #
point $-1 -1 $-1 19.33217176164755102 -28.72019389824766122 0 #
point $-1 -1 $-1 19.33217176164735918 -41.59289451004404725 0 #
coedge $-1 -1 $-1 $214 $141 $206 $215 forward $115 $-1 #
coedge $-1 -1 $-1 $141 $216 $151 $189 forward $115 $-1 #
edge $-1 -1 $-1 $190 -1.287270061179638603 $210 -0 $168 $217 forward @7 unknown #
DXID-attrib $-1 -1 $-1 $-1 $143 @10 ASM ENTITY @1 9 #
face $218 -1 $-1 $208 $203 $5 $-1 $219 forward single #
loop $-1 -1 $-1 $-1 $198 $143 #
plane-surface $-1 -1 $-1 28.8702991983426287 61.01090576833891532 0 0.0248201047034569168 0.999691933748847239 0 9.996919337488472834 -0.2482010470345691611 0 forward_v I I I I #
coedge $220 -1 $-1 $221 $222 $196 $223 forward $144 $-1 #
ATTRIB_CUSTOM-attrib $-1 -1 $-1 $-1 $146 @17 sketch_attrib_def 1 1 3 @13 118 0 1 0 1 1 #
coedge $-1 -1 $-1 $224 $146 $149 $186 forward $119 $-1 #
coedge $-1 -1 $-1 $146 $224 $221 $225 reversed $119 $-1 #
edge $-1 -1 $-1 $226 0 $187 0.619876158585132786 $157 $227 forward @7 unknown #
coedge $-1 -1 $-1 $149 $148 $216 $228 reversed $98 $-1 #
edge $-1 -1 $-1 $187 0 $229 1.309400000000000119 $182 $230 forward @7 unknown #
vertex $-1 -1 $-1 $150 $231 #
straight-curve $-1 -1 $-1 46.38615595161914484 -42.02866606938002292 0 0.3220660766618221316 9.994812326515372547 0 F 0 F 1.367329739916719245 #
edge $-1 -1 $-1 $192 -3.109380475522196985 $190 -0 $151 $232 forward @7 unknown #
vertex $-1 -1 $-1 $152 $233 #
straight-curve $-1 -1 $-1 19.33217176164735918 -41.59289451004404725 0 0 0 -10 I I #
vertex $-1 -1 $-1 $189 $234 #
straight-curve $-1 -1 $-1 46.38615595161914484 -42.02866606938002292 0 0 0 -10 I I #
point $-1 -1 $-1 46.38615595161914484 -42.02866606938002292 0 #
ATTRIB_CUSTOM-attrib $-1 -1 $-1 $-1 $157 @17 sketch_attrib_def 1 1 3 @13 118 0 1 0 1 1 #
coedge $235 -1 $-1 $159 $157 $180 $223 reversed $67 $-1 #
ATTRIB_CUSTOM-attrib $-1 -1 $-1 $-1 $159 @17 sketch_attrib_def 1 1 3 @13 113 0 1 0 1 1 #
coedge $236 -1 $-1 $237 $238 $159 $199 forward $178 $-1 #
edge $-1 -1 $-1 $204 0 $239 1.600027543357761539 $159 $240 forward @7 unknown #
ATTRIB_CUSTOM-attrib $-1 -1 $-1 $-1 $160 @17 sketch_attrib_def 1 1 3 @13 103 0 1 0 1 1 #
coedge $-1 -1 $-1 $241 $160 $238 $242 forward $203 $-1 #
coedge $-1 -1 $-1 $160 $241 $163 $207 reversed $203 $-1 #
loop $-1 -1 $-1 $-1 $160 $177 #
vertex $-1 -1 $-1 $199 $243 #
straight-curve $-1 -1 $-1 26.03978400909911173 -10.2826955607516517 0 0.3967097952742403844 9.992127968472654942 0 F 0 F 7.134976809147905996 #
coedge $-1 -1 $-1 $164 $163 $173 $215 reversed $165 $-1 #
edge $-1 -1 $-1 $166 0 $244 1.309400000000000119 $163 $245 forward @7 tangent #
face $246 -1 $-1 $170 $165 $5 $-1 $247 forward single #
point $-1 -1 $-1 26.03978400910274971 -10.28269556075179025 0 #
vertex $-1 -1 $-1 $215 $248 #
straight-curve $-1 -1 $-1 19.33217176164755102 -28.72019389824766122 0 0 0 -10 I I #
DXID-attrib $-1 -1 $-1 $-1 $170 @10 ASM ENTITY @2 12 #
plane-surface $-1 -1 $-1 19.33217176164735918 -41.59289451004404725 0 -1 1.466187398262952684e-14 0 1.466187398262952621e-13 10 0 forward_v I I I I #
coedge $-1 -1 $-1 $249 $173 $241 $250 forward $115 $-1 #
edge $-1 -1 $-1 $210 0 $244 0.61847308158411618 $206 $251 forward @7 unknown #
coedge $-1 -1 $-1 $174 $252 $185 $228 forward $115 $-1 #
straight-curve $-1 -1 $-1 19.33217176164755102 -28.72019389824766122 -13.09400000000000119 1.466187398262952621e-13 10 0 I I #
DXID-attrib $-1 -1 $-1 $-1 $177 @10 ASM ENTITY @2 10 #
plane-surface $-1 -1 $-1 26.03978400909911173 -10.28269556075164637 0 -0.9992127968472654942 0.03967097952742403705 0 0.3967097952742403844 9.992127968472654942 0 forward_v I I I I #
ATTRIB_CUSTOM-attrib $-1 -1 $-1 $-1 $180 @17 sketch_attrib_def 1 1 3 @13 115 0 1 0 1 1 #
coedge $-1 -1 $-1 $253 $180 $183 $225 forward $144 $-1 #
coedge $-1 -1 $-1 $180 $253 $237 $254 reversed $144 $-1 #
edge $-1 -1 $-1 $239 0 $226 7.203043451150834109 $196 $255 forward @7 unknown #
coedge $-1 -1 $-1 $183 $182 $252 $256 reversed $119 $-1 #
edge $-1 -1 $-1 $226 0 $257 1.309400000000000119 $221 $258 forward @7 tangent #
vertex $-1 -1 $-1 $184 $259 #
ellipse-curve $-1 -1 $-1 71.000404702797141 -12.47599088730610362 0 0 0 1 -28.90533496752329512 1.112637012604924314 0 1 F 0 F 0.619876158585132786 #
edge $-1 -1 $-1 $229 -1.367329739916719245 $192 -0 $185 $260 forward @7 unknown #
vertex $-1 -1 $-1 $228 $261 #
straight-curve $-1 -1 $-1 46.82652647645714694 -28.36246193044933861 0 0 0 -10 I I #
point $-1 -1 $-1 46.82652647645714694 -28.36246193044933861 0 #
ellipse-curve $-1 -1 $-1 32.86267344787537326 -41.59289451004453042 -13.09400000000000119 -0 -0 -1 -13.53050168622801053 4.796163466380676255e-13 0 1 I I #
point $-1 -1 $-1 19.33217176164735918 -41.59289451004404725 -13.09400000000000119 #
point $-1 -1 $-1 46.38615595161914484 -42.02866606938002292 -13.09400000000000119 #
ATTRIB_CUSTOM-attrib $-1 -1 $-1 $-1 $196 @17 sketch_attrib_def 1 1 3 @13 115 0 1 0 1 1 #
ATTRIB_CUSTOM-attrib $-1 -1 $-1 $-1 $198 @17 sketch_attrib_def 1 1 3 @13 113 0 1 0 1 1 #
coedge $-1 -1 $-1 $262 $198 $222 $254 forward $178 $-1 #
coedge $-1 -1 $-1 $198 $262 $201 $242 reversed $178 $-1 #
vertex $-1 -1 $-1 $223 $263 #
straight-curve $-1 -1 $-1 28.8702991983426287 61.01090576833891532 0 9.996919337488471058 -0.2482010470345691333 0 F 0 F 1.600027543357761539 #
coedge $-1 -1 $-1 $202 $201 $214 $250 reversed $203 $-1 #
edge $-1 -1 $-1 $204 0 $264 1.309400000000000119 $201 $265 forward @7 unknown #
point $-1 -1 $-1 28.8702991983426287 61.01090576833891532 0 #
vertex $-1 -1 $-1 $250 $266 #
straight-curve $-1 -1 $-1 26.03978400910274971 -10.28269556075179025 0 0 0 -10 I I #
DXID-attrib $-1 -1 $-1 $-1 $208 @10 ASM ENTITY @2 11 #
cone-surface $-1 -1 $-1 -6.168969353289911695 -9.003936122047804247 0 0 0 -1 25.50114111493746094 -19.71625777619985342 0 1 I I 0 -1 32.23412816971346473 forward I I I I #
point $-1 -1 $-1 19.33217176164755102 -28.72019389824766122 -13.09400000000000119 #
coedge $-1 -1 $-1 $267 $214 $262 $268 forward $115 $-1 #
edge $-1 -1 $-1 $244 4.508967120881653929e-16 $264 7.134976809147905108 $241 $269 forward @7 unknown #
ellipse-curve $-1 -1 $-1 -6.168969353289911695 -9.003936122047804247 -13.09400000000000119 0 0 1 25.50114111493746094 -19.71625777619985342 0 1 I I #
coedge $-1 -1 $-1 $216 $267 $224 $256 forward $115 $-1 #
coedge $-1 -1 $-1 $222 $221 $267 $270 reversed $144 $-1 #
edge $-1 -1 $-1 $239 0 $271 1.309400000000000119 $237 $272 forward @7 unknown #
straight-curve $-1 -1 $-1 44.86564548705000988 60.61377725679336947 0 -0.384639599992070369 -9.992599880817701674 0 F 0 F 7.203043451150834109 #
edge $-1 -1 $-1 $257 0 $229 0.619876158585132786 $224 $273 forward @7 unknown #
vertex $-1 -1 $-1 $256 $274 #
straight-curve $-1 -1 $-1 42.09506973527385298 -11.36335387470117908 0 0 0 -10 I I #
point $-1 -1 $-1 42.09506973527385298 -11.36335387470117908 0 #
straight-curve $-1 -1 $-1 46.38615595161914484 -42.02866606938002292 -13.09400000000000119 -0.3220660766618221316 -9.994812326515372547 -0 I I #
point $-1 -1 $-1 46.82652647645714694 -28.36246193044933861 -13.09400000000000119 #
coedge $-1 -1 $-1 $238 $237 $249 $268 reversed $178 $-1 #
point $-1 -1 $-1 44.86564548705000988 60.61377725679336947 0 #
vertex $-1 -1 $-1 $268 $275 #
straight-curve $-1 -1 $-1 28.8702991983426287 61.01090576833891532 0 0 0 -10 I I #
point $-1 -1 $-1 26.03978400910274971 -10.28269556075179025 -13.09400000000000119 #
coedge $-1 -1 $-1 $252 $249 $253 $270 forward $115 $-1 #
edge $-1 -1 $-1 $264 0 $271 1.600027543357761539 $262 $276 forward @7 unknown #
straight-curve $-1 -1 $-1 26.03978400909911173 -10.2826955607516517 -13.09400000000000119 0.3967097952742403844 9.992127968472654942 0 I I #
edge $-1 -1 $-1 $271 0 $257 7.203043451150834109 $253 $277 forward @7 unknown #
vertex $-1 -1 $-1 $270 $278 #
straight-curve $-1 -1 $-1 44.86564548705000988 60.61377725679336947 0 0 0 -10 I I #
ellipse-curve $-1 -1 $-1 71.000404702797141 -12.47599088730610362 -13.09400000000000119 0 0 1 -28.90533496752329512 1.112637012604924314 0 1 I I #
point $-1 -1 $-1 42.09506973527385298 -11.36335387470117908 -13.09400000000000119 #
point $-1 -1 $-1 28.8702991983426287 61.01090576833891532 -13.09400000000000119 #
straight-curve $-1 -1 $-1 28.8702991983426287 61.01090576833891532 -13.09400000000000119 9.996919337488471058 -0.2482010470345691333 0 I I #
straight-curve $-1 -1 $-1 44.86564548705000988 60.61377725679336947 -13.09400000000000119 -0.384639599992070369 -9.992599880817701674 0 I I #
point $-1 -1 $-1 44.86564548705000988 60.61377725679336947 -13.09400000000000119 #
End-of-ACIS-data 