700 0 1 0           
30 Autodesk Translation Framework 21 ASM 229.10.0.65535 NT 24 Sat May  4 12:38:04 2024 
1 9.999999999999999547e-07 1.000000000000000036e-10 
body $1 -1 $-1 $2 $-1 $3 #
rgb_color-st-attrib $-1 -1 $4 $-1 $0 0.627450980392156854 0.627450980392156854 0.627450980392156854 #
lump $-1 -1 $-1 $-1 $5 $0 #
transform $-1 -1 1 0 0 0 1 0 0 0 1 0 0 0 1 no_rotate no_reflect no_shear #
ATTRIB_CUSTOM-attrib $-1 -1 $-1 $1 $0 @20 Timestamp_attrib_def 1 1706781883898380 #
shell $-1 -1 $-1 $-1 $-1 $6 $-1 $2 #
face $7 -1 $-1 $8 $9 $5 $-1 $10 forward single #
DXID-attrib $-1 -1 $-1 $-1 $6 @10 ASM ENTITY @1 0 #
face $11 -1 $-1 $12 $13 $5 $-1 $14 forward single #
loop $-1 -1 $-1 $-1 $15 $6 #
plane-surface $-1 -1 $-1 -5.849999999999999645 5.850000000000001421 0 -1 0 0 -0 -10 -0 forward_v I I I I #
DXID-attrib $-1 -1 $-1 $-1 $8 @10 ASM ENTITY @1 1 #
face $16 -1 $-1 $17 $18 $5 $-1 $19 forward single #
loop $-1 -1 $-1 $-1 $20 $8 #
plane-surface $-1 -1 $-1 5.849999999999999645 5.850000000000000533 0 0 1 0 -10 -0 -0 forward_v I I I I #
coedge $21 -1 $-1 $22 $23 $24 $25 reversed $9 $-1 #
DXID-attrib $-1 -1 $-1 $-1 $12 @10 ASM ENTITY @1 2 #
face $26 -1 $-1 $27 $28 $5 $-1 $29 forward single #
loop $-1 -1 $-1 $-1 $30 $12 #
plane-surface $-1 -1 $-1 5.849999999999999645 -5.849999999999998757 0 1 0 0 0 10 0 forward_v I I I I #
coedge $31 -1 $-1 $32 $33 $34 $35 reversed $13 $-1 #
ATTRIB_CUSTOM-attrib $-1 -1 $-1 $-1 $15 @17 sketch_attrib_def 1 1 3 @13 108 0 1 0 1 1 #
coedge $-1 -1 $-1 $36 $15 $37 $38 forward $9 $-1 #
coedge $-1 -1 $-1 $15 $36 $32 $39 reversed $9 $-1 #
coedge $40 -1 $-1 $34 $41 $15 $25 forward $42 $-1 #
edge $-1 -1 $-1 $43 0 $44 1.169999999999999929 $15 $45 forward @7 unknown #
DXID-attrib $-1 -1 $-1 $-1 $17 @10 ASM ENTITY @1 3 #
face $46 -1 $-1 $47 $48 $5 $-1 $49 forward single #
loop $-1 -1 $-1 $-1 $50 $17 #
plane-surface $-1 -1 $-1 -5.849999999999999645 -5.849999999999997868 0 -1.897817136111378862e-16 -1 0 10 -1.897817136111379059e-15 0 forward_v I I I I #
coedge $51 -1 $-1 $52 $53 $54 $55 reversed $18 $-1 #
ATTRIB_CUSTOM-attrib $-1 -1 $-1 $-1 $20 @17 sketch_attrib_def 1 1 3 @13 105 0 1 0 1 1 #
coedge $-1 -1 $-1 $56 $20 $23 $39 forward $13 $-1 #
coedge $-1 -1 $-1 $20 $56 $52 $57 reversed $13 $-1 #
coedge $58 -1 $-1 $54 $24 $20 $35 forward $42 $-1 #
edge $-1 -1 $-1 $44 0 $59 1.169999999999999929 $20 $60 forward @7 unknown #
coedge $-1 -1 $-1 $23 $22 $61 $62 reversed $9 $-1 #
coedge $-1 -1 $-1 $50 $63 $22 $38 reversed $28 $-1 #
edge $-1 -1 $-1 $43 0 $64 2.573700000000000099 $37 $65 forward @7 unknown #
edge $-1 -1 $-1 $44 0 $66 2.573700000000000099 $32 $67 forward @7 unknown #
ATTRIB_CUSTOM-attrib $-1 -1 $-1 $-1 $24 @17 sketch_attrib_def 1 1 3 @13 108 0 1 0 1 1 #
coedge $68 -1 $-1 $24 $54 $50 $69 forward $42 $-1 #
loop $-1 -1 $-1 $-1 $41 $47 #
vertex $-1 -1 $-1 $25 $70 #
vertex $-1 -1 $-1 $25 $71 #
straight-curve $-1 -1 $-1 -5.849999999999999645 -5.849999999999997868 0 0 10 0 F 0 F 1.169999999999999929 #
DXID-attrib $-1 -1 $-1 $-1 $27 @10 ASM ENTITY @1 4 #
face $72 -1 $-1 $-1 $42 $5 $-1 $73 reversed single #
loop $-1 -1 $-1 $-1 $74 $27 #
plane-surface $-1 -1 $-1 0 1.11022302462515654e-15 25.73700000000000188 0 0 1 10 0 0 forward_v I I I I #
coedge $75 -1 $-1 $76 $37 $41 $69 reversed $28 $-1 #
ATTRIB_CUSTOM-attrib $-1 -1 $-1 $-1 $30 @17 sketch_attrib_def 1 1 3 @13 106 0 1 0 1 1 #
coedge $-1 -1 $-1 $77 $30 $33 $57 forward $18 $-1 #
coedge $-1 -1 $-1 $30 $77 $76 $78 reversed $18 $-1 #
coedge $79 -1 $-1 $41 $34 $30 $55 forward $42 $-1 #
edge $-1 -1 $-1 $59 0 $80 1.169999999999999929 $30 $81 forward @7 unknown #
coedge $-1 -1 $-1 $33 $32 $82 $83 reversed $13 $-1 #
edge $-1 -1 $-1 $59 0 $84 2.573700000000000099 $52 $85 forward @7 unknown #
ATTRIB_CUSTOM-attrib $-1 -1 $-1 $-1 $34 @17 sketch_attrib_def 1 1 3 @13 105 0 1 0 1 1 #
vertex $-1 -1 $-1 $35 $86 #
straight-curve $-1 -1 $-1 -5.849999999999999645 5.850000000000000533 0 10 0 0 F 0 F 1.169999999999999929 #
coedge $-1 -1 $-1 $74 $82 $36 $62 forward $48 $-1 #
edge $-1 -1 $-1 $66 -0.2925000000000000377 $64 0.8774999999999999467 $36 $87 forward @7 unknown #
coedge $-1 -1 $-1 $37 $76 $74 $88 reversed $28 $-1 #
vertex $-1 -1 $-1 $38 $89 #
straight-curve $-1 -1 $-1 -5.849999999999999645 -5.849999999999997868 0 0 0 10 I I #
vertex $-1 -1 $-1 $62 $90 #
straight-curve $-1 -1 $-1 -5.849999999999999645 5.850000000000001421 0 0 0 10 I I #
ATTRIB_CUSTOM-attrib $-1 -1 $-1 $-1 $41 @17 sketch_attrib_def 1 1 3 @13 107 0 1 0 1 1 #
edge $-1 -1 $-1 $80 0 $43 1.169999999999999929 $50 $91 forward @7 unknown #
point $-1 -1 $-1 -5.849999999999999645 -5.849999999999997868 0 #
point $-1 -1 $-1 -5.849999999999999645 5.850000000000001421 0 #
DXID-attrib $-1 -1 $-1 $-1 $47 @10 ASM ENTITY @1 5 #
plane-surface $-1 -1 $-1 0 1.11022302462515654e-15 0 0 0 1 10 0 0 forward_v I I I I #
coedge $-1 -1 $-1 $92 $61 $63 $88 forward $48 $-1 #
ATTRIB_CUSTOM-attrib $-1 -1 $-1 $-1 $50 @17 sketch_attrib_def 1 1 3 @13 107 0 1 0 1 1 #
coedge $-1 -1 $-1 $63 $50 $53 $78 forward $28 $-1 #
coedge $-1 -1 $-1 $53 $52 $92 $93 reversed $18 $-1 #
edge $-1 -1 $-1 $80 0 $94 2.573700000000000099 $76 $95 forward @7 unknown #
ATTRIB_CUSTOM-attrib $-1 -1 $-1 $-1 $54 @17 sketch_attrib_def 1 1 3 @13 106 0 1 0 1 1 #
vertex $-1 -1 $-1 $55 $96 #
straight-curve $-1 -1 $-1 5.849999999999999645 5.850000000000000533 0 0 -10 0 F 0 F 1.169999999999999929 #
coedge $-1 -1 $-1 $61 $92 $56 $83 forward $48 $-1 #
edge $-1 -1 $-1 $84 -0.2924999999999999822 $66 0.8774999999999999467 $56 $97 forward @7 unknown #
vertex $-1 -1 $-1 $83 $98 #
straight-curve $-1 -1 $-1 5.849999999999999645 5.850000000000000533 0 0 0 10 I I #
point $-1 -1 $-1 5.849999999999999645 5.850000000000000533 0 #
straight-curve $-1 -1 $-1 -5.849999999999999645 2.925000000000001599 25.73700000000000188 0 -10 0 F -9999.707501000000775 F 10000.2925009999999 #
edge $-1 -1 $-1 $64 -0.2924999999999999267 $94 0.8774999999999999467 $63 $99 forward @7 unknown #
point $-1 -1 $-1 -5.849999999999999645 -5.849999999999997868 25.73700000000000188 #
point $-1 -1 $-1 -5.849999999999999645 5.850000000000001421 25.73700000000000188 #
straight-curve $-1 -1 $-1 5.849999999999999645 -5.849999999999999645 0 -10 1.897817136111379059e-15 0 F 0 F 1.169999999999999929 #
coedge $-1 -1 $-1 $82 $74 $77 $93 forward $48 $-1 #
edge $-1 -1 $-1 $94 -0.2925000000000000933 $84 0.8774999999999999467 $77 $100 forward @7 unknown #
vertex $-1 -1 $-1 $93 $101 #
straight-curve $-1 -1 $-1 5.849999999999999645 -5.849999999999999645 0 0 0 10 I I #
point $-1 -1 $-1 5.849999999999999645 -5.849999999999999645 0 #
straight-curve $-1 -1 $-1 2.924999999999999822 5.850000000000000533 25.73700000000000188 -10 0 0 F -9999.707501000000775 F 10000.2925009999999 #
point $-1 -1 $-1 5.849999999999999645 5.850000000000000533 25.73700000000000188 #
straight-curve $-1 -1 $-1 -2.925000000000000266 -5.849999999999997868 25.73700000000000188 10 -1.897817136111379059e-15 0 F -9999.707501000000775 F 10000.2925009999999 #
straight-curve $-1 -1 $-1 5.849999999999999645 -2.924999999999998934 25.73700000000000188 0 10 0 F -9999.707501000000775 F 10000.2925009999999 #
point $-1 -1 $-1 5.849999999999999645 -5.849999999999999645 25.73700000000000188 #
End-of-ACIS-data 