700 0 1 0           
30 Autodesk Translation Framework 21 ASM 229.10.0.65535 NT 24 Sat May  4 12:37:46 2024 
1 9.999999999999999547e-07 1.000000000000000036e-10 
body $1 -1 $-1 $2 $-1 $3 #
rgb_color-st-attrib $-1 -1 $4 $-1 $0 0.627450980392156854 0.627450980392156854 0.627450980392156854 #
lump $-1 -1 $-1 $-1 $5 $0 #
transform $-1 -1 1 0 0 0 1 0 0 0 1 0 0 0 1 no_rotate no_reflect no_shear #
ATTRIB_CUSTOM-attrib $-1 -1 $-1 $1 $0 @20 Timestamp_attrib_def 1 1706660806168447 #
shell $-1 -1 $-1 $-1 $-1 $6 $-1 $2 #
face $7 -1 $-1 $8 $9 $5 $-1 $10 forward single #
DXID-attrib $-1 -1 $-1 $-1 $6 @10 ASM ENTITY @1 0 #
face $11 -1 $-1 $12 $13 $5 $-1 $14 forward single #
loop $-1 -1 $-1 $-1 $15 $6 #
cone-surface $-1 -1 $-1 -5.33748156576563737 -0.5541761375120934918 15.83274371729816465 0.120823805443743465 0.3977479134204948141 0.9095043734956611559 -2.476443340624358669 -2.288892234440897067 1.329972074817147298 1 I I 0 1 3.625000000000000444 forward I I I I #
DXID-attrib $-1 -1 $-1 $-1 $8 @10 ASM ENTITY @1 1 #
face $16 -1 $-1 $17 $18 $5 $-1 $19 forward single #
loop $-1 -1 $-1 $-1 $20 $8 #
plane-surface $-1 -1 $-1 11.00000000000000355 -11 0 -0 -1 -0 -10 0 0 forward_v I I I I #
coedge $-1 -1 $-1 $21 $22 $23 $24 forward $9 $-1 #
DXID-attrib $-1 -1 $-1 $-1 $12 @10 ASM ENTITY @1 2 #
face $25 -1 $-1 $26 $27 $5 $-1 $28 forward single #
loop $-1 -1 $-1 $-1 $29 $12 #
plane-surface $-1 -1 $-1 -11.00000000000000533 -11 0 -1 0 0 0 10 0 forward_v I I I I #
coedge $-1 -1 $-1 $30 $31 $32 $33 reversed $13 $-1 #
coedge $-1 -1 $-1 $34 $15 $35 $36 forward $9 $-1 #
coedge $-1 -1 $-1 $15 $32 $37 $38 forward $9 $-1 #
coedge $-1 -1 $-1 $39 $40 $15 $24 reversed $41 $-1 #
edge $-1 -1 $-1 $42 -0.2695557940411517639 $43 1.248450499333379371 $23 $44 forward @7 unknown #
DXID-attrib $-1 -1 $-1 $-1 $17 @10 ASM ENTITY @1 3 #
face $45 -1 $-1 $46 $47 $5 $-1 $48 forward single #
loop $-1 -1 $-1 $-1 $35 $17 #
plane-surface $-1 -1 $-1 -8.956500000000005457 -2.220446049250305192e-15 16.11750000000000327 -0.9912911040744661895 6.487956307215051805e-32 0.1316888263400729231 1.316888263400729286 0 9.912911040744662117 forward_v I I I I #
coedge $-1 -1 $-1 $49 $50 $34 $51 reversed $18 $-1 #
coedge $-1 -1 $-1 $52 $20 $50 $53 forward $13 $-1 #
coedge $-1 -1 $-1 $20 $54 $55 $56 reversed $13 $-1 #
coedge $-1 -1 $-1 $22 $34 $20 $33 forward $9 $-1 #
edge $-1 -1 $-1 $57 5.243899051149851331 $58 6.230395273759220309 $20 $59 forward @7 unknown #
coedge $-1 -1 $-1 $32 $21 $29 $51 forward $9 $-1 #
coedge $-1 -1 $-1 $60 $61 $21 $36 reversed $27 $-1 #
edge $-1 -1 $-1 $43 -1.670127679412587662 $62 1.71248387216856357 $35 $63 forward @7 tangent #
coedge $-1 -1 $-1 $55 $64 $22 $38 reversed $65 $-1 #
edge $-1 -1 $-1 $58 -1.79121962145653435 $42 1.562914881795037347 $37 $66 forward @7 tangent #
coedge $-1 -1 $-1 $67 $23 $64 $68 reversed $41 $-1 #
coedge $-1 -1 $-1 $23 $69 $60 $70 reversed $41 $-1 #
loop $-1 -1 $-1 $-1 $23 $71 #
vertex $-1 -1 $-1 $24 $72 #
vertex $-1 -1 $-1 $24 $73 #
ellipse-curve $-1 -1 $-1 -3.256152899183402116 6.297487996347649108 31.50000000000001421 1.183361653159113661e-15 -4.926732576734011426e-31 -1 -1.158461499575723419 -3.813616385793753061 -1.569484180207961535e-15 0.9095043734956608228 I I #
DXID-attrib $-1 -1 $-1 $-1 $26 @10 ASM ENTITY @1 4 #
face $74 -1 $-1 $75 $76 $5 $-1 $77 forward single #
loop $-1 -1 $-1 $-1 $78 $26 #
cone-surface $-1 -1 $-1 5.126064677799808678 0.1418011638270372243 17.42418990234063969 0.1208238054437435899 -0.3977479134204948696 -0.9095043734956610448 2.476443340624358669 -2.288892234440898399 1.329972074817145078 1 I I 0 1 3.625000000000000888 forward I I I I #
coedge $-1 -1 $-1 $79 $29 $61 $80 reversed $18 $-1 #
coedge $-1 -1 $-1 $29 $81 $30 $53 reversed $18 $-1 #
edge $-1 -1 $-1 $62 0.05279003342036565211 $57 0.5843001041855266919 $29 $82 forward @7 unknown #
coedge $-1 -1 $-1 $83 $30 $84 $85 reversed $13 $-1 #
edge $-1 -1 $-1 $57 0.3062552465754986297 $86 1.169999999999999929 $30 $87 forward @7 unknown #
coedge $-1 -1 $-1 $31 $83 $88 $89 reversed $13 $-1 #
coedge $-1 -1 $-1 $90 $37 $31 $56 forward $65 $-1 #
edge $-1 -1 $-1 $58 -1.112531290139816997 $91 0.3878089651130702253 $31 $92 forward @7 unknown #
vertex $-1 -1 $-1 $51 $93 #
vertex $-1 -1 $-1 $33 $94 #
ellipse-curve $-1 -1 $-1 -8.510607426331922909 -11 -8.053044660563774215 0 1 0 1.200187303001867933 -2.013729194814144748e-16 9.03444149176718625 0.3977479134204948141 F 3.088802620169428081 F 9.371987927349014313 #
coedge $-1 -1 $-1 $95 $35 $40 $70 forward $27 $-1 #
coedge $-1 -1 $-1 $35 $95 $49 $80 forward $27 $-1 #
vertex $-1 -1 $-1 $36 $96 #
straight-curve $-1 -1 $-1 -8.930911818035575322 -0.5541761375120934918 16.31011571278093086 -1.208238054437434261 -3.977479134204947364 -9.095043734956609782 F -2.886041426019664513 F 2.794946474797020741 #
coedge $-1 -1 $-1 $37 $90 $39 $68 forward $65 $-1 #
loop $-1 -1 $-1 $-1 $37 $75 #
straight-curve $-1 -1 $-1 -5.337481565765639147 -3.875461330878151589 17.28522079605960826 1.208238054437434483 3.977479134204947364 9.095043734956609782 F -2.794946474797020741 F 2.886041426019664513 #
coedge $-1 -1 $-1 $97 $39 $98 $99 reversed $41 $-1 #
edge $-1 -1 $-1 $100 0.01745032953994141156 $42 0.7072719954867984216 $39 $101 forward @7 unknown #
coedge $-1 -1 $-1 $40 $102 $103 $104 reversed $41 $-1 #
edge $-1 -1 $-1 $43 0.6088721858809607035 $105 1.100000000000000089 $40 $106 forward @7 unknown #
face $107 -1 $-1 $108 $41 $5 $-1 $109 forward single #
point $-1 -1 $-1 -3.449108329734290379 2.340999999999999748 31.50000000000001421 #
point $-1 -1 $-1 -6.913000000000004697 6.08872185880960437 31.50000000000000711 #
DXID-attrib $-1 -1 $-1 $-1 $46 @10 ASM ENTITY @1 5 #
face $110 -1 $-1 $111 $65 $5 $-1 $112 forward single #
loop $-1 -1 $-1 $-1 $113 $46 #
plane-surface $-1 -1 $-1 11 10.99999999999999467 0 1 1.009293658750142646e-16 0 1.009293658750142596e-15 -10 0 forward_v I I I I #
coedge $-1 -1 $-1 $114 $88 $113 $115 forward $47 $-1 #
coedge $-1 -1 $-1 $81 $49 $116 $117 reversed $18 $-1 #
edge $-1 -1 $-1 $118 -1.100000000000000311 $62 0.7365545006725044974 $49 $119 forward @7 unknown #
coedge $-1 -1 $-1 $50 $79 $120 $121 reversed $18 $-1 #
ellipse-curve $-1 -1 $-1 -11.00000000000000533 -19.19499682388316586 -26.79201273712324394 1 0 0 0 12.02144787136115056 27.48866567451790033 0.1208238054437434789 F -3.088802620169428081 F 3.194382687010158151 #
coedge $-1 -1 $-1 $54 $52 $122 $123 forward $13 $-1 #
coedge $-1 -1 $-1 $120 $124 $52 $85 forward $125 $-1 #
edge $-1 -1 $-1 $126 0 $86 2.200000000000001066 $52 $127 forward @7 unknown #
vertex $-1 -1 $-1 $53 $128 #
straight-curve $-1 -1 $-1 -11.00000000000000533 -11 0 0 0 -10 I I #
coedge $-1 -1 $-1 $78 $129 $54 $89 forward $47 $-1 #
edge $-1 -1 $-1 $91 0.05279003342036480556 $130 1.039286256029735123 $54 $131 forward @7 unknown #
coedge $-1 -1 $-1 $64 $55 $129 $132 reversed $65 $-1 #
vertex $-1 -1 $-1 $89 $133 #
straight-curve $-1 -1 $-1 3.623611625133729586 -11 0.9940000000000192015 10 0 1.183361653159113622e-14 F -10.91922216251337296 F 10.19449983748662625 #
point $-1 -1 $-1 -11.00000000000000533 -11 -3.062552465754986297 #
point $-1 -1 $-1 -7.501701276264441276 -11 0.9940000000000059899 #
coedge $-1 -1 $-1 $61 $60 $134 $135 forward $27 $-1 #
point $-1 -1 $-1 -11.00000000000000533 -7.365545006725047195 0.7350000000000018741 #
coedge $-1 -1 $-1 $136 $67 $137 $138 reversed $41 $-1 #
coedge $-1 -1 $-1 $129 $114 $67 $99 forward $47 $-1 #
edge $-1 -1 $-1 $139 -1.248450499333385366 $100 0.2695557940411468789 $67 $140 forward @7 unknown #
vertex $-1 -1 $-1 $99 $141 #
straight-curve $-1 -1 $-1 3.623611625133693614 2.340999999999999748 31.50000000000002132 -10 0 -1.183361653159113622e-14 F -10.19449983748662625 F 10.91922216251337296 #
coedge $-1 -1 $-1 $69 $142 $143 $144 reversed $41 $-1 #
coedge $-1 -1 $-1 $145 $134 $69 $104 forward $146 $-1 #
edge $-1 -1 $-1 $105 -1.241299999999998738 $147 -0.9252776749732560813 $103 $148 forward @7 unknown #
vertex $-1 -1 $-1 $70 $149 #
straight-curve $-1 -1 $-1 -6.913000000000004697 -2.220446049250297698e-15 31.50000000000000711 0 10 -4.926732576734011251e-30 F -10.63715100000000113 F 10.63715100000000113 #
DXID-attrib $-1 -1 $-1 $-1 $71 @10 ASM ENTITY @1 8 #
face $150 -1 $-1 $151 $152 $5 $-1 $153 forward single #
plane-surface $-1 -1 $-1 -3.752776749732578132 10.99999999999999645 31.50000000000001421 -1.183361653159113661e-15 4.926732576734011426e-31 1 10 -4.03717463500056723e-15 1.183361653159113622e-14 forward_v I I I I #
DXID-attrib $-1 -1 $-1 $-1 $75 @10 ASM ENTITY @1 6 #
face $154 -1 $-1 $71 $155 $5 $-1 $156 forward single #
plane-surface $-1 -1 $-1 3.623611625133711378 -4.329500000000000348 16.2470000000000212 -4.741532902341688462e-16 -0.9162166050664991568 0.4006833320721223668 0 -4.006833320721224112 -9.162166050664991346 forward_v I I I I #
coedge $-1 -1 $-1 $122 $157 $78 $115 reversed $76 $-1 #
coedge $-1 -1 $-1 $98 $78 $158 $159 forward $47 $-1 #
edge $-1 -1 $-1 $130 5.69888520299405954 $160 6.230395273759220309 $113 $161 forward @7 unknown #
coedge $-1 -1 $-1 $134 $162 $79 $117 forward $146 $-1 #
edge $-1 -1 $-1 $163 -1.169999999999999929 $118 0.07350000000000019018 $116 $164 forward @7 unknown #
vertex $-1 -1 $-1 $80 $165 #
straight-curve $-1 -1 $-1 -11.00000000000000533 -2.220446049250312686e-15 0.7350000000000018741 0 -10 4.926732576734011251e-30 F -10.63715100000000113 F 10.63715100000000113 #
coedge $-1 -1 $-1 $166 $84 $81 $121 forward $125 $-1 #
edge $-1 -1 $-1 $86 0 $163 2.200000000000000178 $81 $167 forward @7 unknown #
coedge $-1 -1 $-1 $168 $113 $83 $123 reversed $76 $-1 #
edge $-1 -1 $-1 $126 -1.169999999999999929 $130 -0.3062552465754970754 $83 $169 forward @7 unknown #
coedge $-1 -1 $-1 $84 $166 $168 $170 forward $125 $-1 #
loop $-1 -1 $-1 $-1 $84 $171 #
vertex $-1 -1 $-1 $85 $172 #
straight-curve $-1 -1 $-1 11.00000000000000355 -11 -11.69999999999999929 -10 0 0 I I #
point $-1 -1 $-1 -11.00000000000000533 -11 -11.69999999999999929 #
coedge $-1 -1 $-1 $88 $98 $90 $132 forward $47 $-1 #
vertex $-1 -1 $-1 $123 $173 #
ellipse-curve $-1 -1 $-1 8.510607426331919356 -11 -8.053044660563754675 0 1 0 -1.200187303001870376 -1.910134683079210799e-16 9.034441491767182697 0.3977479134204948696 F -3.088802620169428081 F 3.194382687010158151 #
edge $-1 -1 $-1 $100 -1.387935384013649243 $91 1.966199119237921122 $90 $174 forward @7 tangent #
point $-1 -1 $-1 7.501701276264432394 -11 0.9940000000000237534 #
coedge $-1 -1 $-1 $103 $116 $95 $135 reversed $146 $-1 #
edge $-1 -1 $-1 $105 -2.36407617683244986 $118 0.7394521281778341226 $134 $175 forward @7 unknown #
coedge $-1 -1 $-1 $176 $97 $177 $178 reversed $41 $-1 #
coedge $-1 -1 $-1 $158 $179 $97 $138 forward $155 $-1 #
edge $-1 -1 $-1 $180 -2.718310904936944731e-46 $139 0.4911278141190387192 $97 $181 forward @7 unknown #
vertex $-1 -1 $-1 $159 $182 #
ellipse-curve $-1 -1 $-1 3.256152899183395011 6.297487996347649997 31.50000000000002132 1.183361653159113661e-15 -4.926732576734011426e-31 -1 1.158461499575702103 -3.813616385793758834 1.259270682898162874e-15 0.9095043734956612669 I I #
point $-1 -1 $-1 3.449108329734279721 2.340999999999999748 31.50000000000002132 #
coedge $-1 -1 $-1 $102 $176 $183 $184 reversed $41 $-1 #
coedge $-1 -1 $-1 $185 $186 $102 $144 forward $152 $-1 #
edge $-1 -1 $-1 $147 0 $187 1.200000000000000178 $102 $188 forward @7 unknown #
coedge $-1 -1 $-1 $189 $103 $186 $190 reversed $146 $-1 #
loop $-1 -1 $-1 $-1 $134 $191 #
vertex $-1 -1 $-1 $144 $192 #
straight-curve $-1 -1 $-1 5.499999999999982236 10.99999999999999645 31.50000000000002132 10 -2.018587317500284009e-15 1.183361653159113622e-14 I I #
point $-1 -1 $-1 -6.913000000000004697 10.99999999999999822 31.50000000000000711 #
DXID-attrib $-1 -1 $-1 $-1 $108 @10 ASM ENTITY @1 9 #
face $193 -1 $-1 $194 $195 $5 $-1 $196 forward single #
loop $-1 -1 $-1 $-1 $186 $108 #
plane-surface $-1 -1 $-1 -7.505553499465142941 10.99999999999999822 25 -0.8660254037844392627 3.605555036969184436e-16 0.4999999999999990008 4.99999999999999023 -2.548874936862733547e-15 8.660254037844392627 forward_v I I I I #
DXID-attrib $-1 -1 $-1 $-1 $111 @10 ASM ENTITY @1 7 #
loop $-1 -1 $-1 $-1 $158 $111 #
plane-surface $-1 -1 $-1 8.956500000000000128 10.99999999999999645 16.11750000000002814 0.9912911040744661895 1.000503825317787304e-16 0.1316888263400730341 1.316888263400730397 0 -9.912911040744662117 forward_v I I I I #
coedge $-1 -1 $-1 $113 $197 $198 $199 reversed $76 $-1 #
coedge $-1 -1 $-1 $198 $137 $114 $159 reversed $155 $-1 #
edge $-1 -1 $-1 $160 -1.887463369949949454 $139 1.495148181631200668 $158 $200 forward @7 tangent #
vertex $-1 -1 $-1 $115 $201 #
ellipse-curve $-1 -1 $-1 11.00000000000000355 -19.19499682388316231 -26.79201273712321196 -1 -1.009293658750142646e-16 -0 -9.757862438865921647e-16 12.02144787136114701 27.48866567451788256 0.120823805443743576 F 3.088802620169428081 F 9.371987927349014313 #
coedge $-1 -1 $-1 $116 $202 $166 $203 reversed $146 $-1 #
vertex $-1 -1 $-1 $117 $204 #
straight-curve $-1 -1 $-1 -11.00000000000000533 11 0 0 0 10 I I #
point $-1 -1 $-1 -11.00000000000000533 11 0.7350000000000018741 #
coedge $-1 -1 $-1 $124 $120 $162 $203 forward $125 $-1 #
straight-curve $-1 -1 $-1 -11.00000000000000533 -11 -11.69999999999999929 0 10 0 I I #
coedge $-1 -1 $-1 $197 $122 $124 $170 reversed $76 $-1 #
straight-curve $-1 -1 $-1 11.00000000000000355 -11 0 0 0 10 I I #
edge $-1 -1 $-1 $205 0 $126 2.199999999999999289 $168 $206 forward @7 unknown #
face $207 -1 $-1 $-1 $208 $5 $-1 $209 forward single #
point $-1 -1 $-1 11.00000000000000355 -11 -11.69999999999999929 #
point $-1 -1 $-1 11.00000000000000355 -11 -3.062552465754970754 #
straight-curve $-1 -1 $-1 5.126064677799806901 -3.179484029539020984 18.8766669811020833 1.208238054437435816 -3.977479134204948696 -9.095043734956609782 F -2.711061928238277297 F 2.96992597257840707 #
straight-curve $-1 -1 $-1 -10.02622417105592412 10.99999999999999822 8.065123165516190795 -1.316888263400729286 2.658253947065685562e-16 -9.912911040744662117 I I #
coedge $-1 -1 $-1 $142 $136 $210 $211 forward $41 $-1 #
coedge $-1 -1 $-1 $212 $213 $136 $178 forward $146 $-1 #
edge $-1 -1 $-1 $214 -0.1747223250267408989 $180 0.1413000000000015355 $177 $148 forward @7 unknown #
coedge $-1 -1 $-1 $137 $198 $212 $215 forward $155 $-1 #
vertex $-1 -1 $-1 $215 $216 #
straight-curve $-1 -1 $-1 6.912999999999998479 10.99999999999999645 31.50000000000002487 1.009293658750142596e-15 -10 6.121091989275590034e-30 F -9.537150999999997936 F 11.737150999999999 #
point $-1 -1 $-1 6.912999999999998479 6.088721858809609699 31.50000000000002487 #
coedge $-1 -1 $-1 $217 $218 $142 $184 forward $219 $-1 #
edge $-1 -1 $-1 $187 0 $220 0.7505553499465151823 $142 $221 forward @7 unknown #
coedge $-1 -1 $-1 $222 $143 $218 $223 reversed $152 $-1 #
coedge $224 -1 $-1 $143 $222 $145 $190 forward $152 $-1 #
vertex $-1 -1 $-1 $184 $225 #
straight-curve $-1 -1 $-1 -3.752776749732578132 10.99999999999999645 31.50000000000001421 4.163336342344336238e-15 10 0 I I #
coedge $-1 -1 $-1 $226 $145 $227 $228 reversed $146 $-1 #
edge $-1 -1 $-1 $229 0 $147 0.7505553499465145162 $186 $230 forward @7 unknown #
face $231 -1 $-1 $171 $146 $5 $-1 $232 forward single #
point $-1 -1 $-1 -3.752776749732578132 10.99999999999999645 31.50000000000001421 #
DXID-attrib $-1 -1 $-1 $-1 $151 @10 ASM ENTITY @2 10 #
face $233 -1 $-1 $234 $235 $5 $-1 $236 forward single #
loop $-1 -1 $-1 $-1 $227 $151 #
plane-surface $-1 -1 $-1 -3.752776749732565698 10.99999999999999645 18.5 -0.8660254037844381525 3.605555036969179999e-16 -0.5000000000000008882 -5.000000000000008882 1.488299698137834077e-15 8.660254037844381969 forward_v I I I I #
coedge $-1 -1 $-1 $157 $168 $202 $237 forward $76 $-1 #
coedge $-1 -1 $-1 $179 $158 $157 $199 forward $155 $-1 #
edge $-1 -1 $-1 $160 -1.83655450067250392 $238 -2.220446049250313081e-16 $157 $239 forward @7 unknown #
straight-curve $-1 -1 $-1 8.719494930069750183 0.1418011638270375852 17.9015618978234059 -1.208238054437435816 3.977479134204948696 9.095043734956609782 F -2.96992597257840707 F 2.711061928238277297 #
point $-1 -1 $-1 11.00000000000000355 -7.365545006725042754 0.7350000000000271871 #
coedge $-1 -1 $-1 $162 $212 $197 $237 reversed $146 $-1 #
edge $-1 -1 $-1 $163 0 $205 2.200000000000000622 $162 $240 forward @7 unknown #
point $-1 -1 $-1 -11.00000000000000533 11 -11.69999999999999929 #
vertex $-1 -1 $-1 $170 $241 #
straight-curve $-1 -1 $-1 11 10.99999999999999467 -11.69999999999999929 1.009293658750142596e-15 -10 0 I I #
DXID-attrib $-1 -1 $-1 $-1 $171 @10 ASM ENTITY @2 21 #
loop $-1 -1 $-1 $125 $242 $171 #
plane-surface $-1 -1 $-1 -2.220446049250313081e-15 0 -11.69999999999999929 0 0 -1 -10 0 0 forward_v I I I I #
coedge $-1 -1 $-1 $243 $244 $176 $211 reversed $245 $-1 #
edge $-1 -1 $-1 $214 0 $220 1.200000000000000178 $176 $246 forward @7 unknown #
coedge $-1 -1 $-1 $202 $177 $179 $215 reversed $146 $-1 #
coedge $-1 -1 $-1 $177 $247 $243 $248 reversed $146 $-1 #
vertex $-1 -1 $-1 $178 $249 #
edge $-1 -1 $-1 $238 -0.8843098371519132472 $180 2.21921846785836907 $212 $250 forward @7 unknown #
point $-1 -1 $-1 6.912999999999998479 10.99999999999999645 31.50000000000002132 #
coedge $-1 -1 $-1 $251 $183 $244 $252 forward $219 $-1 #
coedge $-1 -1 $-1 $183 $253 $185 $223 forward $219 $-1 #
loop $-1 -1 $-1 $-1 $183 $254 #
vertex $-1 -1 $-1 $211 $255 #
straight-curve $-1 -1 $-1 -3.752776749732573247 23 31.50000000000001421 10 -4.03717463500056723e-15 1.183361653159113622e-14 I I #
coedge $-1 -1 $-1 $186 $185 $256 $257 reversed $152 $-1 #
edge $-1 -1 $-1 $258 0 $187 0.7505553499465145162 $185 $259 forward @7 unknown #
ATTRIB_CUSTOM-attrib $-1 -1 $-1 $-1 $186 @17 sketch_attrib_def 1 1 3 @13 136 0 0 0 1 1 #
point $-1 -1 $-1 -3.752776749732573247 23 31.50000000000001421 #
coedge $-1 -1 $-1 $247 $189 $260 $261 reversed $146 $-1 #
coedge $262 -1 $-1 $256 $263 $189 $228 forward $195 $-1 #
edge $-1 -1 $-1 $264 0 $229 0.7505553499465140721 $227 $265 forward @7 unknown #
vertex $-1 -1 $-1 $190 $266 #
straight-curve $-1 -1 $-1 -7.505553499465142941 10.99999999999999822 25 4.999999999999989342 -2.548874936862733153e-15 8.660254037844390851 F 0 F 0.7505553499465145162 #
DXID-attrib $-1 -1 $-1 $-1 $191 @10 ASM ENTITY @2 20 #
plane-surface $-1 -1 $-1 -11.00000000000000533 10.99999999999999822 0 2.018587317500284059e-16 1 0 10 -2.018587317500284009e-15 0 forward_v I I I I #
DXID-attrib $-1 -1 $-1 $-1 $194 @10 ASM ENTITY @2 11 #
face $267 -1 $-1 $268 $269 $5 $-1 $270 forward single #
loop $-1 -1 $-1 $-1 $260 $194 #
plane-surface $-1 -1 $-1 3.752776749732582129 10.99999999999999467 18.50000000000000355 5.916808265795571264e-16 -2.463366288367007027e-31 -1 -10 4.03717463500056723e-15 -5.916808265795571264e-15 forward_v I I I I #
edge $-1 -1 $-1 $205 -1.169999999999999929 $238 0.07350000000000271594 $197 $271 forward @7 unknown #
vertex $-1 -1 $-1 $237 $272 #
straight-curve $-1 -1 $-1 11 10.99999999999999645 0.7350000000000271871 -1.009293658750142596e-15 10 -6.121091989275590034e-30 F -11.737150999999999 F 9.537150999999997936 #
straight-curve $-1 -1 $-1 -11.00000000000000533 10.99999999999999822 -11.69999999999999929 10 -2.018587317500284009e-15 0 I I #
point $-1 -1 $-1 11 10.99999999999999467 -11.69999999999999929 #
coedge $-1 -1 $-1 $273 $274 $275 $276 forward $208 $-1 #
coedge $277 -1 $-1 $278 $210 $213 $248 forward $245 $-1 #
coedge $-1 -1 $-1 $210 $278 $217 $252 reversed $245 $-1 #
loop $-1 -1 $-1 $-1 $243 $268 #
straight-curve $-1 -1 $-1 3.752776749732573691 10.99999999999999289 31.50000000000002132 4.163336342344336238e-15 10 0 I I #
coedge $-1 -1 $-1 $213 $226 $279 $280 reversed $146 $-1 #
edge $-1 -1 $-1 $214 0 $281 0.7505553499465142941 $243 $282 forward @7 unknown #
point $-1 -1 $-1 3.752776749732573691 10.99999999999999289 31.50000000000002132 #
straight-curve $-1 -1 $-1 9.835462754244836958 10.99999999999999467 9.501084748142341496 -1.316888263400730397 2.658253947065687535e-16 9.912911040744662117 I I #
coedge $-1 -1 $-1 $283 $217 $284 $285 forward $219 $-1 #
edge $-1 -1 $-1 $220 0 $286 0.7505553499465142941 $244 $287 forward @7 unknown #
coedge $-1 -1 $-1 $218 $283 $288 $289 forward $219 $-1 #
face $290 -1 $-1 $291 $219 $5 $-1 $292 forward single #
point $-1 -1 $-1 3.752776749732578576 22.99999999999999289 31.50000000000002132 #
coedge $-1 -1 $-1 $288 $227 $222 $257 forward $195 $-1 #
edge $-1 -1 $-1 $229 0 $258 1.199999999999999956 $256 $293 forward @7 unknown #
vertex $-1 -1 $-1 $223 $294 #
straight-curve $-1 -1 $-1 -7.505553499465138501 23 25 4.999999999999989342 -2.548874936862733153e-15 8.660254037844390851 I I #
coedge $295 -1 $-1 $296 $297 $226 $261 forward $235 $-1 #
edge $-1 -1 $-1 $298 0 $264 0.7505553499465147382 $260 $299 forward @7 unknown #
ATTRIB_CUSTOM-attrib $-1 -1 $-1 $-1 $227 @17 sketch_attrib_def 1 1 3 @13 135 0 0 0 1 1 #
coedge $-1 -1 $-1 $227 $288 $296 $300 reversed $195 $-1 #
vertex $-1 -1 $-1 $228 $301 #
straight-curve $-1 -1 $-1 -3.752776749732565698 10.99999999999999645 18.5 -5.000000000000008882 1.488299698137834077e-15 8.660254037844381969 F 0 F 0.7505553499465140721 #
point $-1 -1 $-1 -7.505553499465142941 10.99999999999999822 25 #
DXID-attrib $-1 -1 $-1 $-1 $234 @10 ASM ENTITY @2 12 #
face $302 -1 $-1 $254 $245 $5 $-1 $303 forward single #
loop $-1 -1 $-1 $-1 $279 $234 #
plane-surface $-1 -1 $-1 7.505553499465150935 10.99999999999999289 25.00000000000001776 0.8660254037844390407 -3.60555503696918345e-16 -0.4999999999999992784 -4.999999999999992895 2.548874936862734336e-15 -8.660254037844390851 forward_v I I I I #
straight-curve $-1 -1 $-1 11 10.99999999999999467 0 0 0 10 I I #
point $-1 -1 $-1 11 10.99999999999999467 0.7350000000000271871 #
coedge $-1 -1 $-1 $304 $242 $305 $306 forward $208 $-1 #
coedge $-1 -1 $-1 $242 $304 $307 $308 forward $208 $-1 #
coedge $-1 -1 $-1 $309 $310 $242 $276 reversed $311 $-1 #
edge $-1 -1 $-1 $312 0 $313 1.199999999999999956 $275 $314 forward @7 unknown #
ATTRIB_CUSTOM-attrib $-1 -1 $-1 $-1 $243 @17 sketch_attrib_def 1 1 3 @13 132 0 0 0 1 1 #
coedge $-1 -1 $-1 $244 $243 $315 $316 forward $245 $-1 #
coedge $317 -1 $-1 $318 $315 $247 $280 forward $269 $-1 #
edge $-1 -1 $-1 $281 0 $298 0.7505553499465147382 $279 $319 forward @7 unknown #
vertex $-1 -1 $-1 $280 $320 #
straight-curve $-1 -1 $-1 3.752776749732573691 10.99999999999999289 31.50000000000002132 5.000000000000007994 -1.488299698137833683e-15 -8.660254037844381969 F 0 F 0.7505553499465142941 #
coedge $-1 -1 $-1 $253 $251 $321 $322 forward $219 $-1 #
coedge $-1 -1 $-1 $315 $318 $251 $285 reversed $269 $-1 #
edge $-1 -1 $-1 $286 0 $323 0.7505553499465147382 $284 $324 forward @7 unknown #
vertex $-1 -1 $-1 $285 $325 #
straight-curve $-1 -1 $-1 3.752776749732578576 22.99999999999999289 31.50000000000002132 5.000000000000007994 -1.488299698137833683e-15 -8.660254037844381969 I I #
coedge $-1 -1 $-1 $263 $256 $253 $289 reversed $195 $-1 #
edge $-1 -1 $-1 $326 0 $258 0.7505553499465140721 $288 $327 forward @7 unknown #
DXID-attrib $-1 -1 $-1 $-1 $254 @10 ASM ENTITY @2 14 #
face $328 -1 $-1 $329 $330 $5 $-1 $331 reversed single #
plane-surface $-1 -1 $-1 9.436895709313830594e-15 23 25.00000000000000711 4.163336342344336534e-16 1 0 0 0 10 forward_v I I I I #
straight-curve $-1 -1 $-1 -7.505553499465142941 10.99999999999999822 25 4.163336342344336238e-15 10 0 I I #
point $-1 -1 $-1 -7.505553499465138501 23 25 #
ATTRIB_CUSTOM-attrib $-1 -1 $-1 $-1 $260 @17 sketch_attrib_def 1 1 3 @13 134 0 0 0 1 1 #
coedge $-1 -1 $-1 $321 $260 $263 $300 forward $235 $-1 #
coedge $-1 -1 $-1 $260 $321 $318 $332 reversed $235 $-1 #
vertex $-1 -1 $-1 $261 $333 #
straight-curve $-1 -1 $-1 3.752776749732582129 10.99999999999999467 18.50000000000000355 -10 4.03717463500056723e-15 -5.916808265795571264e-15 F 0 F 0.7505553499465147382 #
edge $-1 -1 $-1 $264 0 $326 1.200000000000000178 $296 $334 forward @7 unknown #
point $-1 -1 $-1 -3.752776749732565698 10.99999999999999645 18.5 #
DXID-attrib $-1 -1 $-1 $-1 $268 @10 ASM ENTITY @2 13 #
plane-surface $-1 -1 $-1 3.752776749732573691 10.99999999999999289 31.50000000000002132 0.8660254037844382635 -3.605555036969180492e-16 0.5000000000000008882 5.000000000000008882 -1.48829969813783388e-15 -8.660254037844381969 forward_v I I I I #
coedge $-1 -1 $-1 $274 $273 $335 $336 forward $208 $-1 #
coedge $-1 -1 $-1 $337 $338 $273 $306 reversed $339 $-1 #
edge $-1 -1 $-1 $313 0 $340 1.2000000000000004 $305 $341 forward @7 unknown #
coedge $-1 -1 $-1 $342 $343 $274 $308 reversed $344 $-1 #
edge $-1 -1 $-1 $345 0 $312 1.2000000000000004 $307 $346 forward @7 unknown #
coedge $-1 -1 $-1 $347 $275 $343 $348 reversed $311 $-1 #
coedge $-1 -1 $-1 $275 $347 $337 $349 forward $311 $-1 #
loop $-1 -1 $-1 $-1 $347 $350 #
vertex $-1 -1 $-1 $348 $351 #
vertex $-1 -1 $-1 $306 $352 #
straight-curve $-1 -1 $-1 6.000000000000001776 -6 -11.69999999999999929 0 10 0 I I #
coedge $-1 -1 $-1 $279 $284 $278 $316 reversed $269 $-1 #
edge $-1 -1 $-1 $281 0 $286 1.200000000000000178 $278 $353 forward @7 unknown #
ATTRIB_CUSTOM-attrib $-1 -1 $-1 $-1 $279 @17 sketch_attrib_def 1 1 3 @13 133 0 0 0 1 1 #
coedge $-1 -1 $-1 $284 $279 $297 $332 forward $269 $-1 #
straight-curve $-1 -1 $-1 7.505553499465150935 10.99999999999999289 25.00000000000001776 -4.999999999999992895 2.548874936862734336e-15 -8.660254037844390851 F 0 F 0.7505553499465148493 #
point $-1 -1 $-1 7.505553499465150935 10.99999999999999289 25.00000000000001776 #
coedge $-1 -1 $-1 $297 $296 $283 $322 reversed $235 $-1 #
edge $-1 -1 $-1 $323 0 $326 0.7505553499465147382 $321 $354 forward @7 unknown #
vertex $-1 -1 $-1 $322 $355 #
straight-curve $-1 -1 $-1 7.505553499465156264 22.99999999999999289 25.00000000000001776 -4.999999999999992895 2.548874936862734336e-15 -8.660254037844390851 I I #
point $-1 -1 $-1 7.505553499465156264 22.99999999999999289 25.00000000000001776 #
vertex $-1 -1 $-1 $289 $356 #
straight-curve $-1 -1 $-1 -3.752776749732560813 23 18.5 -5.000000000000008882 1.488299698137834077e-15 8.660254037844381969 I I #
DXID-attrib $-1 -1 $-1 $-1 $291 @10 ASM ENTITY @2 15 #
face $357 -1 $-1 $358 $344 $5 $-1 $359 forward single #
loop $-1 -1 $-1 $-1 $360 $291 #
plane-surface $-1 -1 $-1 -2.220446049250313081e-15 0 0 0 0 1 10 0 0 forward_v I I I I #
edge $-1 -1 $-1 $298 0 $323 1.2000000000000004 $318 $361 forward @7 unknown #
point $-1 -1 $-1 3.752776749732582129 10.99999999999999467 18.50000000000000355 #
straight-curve $-1 -1 $-1 -3.752776749732565698 10.99999999999999645 18.5 4.163336342344336238e-15 10 0 I I #
coedge $-1 -1 $-1 $362 $363 $304 $336 reversed $364 $-1 #
edge $-1 -1 $-1 $340 0 $345 1.199999999999999956 $335 $365 forward @7 unknown #
coedge $-1 -1 $-1 $366 $305 $310 $349 reversed $339 $-1 #
coedge $-1 -1 $-1 $305 $366 $362 $367 forward $339 $-1 #
loop $-1 -1 $-1 $-1 $366 $368 #
vertex $-1 -1 $-1 $336 $369 #
straight-curve $-1 -1 $-1 6.000000000000001776 6 -11.69999999999999929 -10 0 0 I I #
coedge $-1 -1 $-1 $370 $307 $363 $371 reversed $344 $-1 #
coedge $-1 -1 $-1 $307 $370 $309 $348 forward $344 $-1 #
loop $-1 -1 $-1 $-1 $370 $329 #
vertex $-1 -1 $-1 $308 $372 #
straight-curve $-1 -1 $-1 -6.000000000000001776 -6 -11.69999999999999929 10 0 0 I I #
coedge $373 -1 $-1 $310 $309 $374 $375 reversed $311 $-1 #
edge $-1 -1 $-1 $376 0 $312 1.169999999999999929 $309 $377 forward @7 unknown #
edge $-1 -1 $-1 $378 0 $313 1.169999999999999929 $310 $379 forward @7 unknown #
face $380 -1 $-1 $191 $311 $5 $-1 $381 forward single #
point $-1 -1 $-1 6.000000000000001776 -6 -11.69999999999999929 #
point $-1 -1 $-1 6.000000000000001776 6 -11.69999999999999929 #
straight-curve $-1 -1 $-1 7.505553499465150935 10.99999999999999289 25.00000000000001776 4.163336342344336238e-15 10 0 I I #
straight-curve $-1 -1 $-1 3.752776749732587014 23 18.50000000000000355 -10 4.03717463500056723e-15 -5.916808265795571264e-15 I I #
point $-1 -1 $-1 3.752776749732587458 23 18.50000000000000355 #
point $-1 -1 $-1 -3.752776749732560813 23 18.5 #
DXID-attrib $-1 -1 $-1 $-1 $329 @10 ASM ENTITY @2 16 #
face $382 -1 $-1 $368 $364 $5 $-1 $383 forward single #
plane-surface $-1 -1 $-1 -6.000000000000001776 -6 0 0 1 0 10 0 0 forward_v I I I I #
coedge $-1 -1 $-1 $384 $374 $370 $385 forward $330 $-1 #
straight-curve $-1 -1 $-1 3.752776749732582129 10.99999999999999467 18.50000000000000355 4.163336342344336238e-15 10 0 I I #
coedge $-1 -1 $-1 $386 $335 $338 $367 reversed $364 $-1 #
coedge $-1 -1 $-1 $335 $386 $342 $371 forward $364 $-1 #
loop $-1 -1 $-1 $-1 $386 $358 #
straight-curve $-1 -1 $-1 -6.000000000000001776 6 -11.69999999999999929 0 -10 0 I I #
coedge $387 -1 $-1 $338 $337 $388 $389 reversed $339 $-1 #
edge $-1 -1 $-1 $390 0 $340 1.169999999999999929 $338 $391 forward @7 unknown #
face $392 -1 $-1 $350 $339 $5 $-1 $393 forward single #
point $-1 -1 $-1 -6.000000000000001776 6 -11.69999999999999929 #
coedge $394 -1 $-1 $343 $342 $360 $385 reversed $344 $-1 #
edge $-1 -1 $-1 $395 0 $345 1.169999999999999929 $363 $396 forward @7 unknown #
point $-1 -1 $-1 -6.000000000000001776 -6 -11.69999999999999929 #
ATTRIB_CUSTOM-attrib $-1 -1 $-1 $-1 $347 @17 sketch_attrib_def 1 1 3 @22 108 0 4294967295 0 1 1 #
coedge $-1 -1 $-1 $360 $388 $347 $375 forward $330 $-1 #
edge $-1 -1 $-1 $378 -1.199999999999999956 $376 -0 $347 $397 forward @7 unknown #
vertex $-1 -1 $-1 $385 $398 #
straight-curve $-1 -1 $-1 6.000000000000001776 -6 0 0 0 -10 I I #
vertex $-1 -1 $-1 $389 $399 #
straight-curve $-1 -1 $-1 6.000000000000001776 6 0 0 0 -10 I I #
DXID-attrib $-1 -1 $-1 $-1 $350 @10 ASM ENTITY @2 19 #
plane-surface $-1 -1 $-1 6.000000000000001776 -6 0 -1 0 0 0 10 0 forward_v I I I I #
DXID-attrib $-1 -1 $-1 $-1 $358 @10 ASM ENTITY @2 17 #
plane-surface $-1 -1 $-1 -6.000000000000001776 6 0 1 0 0 0 -10 0 forward_v I I I I #
coedge $-1 -1 $-1 $388 $360 $386 $400 forward $330 $-1 #
edge $-1 -1 $-1 $376 -1.2000000000000004 $395 -0 $370 $401 forward @7 unknown #
coedge $402 -1 $-1 $363 $362 $384 $400 reversed $364 $-1 #
ATTRIB_CUSTOM-attrib $-1 -1 $-1 $-1 $366 @17 sketch_attrib_def 1 1 3 @22 105 0 4294967295 0 1 1 #
coedge $-1 -1 $-1 $374 $384 $366 $389 forward $330 $-1 #
edge $-1 -1 $-1 $390 -1.2000000000000004 $378 0 $366 $403 forward @7 unknown #
vertex $-1 -1 $-1 $400 $404 #
straight-curve $-1 -1 $-1 -6.000000000000001776 6 0 0 0 -10 I I #
DXID-attrib $-1 -1 $-1 $-1 $368 @10 ASM ENTITY @2 18 #
plane-surface $-1 -1 $-1 6.000000000000001776 6 0 -0 -1 -0 -10 0 0 forward_v I I I I #
ATTRIB_CUSTOM-attrib $-1 -1 $-1 $-1 $370 @17 sketch_attrib_def 1 1 3 @22 107 0 4294967295 0 1 1 #
vertex $-1 -1 $-1 $385 $405 #
straight-curve $-1 -1 $-1 -6.000000000000001776 -6 0 0 0 -10 I I #
straight-curve $-1 -1 $-1 6.000000000000001776 -6 0 -0 -10 -0 F -1.199999999999999956 F -0 #
point $-1 -1 $-1 6.000000000000001776 -6 0 #
point $-1 -1 $-1 6.000000000000001776 6 0 #
edge $-1 -1 $-1 $395 -1.199999999999999956 $390 0 $386 $406 forward @7 unknown #
straight-curve $-1 -1 $-1 -6.000000000000001776 -6 0 -10 -0 -0 F -1.2000000000000004 F -0 #
ATTRIB_CUSTOM-attrib $-1 -1 $-1 $-1 $386 @17 sketch_attrib_def 1 1 3 @22 106 0 4294967295 0 1 1 #
straight-curve $-1 -1 $-1 6.000000000000001776 6 0 10 0 0 F -1.2000000000000004 F -0 #
point $-1 -1 $-1 -6.000000000000001776 6 0 #
point $-1 -1 $-1 -6.000000000000001776 -6 0 #
straight-curve $-1 -1 $-1 -6.000000000000001776 6 0 0 10 0 F -1.199999999999999956 F -0 #
End-of-ACIS-data 