700 0 1 0           
30 Autodesk Translation Framework 21 ASM 229.10.0.65535 NT 24 Sat May  4 12:38:23 2024 
1 9.999999999999999547e-07 1.000000000000000036e-10 
body $1 -1 $-1 $2 $-1 $3 #
rgb_color-st-attrib $-1 -1 $4 $-1 $0 0.627450980392156854 0.627450980392156854 0.627450980392156854 #
lump $-1 -1 $-1 $-1 $5 $0 #
transform $-1 -1 1 0 0 0 1 0 0 0 1 0 0 0 1 no_rotate no_reflect no_shear #
ATTRIB_CUSTOM-attrib $-1 -1 $-1 $1 $0 @20 Timestamp_attrib_def 1 1706071188571219 #
shell $-1 -1 $-1 $-1 $-1 $6 $-1 $2 #
face $7 -1 $-1 $8 $9 $5 $-1 $10 forward single #
DXID-attrib $-1 -1 $-1 $-1 $6 @10 ASM ENTITY @1 0 #
face $11 -1 $-1 $12 $13 $5 $-1 $14 forward single #
loop $-1 -1 $-1 $15 $16 $6 #
cone-surface $-1 -1 $-1 0 0 5.949999999999999289 0 0 -1 9 0 0 1 I I 0.7071067811865474617 0.7071067811865474617 9 forward I I I I #
DXID-attrib $-1 -1 $-1 $-1 $8 @10 ASM ENTITY @1 1 #
face $17 -1 $-1 $18 $19 $5 $-1 $20 forward single #
loop $-1 -1 $-1 $21 $22 $8 #
cone-surface $-1 -1 $-1 0 0 6.5 -0 -0 -1 -8.049999999999998934 0 0 1 I I 0 1 8.049999999999998934 forward I I I I #
loop $-1 -1 $-1 $-1 $23 $6 #
coedge $-1 -1 $-1 $16 $16 $24 $25 forward $9 $-1 #
DXID-attrib $-1 -1 $-1 $-1 $12 @10 ASM ENTITY @1 2 #
face $26 -1 $-1 $27 $28 $5 $-1 $29 reversed single #
loop $-1 -1 $-1 $30 $31 $12 #
plane-surface $-1 -1 $-1 -11.25 0 5 0 0 1 10 0 0 forward_v I I I I #
loop $-1 -1 $-1 $-1 $24 $8 #
coedge $-1 -1 $-1 $22 $22 $32 $33 forward $13 $-1 #
coedge $-1 -1 $-1 $23 $23 $34 $35 forward $15 $-1 #
coedge $-1 -1 $-1 $24 $24 $16 $25 reversed $21 $-1 #
edge $-1 -1 $-1 $36 -3.141592653589793116 $36 3.141592653589793116 $24 $37 forward @7 unknown #
DXID-attrib $-1 -1 $-1 $-1 $18 @10 ASM ENTITY @1 3 #
face $38 -1 $-1 $39 $40 $5 $-1 $41 reversed single #
loop $-1 -1 $-1 $-1 $42 $18 #
plane-surface $-1 -1 $-1 6.000000000000000888 -6.000000000000000888 -12.00000000000000178 1 0 0 0 10 0 forward_v I I I I #
loop $-1 -1 $-1 $-1 $34 $12 #
coedge $-1 -1 $-1 $31 $31 $43 $44 reversed $19 $-1 #
coedge $-1 -1 $-1 $32 $32 $22 $33 reversed $45 $-1 #
edge $-1 -1 $-1 $46 -3.141592653589793116 $46 3.141592653589793116 $22 $47 forward @7 unknown #
coedge $-1 -1 $-1 $34 $34 $23 $35 reversed $30 $-1 #
edge $-1 -1 $-1 $48 -3.141592653589793116 $48 3.141592653589793116 $34 $49 forward @7 unknown #
vertex $-1 -1 $-1 $25 $50 #
ellipse-curve $-1 -1 $-1 0 0 6.899999999999999467 -0 -0 -1 8.049999999999998934 0 0 1 I I #
DXID-attrib $-1 -1 $-1 $-1 $27 @10 ASM ENTITY @1 4 #
face $51 -1 $-1 $52 $53 $5 $-1 $54 reversed single #
loop $-1 -1 $-1 $-1 $55 $27 #
plane-surface $-1 -1 $-1 -6.000000000000000888 -6.000000000000000888 -12.00000000000000178 0 -1 0 10 0 0 forward_v I I I I #
coedge $56 -1 $-1 $57 $58 $59 $60 reversed $28 $-1 #
coedge $-1 -1 $-1 $43 $43 $31 $44 forward $61 $-1 #
edge $-1 -1 $-1 $62 -3.141592653589793116 $62 3.141592653589793116 $31 $63 forward @7 unknown #
loop $-1 -1 $-1 $-1 $32 $64 #
vertex $-1 -1 $-1 $33 $65 #
ellipse-curve $-1 -1 $-1 0 0 8 -0 -0 -1 8.049999999999998934 0 0 1 I I #
vertex $-1 -1 $-1 $35 $66 #
ellipse-curve $-1 -1 $-1 0 0 5 0 0 1 9.949999999999999289 0 0 1 I I #
point $-1 -1 $-1 -8.049999999999998934 9.858406733136192443e-16 6.899999999999999467 #
DXID-attrib $-1 -1 $-1 $-1 $39 @10 ASM ENTITY @1 5 #
face $67 -1 $-1 $68 $69 $5 $-1 $70 reversed single #
loop $-1 -1 $-1 $-1 $71 $39 #
plane-surface $-1 -1 $-1 -6.000000000000000888 6.000000000000000888 -12.00000000000000178 -1 0 0 0 -10 0 forward_v I I I I #
coedge $72 -1 $-1 $73 $74 $75 $76 reversed $40 $-1 #
ATTRIB_CUSTOM-attrib $-1 -1 $-1 $-1 $42 @17 sketch_attrib_def 1 1 3 @13 191 0 1 0 1 1 #
coedge $-1 -1 $-1 $77 $42 $74 $78 forward $28 $-1 #
coedge $-1 -1 $-1 $42 $77 $79 $80 reversed $28 $-1 #
coedge $-1 -1 $-1 $81 $75 $42 $60 forward $82 $-1 #
edge $-1 -1 $-1 $83 -0.3000000000000000444 $84 0.9000000000000001332 $59 $85 forward @7 unknown #
loop $-1 -1 $-1 $86 $43 $87 #
vertex $-1 -1 $-1 $44 $88 #
ellipse-curve $-1 -1 $-1 0 0 5 -0 -0 -1 11.25 0 0 1 I I #
face $89 -1 $-1 $-1 $90 $5 $-1 $91 forward single #
point $-1 -1 $-1 -8.049999999999998934 0 8 #
point $-1 -1 $-1 -9.949999999999999289 -1.218523565151616381e-15 5 #
DXID-attrib $-1 -1 $-1 $-1 $52 @10 ASM ENTITY @1 6 #
face $92 -1 $-1 $93 $94 $5 $-1 $95 reversed single #
loop $-1 -1 $-1 $-1 $96 $52 #
plane-surface $-1 -1 $-1 6.000000000000000888 6.000000000000000888 -12.00000000000000178 0 1 0 -10 0 0 forward_v I I I I #
coedge $97 -1 $-1 $98 $99 $100 $101 reversed $53 $-1 #
ATTRIB_CUSTOM-attrib $-1 -1 $-1 $-1 $55 @17 sketch_attrib_def 1 1 3 @13 190 0 1 0 1 1 #
coedge $-1 -1 $-1 $102 $55 $99 $103 forward $40 $-1 #
coedge $-1 -1 $-1 $55 $102 $57 $78 reversed $40 $-1 #
coedge $-1 -1 $-1 $59 $100 $55 $76 forward $82 $-1 #
edge $-1 -1 $-1 $104 -0.3000000000000000444 $83 0.9000000000000001332 $75 $105 forward @7 unknown #
coedge $-1 -1 $-1 $58 $57 $106 $107 forward $28 $-1 #
edge $-1 -1 $-1 $83 0 $108 1.200000000000000178 $74 $109 forward @7 unknown #
coedge $-1 -1 $-1 $110 $96 $58 $80 forward $69 $-1 #
edge $-1 -1 $-1 $84 0 $111 1.200000000000000178 $79 $112 forward @7 unknown #
coedge $-1 -1 $-1 $100 $59 $96 $113 forward $82 $-1 #
loop $-1 -1 $-1 $114 $59 $115 #
vertex $-1 -1 $-1 $60 $116 #
vertex $-1 -1 $-1 $60 $117 #
straight-curve $-1 -1 $-1 6.000000000000000888 -3.000000000000000444 -12.00000000000000178 0 10 0 I I #
loop $-1 -1 $-1 $-1 $118 $87 #
face $119 -1 $-1 $115 $61 $5 $-1 $120 forward single #
point $-1 -1 $-1 -11.25 0 5 #
DXID-attrib $-1 -1 $-1 $-1 $64 @10 ASM ENTITY @2 14 #
loop $-1 -1 $-1 $45 $121 $64 #
plane-surface $-1 -1 $-1 -8.049999999999998934 0 8 0 0 1 10 0 0 forward_v I I I I #
DXID-attrib $-1 -1 $-1 $-1 $68 @10 ASM ENTITY @1 7 #
face $122 -1 $-1 $123 $124 $5 $-1 $125 reversed single #
loop $-1 -1 $-1 $126 $127 $68 #
plane-surface $-1 -1 $-1 0 0 0 0 0 1 10 0 0 forward_v I I I I #
coedge $128 -1 $-1 $79 $129 $81 $113 reversed $69 $-1 #
ATTRIB_CUSTOM-attrib $-1 -1 $-1 $-1 $71 @17 sketch_attrib_def 1 1 3 @13 193 0 1 0 1 1 #
coedge $-1 -1 $-1 $130 $71 $129 $131 forward $53 $-1 #
coedge $-1 -1 $-1 $71 $130 $73 $103 reversed $53 $-1 #
coedge $-1 -1 $-1 $75 $81 $71 $101 forward $82 $-1 #
edge $-1 -1 $-1 $132 -0.3000000000000000444 $104 0.9000000000000001332 $100 $133 forward @7 unknown #
coedge $-1 -1 $-1 $74 $73 $134 $135 forward $40 $-1 #
edge $-1 -1 $-1 $104 0 $136 1.200000000000000178 $99 $137 forward @7 unknown #
vertex $-1 -1 $-1 $76 $138 #
straight-curve $-1 -1 $-1 -3.000000000000000444 -6.000000000000000888 -12.00000000000000178 10 0 0 I I #
coedge $-1 -1 $-1 $134 $139 $77 $107 reversed $126 $-1 #
edge $-1 -1 $-1 $108 0 $111 1.200000000000000178 $77 $140 forward @7 unknown #
vertex $-1 -1 $-1 $78 $141 #
straight-curve $-1 -1 $-1 6.000000000000000888 -6.000000000000000888 -12.00000000000000178 0 0 10 I I #
coedge $-1 -1 $-1 $129 $79 $139 $142 forward $69 $-1 #
vertex $-1 -1 $-1 $107 $143 #
straight-curve $-1 -1 $-1 6.000000000000000888 6.000000000000000888 -12.00000000000000178 0 0 10 I I #
edge $-1 -1 $-1 $84 -0.3000000000000000444 $132 0.9000000000000001332 $81 $144 forward @7 unknown #
loop $-1 -1 $-1 $-1 $145 $115 #
face $146 -1 $-1 $64 $82 $5 $-1 $147 forward single #
point $-1 -1 $-1 6.000000000000000888 -6.000000000000000888 -12.00000000000000178 #
point $-1 -1 $-1 6.000000000000000888 6.000000000000000888 -12.00000000000000178 #
coedge $-1 -1 $-1 $118 $118 $145 $148 reversed $86 $-1 #
DXID-attrib $-1 -1 $-1 $-1 $87 @10 ASM ENTITY @2 12 #
cone-surface $-1 -1 $-1 0 0 -3.500000000000000888 -0 -0 -1 -11.25 0 0 1 I I 0 1 11.25 forward I I I I #
coedge $-1 -1 $-1 $149 $150 $151 $152 forward $90 $-1 #
DXID-attrib $-1 -1 $-1 $-1 $93 @10 ASM ENTITY @1 8 #
face $153 -1 $-1 $154 $155 $5 $-1 $156 reversed single #
loop $-1 -1 $-1 $-1 $157 $93 #
plane-surface $-1 -1 $-1 3.049999999999999822 -3.049999999999999822 8 -0 -1 -0 -10 0 0 forward_v I I I I #
loop $-1 -1 $-1 $-1 $139 $68 #
coedge $-1 -1 $-1 $158 $159 $160 $161 reversed $94 $-1 #
ATTRIB_CUSTOM-attrib $-1 -1 $-1 $-1 $96 @17 sketch_attrib_def 1 1 3 @13 192 0 1 0 1 1 #
coedge $-1 -1 $-1 $96 $110 $98 $131 reversed $69 $-1 #
coedge $-1 -1 $-1 $99 $98 $162 $163 forward $53 $-1 #
edge $-1 -1 $-1 $132 0 $164 1.200000000000000178 $129 $165 forward @7 unknown #
vertex $-1 -1 $-1 $101 $166 #
straight-curve $-1 -1 $-1 -6.000000000000000888 3.000000000000000444 -12.00000000000000178 0 -10 0 I I #
coedge $-1 -1 $-1 $162 $106 $102 $135 reversed $126 $-1 #
edge $-1 -1 $-1 $136 0 $108 1.200000000000000178 $102 $167 forward @7 unknown #
vertex $-1 -1 $-1 $103 $168 #
straight-curve $-1 -1 $-1 -6.000000000000000888 -6.000000000000000888 -12.00000000000000178 0 0 10 I I #
point $-1 -1 $-1 -6.000000000000000888 -6.000000000000000888 -12.00000000000000178 #
coedge $-1 -1 $-1 $106 $162 $110 $142 reversed $126 $-1 #
straight-curve $-1 -1 $-1 6.000000000000000888 -6.000000000000000888 0 0 10 0 I I #
point $-1 -1 $-1 6.000000000000000888 -6.000000000000000888 0 #
edge $-1 -1 $-1 $111 0 $164 1.200000000000000178 $110 $169 forward @7 unknown #
point $-1 -1 $-1 6.000000000000000888 6.000000000000000888 0 #
straight-curve $-1 -1 $-1 3.000000000000000444 6.000000000000000888 -12.00000000000000178 -10 0 0 I I #
coedge $-1 -1 $-1 $145 $145 $118 $148 forward $114 $-1 #
DXID-attrib $-1 -1 $-1 $-1 $115 @10 ASM ENTITY @2 13 #
plane-surface $-1 -1 $-1 0 0 -12.00000000000000178 -0 -0 -1 -10 0 0 forward_v I I I I #
edge $-1 -1 $-1 $170 -3.141592653589793116 $170 3.141592653589793116 $145 $171 forward @7 unknown #
coedge $-1 -1 $-1 $172 $121 $173 $174 forward $90 $-1 #
coedge $-1 -1 $-1 $121 $172 $175 $176 forward $90 $-1 #
coedge $177 -1 $-1 $178 $179 $121 $152 reversed $155 $-1 #
edge $-1 -1 $-1 $180 -0.1525000000000000522 $181 0.4574999999999995737 $121 $182 forward @7 unknown #
DXID-attrib $-1 -1 $-1 $-1 $123 @10 ASM ENTITY @1 9 #
face $183 -1 $-1 $184 $185 $5 $-1 $186 reversed single #
loop $-1 -1 $-1 $-1 $160 $123 #
plane-surface $-1 -1 $-1 -3.049999999999994937 -3.049999999999999822 8 -1 -1.820037745287142904e-16 -0 -1.820037745287142904e-15 10 0 forward_v I I I I #
coedge $-1 -1 $-1 $187 $188 $158 $189 forward $124 $-1 #
coedge $-1 -1 $-1 $190 $127 $157 $189 reversed $94 $-1 #
coedge $-1 -1 $-1 $127 $190 $191 $192 reversed $94 $-1 #
coedge $-1 -1 $-1 $179 $178 $127 $161 forward $155 $-1 #
edge $-1 -1 $-1 $193 -0.1525000000000000244 $194 0.4574999999999996292 $160 $195 forward @7 unknown #
coedge $-1 -1 $-1 $139 $134 $130 $163 reversed $126 $-1 #
edge $-1 -1 $-1 $164 0 $136 1.200000000000000178 $130 $196 forward @7 unknown #
vertex $-1 -1 $-1 $131 $197 #
straight-curve $-1 -1 $-1 -6.000000000000000888 6.000000000000000888 -12.00000000000000178 0 0 10 I I #
point $-1 -1 $-1 -6.000000000000000888 6.000000000000000888 -12.00000000000000178 #
straight-curve $-1 -1 $-1 -6.000000000000000888 -6.000000000000000888 0 10 0 0 I I #
point $-1 -1 $-1 -6.000000000000000888 -6.000000000000000888 0 #
straight-curve $-1 -1 $-1 6.000000000000000888 6.000000000000000888 0 -10 0 0 I I #
vertex $-1 -1 $-1 $148 $198 #
ellipse-curve $-1 -1 $-1 0 0 -12.00000000000000178 -0 -0 -1 11.25 0 0 1 I I #
coedge $-1 -1 $-1 $150 $149 $199 $200 forward $90 $-1 #
coedge $201 -1 $-1 $202 $203 $149 $174 reversed $204 $-1 #
edge $-1 -1 $-1 $181 0.250000000000000111 $205 0.8599999999999996536 $149 $206 forward @7 unknown #
coedge $207 -1 $-1 $188 $187 $150 $176 reversed $124 $-1 #
edge $-1 -1 $-1 $208 -0.5549999999999999378 $180 0.05499999999999952149 $150 $209 forward @7 unknown #
ATTRIB_CUSTOM-attrib $-1 -1 $-1 $-1 $151 @17 sketch_attrib_def 1 1 3 @13 168 0 1 0 1 1 #
coedge $-1 -1 $-1 $160 $151 $187 $210 forward $155 $-1 #
coedge $-1 -1 $-1 $151 $160 $202 $211 reversed $155 $-1 #
vertex $-1 -1 $-1 $210 $212 #
vertex $-1 -1 $-1 $211 $213 #
straight-curve $-1 -1 $-1 -3.049999999999995381 -1.524999999999999467 8 -1.820037745287142904e-15 10 0 I I #
DXID-attrib $-1 -1 $-1 $-1 $154 @10 ASM ENTITY @2 10 #
face $214 -1 $-1 $87 $204 $5 $-1 $215 reversed single #
loop $-1 -1 $-1 $-1 $216 $154 #
plane-surface $-1 -1 $-1 3.049999999999999822 3.049999999999995381 8 1 0 0 0 -10 0 forward_v I I I I #
coedge $-1 -1 $-1 $175 $157 $178 $210 reversed $124 $-1 #
coedge $-1 -1 $-1 $157 $175 $217 $218 forward $124 $-1 #
edge $-1 -1 $-1 $219 -0.1524999999999999967 $193 0.4574999999999994627 $157 $220 forward @7 unknown #
coedge $-1 -1 $-1 $159 $158 $216 $221 reversed $94 $-1 #
coedge $-1 -1 $-1 $203 $202 $159 $192 forward $204 $-1 #
edge $-1 -1 $-1 $194 -0.1524999999999998579 $222 0.4574999999999997957 $191 $223 forward @7 unknown #
vertex $-1 -1 $-1 $161 $224 #
vertex $-1 -1 $-1 $161 $225 #
straight-curve $-1 -1 $-1 -3.049999999999994937 -1.525000000000000355 0 -1.820037745287142904e-15 10 0 I I #
straight-curve $-1 -1 $-1 -6.000000000000000888 6.000000000000000888 0 0 -10 0 I I #
point $-1 -1 $-1 -6.000000000000000888 6.000000000000000888 0 #
point $-1 -1 $-1 -11.25 0 -12.00000000000000178 #
coedge $226 -1 $-1 $227 $217 $172 $200 reversed $185 $-1 #
edge $-1 -1 $-1 $205 -0.1524999999999997746 $208 0.4574999999999997957 $172 $228 forward @7 unknown #
ATTRIB_CUSTOM-attrib $-1 -1 $-1 $-1 $173 @17 sketch_attrib_def 1 1 3 @13 169 0 1 0 1 1 #
coedge $-1 -1 $-1 $191 $173 $179 $211 forward $204 $-1 #
coedge $-1 -1 $-1 $173 $191 $227 $229 reversed $204 $-1 #
loop $-1 -1 $-1 $-1 $191 $184 #
vertex $-1 -1 $-1 $200 $230 #
straight-curve $-1 -1 $-1 -5.549999999999997158 3.04999999999999627 8 10 -9.100188726435714521e-16 0 I I #
ATTRIB_CUSTOM-attrib $-1 -1 $-1 $-1 $175 @17 sketch_attrib_def 1 1 3 @13 167 0 1 0 1 1 #
vertex $-1 -1 $-1 $176 $231 #
straight-curve $-1 -1 $-1 -2.499999999999999556 -3.049999999999999822 8 -10 0 0 I I #
edge $-1 -1 $-1 $180 0 $193 0.8000000000000000444 $187 $232 forward @7 unknown #
edge $-1 -1 $-1 $181 0 $194 0.8000000000000000444 $202 $233 forward @7 unknown #
point $-1 -1 $-1 -3.049999999999994937 -3.049999999999999822 8 #
point $-1 -1 $-1 -3.04999999999999627 3.04999999999999627 8 #
DXID-attrib $-1 -1 $-1 $-1 $184 @10 ASM ENTITY @2 11 #
plane-surface $-1 -1 $-1 -3.04999999999999627 3.04999999999999627 8 9.100188726435714521e-17 1 0 10 -9.100188726435714521e-16 0 forward_v I I I I #
coedge $-1 -1 $-1 $217 $227 $190 $221 forward $185 $-1 #
coedge $-1 -1 $-1 $199 $216 $188 $218 reversed $185 $-1 #
edge $-1 -1 $-1 $208 0 $219 0.8000000000000000444 $217 $234 forward @7 unknown #
vertex $-1 -1 $-1 $189 $235 #
straight-curve $-1 -1 $-1 1.524999999999999911 -3.049999999999999822 0 -10 0 0 I I #
edge $-1 -1 $-1 $222 -0.1524999999999997746 $219 0.4574999999999997957 $216 $236 forward @7 unknown #
vertex $-1 -1 $-1 $221 $237 #
straight-curve $-1 -1 $-1 -1.524999999999998135 3.04999999999999627 0 10 -9.100188726435714521e-16 0 I I #
point $-1 -1 $-1 -3.049999999999994937 -3.050000000000000711 0 #
point $-1 -1 $-1 -3.049999999999996714 3.04999999999999627 0 #
ATTRIB_CUSTOM-attrib $-1 -1 $-1 $-1 $199 @17 sketch_attrib_def 1 1 3 @13 170 0 1 0 1 1 #
coedge $-1 -1 $-1 $216 $199 $203 $229 forward $185 $-1 #
straight-curve $-1 -1 $-1 3.049999999999999378 1.524999999999997691 8 0 -10 0 I I #
edge $-1 -1 $-1 $205 0 $222 0.8000000000000000444 $203 $238 forward @7 unknown #
point $-1 -1 $-1 3.049999999999999822 3.049999999999995381 8 #
point $-1 -1 $-1 3.049999999999999822 -3.049999999999999822 8 #
straight-curve $-1 -1 $-1 -3.049999999999994937 -3.049999999999999822 8 0 0 -10 I I #
straight-curve $-1 -1 $-1 -3.04999999999999627 3.04999999999999627 8 0 0 -10 I I #
straight-curve $-1 -1 $-1 3.049999999999999822 -3.049999999999999822 8 0 0 -10 I I #
point $-1 -1 $-1 3.049999999999999822 -3.050000000000000711 0 #
straight-curve $-1 -1 $-1 3.049999999999999822 1.524999999999997691 0 0 -10 0 I I #
point $-1 -1 $-1 3.049999999999999822 3.049999999999995381 0 #
straight-curve $-1 -1 $-1 3.049999999999999822 3.049999999999995381 8 0 0 -10 I I #
End-of-ACIS-data 