700 0 1 0           
30 Autodesk Translation Framework 21 ASM 229.10.0.65535 NT 24 Sat May  4 12:04:23 2024 
1 9.999999999999999547e-07 1.000000000000000036e-10 
body $1 -1 $-1 $2 $-1 $3 #
rgb_color-st-attrib $-1 -1 $4 $-1 $0 0.627450980392156854 0.627450980392156854 0.627450980392156854 #
lump $-1 -1 $-1 $-1 $5 $0 #
transform $-1 -1 1 0 0 0 1 0 0 0 1 0 0 0 1 no_rotate no_reflect no_shear #
ATTRIB_CUSTOM-attrib $-1 -1 $-1 $1 $0 @20 Timestamp_attrib_def 1 1706761572255421 #
shell $-1 -1 $-1 $-1 $-1 $6 $-1 $2 #
face $7 -1 $-1 $8 $9 $5 $-1 $10 reversed single #
DXID-attrib $-1 -1 $-1 $-1 $6 @10 ASM ENTITY @1 0 #
face $11 -1 $-1 $12 $13 $5 $-1 $14 reversed single #
loop $-1 -1 $-1 $-1 $15 $6 #
spline-surface $-1 -1 $-1 forward { sweepsur angled 
	straight -9.399669456961784032e-13 -41.41292444108351845 2.371750000000000469 -3.432213570952068501e-12 5.000000000000028422 8.660254037844371311 I I 
	intcurve forward { lawintcur none F 0 F 270.1769682087222009 OPEN 
	null_surface 
	null_surface 
	nullbs 
	nullbs 
	I I 
	0 
	0 
	0 
	@170 VEC(-9.399669456961784e-13,0,2.3717500000000005)*COS(X)+VEC(2.3717500000000005,0,9.399669456961784e-13)*SIN(X)+X*VEC(0,0.15915494309189535,0)+VEC(0,-41.412924441083518,0) 
	0 
	
	0 } I I 
	angled 
	0.9977560728933168033 0.06695385727877253834 3.954285773742360525e-13 
	-9.399669456961784032e-13 -41.41292444108351845 2.371750000000000469 
	-3.963178858210933755e-13 0 1 
	0.06695385727877255222 -0.9977560728933169143 2.653501116429036067e-14 
	0.9977560728933168033 0.06695385727877253834 3.954285773742360525e-13 
	0 270.1769682087222009 
	0 0 @105 CROSS(DCUR(EDGE1,1),VEC(0,1,0))*DOT(CROSS(DCUR(EDGE2,1),VEC(0,1,0)),CROSS(DCUR(EDGE3,1),VEC(0,1,0)))^-0.5 
	3 
	@4 EDGE 
	intcurve forward { ref 1 } I I 
	0 
	270.1769682087222009 @4 EDGE 
	intcurve forward { ref 1 } I I 
	0 
	270.1769682087222009 @4 EDGE 
	intcurve forward { ref 1 } I I 
	0 
	270.1769682087222009 @1 0 
	0 
	@10 VEC(1,1,1) 
	0 
	none F 0 F 0.06584679820107693093 F 0 F 270.1769682087222009 CLOSURE_UNSET CLOSURE_UNSET SINGULARITY_UNKNOWN SINGULARITY_UNKNOWN 
	0 
	0 
	0 
	0 
	0 
	0 
	} F 0 F 0.06584679820107693093 F 8.307477552401344667 F 260.2050783755543648 #
DXID-attrib $-1 -1 $-1 $-1 $8 @10 ASM ENTITY @1 1 #
face $16 -1 $-1 $17 $18 $5 $-1 $19 reversed single #
loop $-1 -1 $-1 $-1 $20 $8 #
cone-surface $-1 -1 $-1 0 -41.6101042248935542 0 0 1 0 -9.399669456961784032e-13 0 2.371750000000000469 1 I I -0 -1 2.371750000000000469 forward I I I I #
coedge $-1 -1 $-1 $21 $22 $23 $24 reversed $9 $25 #
DXID-attrib $-1 -1 $-1 $-1 $12 @10 ASM ENTITY @1 2 #
face $26 -1 $-1 $27 $28 $5 $-1 $29 forward single #
loop $-1 -1 $-1 $-1 $30 $12 #
spline-surface $-1 -1 $-1 forward { sweepsur angled 
	straight -9.399669456961784032e-13 -41.93933821589894251 2.942000000000000171 2.766945117914877412e-12 5.000000000000028422 -8.660254037844371311 I I 
	intcurve forward { lawintcur none F 0 F 270.1769682087222009 OPEN 
	null_surface 
	null_surface 
	nullbs 
	nullbs 
	I I 
	0 
	0 
	0 
	@170 VEC(-9.399669456961784e-13,0,2.9420000000000002)*COS(X)+VEC(2.9420000000000002,0,9.399669456961784e-13)*SIN(X)+X*VEC(0,0.15915494309189535,0)+VEC(0,-41.939338215898943,0) 
	0 
	
	0 } I I 
	angled 
	0.9985399323758792356 0.05401854728493136332 3.190328111458272464e-13 
	-9.399669456961784032e-13 -41.93933821589894251 2.942000000000000171 
	-3.194993017322156133e-13 0 1 
	0.05401854728493137026 -0.9985399323758793466 1.725888813812424519e-14 
	0.9985399323758792356 0.05401854728493136332 3.190328111458272464e-13 
	0 270.1769682087222009 
	0 0 @105 CROSS(DCUR(EDGE1,1),VEC(0,1,0))*DOT(CROSS(DCUR(EDGE2,1),VEC(0,1,0)),CROSS(DCUR(EDGE3,1),VEC(0,1,0)))^-0.5 
	3 
	@4 EDGE 
	intcurve forward { ref 3 } I I 
	0 
	270.1769682087222009 @4 EDGE 
	intcurve forward { ref 3 } I I 
	0 
	270.1769682087222009 @4 EDGE 
	intcurve forward { ref 3 } I I 
	0 
	270.1769682087222009 @1 0 
	0 
	@10 VEC(1,1,1) 
	0 
	none F 0 F 0.06584679820107693093 F 0 F 270.1769682087222009 CLOSURE_UNSET CLOSURE_UNSET SINGULARITY_UNKNOWN SINGULARITY_UNKNOWN 
	0 
	0 
	0 
	0 
	0 
	0 
	} F 0 F 0.06584679820107693093 F 11.61503284781863599 F 263.5126336709715247 #
coedge $-1 -1 $-1 $31 $32 $33 $34 reversed $13 $-1 #
coedge $-1 -1 $-1 $35 $15 $36 $37 reversed $9 $38 #
coedge $-1 -1 $-1 $15 $35 $31 $39 forward $9 $40 #
coedge $-1 -1 $-1 $33 $41 $15 $24 forward $28 $-1 #
edge $-1 -1 $-1 $42 -0.5527453783749575189 $43 -0 $15 $44 forward @7 unknown #
pcurve $-1 -1 $-1 -2 $44 0 0 #
DXID-attrib $-1 -1 $-1 $-1 $17 @10 ASM ENTITY @1 3 #
face $45 -1 $-1 $46 $47 $5 $-1 $48 forward single #
loop $-1 -1 $-1 $49 $23 $17 #
plane-surface $-1 -1 $-1 0 0 21.68809872708462194 -0 -1 -0 0 0 -10 forward_v I I I I #
coedge $-1 -1 $-1 $50 $51 $52 $53 reversed $18 $54 #
coedge $-1 -1 $-1 $55 $20 $22 $39 reversed $13 $-1 #
coedge $-1 -1 $-1 $20 $55 $50 $56 forward $13 $-1 #
coedge $-1 -1 $-1 $52 $23 $20 $34 forward $28 $-1 #
edge $-1 -1 $-1 $43 2.594480781191319085 $57 3.833397901699458821 $20 $58 forward @7 unknown #
coedge $-1 -1 $-1 $22 $21 $59 $60 reversed $9 $61 #
coedge $-1 -1 $-1 $62 $63 $21 $37 forward $64 $-1 #
edge $-1 -1 $-1 $65 2.790294798406905411e-14 $42 249.8289626482437882 $36 $66 forward @7 unknown #
pcurve $-1 -1 $-1 0 forward { exppc nubs 1 open 2 
	-249.8289626482437882 1 -0 1 
	0.06584679820107693093 258.1364402006450405 
	0.06584679820107693093 8.307477552401344667 
	4.311738463501140354e-13 
	spline reversed { ref 0 } F 0 F 0.06584679820107693093 F 8.307477552401344667 F 260.2050783755543648 
	} 0 0 #
edge $-1 -1 $-1 $67 10.37611572731056064 $43 260.205078375554308 $31 $68 forward @7 unknown #
pcurve $-1 -1 $-1 0 reversed { exppc nubs 1 open 2 
	-260.205078375554308 1 -10.37611572731056064 1 
	0 260.2050783755542511 
	0 10.37611572731053933 
	0 
	spline forward { ref 0 } I I I I 
	} 0 0 #
coedge $-1 -1 $-1 $23 $52 $62 $69 reversed $28 $-1 #
vertex $-1 -1 $-1 $24 $70 #
vertex $-1 -1 $-1 $24 $71 #
intcurve-curve $-1 -1 $-1 forward { surfintcur full nubs 3 open 7 
	-0.5527453783749575189 3 -0.4757193744648867684 2 -0.4005896997168189588 2 -0.2943320976883639362 2 -0.1921468026196467838 2 
	-0.09403555598281697347 2 -0 3 
	1.476713228814008572 0 2.544539651851726703 
	1.686641187620105731 -2.92659656435113543e-18 2.394901580932988772 
	1.875894169460352812 1.776656794056924742e-14 2.218208421775134553 
	2.197845729321291408 1.776064269428407729e-14 1.823804583491644093 
	2.330406386135961405 1.776656888623512711e-14 1.608927240650619872 
	2.576468507080301062 1.775932472982303795e-14 1.054284172514322382 
	2.657007722880056377 8.886190089785306893e-15 0.7048092447962871487 
	2.676711336744785008 8.877547159409729089e-15 0.008388541599829019146 
	2.620922184319503856 8.886189569110725205e-15 -0.3316644973322576684 
	2.384686029696580611 8.877554463659788476e-15 -0.9574493196289211028 
	2.211424470776655493 8.886188821307400039e-15 -1.238974527686238947 
	1.774340012394998833 8.877562547499057874e-15 -1.707972323715954976 
	1.518571972955417237 4.403595170945012181e-18 -1.894478495034811694 
	1.233838551156433816 0 -2.025546961237925103 
	8.51005360492663276e-06 
	
	plane -3.519398546191245266e-16 0 1.429432442145567055e-16 0 -1 0 0 0 10 reverse_v I I I I 
	spline forward { ref 0 } F 0 F 0.06584679820107693093 F 8.307477552401344667 F 270.1769682087222009 
	nullbs 
	nubs 3 open 7 
	-0.5527453783749575189 3 -0.4757193744648867684 3 -0.4005896997168189588 3 -0.2943320976883639362 3 -0.1921468026196467838 3 
	-0.09403555598281697347 3 -0 3 
	0.06584679820107693093 258.136440200645211 
	0.06306968410080637799 258.2236858132011434 
	0.06027175630232131653 258.3115853073711605 
	0.05742541828416419109 258.4010056534459068 
	0.05464915522140850052 258.4882245298697399 
	0.05185127374928726746 258.5761225686541138 
	0.04900403836725145124 258.6655711062465457 
	0.04497712882557958897 258.7920802005743894 
	0.04091682539044346617 258.9196383950060749 
	0.03673597343294362355 259.0509837329603329 
	0.03271535201141616972 259.1772952801676979 
	0.02865872086501056876 259.3047381062464183 
	0.02447836298747400885 259.4360679222208432 
	0.02046467273510066409 259.5621617203272535 
	0.01641217233587786983 259.6894747751559294 
	0.01223252406593928338 259.8207822981502204 
	0.00822650475266767725 259.9466351065973413 
	0.004178671700117339224 260.0738015324058665 
	0 260.2050783755543648 
	
	I I 
	0 
	0 
	0 
	} I I #
DXID-attrib $-1 -1 $-1 $-1 $27 @10 ASM ENTITY @1 4 #
face $72 -1 $-1 $73 $74 $5 $-1 $75 forward single #
loop $-1 -1 $-1 $76 $77 $27 #
cone-surface $-1 -1 $-1 0 21.53093859138113686 0 0 1 0 0 0 21.68809872708462194 1 I I 0 1 21.68809872708462194 forward I I I I #
loop $-1 -1 $-1 $-1 $78 $17 #
coedge $-1 -1 $-1 $79 $30 $32 $56 reversed $18 $80 #
coedge $-1 -1 $-1 $30 $79 $81 $82 reversed $18 $83 #
coedge $-1 -1 $-1 $41 $33 $30 $53 forward $28 $-1 #
edge $-1 -1 $-1 $57 -0.5552727883992897295 $84 -0 $30 $85 forward @7 unknown #
pcurve $-1 -1 $-1 -2 $85 0 0 #
coedge $-1 -1 $-1 $32 $31 $86 $87 reversed $13 $-1 #
edge $-1 -1 $-1 $88 11.61503284781863599 $57 261.4439954960624277 $50 $89 forward @7 unknown #
vertex $-1 -1 $-1 $34 $90 #
ellipse-curve $-1 -1 $-1 0 0 0 0 1 0 -9.399669456961784032e-13 0 2.371750000000000469 1 I I #
coedge $-1 -1 $-1 $91 $86 $35 $60 forward $92 $-1 #
edge $-1 -1 $-1 $67 0 $65 0.5527453783750502225 $59 $93 forward @7 unknown #
pcurve $-1 -1 $-1 -1 $93 0 0 #
coedge $-1 -1 $-1 $81 $36 $41 $69 forward $64 $-1 #
coedge $-1 -1 $-1 $36 $81 $91 $94 forward $64 $-1 #
loop $-1 -1 $-1 $-1 $36 $95 #
vertex $-1 -1 $-1 $37 $96 #
intcurve-curve $-1 -1 $-1 forward { lawintcur none F 0 F 249.8289626482437882 OPEN 
	null_surface 
	null_surface 
	nullbs 
	nullbs 
	I I 
	0 
	0 
	0 
	@165 VEC(2.6446255791973732,0,-1.2889218540528202)*COS(X)+VEC(-1.2889218540528202,0,-2.6446255791973732)*SIN(X)+X*VEC(0,0.15915494309189535,0)+VEC(0,-39.76151433298849,0) 
	0 
	
	0 } I I #
vertex $-1 -1 $-1 $60 $97 #
intcurve-curve $-1 -1 $-1 forward { lawintcur none F 10.37611572731056064 F 260.205078375554308 OPEN 
	null_surface 
	null_surface 
	nullbs 
	nullbs 
	I I 
	0 
	0 
	0 
	@170 VEC(-9.399669456961784e-13,0,2.3717500000000005)*COS(X)+VEC(2.3717500000000005,0,9.399669456961784e-13)*SIN(X)+X*VEC(0,0.15915494309189535,0)+VEC(0,-41.412924441083518,0) 
	0 
	
	0 } I I #
edge $-1 -1 $-1 $42 -0.5258426062817692648 $84 0.3811492305713699569 $62 $98 reversed @7 unknown #
point $-1 -1 $-1 1.476713228813813172 0 2.544539651851839945 #
point $-1 -1 $-1 1.233838551156433816 0 -2.025546961237925103 #
DXID-attrib $-1 -1 $-1 $-1 $46 @10 ASM ENTITY @1 5 #
face $99 -1 $-1 $100 $101 $5 $-1 $102 forward single #
loop $-1 -1 $-1 $103 $104 $46 #
plane-surface $-1 -1 $-1 0 43.06187718276227372 3.000000000000000444 0 1 0 0 0 10 forward_v I I I I #
loop $-1 -1 $-1 $-1 $105 $27 #
coedge $-1 -1 $-1 $77 $77 $78 $106 forward $47 $-1 #
coedge $-1 -1 $-1 $78 $78 $77 $106 reversed $49 $-1 #
coedge $-1 -1 $-1 $51 $50 $107 $108 reversed $18 $109 #
pcurve $-1 -1 $-1 0 reversed { exppc nubs 1 open 2 
	11.61503284781863599 1 261.4439954960624277 1 
	0.06584679820107693093 11.61503284781863599 
	0.06584679820107690318 261.4439954960623709 
	0 
	spline forward { ref 2 } I I I I 
	} 0 0 #
coedge $-1 -1 $-1 $63 $62 $51 $82 forward $64 $-1 #
edge $-1 -1 $-1 $84 -251.8976008231529136 $110 -2.068638174909168459 $81 $111 forward @7 unknown #
pcurve $-1 -1 $-1 0 forward { exppc nubs 1 open 2 
	2.068638174909168459 1 251.8976008231529136 1 
	0 13.683671022727804 
	0 263.5126336709715247 
	2.697345948457226769e-13 
	spline reversed { ref 2 } F 0 F 0.06584679820107693093 F 11.61503284781863599 F 263.5126336709715247 
	} 0 0 #
vertex $-1 -1 $-1 $53 $112 #
intcurve-curve $-1 -1 $-1 forward { surfintcur full nubs 3 open 7 
	-0.5552727883992897295 3 -0.4911857518342970241 2 -0.4252137525040625143 2 -0.3250421267507397904 2 -0.2207816585828961675 2 
	-0.1124337722360699704 2 -0 3 
	-1.513006764914729407 -8.881784197001252323e-15 -1.826474361118235246 
	-1.69143959129886845 -8.881784197001252323e-15 -1.710563849418262006 
	-1.85336706950797625 -1.776356839400250465e-14 -1.571021456989634579 
	-2.140862130117303419 -1.776356839400250465e-14 -1.248652818770165318 
	-2.263916410345587327 -1.776356839400250465e-14 -1.066153590401981655 
	-2.509966496221700094 -1.776356839400250465e-14 -0.5720805105586085348 
	-2.597472032296885391 -1.776356839400250465e-14 -0.2476109586652106564 
	-2.64668081118518872 -1.776356839400250465e-14 0.4303614127697124037 
	-2.602683131340725708 -1.776356839400250465e-14 0.777668696778630486 
	-2.382047653973738299 -1.776356839400250465e-14 1.449937604838722915 
	-2.202571811113441136 -8.881784197001252323e-15 1.766742755152707289 
	-1.725098370832589989 -8.881784197001252323e-15 2.325997765083495761 
	-1.427748222050684745 -8.881784197001252323e-15 2.559615789951896314 
	-1.094387148581045022 -8.881784197001252323e-15 2.730875458350426221 
	8.503595091501171897e-06 
	
	plane -3.519398546191245266e-16 0 1.429432442145567055e-16 0 -1 0 0 0 10 reverse_v I I I I 
	spline forward { ref 2 } F 0 F 0.06584679820107693093 F 11.61503284781863599 F 270.1769682087222009 
	nullbs 
	nubs 3 open 7 
	-0.5552727883992897295 3 -0.4911857518342970241 3 -0.4252137525040625143 3 -0.3250421267507397904 3 -0.2207816585828961675 3 
	-0.1124337722360699704 3 -0 3 
	0.06584679820107693093 261.4439954960623709 
	0.06301025408663465943 261.5331081575775443 
	0.06022896017687181386 261.6204850827213022 
	0.05747463411326751703 261.7070147879913975 
	0.054639296313881619 261.7960895520013764 
	0.05185793182831102688 261.8834686943496308 
	0.04910247002545810313 261.9700340799205378 
	0.04491858760116933247 262.1014746227968431 
	0.04086083136896492829 262.2289527944883503 
	0.0368408542008580378 262.355244101877588 
	0.03265678812008002835 262.4866904144926707 
	0.02859548106173753768 262.6142801386772589 
	0.02456921366784271463 262.7407690593377652 
	0.02038510084289959362 262.8722168404640911 
	0.01632062028650481042 262.9999062630303683 
	0.01228862027681402493 263.1265752791275645 
	0.008104570305647373907 263.2580210856442591 
	0.004037242478558170436 263.3857999578575573 
	0 263.5126336709715247 
	
	I I 
	0 
	0 
	0 
	} I I #
coedge $-1 -1 $-1 $59 $107 $55 $87 forward $92 $-1 #
edge $-1 -1 $-1 $88 0.9513377665404583183 $67 2.190254887048610488 $86 $113 forward @7 unknown #
vertex $-1 -1 $-1 $87 $114 #
intcurve-curve $-1 -1 $-1 forward { lawintcur none F 11.61503284781863599 F 261.4439954960624277 OPEN 
	null_surface 
	null_surface 
	nullbs 
	nullbs 
	I I 
	0 
	0 
	0 
	@172 VEC(-7.5777246888338259e-13,0,2.3717500000000005)*COS(X)+VEC(2.3717500000000005,0,7.5777246888338259e-13)*SIN(X)+X*VEC(0,0.15915494309189535,0)+VEC(0,-41.610104224893554,0) 
	0 
	
	0 } I I #
point $-1 -1 $-1 -1.513006764914973878 0 -1.826474361118033185 #
coedge $-1 -1 $-1 $107 $59 $63 $94 reversed $92 $-1 #
loop $-1 -1 $-1 $-1 $59 $100 #
intcurve-curve $-1 -1 $-1 forward { surfintcur full nubs 3 open 7 
	0 3 0.09403555598282087313 2 0.1921468026196563317 2 0.2943320976883893048 2 0.4005896997168906237 2 
	0.4757193744649834133 2 0.5527453783750502225 3 
	-1.931062088557516043 -39.76151433298849014 -1.377024790131203602 
	-1.779754926885554589 -39.76151433298849014 -1.65153928364471092 
	-1.575248800423261653 -39.76151433298849014 -1.893156928236705561 
	-1.075883811234046306 -39.76151433298849014 -2.295197179967257917 
	-0.782571071357213377 -39.76151433298849014 -2.447655853702221496 
	-0.1413472291309093021 -39.76151433298849014 -2.638040067145652312 
	0.2018489121485753102 -39.76151433298849014 -2.669103026215485119 
	0.895023614096039033 -39.76151433298849014 -2.599111163687531256 
	1.237762693287248528 -39.76151433298849014 -2.493521325254126619 
	1.773168627211509918 -39.76151433298849014 -2.208011279347025901 
	1.977901916012084538 -39.76151433298849014 -2.060265278865005101 
	2.348002225389303366 -39.76151433298849014 -1.710646979074376794 
	2.510553290790414671 -39.76151433298849724 -1.509117043914522949 
	2.64462557919727459 -39.76151433298849724 -1.288921854053023175 
	8.510053602068172696e-06 
	
	spline forward { ref 0 } F 0 F 0.06584679820107693093 F 8.307477552401344667 F 260.2050783755543648 
	plane 0 -39.76151433298849014 3.000000000000000444 -0 -1 -0 0 0 -10 forward_v I I I I 
	nubs 3 open 7 
	0 3 0.09403555598282087313 3 0.1921468026196563317 3 0.2943320976883893048 3 0.4005896997168906237 3 
	0.4757193744649834133 3 0.5527453783750502225 3 
	0 10.37611572731052689 
	0.004178671700117510095 10.24483888416199839 
	0.008226504752667737966 10.1176724583535016 
	0.01223252406593927991 9.991819649906373613 
	0.01641217233587786983 9.86051212691208967 
	0.02046467273510064327 9.73319907208340851 
	0.02447836298747399844 9.607105273976996429 
	0.02865872086501097468 9.475775458002532403 
	0.0327153520114163085 9.348332631923824465 
	0.03673597343294363049 9.222021084716464756 
	0.04091682539044451394 9.090675746762151732 
	0.04497712882557989428 8.963117552330484017 
	0.04900403836725145817 8.836608458002622513 
	0.05185127374928676786 8.747159920410190637 
	0.05464915522140817439 8.65926188162587529 
	0.05742541828416419109 8.572043005202004906 
	0.06027175630232056019 8.482622659127271092 
	0.06306968410080598941 8.394723164957262895 
	0.06584679820107693093 8.307477552401344667 
	
	nullbs 
	I I 
	0 
	0 
	0 
	} I I #
edge $-1 -1 $-1 $110 1.117300408368284925 $65 2.024292245221438247 $63 $115 forward @7 unknown #
face $116 -1 $-1 $117 $64 $5 $-1 $118 forward single #
point $-1 -1 $-1 2.64462557919727459 -39.76151433298848303 -1.288921854053022287 #
point $-1 -1 $-1 -1.931062088557565115 -39.76151433298848303 -1.377024790131134768 #
ellipse-curve $-1 -1 $-1 0 0 0 0 1 0 0 0 2.942000000000000171 1 I I #
DXID-attrib $-1 -1 $-1 $-1 $73 @10 ASM ENTITY @1 6 #
face $119 -1 $-1 $95 $92 $5 $-1 $120 forward single #
loop $-1 -1 $-1 $121 $122 $73 #
cone-surface $-1 -1 $-1 0 6.600725699547513869 0 0 1 0 0 0 3.000000000000000444 1 I I 0 1 3.000000000000000444 forward I I I I #
loop $-1 -1 $-1 $-1 $123 $46 #
coedge $-1 -1 $-1 $104 $104 $105 $124 forward $74 $-1 #
coedge $-1 -1 $-1 $105 $105 $104 $124 reversed $76 $-1 #
edge $-1 -1 $-1 $125 -1.570796326794896558 $125 4.712388980384689674 $77 $126 forward @7 unknown #
coedge $-1 -1 $-1 $86 $91 $79 $108 forward $92 $-1 #
edge $-1 -1 $-1 $110 0 $88 0.5552727883994096336 $107 $127 forward @7 unknown #
pcurve $-1 -1 $-1 -1 $127 0 0 #
vertex $-1 -1 $-1 $108 $128 #
intcurve-curve $-1 -1 $-1 forward { lawintcur none F -251.8976008231529136 F -2.068638174909168459 OPEN 
	null_surface 
	null_surface 
	nullbs 
	nullbs 
	I I 
	0 
	0 
	0 
	@169 VEC(-2.3953556085323662,0,1.7081087520039633)*COS(X)+VEC(-1.7081087520039633,0,-2.3953556085323662)*SIN(X)+X*VEC(-0,-0.15915494309189535,-0)+VEC(0,-40.090748323993878,0) 
	0 
	
	0 } I I #
point $-1 -1 $-1 -1.09438714858088959 0 2.730875458350488394 #
ellipse-curve $-1 -1 $-1 0 -39.76151433298849014 0 -0 -1 -0 -9.399669456961784032e-13 0 2.371750000000000469 1 I I #
point $-1 -1 $-1 -1.93106208855765904 -39.76151433298848303 1.377024790131003096 #
ellipse-curve $-1 -1 $-1 0 -39.76151433298849014 0 0 1 0 0 0 2.942000000000000171 1 I I #
DXID-attrib $-1 -1 $-1 $-1 $95 @10 ASM ENTITY @1 8 #
face $129 -1 $-1 $-1 $130 $5 $-1 $131 forward single #
cone-surface $-1 -1 $-1 0 6.600725699547513869 0 0 1 0 0 0 2.942000000000000171 1 I I 0 1 3.000000000000000444 forward I I I I #
DXID-attrib $-1 -1 $-1 $-1 $100 @10 ASM ENTITY @1 7 #
plane-surface $-1 -1 $-1 0 -39.76151433298849014 3.000000000000000444 -0 -1 -0 0 0 -10 forward_v I I I I #
loop $-1 -1 $-1 $-1 $132 $73 #
coedge $-1 -1 $-1 $122 $122 $133 $134 reversed $101 $-1 #
coedge $-1 -1 $-1 $123 $123 $132 $135 reversed $103 $-1 #
edge $-1 -1 $-1 $136 -1.570796326794896558 $136 4.712388980384689674 $104 $137 forward @7 unknown #
vertex $-1 -1 $-1 $106 $138 #
ellipse-curve $-1 -1 $-1 0 0 0 0 1 0 21.68809872708462194 0 0 1 I I #
intcurve-curve $-1 -1 $-1 forward { surfintcur full nubs 3 open 7 
	0 3 0.11243377223607183 2 0.2207816585829122658 2 0.3250421267507735967 2 0.4252137525041235766 2 
	0.4911857518343898388 2 0.5552727883994096336 3 
	2.644625579197161347 -39.76151433298849014 1.288921854053254545 
	2.449717369303667347 -39.76151433298849014 1.609031630600181728 
	2.195216923978745349 -39.76151433298849014 1.888717196644305041 
	1.602911362214889612 -39.76151433298849014 2.32451666177692351 
	1.273961777415504315 -39.76151433298849014 2.480623202627024959 
	0.587503119244403238 -39.76151433298849014 2.652087511563868016 
	0.2379240391351928885 -39.76151433298849014 2.670865480232689659 
	-0.4347178503269004679 -39.76151433298849014 2.572779146375137049 
	-0.752013414102332578 -39.76151433298849014 2.46204868914620878 
	-1.227008673514200954 -39.76151433298849014 2.180928863232361348 
	-1.400135700175550779 -39.76151433298849014 2.045004778255282929 
	-1.70087988453599781 -39.76151433298849014 1.734959806750357769 
	-1.828352550763347795 -39.76151433298848303 1.563369285890947147 
	-1.931062088557767176 -39.76151433298848303 1.377024790130851439 
	8.503595053682272274e-06 
	
	spline forward { ref 2 } F 0 F 0.06584679820107693093 F 11.61503284781863599 F 263.5126336709715247 
	plane 0 -39.76151433298849014 3.000000000000000444 -0 -1 -0 0 0 -10 forward_v I I I I 
	nubs 3 open 7 
	0 3 0.11243377223607183 3 0.2207816585829122658 3 0.3250421267507735967 3 0.4252137525041235766 3 
	0.4911857518343898388 3 0.5552727883994096336 3 
	0 13.68367102272775959 
	0.004037242478558236355 13.55683730961376732 
	0.008104570305647779832 13.4290584374005082 
	0.01228862027681402493 13.2976126308838225 
	0.01632062028650488328 13.17094361478663345 
	0.02038510084289971505 13.04325419222034732 
	0.02456921366784271463 12.91180641109402849 
	0.02859548106173757584 12.78531749043354537 
	0.0326567881200803406 12.65772776624892515 
	0.03684085420085804474 12.52628145363386913 
	0.04086083136896505319 12.39999014624463136 
	0.04491858760116954757 12.27251197455311349 
	0.04910247002545811701 12.14107143167682779 
	0.05185793182831148485 12.0545060461059137 
	0.05463929631388241698 11.96712690375766108 
	0.05747463411326752397 11.878052139747723 
	0.06022896017687089099 11.7915224344776508 
	0.06301025408663321614 11.70414550933383424 
	0.06584679820107693093 11.61503284781863599 
	
	nullbs 
	I I 
	0 
	0 
	0 
	} I I #
point $-1 -1 $-1 2.64462557919718444 -39.76151433298848303 1.288921854053207694 #
DXID-attrib $-1 -1 $-1 $-1 $117 @10 ASM ENTITY @1 9 #
loop $-1 -1 $-1 $-1 $133 $117 #
plane-surface $-1 -1 $-1 0 52.96296573208351788 0 0 1 0 0 0 10 forward_v I I I I #
coedge $-1 -1 $-1 $132 $132 $123 $135 forward $121 $-1 #
coedge $-1 -1 $-1 $133 $133 $122 $134 forward $130 $-1 #
edge $-1 -1 $-1 $139 -1.570796326794896558 $139 4.712388980384689674 $133 $140 forward @7 unknown #
edge $-1 -1 $-1 $141 0 $141 6.283185307179586232 $132 $142 forward @7 unknown #
vertex $-1 -1 $-1 $124 $143 #
ellipse-curve $-1 -1 $-1 0 43.06187718276227372 0 0 1 0 21.68809872708462194 0 0 1 I I #
point $-1 -1 $-1 0 0 21.68809872708462194 #
vertex $-1 -1 $-1 $134 $144 #
ellipse-curve $-1 -1 $-1 0 52.96296573208351788 0 0 1 0 3.000000000000000444 0 0 1 I I #
vertex $-1 -1 $-1 $135 $145 #
ellipse-curve $-1 -1 $-1 0 43.06187718276227372 0 0 1 0 0 0 3.000000000000000444 1 I I #
point $-1 -1 $-1 0 43.06187718276227372 21.68809872708462194 #
point $-1 -1 $-1 0 52.96296573208351788 3.000000000000000444 #
point $-1 -1 $-1 0 43.06187718276227372 3.000000000000000444 #
End-of-ACIS-data 