                                                                        S      1
,,11Htest nub v1,11Htest nub v1,7Hunknown,7Hunknown,32,38,7,99,15,,1.,2,G      1
2HMM,1,0.08,15H20240504.113705,0.01,10000.,7Hunknown,7Hunknown,11,0,15H1G      2
9000100.000000;                                                         G      3
     186       1                                                00000000D      1
     186            -215       1       0                               0D      2
     514       2                                                00010000D      3
     514                       2       1                               0D      4
     510       4                                                00010000D      5
     510            -215       1       1                               0D      6
     510       5                                                00010000D      7
     510            -215       1       1                               0D      8
     510       6                                                00010000D      9
     510            -215       1       1                               0D     10
     510       7                                                00010000D     11
     510            -215       1       1                               0D     12
     510       8                                                00010000D     13
     510            -215       1       1                               0D     14
     510       9                                                00010000D     15
     510            -215       1       1                               0D     16
     510      10                                                00010000D     17
     510            -215       1       1                               0D     18
     510      11                                                00010000D     19
     510            -215       1       1                               0D     20
     510      12                                                00010000D     21
     510            -215       1       1                               0D     22
     510      13                                                00010000D     23
     510            -215       1       1                               0D     24
     510      14                                                00010000D     25
     510            -215       1       1                               0D     26
     510      15                                                00010000D     27
     510            -215       1       1                               0D     28
     510      16                                                00010000D     29
     510            -215       1       1                               0D     30
     510      17                                                00010000D     31
     510            -215       1       1                               0D     32
     510      18                                                00010000D     33
     510            -215       1       1                               0D     34
     510      19                                                00010000D     35
     510            -215       1       1                               0D     36
     510      20                                                00010000D     37
     510            -215       1       1                               0D     38
     510      21                                                00010000D     39
     510            -215       1       1                               0D     40
     508      22                                                00010000D     41
     508                       1       1                               0D     42
     508      23                                                00010000D     43
     508                       1       1                               0D     44
     508      24                                                00010000D     45
     508                       1       1                               0D     46
     508      25                                                00010000D     47
     508                       1       1                               0D     48
     508      26                                                00010000D     49
     508                       1       1                               0D     50
     508      27                                                00010000D     51
     508                       1       1                               0D     52
     508      28                                                00010000D     53
     508                       1       1                               0D     54
     508      29                                                00010000D     55
     508                       1       1                               0D     56
     508      30                                                00010000D     57
     508                       1       1                               0D     58
     508      31                                                00010000D     59
     508                       1       1                               0D     60
     508      32                                                00010000D     61
     508                       1       1                               0D     62
     508      33                                                00010000D     63
     508                       1       1                               0D     64
     508      34                                                00010000D     65
     508                       1       1                               0D     66
     508      35                                                00010000D     67
     508                       1       1                               0D     68
     508      36                                                00010000D     69
     508                       1       1                               0D     70
     508      37                                                00010000D     71
     508                       1       1                               0D     72
     508      38                                                00010000D     73
     508                       4       1                               0D     74
     508      42                                                00010000D     75
     508                       4       1                               0D     76
     126      46                                                00010000D     77
     126       0               5       0                               0D     78
     126      51                                                00010000D     79
     126       0               2       0                               0D     80
     126      53                                                00010000D     81
     126       0               5       0                               0D     82
     126      58                                                00010000D     83
     126       0               3       0                               0D     84
     126      61                                                00010000D     85
     126       0               4       0                               0D     86
     126      65                                                00010000D     87
     126       0               2       0                               0D     88
     126      67                                                00010000D     89
     126       0               4       0                               0D     90
     126      71                                                00010000D     91
     126       0               5       0                               0D     92
     126      76                                                00010000D     93
     126       0               3       0                               0D     94
     126      79                                                00010000D     95
     126       0               5       0                               0D     96
     126      84                                                00010000D     97
     126       0               3       0                               0D     98
     126      87                                                00010000D     99
     126       0               3       0                               0D    100
     126      90                                                00010000D    101
     126       0               3       0                               0D    102
     126      93                                                00010000D    103
     126       0               5       0                               0D    104
     126      98                                                00010000D    105
     126       0               3       0                               0D    106
     126     101                                                00010000D    107
     126       0               5       0                               0D    108
     126     106                                                00010000D    109
     126       0               2       0                               0D    110
     126     108                                                00010000D    111
     126       0               3       0                               0D    112
     126     111                                                00010000D    113
     126       0               3       0                               0D    114
     126     114                                                00010000D    115
     126       0               3       0                               0D    116
     126     117                                                00010000D    117
     126       0               6       0                               0D    118
     126     123                                                00010000D    119
     126       0               2       0                               0D    120
     126     125                                                00010000D    121
     126       0               6       0                               0D    122
     126     131                                                00010000D    123
     126       0               3       0                               0D    124
     126     134                                                00010000D    125
     126       0               4       0                               0D    126
     126     138                                                00010000D    127
     126       0               4       0                               0D    128
     126     142                                                00010000D    129
     126       0               4       0                               0D    130
     126     146                                                00010000D    131
     126       0               3       0                               0D    132
     126     149                                                00010000D    133
     126       0               4       0                               0D    134
     126     153                                                00010000D    135
     126       0               3       0                               0D    136
     126     156                                                00010000D    137
     126       0               3       0                               0D    138
     126     159                                                00010000D    139
     126       0               3       0                               0D    140
     126     162                                                00010000D    141
     126       0               3       0                               0D    142
     126     165                                                00010000D    143
     126       0               3       0                               0D    144
     126     168                                                00010000D    145
     126       0               3       0                               0D    146
     126     171                                                00010000D    147
     126       0               3       0                               0D    148
     126     174                                                00010000D    149
     126       0               3       0                               0D    150
     126     177                                                00010000D    151
     126       0               4       0                               0D    152
     126     181                                                00010000D    153
     126       0               3       0                               0D    154
     126     184                                                00010000D    155
     126       0               4       0                               0D    156
     126     188                                                00010000D    157
     126       0               3       0                               0D    158
     126     191                                                00010000D    159
     126       0               3       0                               0D    160
     126     194                                                00010000D    161
     126       0               3       0                               0D    162
     126     197                                                00010000D    163
     126       0               3       0                               0D    164
     126     200                                                00010000D    165
     126       0               3       0                               0D    166
     126     203                                                00010000D    167
     126       0               3       0                               0D    168
     126     206                                                00010000D    169
     126       0               3       0                               0D    170
     126     209                                                00010000D    171
     126       0               3       0                               0D    172
     128     212                                                00010000D    173
     128       0    -215       7       0                               0D    174
     128     219                                                00010000D    175
     128       0    -215       5       0                               0D    176
     128     224                                                00010000D    177
     128       0    -215       7       0                               0D    178
     128     231                                                00010000D    179
     128       0    -215       6       0                               0D    180
     128     237                                                00010000D    181
     128       0    -215       7       0                               0D    182
     128     244                                                00010000D    183
     128       0    -215       6       0                               0D    184
     128     250                                                00010000D    185
     128       0    -215       8       0                               0D    186
     128     258                                                00010000D    187
     128       0    -215       5       0                               0D    188
     128     263                                                00010000D    189
     128       0    -215       6       0                               0D    190
     128     269                                                00010000D    191
     128       0    -215       6       0                               0D    192
     128     275                                                00010000D    193
     128       0    -215       6       0                               0D    194
     128     281                                                00010000D    195
     128       0    -215       6       0                               0D    196
     128     287                                                00010000D    197
     128       0    -215       6       0                               0D    198
     128     293                                                00010000D    199
     128       0    -215       6       0                               0D    200
     128     299                                                00010000D    201
     128       0    -215       6       0                               0D    202
     128     305                                                00010000D    203
     128       0    -215       6       0                               0D    204
     128     311                                                00010000D    205
     128       0    -215       7       0                               0D    206
     128     318                                                00010000D    207
     128       0    -215       7       0                               0D    208
     502     325                                                00010000D    209
     502                      20       1                               0D    210
     504     345                                                00010001D    211
     504                      14       1                               0D    212
     406     359                                                00000000D    213
     406                       1      15                               0D    214
     314     360                                                00000200D    215
     314                       2       0                               0D    216
186,3,1,0,0,1,213;                                                     1P      1
514,18,5,1,7,1,9,1,11,1,13,1,15,1,17,1,19,1,21,1,23,1,25,1,27,1,       3P      2
29,1,31,1,33,1,35,1,37,1,39,1;                                         3P      3
510,173,1,1,41;                                                        5P      4
510,175,1,1,43;                                                        7P      5
510,177,1,1,45;                                                        9P      6
510,179,1,1,47;                                                       11P      7
510,181,1,1,49;                                                       13P      8
510,183,1,1,51;                                                       15P      9
510,185,1,1,53;                                                       17P     10
510,187,1,1,55;                                                       19P     11
510,189,1,1,57;                                                       21P     12
510,191,1,1,59;                                                       23P     13
510,193,1,1,61;                                                       25P     14
510,195,1,1,63;                                                       27P     15
510,197,1,1,65;                                                       29P     16
510,199,1,1,67;                                                       31P     17
510,201,1,1,69;                                                       33P     18
510,203,1,1,71;                                                       35P     19
510,205,1,1,73;                                                       37P     20
510,207,1,1,75;                                                       39P     21
508,4,0,211,1,1,0,0,211,2,1,0,0,211,3,1,0,0,211,4,1,0;                41P     22
508,4,0,211,2,0,0,0,211,5,0,0,0,211,6,0,0,0,211,7,0,0;                43P     23
508,4,0,211,8,1,0,0,211,9,1,0,0,211,10,1,0,0,211,6,1,0;               45P     24
508,4,0,211,9,0,0,0,211,11,0,0,0,211,12,1,0,0,211,13,0,0;             47P     25
508,4,0,211,14,1,0,0,211,15,1,0,0,211,16,1,0,0,211,17,1,0;            49P     26
508,4,0,211,15,0,0,0,211,18,0,0,0,211,19,1,0,0,211,20,0,0;            51P     27
508,4,0,211,21,1,0,0,211,22,1,0,0,211,23,1,0,0,211,24,1,0;            53P     28
508,4,0,211,17,0,0,0,211,25,0,0,0,211,22,0,0,0,211,26,0,0;            55P     29
508,4,0,211,4,0,0,0,211,27,0,0,0,211,28,0,0,0,211,29,0,0;             57P     30
508,4,0,211,30,0,0,0,211,28,1,0,0,211,31,0,0,0,211,32,0,0;            59P     31
508,4,0,211,33,0,0,0,211,32,1,0,0,211,34,0,0,0,211,35,0,0;            61P     32
508,4,0,211,36,0,0,0,211,35,1,0,0,211,37,0,0,0,211,19,0,0;            63P     33
508,4,0,211,24,0,0,0,211,38,0,0,0,211,39,0,0,0,211,40,0,0;            65P     34
508,4,0,211,41,0,0,0,211,39,1,0,0,211,42,0,0,0,211,43,0,0;            67P     35
508,4,0,211,44,0,0,0,211,43,1,0,0,211,45,0,0,0,211,46,0,0;            69P     36
508,4,0,211,47,0,0,0,211,46,1,0,0,211,48,0,0,0,211,12,0,0;            71P     37
508,16,0,211,7,1,0,0,211,10,0,0,0,211,13,1,0,0,211,48,1,0,0,211,      73P     38
45,1,0,0,211,42,1,0,0,211,38,1,0,0,211,23,0,0,0,211,25,1,0,0,         73P     39
211,16,0,0,0,211,20,1,0,0,211,37,1,0,0,211,34,1,0,0,211,31,1,0,       73P     40
0,211,27,1,0,0,211,3,0,0;                                             73P     41
508,16,0,211,5,1,0,0,211,1,0,0,0,211,29,1,0,0,211,30,1,0,0,211,       75P     42
33,1,0,0,211,36,1,0,0,211,18,1,0,0,211,14,0,0,0,211,26,1,0,0,         75P     43
211,21,0,0,0,211,40,1,0,0,211,41,1,0,0,211,44,1,0,0,211,47,1,0,       75P     44
0,211,11,1,0,0,211,8,0,0;                                             75P     45
126,2,2,0,0,0,0,-0.745255590601516,-0.745255590601516,                77P     46
-0.745255590601516,0.745255590601516,0.745255590601516,               77P     47
0.745255590601516,1.,0.734914595150004,1.,1.57400543737414,           77P     48
1.91980107567102,0.,1.5,1.,0.,0.577226558917905,1.,0.,                77P     49
-0.745255590601516,0.745255590601516,0.,0.,0.;                        77P     50
126,1,1,0,0,1,0,0.,0.,1.4,1.4,1.,1.,0.577226558917904,1.,0.,          79P     51
0.577226558917904,1.,14.,0.,1.4,0.,0.,0.;                             79P     52
126,2,2,0,0,0,0,-0.745255590601516,-0.745255590601516,                81P     53
-0.745255590601516,0.745255590601516,0.745255590601516,               81P     54
0.745255590601516,1.,0.734914595150004,1.,0.577226558917905,1.,       81P     55
14.,1.5,1.,14.,1.57400543737414,1.91980107567102,14.,                 81P     56
-0.745255590601516,0.745255590601516,0.,0.,0.;                        81P     57
126,1,1,0,0,1,0,-1.4,-1.4,0.,0.,1.,1.,1.57400543737414,               83P     58
1.91980107567102,14.,1.57400543737414,1.91980107567102,0.,-1.4,       83P     59
0.,0.,0.,0.;                                                          83P     60
126,1,1,0,0,1,0,0.0922773441082098,0.0922773441082098,                85P     61
0.20772265589179,0.20772265589179,1.,1.,-0.5772265589179,1.,0.,       85P     62
0.577226558917905,1.,0.,0.0922773441082098,0.20772265589179,0.,       85P     63
0.,0.;                                                                85P     64
126,1,1,0,0,1,0,-1.4,-1.4,0.,0.,1.,1.,-0.5772265589179,1.,14.,        87P     65
-0.5772265589179,1.,0.,-1.4,0.,0.,0.,0.;                              87P     66
126,1,1,0,0,1,0,-0.20772265589179,-0.20772265589179,                  89P     67
-0.0922773441082098,-0.0922773441082098,1.,1.,0.577226558917905,      89P     68
1.,14.,-0.5772265589179,1.,14.,-0.20772265589179,                     89P     69
-0.0922773441082098,0.,0.,0.;                                         89P     70
126,2,2,0,0,0,0,-0.745255590601516,-0.745255590601516,                91P     71
-0.745255590601516,0.745255590601516,0.745255590601516,               91P     72
0.745255590601516,1.,0.734914595150002,1.,-0.5772265589179,1.,        91P     73
0.,-1.5,1.,0.,-1.57400543737414,1.91980107567102,0.,                  91P     74
-0.745255590601516,0.745255590601516,0.,0.,0.;                        91P     75
126,1,1,0,0,1,0,0.,0.,1.4,1.4,1.,1.,-1.57400543737414,                93P     76
1.91980107567102,0.,-1.57400543737414,1.91980107567102,14.,0.,        93P     77
1.4,0.,0.,0.;                                                         93P     78
126,2,2,0,0,0,0,-0.745255590601516,-0.745255590601516,                95P     79
-0.745255590601516,0.745255590601516,0.745255590601516,               95P     80
0.745255590601516,1.,0.734914595150002,1.,-1.57400543737414,          95P     81
1.91980107567102,14.,-1.5,1.,14.,-0.5772265589179,1.,14.,             95P     82
-0.745255590601516,0.745255590601516,0.,0.,0.;                        95P     83
126,1,1,0,0,1,0,0.,0.,0.676484364252807,0.676484364252807,1.,1.,      97P     84
-2.11653862075866,8.66285433460195,0.,-1.57400543737414,              97P     85
1.91980107567101,0.,0.,0.676484364252807,0.,0.,0.;                    97P     86
126,1,1,0,0,1,0,0.,0.,1.4,1.4,1.,1.,-2.11653862075866,                99P     87
8.66285433460195,0.,-2.11653862075866,8.66285433460195,14.,0.,        99P     88
1.4,0.,0.,0.;                                                         99P     89
126,1,1,0,0,1,0,-0.676484364252807,-0.676484364252807,0.,0.,1.,      101P     90
1.,-1.57400543737414,1.91980107567101,14.,-2.11653862075866,         101P     91
8.66285433460195,14.,-0.676484364252807,0.,0.,0.,0.;                 101P     92
126,2,2,0,0,0,0,-0.74568100855808,-0.74568100855808,                 103P     93
-0.74568100855808,0.74568100855808,0.74568100855808,                 103P     94
0.74568100855808,1.,0.734626027355145,1.,0.576438583588195,-1.,      103P     95
0.,1.5,-1.,0.,1.57328533736628,-1.9206491998648,0.,                  103P     96
-0.74568100855808,0.74568100855808,0.,0.,0.;                         103P     97
126,1,1,0,0,1,0,0.,0.,1.4,1.4,1.,1.,1.57328533736628,                105P     98
-1.9206491998648,0.,1.57328533736628,-1.9206491998648,14.,0.,        105P     99
1.4,0.,0.,0.;                                                        105P    100
126,2,2,0,0,0,0,-0.74568100855808,-0.74568100855808,                 107P    101
-0.74568100855808,0.74568100855808,0.74568100855808,                 107P    102
0.74568100855808,1.,0.734626027355145,1.,1.57328533736628,           107P    103
-1.9206491998648,14.,1.5,-1.,14.,0.576438583588195,-1.,14.,          107P    104
-0.74568100855808,0.74568100855808,0.,0.,0.;                         107P    105
126,1,1,0,0,1,0,-1.4,-1.4,0.,0.,1.,1.,0.576438583588195,-1.,14.,     109P    106
0.576438583588195,-1.,0.,-1.4,0.,0.,0.,0.;                           109P    107
126,1,1,0,0,1,0,0.,0.,0.676353221714768,0.676353221714768,1.,1.,     111P    108
2.10997703053716,-8.66285433460195,0.,1.57328533736628,              111P    109
-1.9206491998648,0.,0.,0.676353221714768,0.,0.,0.;                   111P    110
126,1,1,0,0,1,0,0.,0.,1.4,1.4,1.,1.,2.10997703053716,                113P    111
-8.66285433460195,0.,2.10997703053716,-8.66285433460195,14.,0.,      113P    112
1.4,0.,0.,0.;                                                        113P    113
126,1,1,0,0,1,0,-0.676353221714768,-0.676353221714768,0.,0.,1.,      115P    114
1.,1.57328533736628,-1.9206491998648,14.,2.10997703053716,           115P    115
-8.66285433460195,14.,-0.676353221714768,0.,0.,0.,0.;                115P    116
126,2,2,0,0,0,0,-0.745255590601562,-0.745255590601562,               117P    117
-0.745255590601562,0.745255590601563,0.745255590601563,              117P    118
0.745255590601563,1.,0.734914595149972,1.,-1.57400543737406,         117P    119
-1.91980107567111,0.,-1.5,-0.999999999999999,0.,                     117P    120
-0.577226558917814,-1.,0.,-0.745255590601562,0.745255590601563,      117P    121
0.,0.,0.;                                                            117P    122
126,1,1,0,0,1,0,0.,0.,1.4,1.4,1.,1.,-0.577226558917814,-1.,0.,       119P    123
-0.577226558917814,-1.,14.,0.,1.4,0.,0.,0.;                          119P    124
126,2,2,0,0,0,0,-0.745255590601563,-0.745255590601563,               121P    125
-0.745255590601563,0.745255590601562,0.745255590601562,              121P    126
0.745255590601562,1.,0.734914595149972,1.,-0.577226558917814,        121P    127
-1.,14.,-1.5,-0.999999999999999,14.,-1.57400543737406,               121P    128
-1.91980107567111,14.,-0.745255590601563,0.745255590601562,0.,       121P    129
0.,0.;                                                               121P    130
126,1,1,0,0,1,0,-1.4,-1.4,0.,0.,1.,1.,-1.57400543737406,             123P    131
-1.91980107567111,14.,-1.57400543737406,-1.91980107567111,0.,        123P    132
-1.4,0.,0.,0.,0.;                                                    123P    133
126,1,1,0,0,1,0,-0.207722655891782,-0.207722655891782,               125P    134
-0.0923561416411807,-0.0923561416411807,1.,1.,                       125P    135
-0.577226558917814,-1.,14.,0.576438583588195,-1.,14.,                125P    136
-0.207722655891782,-0.0923561416411807,0.,0.,0.;                     125P    137
126,1,1,0,0,1,0,0.0923561416411807,0.0923561416411807,               127P    138
0.207722655891782,0.207722655891782,1.,1.,0.576438583588195,-1.,     127P    139
0.,-0.577226558917814,-1.,0.,0.0923561416411807,                     127P    140
0.207722655891782,0.,0.,0.;                                          127P    141
126,1,1,0,0,1,0,-0.768761708361019,-0.768761708361019,               129P    142
-0.0922773441082099,-0.0922773441082099,1.,1.,2.11653862075866,      129P    143
8.66285433460198,14.,1.57400543737414,1.91980107567102,14.,          129P    144
-0.768761708361019,-0.0922773441082099,0.,0.,0.;                     129P    145
126,1,1,0,0,1,0,0.,0.,1.4,1.4,1.,1.,2.11653862075866,                131P    146
8.66285433460198,0.,2.11653862075866,8.66285433460198,14.,0.,        131P    147
1.4,0.,0.,0.;                                                        131P    148
126,1,1,0,0,1,0,0.0922773441082099,0.0922773441082099,               133P    149
0.768761708361019,0.768761708361019,1.,1.,1.57400543737414,          133P    150
1.91980107567102,0.,2.11653862075866,8.66285433460198,0.,            133P    151
0.0922773441082099,0.768761708361019,0.,0.,0.;                       133P    152
126,1,1,0,0,1,0,0.,0.,0.580940694746368,0.580940694746368,1.,1.,     135P    153
2.11653862075866,8.66285433460198,0.,7.92594556822233,               135P    154
8.66285433460195,0.,0.,0.580940694746368,0.,0.,0.;                   135P    155
126,1,1,0,0,1,0,-0.580940694746368,-0.580940694746368,0.,0.,1.,      137P    156
1.,7.92594556822233,8.66285433460195,14.,2.11653862075866,           137P    157
8.66285433460198,14.,-0.580940694746368,0.,0.,0.,0.;                 137P    158
126,1,1,0,0,1,0,0.,0.,1.4,1.4,1.,1.,7.92594556822234,                139P    159
8.66285433460195,0.,7.92594556822234,8.66285433460195,14.,0.,        139P    160
1.4,0.,0.,0.;                                                        139P    161
126,1,1,0,0,1,0,0.,0.,1.73257086692039,1.73257086692039,1.,1.,       141P    162
7.92594556822234,8.66285433460195,0.,7.92594556822234,               141P    163
-8.66285433460195,0.,0.,1.73257086692039,0.,0.,0.;                   141P    164
126,1,1,0,0,1,0,-1.73257086692039,-1.73257086692039,0.,0.,1.,1.,     143P    165
7.92594556822234,-8.66285433460195,14.,7.92594556822234,             143P    166
8.66285433460195,14.,-1.73257086692039,0.,0.,0.,0.;                  143P    167
126,1,1,0,0,1,0,0.,0.,1.4,1.4,1.,1.,7.92594556822234,                145P    168
-8.66285433460195,0.,7.92594556822234,-8.66285433460195,14.,0.,      145P    169
1.4,0.,0.,0.;                                                        145P    170
126,1,1,0,0,1,0,0.,0.,0.581596853768518,0.581596853768518,1.,1.,     147P    171
7.92594556822234,-8.66285433460195,0.,2.10997703053716,              147P    172
-8.66285433460195,0.,0.,0.581596853768518,0.,0.,0.;                  147P    173
126,1,1,0,0,1,0,-0.581596853768518,-0.581596853768518,0.,0.,1.,      149P    174
1.,2.10997703053716,-8.66285433460195,14.,7.92594556822234,          149P    175
-8.66285433460195,14.,-0.581596853768518,0.,0.,0.,0.;                149P    176
126,1,1,0,0,1,0,-0.768761708361011,-0.768761708361011,               151P    177
-0.0922773441082183,-0.0922773441082183,1.,1.,-2.11653862075794,     151P    178
-8.66285433460195,14.,-1.57400543737406,-1.91980107567111,14.,       151P    179
-0.768761708361011,-0.0922773441082183,0.,0.,0.;                     151P    180
126,1,1,0,0,1,0,0.,0.,1.4,1.4,1.,1.,-2.11653862075794,               153P    181
-8.66285433460195,0.,-2.11653862075794,-8.66285433460195,14.,0.,     153P    182
1.4,0.,0.,0.;                                                        153P    183
126,1,1,0,0,1,0,0.0922773441082183,0.0922773441082183,               155P    184
0.768761708361011,0.768761708361011,1.,1.,-1.57400543737406,         155P    185
-1.91980107567111,0.,-2.11653862075794,-8.66285433460195,0.,         155P    186
0.0922773441082183,0.768761708361011,0.,0.,0.;                       155P    187
126,1,1,0,0,1,0,0.,0.,0.580940694746439,0.580940694746439,1.,1.,     157P    188
-2.11653862075794,-8.66285433460195,0.,-7.92594556822233,            157P    189
-8.66285433460195,0.,0.,0.580940694746439,0.,0.,0.;                  157P    190
126,1,1,0,0,1,0,-0.580940694746439,-0.580940694746439,0.,0.,1.,      159P    191
1.,-7.92594556822233,-8.66285433460195,14.,-2.11653862075794,        159P    192
-8.66285433460195,14.,-0.580940694746439,0.,0.,0.,0.;                159P    193
126,1,1,0,0,1,0,0.,0.,1.4,1.4,1.,1.,-7.92594556822233,               161P    194
-8.66285433460195,0.,-7.92594556822233,-8.66285433460195,14.,0.,     161P    195
1.4,0.,0.,0.;                                                        161P    196
126,1,1,0,0,1,0,0.,0.,1.73257086692039,1.73257086692039,1.,1.,       163P    197
-7.92594556822233,-8.66285433460195,0.,-7.92594556822233,            163P    198
8.66285433460195,0.,0.,1.73257086692039,0.,0.,0.;                    163P    199
126,1,1,0,0,1,0,-1.73257086692039,-1.73257086692039,0.,0.,1.,1.,     165P    200
-7.92594556822233,8.66285433460195,14.,-7.92594556822233,            165P    201
-8.66285433460195,14.,-1.73257086692039,0.,0.,0.,0.;                 165P    202
126,1,1,0,0,1,0,0.,0.,1.4,1.4,1.,1.,-7.92594556822233,               167P    203
8.66285433460195,0.,-7.92594556822233,8.66285433460195,14.,0.,       167P    204
1.4,0.,0.,0.;                                                        167P    205
126,1,1,0,0,1,0,0.,0.,0.580940694746368,0.580940694746368,1.,1.,     169P    206
-7.92594556822233,8.66285433460195,0.,-2.11653862075866,             169P    207
8.66285433460195,0.,0.,0.580940694746368,0.,0.,0.;                   169P    208
126,1,1,0,0,1,0,-0.580940694746368,-0.580940694746368,0.,0.,1.,      171P    209
1.,-2.11653862075866,8.66285433460195,14.,-7.92594556822233,         171P    210
8.66285433460195,14.,-0.580940694746368,0.,0.,0.,0.;                 171P    211
128,1,2,1,2,0,0,0,0,0,0.,0.,14.,14.,-0.745255590601516,              173P    212
-0.745255590601516,-0.745255590601516,0.745255590601516,             173P    213
0.745255590601516,0.745255590601516,1.,1.,0.734914595150002,         173P    214
0.734914595150002,1.,1.,0.577226558917904,1.,0.,                     173P    215
0.577226558917904,1.,14.,1.5,1.,0.,1.5,1.,14.,1.57400543737414,      173P    216
1.91980107567102,0.,1.57400543737414,1.91980107567102,14.,0.,        173P    217
14.,-0.745255590601516,0.745255590601516;                            173P    218
128,1,1,1,1,0,0,1,0,0,0.0912773441082098,0.0912773441082098,         175P    219
0.20872265589179,0.20872265589179,-0.001,-0.001,1.401,1.401,1.,      175P    220
1.,1.,1.,0.587226558917905,1.,-0.01,-0.5872265589179,1.,-0.01,       175P    221
0.587226558917905,1.,14.01,-0.5872265589179,1.,14.01,                175P    222
0.0912773441082098,0.20872265589179,-0.001,1.401;                    175P    223
128,1,2,1,2,0,0,0,0,0,0.,0.,14.,14.,-0.745255590601516,              177P    224
-0.745255590601516,-0.745255590601516,0.745255590601516,             177P    225
0.745255590601516,0.745255590601516,1.,1.,0.734914595150002,         177P    226
0.734914595150002,1.,1.,-1.57400543737414,1.91980107567102,0.,       177P    227
-1.57400543737414,1.91980107567102,14.,-1.5,1.,0.,-1.5,1.,14.,       177P    228
-0.5772265589179,1.,0.,-0.5772265589179,1.,14.,0.,14.,               177P    229
-0.745255590601516,0.745255590601516;                                177P    230
128,1,1,1,1,0,0,1,0,0,0.0912773441082097,0.0912773441082097,         179P    231
0.769761708361016,0.769761708361016,-0.001,-0.001,1.401,1.401,       179P    232
1.,1.,1.,1.,-1.57320344813085,1.90983328688645,-0.01,                179P    233
-2.11734061000195,8.67282212338651,-0.01,-1.57320344813085,          179P    234
1.90983328688645,14.01,-2.11734061000195,8.67282212338651,14.01,     179P    235
0.0912773441082097,0.769761708361016,-0.001,1.401;                   179P    236
128,1,2,1,2,0,0,0,0,0,0.,0.,14.,14.,-0.74568100855808,               181P    237
-0.74568100855808,-0.74568100855808,0.74568100855808,                181P    238
0.74568100855808,0.74568100855808,1.,1.,0.734626027355144,           181P    239
0.734626027355144,1.,1.,1.57328533736628,-1.9206491998648,0.,        181P    240
1.57328533736628,-1.9206491998648,14.,1.5,-1.,0.,1.5,-1.,14.,        181P    241
0.576438583588195,-1.,0.,0.576438583588195,-1.,14.,0.,14.,           181P    242
-0.74568100855808,0.74568100855808;                                  181P    243
128,1,1,1,1,0,0,1,0,0,0.0913561416411806,0.0913561416411806,         183P    244
0.769709363355949,0.769709363355949,-0.001,-0.001,1.401,1.401,       183P    245
1.,1.,1.,1.,1.57249182936493,-1.91068073232702,-0.01,                183P    246
2.11077053853851,-8.67282280213973,-0.01,1.57249182936493,           183P    247
-1.91068073232702,14.01,2.11077053853851,-8.67282280213973,          183P    248
14.01,0.0913561416411806,0.769709363355949,-0.001,1.401;             183P    249
128,1,2,1,2,0,0,0,0,0,0.,0.,14.,14.,-0.745255590601563,              185P    250
-0.745255590601563,-0.745255590601563,0.745255590601562,             185P    251
0.745255590601562,0.745255590601562,1.,1.,0.734914595149971,         185P    252
0.734914595149971,1.,1.,-0.577226558917814,-1.,0.,                   185P    253
-0.577226558917814,-1.,14.,-1.5,-1.,0.,-1.5,-1.,14.,                 185P    254
-1.57400543737406,-1.91980107567111,0.,-1.57400543737406,            185P    255
-1.91980107567111,14.,0.,14.,-0.745255590601563,                     185P    256
0.745255590601562;                                                   185P    257
128,1,1,1,1,0,0,1,0,0,0.0912773441082184,0.0912773441082184,         187P    258
0.208643858358819,0.208643858358819,-0.001,-0.001,1.401,1.401,       187P    259
1.,1.,1.,1.,-0.587226558917814,-1.,-0.01,0.586438583588195,-1.,      187P    260
-0.01,-0.587226558917814,-1.,14.01,0.586438583588195,-1.,14.01,      187P    261
0.0912773441082184,0.208643858358819,-0.001,1.401;                   187P    262
128,1,1,1,1,0,0,1,0,0,-0.001,-0.001,0.677484364252809,               189P    263
0.677484364252809,-0.001,-0.001,1.401,1.401,1.,1.,1.,1.,             189P    264
2.11734061000195,8.67282212338654,-0.01,1.57320344813085,            189P    265
1.90983328688645,-0.01,2.11734061000195,8.67282212338654,14.01,      189P    266
1.57320344813085,1.90983328688645,14.01,-0.001,                      189P    267
0.677484364252809,-0.001,1.401;                                      189P    268
128,1,1,1,1,0,0,1,0,0,-0.00100000000000011,-0.00100000000000011,     191P    269
0.581940694746368,0.581940694746368,-0.001,-0.001,1.401,1.401,       191P    270
1.,1.,1.,1.,7.93594556822234,8.66285433460195,-0.01,                 191P    271
2.10653862075866,8.66285433460198,-0.01,7.93594556822234,            191P    272
8.66285433460195,14.01,2.10653862075866,8.66285433460198,14.01,      191P    273
-0.00100000000000011,0.581940694746368,-0.001,1.401;                 191P    274
128,1,1,1,1,0,0,1,0,0,-0.001,-0.001,1.73357086692039,                193P    275
1.73357086692039,-0.001,-0.001,1.401,1.401,1.,1.,1.,1.,              193P    276
7.92594556822234,-8.67285433460195,-0.01,7.92594556822234,           193P    277
8.67285433460195,-0.01,7.92594556822234,-8.67285433460195,14.01,     193P    278
7.92594556822234,8.67285433460195,14.01,-0.001,1.73357086692039,     193P    279
-0.001,1.401;                                                        193P    280
128,1,1,1,1,0,0,1,0,0,-0.00100000000000003,-0.00100000000000003,     195P    281
0.582596853768518,0.582596853768518,-0.001,-0.001,1.401,1.401,       195P    282
1.,1.,1.,1.,2.09997703053716,-8.66285433460195,-0.01,                195P    283
7.93594556822234,-8.66285433460195,-0.01,2.09997703053716,           195P    284
-8.66285433460195,14.01,7.93594556822234,-8.66285433460195,          195P    285
14.01,-0.00100000000000003,0.582596853768518,-0.001,1.401;           195P    286
128,1,1,1,1,0,0,1,0,0,-0.00100000000000011,-0.00100000000000011,     197P    287
0.677484364252793,0.677484364252793,-0.001,-0.001,1.401,1.401,       197P    288
1.,1.,1.,1.,-2.11734061000123,-8.67282212338651,-0.01,               197P    289
-1.57320344813077,-1.90983328688655,-0.01,-2.11734061000123,         197P    290
-8.67282212338651,14.01,-1.57320344813077,-1.90983328688655,         197P    291
14.01,-0.00100000000000011,0.677484364252793,-0.001,1.401;           197P    292
128,1,1,1,1,0,0,1,0,0,-0.001,-0.001,0.581940694746439,               199P    293
0.581940694746439,-0.001,-0.001,1.401,1.401,1.,1.,1.,1.,             199P    294
-7.93594556822233,-8.66285433460195,-0.01,-2.10653862075794,         199P    295
-8.66285433460195,-0.01,-7.93594556822233,-8.66285433460195,         199P    296
14.01,-2.10653862075794,-8.66285433460195,14.01,-0.001,              199P    297
0.581940694746439,-0.001,1.401;                                      199P    298
128,1,1,1,1,0,0,1,0,0,-0.001,-0.001,1.73357086692039,                201P    299
1.73357086692039,-0.001,-0.001,1.401,1.401,1.,1.,1.,1.,              201P    300
-7.92594556822233,8.67285433460195,-0.01,-7.92594556822233,          201P    301
-8.67285433460195,-0.01,-7.92594556822233,8.67285433460195,          201P    302
14.01,-7.92594556822233,-8.67285433460195,14.01,-0.001,              201P    303
1.73357086692039,-0.001,1.401;                                       201P    304
128,1,1,1,1,0,0,1,0,0,-0.00100000000000003,-0.00100000000000003,     203P    305
0.581940694746368,0.581940694746368,-0.001,-0.001,1.401,1.401,       203P    306
1.,1.,1.,1.,-2.10653862075866,8.66285433460195,-0.01,                203P    307
-7.93594556822233,8.66285433460195,-0.01,-2.10653862075866,          203P    308
8.66285433460195,14.01,-7.93594556822233,8.66285433460195,14.01,     203P    309
-0.00100000000000003,0.581940694746368,-0.001,1.401;                 203P    310
128,1,1,1,1,0,0,1,0,0,-0.793594556822233,-0.793594556822233,         205P    311
0.793594556822234,0.793594556822234,-0.867285433460196,              205P    312
-0.867285433460196,0.867285433460196,0.867285433460196,1.,1.,1.,     205P    313
1.,-7.93594556822233,-8.67285433460195,14.,7.93594556822234,         205P    314
-8.67285433460195,14.,-7.93594556822233,8.67285433460198,14.,        205P    315
7.93594556822234,8.67285433460198,14.,-0.793594556822233,            205P    316
0.793594556822234,-0.867285433460196,0.867285433460196;              205P    317
128,1,1,1,1,0,0,1,0,0,-0.793594556822233,-0.793594556822233,         207P    318
0.793594556822234,0.793594556822234,-0.867285433460196,              207P    319
-0.867285433460196,0.867285433460196,0.867285433460196,1.,1.,1.,     207P    320
1.,7.93594556822234,-8.67285433460195,0.,-7.93594556822233,          207P    321
-8.67285433460195,0.,7.93594556822234,8.67285433460198,0.,           207P    322
-7.93594556822233,8.67285433460198,0.,-0.793594556822233,            207P    323
0.793594556822234,-0.867285433460196,0.867285433460196;              207P    324
502,32,1.57400543737414,1.91980107567102,0.,0.577226558917905,       209P    325
1.,0.,0.577226558917905,1.,14.,1.57400543737414,                     209P    326
1.91980107567102,14.,-0.5772265589179,1.,0.,-0.5772265589179,1.,     209P    327
14.,-1.57400543737414,1.91980107567102,0.,-1.57400543737414,         209P    328
1.91980107567102,14.,-2.11653862075866,8.66285433460195,0.,          209P    329
-2.11653862075866,8.66285433460195,14.,0.576438583588195,-1.,0.,     209P    330
1.57328533736628,-1.9206491998648,0.,1.57328533736628,               209P    331
-1.9206491998648,14.,0.576438583588195,-1.,14.,2.10997703053716,     209P    332
-8.66285433460195,0.,2.10997703053716,-8.66285433460195,14.,         209P    333
-1.57400543737406,-1.91980107567111,0.,-0.577226558917814,-1.,       209P    334
0.,-0.577226558917814,-1.,14.,-1.57400543737406,                     209P    335
-1.91980107567111,14.,2.11653862075866,8.66285433460198,14.,         209P    336
2.11653862075866,8.66285433460198,0.,7.92594556822234,               209P    337
8.66285433460195,0.,7.92594556822234,8.66285433460195,14.,           209P    338
7.92594556822234,-8.66285433460195,0.,7.92594556822234,              209P    339
-8.66285433460195,14.,-2.11653862075794,-8.66285433460195,14.,       209P    340
-2.11653862075794,-8.66285433460195,0.,-7.92594556822233,            209P    341
-8.66285433460195,0.,-7.92594556822233,-8.66285433460195,14.,        209P    342
-7.92594556822233,8.66285433460195,0.,-7.92594556822233,             209P    343
8.66285433460195,14.;                                                209P    344
504,48,77,209,1,209,2,79,209,2,209,3,81,209,3,209,4,83,209,4,        211P    345
209,1,85,209,5,209,2,87,209,6,209,5,89,209,3,209,6,91,209,5,209,     211P    346
7,93,209,7,209,8,95,209,8,209,6,97,209,9,209,7,99,209,9,209,10,      211P    347
101,209,8,209,10,103,209,11,209,12,105,209,12,209,13,107,209,13,     211P    348
209,14,109,209,14,209,11,111,209,15,209,12,113,209,15,209,16,        211P    349
115,209,13,209,16,117,209,17,209,18,119,209,18,209,19,121,209,       211P    350
19,209,20,123,209,20,209,17,125,209,19,209,14,127,209,11,209,18,     211P    351
129,209,21,209,4,131,209,22,209,21,133,209,1,209,22,135,209,22,      211P    352
209,23,137,209,24,209,21,139,209,23,209,24,141,209,23,209,25,        211P    353
143,209,26,209,24,145,209,25,209,26,147,209,25,209,15,149,209,       211P    354
16,209,26,151,209,27,209,20,153,209,28,209,27,155,209,17,209,28,     211P    355
157,209,28,209,29,159,209,30,209,27,161,209,29,209,30,163,209,       211P    356
29,209,31,165,209,32,209,30,167,209,31,209,32,169,209,31,209,9,      211P    357
171,209,10,209,32;                                                   211P    358
406,1,5HBody1;                                                       213P    359
314,62.7450980392157,62.7450980392157,62.7450980392157,13HSteel      215P    360
- Satin;                                                             215P    361
S      1G      3D    216P    361                                        T      1
