700 0 1 0           
30 Autodesk Translation Framework 21 ASM 229.10.0.65535 NT 24 Sat May  4 12:05:09 2024 
1 9.999999999999999547e-07 1.000000000000000036e-10 
body $1 -1 $-1 $2 $-1 $3 #
rgb_color-st-attrib $-1 -1 $4 $-1 $0 0.627450980392156854 0.627450980392156854 0.627450980392156854 #
lump $-1 -1 $-1 $-1 $5 $0 #
transform $-1 -1 1 0 0 0 1 0 0 0 1 0 0 0 1 no_rotate no_reflect no_shear #
ATTRIB_CUSTOM-attrib $-1 -1 $-1 $1 $0 @20 Timestamp_attrib_def 1 1706841815218604 #
shell $-1 -1 $-1 $-1 $-1 $6 $-1 $2 #
face $7 -1 $-1 $8 $9 $5 $-1 $10 forward single #
DXID-attrib $-1 -1 $-1 $-1 $6 @10 ASM ENTITY @1 0 #
face $11 -1 $-1 $12 $13 $5 $-1 $14 forward single #
loop $-1 -1 $-1 $-1 $15 $6 #
cone-surface $-1 -1 $-1 0.5772265589179044198 2.000000000000000888 0 0 0 1 0.6781596698680243396 -0.7349145951500024587 0 1 I I 0 -1 0.999999999999999889 forward I I I I #
DXID-attrib $-1 -1 $-1 $-1 $8 @10 ASM ENTITY @1 1 #
face $16 -1 $-1 $17 $18 $5 $-1 $19 forward single #
loop $-1 -1 $-1 $-1 $20 $8 #
plane-surface $-1 -1 $-1 1.500000000000002665 0.999999999999999889 0 0 1 0 -10 -0 -0 forward_v I I I I #
coedge $-1 -1 $-1 $21 $22 $23 $24 forward $9 $-1 #
DXID-attrib $-1 -1 $-1 $-1 $12 @10 ASM ENTITY @1 2 #
face $25 -1 $-1 $26 $27 $5 $-1 $28 forward single #
loop $-1 -1 $-1 $-1 $29 $12 #
cone-surface $-1 -1 $-1 -0.57722655891790009 2 0 0 0 1 -0.6781596698680245616 -0.7349145951500024587 0 1 I I 0 -1 1 forward I I I I #
coedge $-1 -1 $-1 $30 $31 $21 $32 reversed $13 $-1 #
coedge $-1 -1 $-1 $33 $15 $20 $32 forward $9 $-1 #
coedge $-1 -1 $-1 $15 $33 $34 $35 forward $9 $-1 #
coedge $-1 -1 $-1 $36 $37 $15 $24 reversed $38 $-1 #
edge $-1 -1 $-1 $39 -0.745255590601516249 $40 0.7452555906015156939 $15 $41 forward @7 unknown #
DXID-attrib $-1 -1 $-1 $-1 $17 @10 ASM ENTITY @1 3 #
face $42 -1 $-1 $43 $44 $5 $-1 $45 forward single #
loop $-1 -1 $-1 $-1 $46 $17 #
plane-surface $-1 -1 $-1 -1.49999999999999778 0.999999999999999778 0 0.9967788784562371385 0.08019892432898433066 0 -0.8019892432898433343 9.967788784562371163 0 forward_v I I I I #
coedge $-1 -1 $-1 $47 $48 $49 $50 forward $18 $-1 #
coedge $51 -1 $-1 $52 $20 $37 $53 reversed $13 $-1 #
coedge $-1 -1 $-1 $20 $52 $54 $55 reversed $13 $-1 #
edge $-1 -1 $-1 $40 0 $56 1.400000000000000133 $20 $57 forward @7 tangent #
coedge $-1 -1 $-1 $22 $21 $58 $59 forward $9 $-1 #
coedge $-1 -1 $-1 $60 $61 $22 $35 reversed $62 $-1 #
edge $-1 -1 $-1 $63 -1.400000000000000133 $39 0 $34 $64 forward @7 tangent #
coedge $65 -1 $-1 $66 $23 $61 $67 forward $38 $-1 #
coedge $68 -1 $-1 $23 $49 $30 $53 forward $38 $-1 #
loop $-1 -1 $-1 $-1 $37 $69 #
vertex $-1 -1 $-1 $24 $70 #
vertex $-1 -1 $-1 $24 $71 #
ellipse-curve $-1 -1 $-1 0.5772265589179044198 2.000000000000000888 0 0 0 -1 0.6781596698680243396 -0.7349145951500024587 0 1 I I #
DXID-attrib $-1 -1 $-1 $-1 $26 @10 ASM ENTITY @1 4 #
face $72 -1 $-1 $73 $74 $5 $-1 $75 forward single #
loop $-1 -1 $-1 $-1 $76 $26 #
cone-surface $-1 -1 $-1 0.5764385835881951081 -2 0 0 0 1 0.6784722543570957942 0.734626027355143929 0 1 I I 0 -1 1 forward I I I I #
coedge $-1 -1 $-1 $77 $78 $47 $79 reversed $27 $-1 #
coedge $-1 -1 $-1 $80 $29 $46 $79 forward $18 $-1 #
coedge $-1 -1 $-1 $29 $80 $52 $81 forward $18 $-1 #
coedge $-1 -1 $-1 $37 $82 $29 $50 reversed $38 $-1 #
edge $-1 -1 $-1 $83 -0.7452555906015159159 $84 0.745255590601516027 $29 $85 forward @7 unknown #
ATTRIB_CUSTOM-attrib $-1 -1 $-1 $-1 $30 @17 sketch_attrib_def 1 1 3 @13 134 0 1 0 1 1 #
coedge $-1 -1 $-1 $31 $30 $48 $81 reversed $13 $-1 #
edge $-1 -1 $-1 $83 0.09227734410820975786 $40 0.207722655891790231 $30 $86 forward @7 unknown #
coedge $-1 -1 $-1 $87 $58 $31 $55 forward $88 $-1 #
edge $-1 -1 $-1 $56 -0.207722655891790231 $89 -0.09227734410820975786 $31 $90 forward @7 unknown #
vertex $-1 -1 $-1 $32 $91 #
straight-curve $-1 -1 $-1 0.5772265589179044198 0.999999999999999889 0 0 0 10 F -0.3100010000000000265 F 1.710001000000000104 #
coedge $-1 -1 $-1 $54 $92 $33 $59 reversed $88 $-1 #
edge $-1 -1 $-1 $56 -0.7452555906015156939 $63 0.745255590601516249 $33 $93 forward @7 unknown #
coedge $-1 -1 $-1 $94 $34 $92 $95 reversed $62 $-1 #
coedge $96 -1 $-1 $34 $94 $36 $67 reversed $62 $-1 #
loop $-1 -1 $-1 $-1 $34 $97 #
vertex $-1 -1 $-1 $59 $98 #
straight-curve $-1 -1 $-1 1.574005437374141891 1.919801075671016877 0 0 0 -10 F -1.710001000000000104 F 0.3100010000000000265 #
ATTRIB_CUSTOM-attrib $-1 -1 $-1 $-1 $36 @17 sketch_attrib_def 1 1 3 @13 151 0 1 0 1 1 #
coedge $99 -1 $-1 $100 $36 $101 $102 forward $38 $-1 #
edge $-1 -1 $-1 $39 0.09227734410820988276 $103 0.7687617083610194246 $61 $104 forward @7 unknown #
ATTRIB_CUSTOM-attrib $-1 -1 $-1 $-1 $37 @17 sketch_attrib_def 1 1 3 @13 134 0 1 0 1 1 #
face $105 -1 $-1 $-1 $38 $5 $-1 $106 reversed single #
point $-1 -1 $-1 1.574005437374141669 1.919801075671016877 0 #
point $-1 -1 $-1 0.5772265589179046419 0.999999999999999889 0 #
DXID-attrib $-1 -1 $-1 $-1 $43 @10 ASM ENTITY @1 5 #
face $107 -1 $-1 $108 $109 $5 $-1 $110 forward single #
loop $-1 -1 $-1 $-1 $111 $43 #
plane-surface $-1 -1 $-1 1.500000000000002442 -0.999999999999999778 0 -0.9968467537780837384 -0.07935080013520115494 0 0.7935080013520114939 -9.968467537780837162 0 forward_v I I I I #
coedge $-1 -1 $-1 $112 $113 $114 $115 forward $44 $-1 #
coedge $116 -1 $-1 $117 $46 $82 $118 reversed $27 $-1 #
coedge $-1 -1 $-1 $46 $117 $119 $120 reversed $27 $-1 #
edge $-1 -1 $-1 $84 0 $121 1.400000000000000133 $46 $122 forward @7 tangent #
coedge $-1 -1 $-1 $48 $47 $87 $123 forward $18 $-1 #
edge $-1 -1 $-1 $89 -1.400000000000000133 $83 0 $52 $124 forward @7 tangent #
coedge $125 -1 $-1 $49 $126 $77 $118 forward $38 $-1 #
vertex $-1 -1 $-1 $53 $127 #
vertex $-1 -1 $-1 $50 $128 #
ellipse-curve $-1 -1 $-1 -0.57722655891790009 2 0 0 0 -1 -0.6781596698680245616 -0.7349145951500024587 0 1 I I #
straight-curve $-1 -1 $-1 -1.49999999999999778 0.999999999999999889 0 10 0 0 F 0 F 0.3000000000000000444 #
coedge $-1 -1 $-1 $119 $54 $80 $123 reversed $88 $-1 #
loop $-1 -1 $-1 $-1 $54 $129 #
vertex $-1 -1 $-1 $81 $130 #
straight-curve $-1 -1 $-1 -1.49999999999999778 0.999999999999999889 14.00000000000000178 -10 -0 -0 I I #
point $-1 -1 $-1 0.5772265589179046419 0.999999999999999889 14.00000000000000178 #
coedge $-1 -1 $-1 $58 $131 $60 $95 forward $88 $-1 #
ellipse-curve $-1 -1 $-1 0.5772265589179044198 2.000000000000000888 14.00000000000000178 0 0 1 0.6781596698680243396 -0.7349145951500024587 0 1 I I #
coedge $-1 -1 $-1 $61 $60 $132 $133 reversed $62 $-1 #
edge $-1 -1 $-1 $134 -0.7687617083610194246 $63 -0.09227734410820988276 $60 $135 forward @7 unknown #
ATTRIB_CUSTOM-attrib $-1 -1 $-1 $-1 $61 @17 sketch_attrib_def 1 1 3 @13 151 0 1 0 1 1 #
face $136 -1 $-1 $137 $62 $5 $-1 $138 forward single #
point $-1 -1 $-1 1.574005437374141669 1.919801075671016877 14.00000000000000178 #
ATTRIB_CUSTOM-attrib $-1 -1 $-1 $-1 $66 @17 sketch_attrib_def 1 1 3 @13 113 0 1 0 1 1 #
coedge $139 -1 $-1 $140 $66 $141 $142 forward $38 $-1 #
coedge $143 -1 $-1 $132 $144 $66 $102 reversed $145 $-1 #
edge $-1 -1 $-1 $103 0 $146 0.5809406947463675586 $101 $147 forward @7 unknown #
vertex $-1 -1 $-1 $133 $148 #
straight-curve $-1 -1 $-1 1.500000000000002442 0.999999999999999889 0 0.8019892432898378942 9.967788784562369386 0 F 0 F 0.7687617083610194246 #
DXID-attrib $-1 -1 $-1 $-1 $69 @10 ASM ENTITY @2 17 #
plane-surface $-1 -1 $-1 2.220446049250313081e-15 1.221245327087672194e-14 0 0 0 1 10 0 0 forward_v I I I I #
DXID-attrib $-1 -1 $-1 $-1 $73 @10 ASM ENTITY @1 6 #
face $149 -1 $-1 $97 $150 $5 $-1 $151 forward single #
loop $-1 -1 $-1 $-1 $152 $73 #
cone-surface $-1 -1 $-1 -0.5772265589178141587 -1.999999999999999556 0 0 0 1 -0.6781596698680589785 0.7349145951499708174 0 1 I I 0 -1 1 forward I I I I #
coedge $-1 -1 $-1 $153 $154 $112 $155 reversed $74 $-1 #
coedge $-1 -1 $-1 $156 $76 $111 $155 forward $44 $-1 #
coedge $-1 -1 $-1 $76 $156 $157 $158 forward $44 $-1 #
coedge $-1 -1 $-1 $159 $160 $76 $115 reversed $38 $-1 #
edge $-1 -1 $-1 $161 -0.7456810085580797276 $162 0.7456810085580796166 $76 $163 forward @7 unknown #
ATTRIB_CUSTOM-attrib $-1 -1 $-1 $-1 $77 @17 sketch_attrib_def 1 1 3 @13 140 0 1 0 1 1 #
coedge $-1 -1 $-1 $78 $77 $164 $165 forward $27 $-1 #
edge $-1 -1 $-1 $166 0 $84 0.6764843642528066692 $77 $167 forward @7 unknown #
coedge $-1 -1 $-1 $168 $87 $78 $120 forward $88 $-1 #
edge $-1 -1 $-1 $121 -0.6764843642528066692 $169 -0 $78 $170 forward @7 unknown #
vertex $-1 -1 $-1 $79 $171 #
straight-curve $-1 -1 $-1 -1.57400543737413745 1.919801075671015766 0 0 0 10 F -0.3100010000000000265 F 1.710001000000000104 #
edge $-1 -1 $-1 $121 -0.745255590601516027 $89 0.7452555906015159159 $80 $172 forward @7 unknown #
straight-curve $-1 -1 $-1 -0.57722655891790009 0.999999999999999889 0 0 0 -10 F -1.710001000000000104 F 0.3100010000000000265 #
ATTRIB_CUSTOM-attrib $-1 -1 $-1 $-1 $82 @17 sketch_attrib_def 1 1 3 @13 140 0 1 0 1 1 #
coedge $173 -1 $-1 $82 $174 $175 $176 forward $38 $-1 #
point $-1 -1 $-1 -0.577226558917900201 0.999999999999999889 0 #
point $-1 -1 $-1 -1.57400543737413745 1.919801075671015989 0 #
face $177 -1 $-1 $69 $88 $5 $-1 $178 forward single #
point $-1 -1 $-1 -0.577226558917900201 0.999999999999999889 14.00000000000000178 #
coedge $-1 -1 $-1 $92 $179 $180 $181 forward $88 $-1 #
coedge $-1 -1 $-1 $180 $101 $94 $133 forward $145 $-1 #
edge $-1 -1 $-1 $103 0 $134 1.400000000000000133 $132 $182 forward @7 unknown #
vertex $-1 -1 $-1 $95 $183 #
straight-curve $-1 -1 $-1 1.500000000000002442 0.999999999999999889 14.00000000000000178 -0.8019892432898378942 -9.967788784562369386 -0 I I #
DXID-attrib $-1 -1 $-1 $-1 $97 @10 ASM ENTITY @1 8 #
face $184 -1 $-1 $185 $145 $5 $-1 $186 forward single #
plane-surface $-1 -1 $-1 2.116538620758659395 8.662854334601977513 0 -0.9967788784562371385 0.0801989243289838033 0 -0.8019892432898380052 -9.967788784562371163 -0 forward_v I I I I #
ATTRIB_CUSTOM-attrib $-1 -1 $-1 $-1 $100 @17 sketch_attrib_def 1 1 3 @13 114 0 1 0 1 1 #
coedge $187 -1 $-1 $160 $100 $188 $189 forward $38 $-1 #
coedge $190 -1 $-1 $191 $192 $100 $142 reversed $193 $-1 #
edge $-1 -1 $-1 $146 0 $194 1.732570866920390307 $141 $195 forward @7 unknown #
ATTRIB_CUSTOM-attrib $-1 -1 $-1 $-1 $101 @17 sketch_attrib_def 1 1 3 @13 113 0 1 0 1 1 #
coedge $-1 -1 $-1 $101 $180 $191 $196 reversed $145 $-1 #
loop $-1 -1 $-1 $-1 $101 $137 #
vertex $-1 -1 $-1 $102 $197 #
straight-curve $-1 -1 $-1 2.116538620758659395 8.662854334601977513 0 10 -4.395479572579600663e-14 0 F 0 F 0.5809406947463675586 #
point $-1 -1 $-1 2.116538620758659395 8.662854334601977513 0 #
DXID-attrib $-1 -1 $-1 $-1 $108 @10 ASM ENTITY @1 7 #
loop $-1 -1 $-1 $-1 $157 $108 #
plane-surface $-1 -1 $-1 -1.499999999999998002 -0.999999999999999889 0 -9.251858538542970348e-17 -1 0 10 -9.251858538542969855e-16 0 forward_v I I I I #
coedge $-1 -1 $-1 $198 $199 $200 $201 forward $109 $-1 #
coedge $202 -1 $-1 $203 $111 $160 $204 reversed $74 $-1 #
coedge $-1 -1 $-1 $111 $203 $205 $206 reversed $74 $-1 #
edge $-1 -1 $-1 $162 0 $207 1.400000000000000133 $111 $208 forward @7 tangent #
coedge $-1 -1 $-1 $113 $112 $209 $210 forward $44 $-1 #
coedge $-1 -1 $-1 $211 $212 $113 $158 reversed $150 $-1 #
edge $-1 -1 $-1 $213 -1.400000000000000133 $161 -0 $157 $214 forward @7 tangent #
coedge $215 -1 $-1 $200 $114 $212 $216 forward $38 $-1 #
coedge $217 -1 $-1 $114 $140 $153 $204 forward $38 $-1 #
vertex $-1 -1 $-1 $115 $218 #
vertex $-1 -1 $-1 $115 $219 #
ellipse-curve $-1 -1 $-1 0.5764385835881951081 -2 0 0 0 -1 0.6784722543570957942 0.734626027355143929 0 1 I I #
coedge $-1 -1 $-1 $175 $220 $117 $165 reversed $221 $-1 #
edge $-1 -1 $-1 $166 0 $169 1.400000000000000133 $117 $222 forward @7 unknown #
vertex $-1 -1 $-1 $118 $223 #
straight-curve $-1 -1 $-1 -2.116538620758656286 8.662854334601947315 0 0.8019892432898433343 -9.967788784562371163 0 F 0 F 0.768761708361016316 #
coedge $-1 -1 $-1 $224 $119 $220 $225 forward $88 $-1 #
vertex $-1 -1 $-1 $165 $226 #
straight-curve $-1 -1 $-1 -2.116538620758656286 8.662854334601947315 14.00000000000000178 -0.8019892432898433343 9.967788784562371163 0 I I #
point $-1 -1 $-1 -1.57400543737413745 1.919801075671015989 14.00000000000000178 #
ellipse-curve $-1 -1 $-1 -0.57722655891790009 2 14.00000000000000178 0 0 1 -0.6781596698680245616 -0.7349145951500024587 0 1 I I #
ATTRIB_CUSTOM-attrib $-1 -1 $-1 $-1 $126 @17 sketch_attrib_def 1 1 3 @13 105 0 1 0 1 1 #
coedge $227 -1 $-1 $126 $228 $229 $230 forward $38 $-1 #
coedge $231 -1 $-1 $232 $164 $126 $176 reversed $221 $-1 #
edge $-1 -1 $-1 $233 0 $166 0.5809406947463675586 $175 $234 forward @7 unknown #
DXID-attrib $-1 -1 $-1 $-1 $129 @10 ASM ENTITY @2 16 #
plane-surface $-1 -1 $-1 2.220446049250313081e-15 1.221245327087672194e-14 14.00000000000000178 0 0 1 10 0 0 forward_v I I I I #
coedge $-1 -1 $-1 $131 $235 $236 $237 forward $88 $-1 #
coedge $-1 -1 $-1 $144 $132 $131 $181 reversed $145 $-1 #
edge $-1 -1 $-1 $238 -0.5809406947463675586 $134 -0 $180 $239 forward @7 unknown #
straight-curve $-1 -1 $-1 2.116538620758659395 8.662854334601977513 0 0 0 10 I I #
point $-1 -1 $-1 2.116538620758659395 8.662854334601977513 14.00000000000000178 #
DXID-attrib $-1 -1 $-1 $-1 $137 @10 ASM ENTITY @1 9 #
face $240 -1 $-1 $241 $193 $5 $-1 $242 forward single #
plane-surface $-1 -1 $-1 7.925945568222334536 8.662854334601950868 0 4.395479572579600663e-15 1 0 -10 4.395479572579600663e-14 0 forward_v I I I I #
ATTRIB_CUSTOM-attrib $-1 -1 $-1 $-1 $140 @17 sketch_attrib_def 1 1 3 @13 115 0 1 0 1 1 #
coedge $243 -1 $-1 $244 $245 $140 $189 reversed $246 $-1 #
edge $-1 -1 $-1 $194 0 $247 0.5815968537685178852 $188 $248 forward @7 unknown #
ATTRIB_CUSTOM-attrib $-1 -1 $-1 $-1 $141 @17 sketch_attrib_def 1 1 3 @13 114 0 1 0 1 1 #
coedge $-1 -1 $-1 $236 $141 $144 $196 forward $193 $-1 #
coedge $-1 -1 $-1 $141 $236 $244 $249 reversed $193 $-1 #
loop $-1 -1 $-1 $-1 $141 $185 #
vertex $-1 -1 $-1 $142 $250 #
straight-curve $-1 -1 $-1 7.925945568222335424 8.662854334601950868 0 1.281590318551939437e-15 -10 0 F 0 F 1.732570866920390307 #
edge $-1 -1 $-1 $146 0 $238 1.400000000000000133 $191 $251 forward @7 unknown #
point $-1 -1 $-1 7.925945568222335424 8.662854334601950868 0 #
coedge $-1 -1 $-1 $252 $152 $253 $254 forward $109 $-1 #
coedge $-1 -1 $-1 $152 $252 $255 $256 forward $109 $-1 #
coedge $-1 -1 $-1 $257 $159 $152 $201 reversed $38 $-1 #
edge $-1 -1 $-1 $258 -0.7452555906015616571 $259 0.7452555906015628784 $152 $260 forward @7 unknown #
ATTRIB_CUSTOM-attrib $-1 -1 $-1 $-1 $153 @17 sketch_attrib_def 1 1 3 @13 142 0 1 0 1 1 #
coedge $-1 -1 $-1 $154 $153 $245 $261 forward $74 $-1 #
edge $-1 -1 $-1 $247 0 $162 0.6763532217147683046 $153 $262 forward @7 unknown #
coedge $-1 -1 $-1 $235 $209 $154 $206 forward $88 $-1 #
edge $-1 -1 $-1 $207 -0.6763532217147683046 $263 -0 $154 $264 forward @7 unknown #
vertex $-1 -1 $-1 $155 $265 #
straight-curve $-1 -1 $-1 1.57328533736627918 -1.920649199864798984 0 0 0 10 F -0.3100010000000000265 F 1.710001000000000104 #
coedge $-1 -1 $-1 $205 $266 $156 $210 reversed $88 $-1 #
edge $-1 -1 $-1 $207 -0.7456810085580796166 $213 0.7456810085580797276 $156 $267 forward @7 unknown #
coedge $-1 -1 $-1 $253 $157 $266 $268 reversed $150 $-1 #
coedge $269 -1 $-1 $157 $253 $159 $216 reversed $150 $-1 #
vertex $-1 -1 $-1 $210 $270 #
straight-curve $-1 -1 $-1 0.5764385835881951081 -1 0 -0 -0 -10 F -1.710001000000000104 F 0.3100010000000000265 #
ATTRIB_CUSTOM-attrib $-1 -1 $-1 $-1 $159 @17 sketch_attrib_def 1 1 3 @13 136 0 1 0 1 1 #
edge $-1 -1 $-1 $161 0.09235614164118072233 $259 0.2077226558917816546 $212 $271 forward @7 unknown #
ATTRIB_CUSTOM-attrib $-1 -1 $-1 $-1 $160 @17 sketch_attrib_def 1 1 3 @13 142 0 1 0 1 1 #
point $-1 -1 $-1 0.5764385835881952191 -1 0 #
point $-1 -1 $-1 1.57328533736627918 -1.920649199864798984 0 #
coedge $-1 -1 $-1 $164 $232 $168 $225 reversed $221 $-1 #
loop $-1 -1 $-1 $-1 $175 $272 #
straight-curve $-1 -1 $-1 -2.116538620758656286 8.662854334601947315 0 0 0 10 I I #
point $-1 -1 $-1 -2.116538620758656286 8.662854334601947315 0 #
coedge $-1 -1 $-1 $273 $168 $274 $275 forward $88 $-1 #
edge $-1 -1 $-1 $169 -0.5809406947463675586 $276 -0 $220 $277 forward @7 unknown #
point $-1 -1 $-1 -2.116538620758656286 8.662854334601947315 14.00000000000000178 #
ATTRIB_CUSTOM-attrib $-1 -1 $-1 $-1 $174 @17 sketch_attrib_def 1 1 3 @13 108 0 1 0 1 1 #
coedge $278 -1 $-1 $174 $257 $279 $280 forward $38 $-1 #
coedge $281 -1 $-1 $282 $283 $174 $230 reversed $284 $-1 #
edge $-1 -1 $-1 $285 0 $233 1.732570866920390307 $229 $286 forward @7 unknown #
ATTRIB_CUSTOM-attrib $-1 -1 $-1 $-1 $175 @17 sketch_attrib_def 1 1 3 @13 105 0 1 0 1 1 #
coedge $-1 -1 $-1 $220 $175 $283 $287 forward $221 $-1 #
vertex $-1 -1 $-1 $230 $288 #
straight-curve $-1 -1 $-1 -7.925945568222331872 8.662854334601950868 0 10 -7.644312300138434975e-15 0 F 0 F 0.5809406947463675586 #
coedge $-1 -1 $-1 $179 $205 $289 $290 forward $88 $-1 #
coedge $-1 -1 $-1 $192 $191 $179 $237 reversed $193 $-1 #
edge $-1 -1 $-1 $291 -1.732570866920390307 $238 -0 $236 $292 forward @7 unknown #
vertex $-1 -1 $-1 $181 $293 #
straight-curve $-1 -1 $-1 2.116538620758659395 8.662854334601977513 14.00000000000000178 -10 4.395479572579600663e-14 0 I I #
DXID-attrib $-1 -1 $-1 $-1 $185 @10 ASM ENTITY @2 10 #
face $294 -1 $-1 $295 $246 $5 $-1 $296 forward single #
plane-surface $-1 -1 $-1 7.925945568222338089 -8.662854334601950868 0 1 1.281590318551939437e-16 0 -1.281590318551939437e-15 10 0 forward_v I I I I #
ATTRIB_CUSTOM-attrib $-1 -1 $-1 $-1 $188 @17 sketch_attrib_def 1 1 3 @13 115 0 1 0 1 1 #
coedge $-1 -1 $-1 $289 $188 $192 $249 forward $246 $-1 #
coedge $-1 -1 $-1 $188 $289 $203 $261 reversed $246 $-1 #
loop $-1 -1 $-1 $-1 $188 $241 #
vertex $-1 -1 $-1 $204 $297 #
straight-curve $-1 -1 $-1 7.925945568222338089 -8.662854334601950868 0 -10 0 0 F 0 F 0.5815968537685178852 #
edge $-1 -1 $-1 $194 0 $291 1.400000000000000133 $244 $298 forward @7 unknown #
point $-1 -1 $-1 7.925945568222338089 -8.662854334601950868 0 #
straight-curve $-1 -1 $-1 7.925945568222335424 8.662854334601950868 0 0 0 10 I I #
coedge $-1 -1 $-1 $199 $198 $299 $300 forward $109 $-1 #
coedge $-1 -1 $-1 $212 $211 $198 $254 reversed $150 $-1 #
edge $-1 -1 $-1 $259 0 $301 1.400000000000000133 $253 $302 forward @7 tangent #
coedge $-1 -1 $-1 $303 $304 $199 $256 reversed $305 $-1 #
edge $-1 -1 $-1 $306 -1.400000000000000133 $258 0 $255 $307 forward @7 tangent #
coedge $308 -1 $-1 $228 $200 $304 $309 forward $38 $-1 #
vertex $-1 -1 $-1 $201 $310 #
vertex $-1 -1 $-1 $201 $311 #
ellipse-curve $-1 -1 $-1 -0.5772265589178141587 -1.999999999999999556 0 0 0 -1 -0.6781596698680589785 0.7349145951499708174 0 1 I I #
edge $-1 -1 $-1 $247 0 $263 1.400000000000000133 $203 $312 forward @7 unknown #
straight-curve $-1 -1 $-1 2.109977030537158793 -8.662854334601950868 0 -0.7935080013520114939 9.968467537780837162 0 F 0 F 0.7687093633559489714 #
vertex $-1 -1 $-1 $261 $313 #
straight-curve $-1 -1 $-1 2.109977030537158793 -8.662854334601950868 14.00000000000000178 0.7935080013520114939 -9.968467537780837162 0 I I #
point $-1 -1 $-1 1.57328533736627918 -1.920649199864798984 14.00000000000000178 #
coedge $-1 -1 $-1 $209 $299 $211 $268 forward $88 $-1 #
ellipse-curve $-1 -1 $-1 0.5764385835881951081 -2 14.00000000000000178 0 0 1 0.6784722543570957942 0.734626027355143929 0 1 I I #
edge $-1 -1 $-1 $301 -0.2077226558917816546 $213 -0.09235614164118072233 $211 $314 forward @7 unknown #
ATTRIB_CUSTOM-attrib $-1 -1 $-1 $-1 $212 @17 sketch_attrib_def 1 1 3 @13 136 0 1 0 1 1 #
point $-1 -1 $-1 0.5764385835881952191 -1 14.00000000000000178 #
straight-curve $-1 -1 $-1 1.500000000000002442 -1.000000000000000222 0 -10 9.251858538542969855e-16 0 F 0 F 0.3000000000000000444 #
face $315 -1 $-1 $129 $221 $5 $-1 $316 forward single #
coedge $-1 -1 $-1 $317 $224 $318 $319 forward $88 $-1 #
coedge $-1 -1 $-1 $283 $282 $224 $275 reversed $284 $-1 #
edge $-1 -1 $-1 $276 -1.732570866920390307 $320 -0 $274 $321 forward @7 unknown #
vertex $-1 -1 $-1 $275 $322 #
straight-curve $-1 -1 $-1 -7.925945568222331872 8.662854334601950868 14.00000000000000178 -10 7.644312300138434975e-15 0 I I #
ATTRIB_CUSTOM-attrib $-1 -1 $-1 $-1 $228 @17 sketch_attrib_def 1 1 3 @13 107 0 1 0 1 1 #
coedge $323 -1 $-1 $324 $325 $228 $280 reversed $326 $-1 #
edge $-1 -1 $-1 $327 0 $285 0.5809406947464390569 $279 $328 forward @7 unknown #
ATTRIB_CUSTOM-attrib $-1 -1 $-1 $-1 $229 @17 sketch_attrib_def 1 1 3 @13 108 0 1 0 1 1 #
coedge $-1 -1 $-1 $274 $229 $325 $329 forward $284 $-1 #
coedge $-1 -1 $-1 $229 $274 $232 $287 reversed $284 $-1 #
loop $-1 -1 $-1 $-1 $229 $330 #
vertex $-1 -1 $-1 $280 $331 #
straight-curve $-1 -1 $-1 -7.925945568222331872 -8.662854334601950868 0 0 10 0 F 0 F 1.732570866920390307 #
edge $-1 -1 $-1 $233 0 $276 1.400000000000000133 $232 $332 forward @7 unknown #
point $-1 -1 $-1 -7.925945568222331872 8.662854334601950868 0 #
coedge $-1 -1 $-1 $245 $244 $235 $290 reversed $246 $-1 #
edge $-1 -1 $-1 $263 -0.5815968537685178852 $291 -0 $289 $333 forward @7 unknown #
vertex $-1 -1 $-1 $237 $334 #
straight-curve $-1 -1 $-1 7.925945568222335424 8.662854334601950868 14.00000000000000178 -1.281590318551939437e-15 10 0 I I #
point $-1 -1 $-1 7.925945568222335424 8.662854334601950868 14.00000000000000178 #
DXID-attrib $-1 -1 $-1 $-1 $241 @10 ASM ENTITY @2 11 #
face $335 -1 $-1 $336 $305 $5 $-1 $337 forward single #
plane-surface $-1 -1 $-1 2.109977030537159237 -8.662854334601950868 0 0 -1 0 10 0 0 forward_v I I I I #
point $-1 -1 $-1 2.109977030537158793 -8.662854334601950868 0 #
straight-curve $-1 -1 $-1 7.925945568222338089 -8.662854334601950868 0 0 0 10 I I #
coedge $-1 -1 $-1 $266 $317 $252 $300 reversed $88 $-1 #
edge $-1 -1 $-1 $301 -0.7452555906015628784 $306 0.7452555906015616571 $252 $338 forward @7 unknown #
vertex $-1 -1 $-1 $254 $339 #
straight-curve $-1 -1 $-1 -0.5772265589178140477 -1 0 0 0 10 F -0.3100010000000000265 F 1.710001000000000104 #
coedge $-1 -1 $-1 $340 $255 $317 $341 reversed $305 $-1 #
coedge $342 -1 $-1 $255 $340 $257 $309 reversed $305 $-1 #
loop $-1 -1 $-1 $-1 $255 $295 #
vertex $-1 -1 $-1 $300 $343 #
straight-curve $-1 -1 $-1 -1.574005437374059291 -1.919801075671107693 0 0 0 -10 F -1.710001000000000104 F 0.3100010000000000265 #
ATTRIB_CUSTOM-attrib $-1 -1 $-1 $-1 $257 @17 sketch_attrib_def 1 1 3 @13 141 0 1 0 1 1 #
edge $-1 -1 $-1 $258 0.09227734410821830657 $327 0.7687617083610109869 $304 $344 forward @7 unknown #
point $-1 -1 $-1 -1.574005437374058847 -1.919801075671107693 0 #
point $-1 -1 $-1 -0.5772265589178140477 -1 0 #
straight-curve $-1 -1 $-1 2.109977030537158793 -8.662854334601950868 0 0 0 10 I I #
point $-1 -1 $-1 2.109977030537158793 -8.662854334601950868 14.00000000000000178 #
straight-curve $-1 -1 $-1 1.500000000000002442 -1.000000000000000222 14.00000000000000178 10 -9.251858538542969855e-16 0 I I #
DXID-attrib $-1 -1 $-1 $-1 $272 @10 ASM ENTITY @2 15 #
plane-surface $-1 -1 $-1 -2.11653862075865673 8.662854334601947315 0 7.644312300138435764e-16 1 0 -10 7.644312300138434975e-15 0 forward_v I I I I #
coedge $-1 -1 $-1 $299 $273 $303 $341 forward $88 $-1 #
coedge $-1 -1 $-1 $325 $324 $273 $319 reversed $326 $-1 #
edge $-1 -1 $-1 $320 -0.5809406947464390569 $345 -0 $318 $346 forward @7 unknown #
vertex $-1 -1 $-1 $319 $347 #
straight-curve $-1 -1 $-1 -7.925945568222331872 -8.662854334601950868 14.00000000000000178 -0 -10 -0 I I #
point $-1 -1 $-1 -7.925945568222331872 8.662854334601950868 14.00000000000000178 #
ATTRIB_CUSTOM-attrib $-1 -1 $-1 $-1 $279 @17 sketch_attrib_def 1 1 3 @13 107 0 1 0 1 1 #
coedge $-1 -1 $-1 $318 $279 $340 $348 forward $326 $-1 #
coedge $-1 -1 $-1 $279 $318 $282 $329 reversed $326 $-1 #
loop $-1 -1 $-1 $-1 $279 $336 #
vertex $-1 -1 $-1 $348 $349 #
straight-curve $-1 -1 $-1 -2.116538620757942191 -8.662854334601950868 0 -10 -1.911078075034373663e-15 0 F 0 F 0.5809406947464390569 #
edge $-1 -1 $-1 $285 0 $320 1.400000000000000133 $282 $350 forward @7 unknown #
face $351 -1 $-1 $272 $284 $5 $-1 $352 forward single #
point $-1 -1 $-1 -7.925945568222331872 -8.662854334601950868 0 #
straight-curve $-1 -1 $-1 -7.925945568222331872 8.662854334601950868 0 0 0 10 I I #
straight-curve $-1 -1 $-1 7.925945568222338089 -8.662854334601950868 14.00000000000000178 10 0 0 I I #
point $-1 -1 $-1 7.925945568222338089 -8.662854334601950868 14.00000000000000178 #
DXID-attrib $-1 -1 $-1 $-1 $295 @10 ASM ENTITY @2 12 #
face $353 -1 $-1 $330 $326 $5 $-1 $354 forward single #
plane-surface $-1 -1 $-1 -2.116538620757942191 -8.662854334601949091 0 0.996778878456244577 -0.08019892432889197398 0 0.8019892432889197398 9.96778878456244577 0 forward_v I I I I #
ellipse-curve $-1 -1 $-1 -0.5772265589178141587 -1.999999999999999556 14.00000000000000178 0 0 1 -0.6781596698680589785 0.7349145951499708174 0 1 I I #
point $-1 -1 $-1 -0.5772265589178140477 -1 14.00000000000000178 #
coedge $-1 -1 $-1 $304 $303 $324 $348 reversed $305 $-1 #
edge $-1 -1 $-1 $345 -0.7687617083610109869 $306 -0.09227734410821830657 $303 $355 forward @7 unknown #
ATTRIB_CUSTOM-attrib $-1 -1 $-1 $-1 $304 @17 sketch_attrib_def 1 1 3 @13 141 0 1 0 1 1 #
point $-1 -1 $-1 -1.574005437374058847 -1.919801075671107693 14.00000000000000178 #
straight-curve $-1 -1 $-1 -1.49999999999999778 -0.999999999999999889 0 -0.8019892432889196288 -9.967788784562443993 0 F 0 F 0.7687617083610109869 #
vertex $-1 -1 $-1 $341 $356 #
straight-curve $-1 -1 $-1 -2.116538620757942191 -8.662854334601950868 14.00000000000000178 10 1.911078075034373663e-15 0 I I #
point $-1 -1 $-1 -7.925945568222331872 -8.662854334601950868 14.00000000000000178 #
edge $-1 -1 $-1 $327 0 $345 1.400000000000000133 $324 $357 forward @7 unknown #
point $-1 -1 $-1 -2.116538620757942191 -8.662854334601950868 0 #
straight-curve $-1 -1 $-1 -7.925945568222331872 -8.662854334601950868 0 0 0 10 I I #
DXID-attrib $-1 -1 $-1 $-1 $330 @10 ASM ENTITY @2 14 #
plane-surface $-1 -1 $-1 -7.925945568222331872 8.662854334601950868 0 -1 0 0 -0 -10 -0 forward_v I I I I #
DXID-attrib $-1 -1 $-1 $-1 $336 @10 ASM ENTITY @2 13 #
plane-surface $-1 -1 $-1 -7.925945568222331872 -8.662854334601950868 0 1.911078075034373762e-16 -1 0 10 1.911078075034373663e-15 0 forward_v I I I I #
straight-curve $-1 -1 $-1 -1.49999999999999778 -0.999999999999999889 14.00000000000000178 0.8019892432889196288 9.967788784562443993 0 I I #
point $-1 -1 $-1 -2.116538620757942191 -8.662854334601950868 14.00000000000000178 #
straight-curve $-1 -1 $-1 -2.116538620757942191 -8.662854334601950868 0 0 0 10 I I #
End-of-ACIS-data 