700 0 1 0           
30 Autodesk Translation Framework 21 ASM 229.10.0.65535 NT 24 Sat May  4 11:57:18 2024 
1 9.999999999999999547e-07 1.000000000000000036e-10 
body $1 -1 $-1 $2 $-1 $3 #
rgb_color-st-attrib $-1 -1 $4 $-1 $0 0.627450980392156854 0.627450980392156854 0.627450980392156854 #
lump $-1 -1 $-1 $-1 $5 $0 #
transform $-1 -1 1 0 0 0 1 0 0 0 1 0 0 0 1 no_rotate no_reflect no_shear #
ATTRIB_CUSTOM-attrib $-1 -1 $-1 $1 $0 @20 Timestamp_attrib_def 1 1707877696350406 #
shell $-1 -1 $-1 $-1 $-1 $6 $-1 $2 #
face $7 -1 $-1 $8 $9 $5 $-1 $10 reversed single #
DXID-attrib $-1 -1 $-1 $-1 $6 @10 ASM ENTITY @1 0 #
face $11 -1 $-1 $12 $13 $5 $-1 $14 forward single #
loop $-1 -1 $-1 $15 $16 $6 #
cone-surface $-1 -1 $-1 0 0 0 0 0 -1 17.5 0 0 1 I I 0 1 17.5 forward I I I I #
DXID-attrib $-1 -1 $-1 $-1 $8 @10 ASM ENTITY @1 1 #
face $17 -1 $-1 $18 $19 $5 $-1 $14 forward single #
loop $-1 -1 $-1 $-1 $20 $8 #
plane-surface $-1 -1 $-1 0 0 0 0 0 1 10 0 0 forward_v I I I I #
loop $-1 -1 $-1 $-1 $21 $6 #
coedge $-1 -1 $-1 $16 $16 $22 $23 reversed $9 $-1 #
DXID-attrib $-1 -1 $-1 $-1 $12 @10 ASM ENTITY @1 2 #
face $24 -1 $-1 $25 $26 $5 $-1 $14 forward single #
loop $-1 -1 $-1 $-1 $27 $12 #
coedge $-1 -1 $-1 $28 $29 $30 $31 forward $13 $-1 #
coedge $32 -1 $-1 $33 $30 $34 $35 reversed $15 $-1 #
coedge $-1 -1 $-1 $22 $22 $16 $23 forward $36 $-1 #
edge $-1 -1 $-1 $37 -3.141592653589793116 $37 3.141592653589793116 $22 $38 forward @7 unknown #
DXID-attrib $-1 -1 $-1 $-1 $18 @10 ASM ENTITY @1 3 #
face $39 -1 $-1 $40 $41 $5 $-1 $14 forward single #
loop $-1 -1 $-1 $-1 $42 $18 #
coedge $-1 -1 $-1 $43 $44 $45 $46 forward $19 $-1 #
coedge $-1 -1 $-1 $47 $20 $48 $49 forward $13 $-1 #
coedge $-1 -1 $-1 $20 $47 $50 $51 forward $13 $-1 #
coedge $52 -1 $-1 $21 $45 $20 $31 reversed $15 $-1 #
edge $53 -1 $-1 $54 -3.141592653589793116 $55 -2.356194490192344837 $20 $56 forward @7 unknown #
ATTRIB_CUSTOM-attrib $-1 -1 $-1 $-1 $21 @17 sketch_attrib_def 1 1 3 @13 149 0 0 0 1 1 #
coedge $57 -1 $-1 $58 $21 $59 $60 reversed $15 $-1 #
coedge $-1 -1 $-1 $61 $62 $21 $35 forward $63 $-1 #
edge $64 -1 $-1 $65 2.356194490192344837 $54 3.141592653589793116 $34 $56 forward @7 unknown #
loop $-1 -1 $-1 $66 $22 $67 #
vertex $-1 -1 $-1 $23 $68 #
ellipse-curve $-1 -1 $-1 0 0 -3.000000000000000444 0 0 1 17.5 0 0 1 I I #
DXID-attrib $-1 -1 $-1 $-1 $25 @10 ASM ENTITY @1 4 #
face $69 -1 $-1 $70 $71 $5 $-1 $14 forward single #
loop $-1 -1 $-1 $-1 $72 $25 #
coedge $-1 -1 $-1 $73 $74 $75 $76 forward $26 $-1 #
coedge $-1 -1 $-1 $77 $27 $78 $79 forward $19 $-1 #
coedge $-1 -1 $-1 $27 $77 $80 $81 forward $19 $-1 #
coedge $82 -1 $-1 $30 $75 $27 $46 reversed $15 $-1 #
edge $83 -1 $-1 $55 -2.356194490192344837 $84 -1.570796326794896558 $27 $56 forward @7 unknown #
coedge $85 -1 $-1 $29 $28 $86 $87 forward $13 $-1 #
coedge $-1 -1 $-1 $80 $80 $28 $49 reversed $88 $-1 #
edge $-1 -1 $-1 $55 3.614851011060884023 $89 6.756443664650677583 $28 $90 forward @7 unknown #
coedge $-1 -1 $-1 $91 $91 $29 $51 reversed $92 $-1 #
edge $-1 -1 $-1 $93 -4.239130622913599211 $54 -1.097537969323802987 $29 $94 forward @7 unknown #
ATTRIB_CUSTOM-attrib $-1 -1 $-1 $-1 $30 @17 sketch_attrib_def 1 1 3 @13 149 0 0 0 1 1 #
DXID-attrib $-1 -1 $-1 $-1 $31 @10 ASM ENTITY @2 53 #
vertex $-1 -1 $-1 $35 $95 #
vertex $-1 -1 $-1 $46 $96 #
ellipse-curve $-1 -1 $-1 0 0 0 -0 -0 -1 17.5 0 0 1 I I #
ATTRIB_CUSTOM-attrib $-1 -1 $-1 $-1 $33 @17 sketch_attrib_def 1 1 3 @13 149 0 0 0 1 1 #
coedge $97 -1 $-1 $98 $33 $99 $100 reversed $15 $-1 #
coedge $-1 -1 $-1 $101 $102 $33 $60 forward $103 $-1 #
edge $104 -1 $-1 $105 1.57079632679489678 $65 2.356194490192344837 $59 $56 forward @7 unknown #
coedge $-1 -1 $-1 $106 $34 $91 $107 forward $63 $-1 #
coedge $-1 -1 $-1 $34 $106 $108 $109 forward $63 $-1 #
loop $-1 -1 $-1 $-1 $34 $110 #
DXID-attrib $-1 -1 $-1 $-1 $35 @10 ASM ENTITY @2 46 #
vertex $-1 -1 $-1 $35 $111 #
loop $-1 -1 $-1 $-1 $112 $67 #
face $113 -1 $-1 $-1 $36 $5 $-1 $114 reversed single #
point $-1 -1 $-1 -17.5 -2.143131898507868248e-15 -3.000000000000000444 #
DXID-attrib $-1 -1 $-1 $-1 $40 @10 ASM ENTITY @1 5 #
face $115 -1 $-1 $116 $117 $5 $-1 $14 forward single #
loop $-1 -1 $-1 $-1 $118 $40 #
coedge $-1 -1 $-1 $119 $120 $121 $122 forward $41 $-1 #
coedge $-1 -1 $-1 $123 $42 $124 $125 forward $26 $-1 #
coedge $-1 -1 $-1 $42 $123 $126 $127 forward $26 $-1 #
coedge $128 -1 $-1 $45 $121 $42 $76 reversed $15 $-1 #
edge $129 -1 $-1 $84 -1.570796326794896558 $130 -0.7853981633974479459 $42 $56 forward @7 unknown #
coedge $131 -1 $-1 $44 $43 $132 $133 forward $19 $-1 #
coedge $-1 -1 $-1 $126 $126 $43 $79 reversed $134 $-1 #
edge $-1 -1 $-1 $84 -1.097537969323805651 $135 2.044054684265987465 $43 $136 forward @7 unknown #
coedge $-1 -1 $-1 $48 $48 $44 $81 reversed $88 $-1 #
edge $-1 -1 $-1 $89 0.4732583574710910734 $55 3.614851011060884023 $44 $90 forward @7 unknown #
ATTRIB_CUSTOM-attrib $-1 -1 $-1 $-1 $45 @17 sketch_attrib_def 1 1 3 @13 149 0 0 0 1 1 #
DXID-attrib $-1 -1 $-1 $-1 $46 @10 ASM ENTITY @2 52 #
vertex $-1 -1 $-1 $76 $137 #
ATTRIB_CUSTOM-attrib $-1 -1 $-1 $-1 $47 @17 sketch_attrib_def 1 1 3 @13 102 0 0 0 1 1 #
coedge $138 -1 $-1 $132 $139 $47 $87 reversed $140 $-1 #
edge $141 -1 $-1 $89 -3.926990816987241395 $93 -3.141592653589793116 $47 $142 forward @7 unknown #
loop $-1 -1 $-1 $143 $80 $144 #
vertex $-1 -1 $-1 $49 $145 #
ellipse-curve $-1 -1 $-1 -13.2582521472477648 13.25825214724776657 0 -0 -0 -1 -1.189598279810794246 0.3838696818859196336 3.851859888774471706e-33 1 I I #
coedge $-1 -1 $-1 $50 $50 $61 $107 reversed $92 $-1 #
loop $-1 -1 $-1 $146 $50 $147 #
vertex $-1 -1 $-1 $87 $148 #
ellipse-curve $-1 -1 $-1 -18.75 1.053485093692817822e-15 0 -0 -0 -1 0.569736155388608112 -1.112609865695521449 0 0.999999999999999889 I I #
point $-1 -1 $-1 -17.5 -2.143131898507868248e-15 0 #
point $-1 -1 $-1 -12.37436867076457858 12.37436867076458213 0 #
ATTRIB_CUSTOM-attrib $-1 -1 $-1 $-1 $58 @17 sketch_attrib_def 1 1 3 @13 149 0 0 0 1 1 #
coedge $149 -1 $-1 $121 $58 $118 $150 reversed $15 $-1 #
coedge $-1 -1 $-1 $151 $152 $58 $100 forward $117 $-1 #
edge $153 -1 $-1 $154 0.785398163397448501 $105 1.57079632679489678 $99 $56 forward @7 unknown #
coedge $-1 -1 $-1 $155 $59 $156 $157 forward $103 $-1 #
coedge $-1 -1 $-1 $59 $155 $158 $159 forward $103 $-1 #
loop $-1 -1 $-1 $-1 $59 $116 #
DXID-attrib $-1 -1 $-1 $-1 $60 @10 ASM ENTITY @2 47 #
vertex $-1 -1 $-1 $60 $160 #
coedge $161 -1 $-1 $62 $61 $139 $162 forward $63 $-1 #
edge $-1 -1 $-1 $54 -1.097537969323802987 $93 2.044054684265987465 $61 $94 forward @7 unknown #
coedge $-1 -1 $-1 $156 $156 $62 $109 reversed $163 $-1 #
edge $-1 -1 $-1 $164 0.4732583574710910734 $65 3.614851011060884023 $62 $165 forward @7 unknown #
face $166 -1 $-1 $167 $63 $5 $-1 $14 forward single #
point $-1 -1 $-1 -12.37436867076458213 -12.37436867076457858 0 #
coedge $-1 -1 $-1 $112 $112 $168 $169 forward $66 $-1 #
DXID-attrib $-1 -1 $-1 $-1 $67 @10 ASM ENTITY @2 44 #
plane-surface $-1 -1 $-1 0 0 -3.000000000000000444 0 0 1 10 0 0 forward_v I I I I #
DXID-attrib $-1 -1 $-1 $-1 $70 @10 ASM ENTITY @1 6 #
face $170 -1 $-1 $110 $103 $5 $-1 $14 forward single #
loop $-1 -1 $-1 $-1 $99 $70 #
coedge $-1 -1 $-1 $171 $172 $98 $150 forward $71 $-1 #
coedge $-1 -1 $-1 $173 $72 $174 $175 forward $41 $-1 #
coedge $-1 -1 $-1 $72 $173 $176 $177 forward $41 $-1 #
coedge $178 -1 $-1 $75 $98 $72 $122 reversed $15 $-1 #
edge $179 -1 $-1 $130 -0.7853981633974479459 $180 1.723701401009699586e-16 $72 $56 forward @7 unknown #
coedge $181 -1 $-1 $74 $73 $182 $183 forward $26 $-1 #
coedge $-1 -1 $-1 $176 $176 $73 $125 reversed $184 $-1 #
edge $-1 -1 $-1 $130 -1.097537969323805651 $185 2.044054684265987465 $73 $186 forward @7 unknown #
coedge $-1 -1 $-1 $78 $78 $74 $127 reversed $134 $-1 #
edge $-1 -1 $-1 $135 -4.239130622913599211 $84 -1.097537969323805651 $74 $136 forward @7 unknown #
ATTRIB_CUSTOM-attrib $-1 -1 $-1 $-1 $75 @17 sketch_attrib_def 1 1 3 @13 149 0 0 0 1 1 #
DXID-attrib $-1 -1 $-1 $-1 $76 @10 ASM ENTITY @2 51 #
vertex $-1 -1 $-1 $122 $187 #
ATTRIB_CUSTOM-attrib $-1 -1 $-1 $-1 $77 @17 sketch_attrib_def 1 1 3 @13 102 0 0 0 1 1 #
coedge $188 -1 $-1 $182 $86 $77 $133 reversed $140 $-1 #
edge $189 -1 $-1 $135 -4.712388980384689674 $89 -3.926990816987241395 $77 $142 forward @7 unknown #
loop $-1 -1 $-1 $190 $126 $191 #
vertex $-1 -1 $-1 $79 $192 #
ellipse-curve $-1 -1 $-1 -9.462128050782584375e-17 18.75 0 -0 -0 -1 -1.112609865695521449 -0.569736155388608112 0 0.999999999999999889 I I #
point $-1 -1 $-1 -1.311511935550858595e-16 17.5 0 #
ATTRIB_CUSTOM-attrib $-1 -1 $-1 $-1 $86 @17 sketch_attrib_def 1 1 3 @13 102 0 0 0 1 1 #
coedge $193 -1 $-1 $86 $194 $106 $162 reversed $140 $-1 #
loop $-1 -1 $-1 $-1 $132 $195 #
DXID-attrib $-1 -1 $-1 $-1 $87 @10 ASM ENTITY @2 55 #
ellipse-curve $-1 -1 $-1 0 0 0 0 0 1 20 0 0 1 I I #
loop $-1 -1 $-1 $-1 $196 $144 #
face $197 -1 $-1 $191 $88 $5 $-1 $198 forward single #
point $-1 -1 $-1 -14.14213562373094923 14.14213562373095101 0 #
loop $-1 -1 $-1 $-1 $199 $147 #
face $200 -1 $-1 $144 $92 $5 $-1 $201 forward single #
point $-1 -1 $-1 -20 1.123717433272339115e-15 0 #
ATTRIB_CUSTOM-attrib $-1 -1 $-1 $-1 $98 @17 sketch_attrib_def 1 1 3 @13 149 0 0 0 1 1 #
edge $202 -1 $-1 $180 1.723701401009699586e-16 $154 0.785398163397448501 $118 $56 forward @7 unknown #
coedge $-1 -1 $-1 $203 $99 $204 $205 forward $117 $-1 #
coedge $-1 -1 $-1 $99 $203 $206 $207 forward $117 $-1 #
DXID-attrib $-1 -1 $-1 $-1 $100 @10 ASM ENTITY @2 48 #
vertex $-1 -1 $-1 $100 $208 #
coedge $209 -1 $-1 $102 $101 $194 $210 forward $103 $-1 #
coedge $-1 -1 $-1 $108 $108 $101 $157 reversed $163 $-1 #
edge $-1 -1 $-1 $65 3.614851011060884023 $164 6.756443664650677583 $101 $165 forward @7 unknown #
coedge $-1 -1 $-1 $204 $204 $102 $159 reversed $211 $-1 #
edge $-1 -1 $-1 $212 -4.239130622913599211 $105 -1.097537969323805651 $102 $213 forward @7 unknown #
point $-1 -1 $-1 -2.032843500103830539e-15 -17.5 0 #
ATTRIB_CUSTOM-attrib $-1 -1 $-1 $-1 $106 @17 sketch_attrib_def 1 1 3 @13 102 0 0 0 1 1 #
edge $214 -1 $-1 $93 -3.141592653589793116 $164 -2.356194490192344837 $106 $142 forward @7 unknown #
loop $-1 -1 $-1 $215 $108 $216 #
vertex $-1 -1 $-1 $157 $217 #
ellipse-curve $-1 -1 $-1 -13.25825214724776657 -13.2582521472477648 0 -0 -0 -1 -0.3838696818859196336 -1.189598279810794246 3.851859888774471706e-33 1 I I #
DXID-attrib $-1 -1 $-1 $-1 $110 @10 ASM ENTITY @1 8 #
face $218 -1 $-1 $219 $220 $5 $-1 $221 reversed single #
coedge $-1 -1 $-1 $168 $168 $112 $169 reversed $222 $-1 #
edge $223 -1 $-1 $224 -3.141592653589793116 $224 3.141592653589793116 $168 $225 forward @7 unknown #
DXID-attrib $-1 -1 $-1 $-1 $116 @10 ASM ENTITY @1 7 #
coedge $-1 -1 $-1 $226 $118 $227 $228 forward $71 $-1 #
coedge $-1 -1 $-1 $118 $226 $229 $230 forward $71 $-1 #
coedge $231 -1 $-1 $120 $119 $232 $233 forward $41 $-1 #
coedge $-1 -1 $-1 $229 $229 $119 $175 reversed $234 $-1 #
edge $-1 -1 $-1 $180 -1.097537969323805429 $235 2.044054684265987465 $119 $236 forward @7 unknown #
coedge $-1 -1 $-1 $124 $124 $120 $177 reversed $184 $-1 #
edge $-1 -1 $-1 $185 -4.239130622913599211 $130 -1.097537969323805651 $120 $186 forward @7 unknown #
ATTRIB_CUSTOM-attrib $-1 -1 $-1 $-1 $121 @17 sketch_attrib_def 1 1 3 @13 149 0 0 0 1 1 #
DXID-attrib $-1 -1 $-1 $-1 $122 @10 ASM ENTITY @2 50 #
vertex $-1 -1 $-1 $150 $237 #
ATTRIB_CUSTOM-attrib $-1 -1 $-1 $-1 $123 @17 sketch_attrib_def 1 1 3 @13 102 0 0 0 1 1 #
coedge $238 -1 $-1 $232 $132 $123 $183 reversed $140 $-1 #
edge $239 -1 $-1 $185 0.785398163397448168 $135 1.570796326794896558 $123 $142 forward @7 unknown #
loop $-1 -1 $-1 $240 $176 $241 #
vertex $-1 -1 $-1 $125 $242 #
ellipse-curve $-1 -1 $-1 13.25825214724776835 13.2582521472477648 0 -0 -0 -1 -1.189598279810794468 0.3838696818859196891 0 0.999999999999999889 I I #
point $-1 -1 $-1 12.37436867076458391 12.37436867076457681 0 #
ATTRIB_CUSTOM-attrib $-1 -1 $-1 $-1 $132 @17 sketch_attrib_def 1 1 3 @13 102 0 0 0 1 1 #
DXID-attrib $-1 -1 $-1 $-1 $133 @10 ASM ENTITY @2 58 #
loop $-1 -1 $-1 $-1 $243 $191 #
face $244 -1 $-1 $195 $134 $5 $-1 $245 forward single #
point $-1 -1 $-1 -1.009293658750142399e-16 20 0 #
ATTRIB_CUSTOM-attrib $-1 -1 $-1 $-1 $139 @17 sketch_attrib_def 1 1 3 @13 102 0 0 0 1 1 #
coedge $246 -1 $-1 $139 $247 $155 $210 reversed $140 $-1 #
face $248 -1 $-1 $67 $222 $5 $-1 $249 forward single #
coedge $-1 -1 $-1 $250 $251 $252 $253 forward $143 $-1 #
DXID-attrib $-1 -1 $-1 $-1 $144 @10 ASM ENTITY @2 41 #
cone-surface $-1 -1 $-1 -13.2582521472477648 13.25825214724776657 0 -0.120668044662987764 -0.3739459122012200876 0.9195671143234781519 -1.189598279810794246 0.3838696818859196336 3.262975470224282498e-17 0.9195671143234781519 I I -0 1 1.249999999999999112 forward I I I I #
coedge $-1 -1 $-1 $254 $255 $256 $257 forward $146 $-1 #
DXID-attrib $-1 -1 $-1 $-1 $147 @10 ASM ENTITY @2 40 #
cone-surface $-1 -1 $-1 -18.75 1.053485093692817822e-15 0 0.1790944976607522221 -0.3497448829681918947 0.9195671143234781519 -1.112609865695521227 -0.569736155388608112 3.262975470224282498e-17 0.9195671143234781519 I I -0 1 1.249999999999999112 forward I I I I #
DXID-attrib $-1 -1 $-1 $-1 $150 @10 ASM ENTITY @2 49 #
coedge $258 -1 $-1 $152 $151 $247 $259 forward $117 $-1 #
coedge $-1 -1 $-1 $158 $158 $151 $205 reversed $211 $-1 #
edge $-1 -1 $-1 $105 -1.097537969323805651 $212 2.044054684265987465 $151 $213 forward @7 unknown #
coedge $-1 -1 $-1 $227 $227 $152 $207 reversed $260 $-1 #
edge $-1 -1 $-1 $261 -4.239130622913599211 $154 -1.097537969323805651 $152 $262 forward @7 unknown #
point $-1 -1 $-1 12.37436867076457858 -12.37436867076458391 0 #
ATTRIB_CUSTOM-attrib $-1 -1 $-1 $-1 $155 @17 sketch_attrib_def 1 1 3 @13 102 0 0 0 1 1 #
edge $263 -1 $-1 $164 -2.356194490192344837 $212 -1.57079632679489678 $155 $142 forward @7 unknown #
loop $-1 -1 $-1 $264 $158 $265 #
vertex $-1 -1 $-1 $205 $266 #
ellipse-curve $-1 -1 $-1 -2.201591467893461808e-15 -18.75 0 -0 -0 -1 1.112609865695521449 0.569736155388608112 0 0.999999999999999889 I I #
DXID-attrib $-1 -1 $-1 $-1 $162 @10 ASM ENTITY @2 76 #
loop $-1 -1 $-1 $-1 $267 $216 #
face $268 -1 $-1 $147 $163 $5 $-1 $269 forward single #
point $-1 -1 $-1 -14.14213562373095101 -14.14213562373094923 0 #
DXID-attrib $-1 -1 $-1 $-1 $167 @10 ASM ENTITY @1 9 #
face $270 -1 $-1 $271 $272 $5 $-1 $221 reversed single #
loop $-1 -1 $-1 $-1 $273 $167 #
plane-surface $-1 -1 $-1 0 0 40 0 0 1 -10 0 0 forward_v I I I I #
loop $-1 -1 $-1 $140 $168 $195 #
DXID-attrib $-1 -1 $-1 $-1 $169 @10 ASM ENTITY @3 151 #
vertex $-1 -1 $-1 $169 $274 #
ellipse-curve $-1 -1 $-1 0 0 -3.000000000000000444 -0 -0 -1 20 0 0 1 I I #
coedge $275 -1 $-1 $172 $171 $276 $277 forward $71 $-1 #
coedge $-1 -1 $-1 $206 $206 $171 $228 reversed $260 $-1 #
edge $-1 -1 $-1 $154 -1.097537969323805651 $261 2.044054684265987465 $171 $262 forward @7 unknown #
coedge $-1 -1 $-1 $174 $174 $172 $230 reversed $234 $-1 #
edge $-1 -1 $-1 $235 -4.239130622913599211 $180 -1.097537969323805429 $172 $236 forward @7 unknown #
ATTRIB_CUSTOM-attrib $-1 -1 $-1 $-1 $173 @17 sketch_attrib_def 1 1 3 @13 102 0 0 0 1 1 #
coedge $278 -1 $-1 $276 $182 $173 $233 reversed $140 $-1 #
edge $279 -1 $-1 $235 -1.78650551578352237e-16 $185 0.785398163397448168 $173 $142 forward @7 unknown #
loop $-1 -1 $-1 $280 $229 $281 #
vertex $-1 -1 $-1 $175 $282 #
ellipse-curve $-1 -1 $-1 18.75 -3.349697842094104216e-15 0 -0 -0 -1 -0.569736155388608001 1.112609865695521449 0 0.999999999999999889 I I #
point $-1 -1 $-1 17.5 -3.016477451766974399e-15 0 #
ATTRIB_CUSTOM-attrib $-1 -1 $-1 $-1 $182 @17 sketch_attrib_def 1 1 3 @13 102 0 0 0 1 1 #
DXID-attrib $-1 -1 $-1 $-1 $183 @10 ASM ENTITY @2 61 #
loop $-1 -1 $-1 $-1 $283 $241 #
face $284 -1 $-1 $281 $184 $5 $-1 $285 forward single #
point $-1 -1 $-1 14.14213562373095456 14.14213562373094923 0 #
coedge $-1 -1 $-1 $286 $287 $288 $289 forward $190 $-1 #
DXID-attrib $-1 -1 $290 $-1 $191 @10 ASM ENTITY @2 42 #
cone-surface $-1 -1 $-1 -9.462128050782584375e-17 18.75 0 -0.3497448829681918947 -0.1790944976607522499 0.9195671143234781519 -0.569736155388608112 1.112609865695521227 3.262975470224282498e-17 0.9195671143234781519 I I -0 1 1.249999999999999112 forward I I I I #
ATTRIB_CUSTOM-attrib $-1 -1 $-1 $-1 $194 @17 sketch_attrib_def 1 1 3 @13 102 0 0 0 1 1 #
coedge $291 -1 $-1 $194 $276 $203 $259 reversed $140 $-1 #
DXID-attrib $-1 -1 $-1 $-1 $195 @10 ASM ENTITY @2 43 #
cone-surface $-1 -1 $-1 0 0 0 0 0 -1 20 0 0 1 I I 0 1 20 forward I I I I #
coedge $-1 -1 $-1 $251 $196 $292 $293 forward $143 $-1 #
coedge $-1 -1 $-1 $196 $250 $294 $295 forward $143 $-1 #
coedge $-1 -1 $-1 $296 $297 $196 $253 reversed $298 $-1 #
edge $-1 -1 $-1 $299 -2.356194490192342172 $300 0.624279611852713967 $196 $301 forward @7 unknown #
coedge $-1 -1 $-1 $255 $199 $302 $303 forward $146 $-1 #
coedge $-1 -1 $-1 $199 $254 $304 $305 forward $146 $-1 #
coedge $-1 -1 $-1 $306 $307 $199 $257 reversed $308 $-1 #
edge $-1 -1 $-1 $309 -2.356194490192304869 $310 0.624279611852713745 $199 $311 forward @7 unknown #
ATTRIB_CUSTOM-attrib $-1 -1 $-1 $-1 $203 @17 sketch_attrib_def 1 1 3 @13 102 0 0 0 1 1 #
edge $312 -1 $-1 $212 -1.57079632679489678 $261 -0.785398163397448501 $203 $142 forward @7 unknown #
loop $-1 -1 $-1 $313 $206 $314 #
vertex $-1 -1 $-1 $228 $315 #
ellipse-curve $-1 -1 $-1 13.2582521472477648 -13.25825214724776835 0 -0 -0 -1 0.3838696818859196891 1.189598279810794468 0 0.999999999999999889 I I #
DXID-attrib $-1 -1 $-1 $-1 $210 @10 ASM ENTITY @2 73 #
loop $-1 -1 $-1 $-1 $316 $265 #
face $317 -1 $-1 $216 $211 $5 $-1 $318 forward single #
point $-1 -1 $-1 -2.348364232419692174e-15 -20 0 #
coedge $-1 -1 $-1 $319 $320 $321 $322 forward $215 $-1 #
DXID-attrib $-1 -1 $-1 $-1 $216 @10 ASM ENTITY @2 39 #
cone-surface $-1 -1 $-1 -13.25825214724776657 -13.2582521472477648 0 0.3739459122012200876 -0.120668044662987764 0.9195671143234781519 -0.3838696818859196336 -1.189598279810794246 3.262975470224282498e-17 0.9195671143234781519 I I -0 1 1.249999999999999112 forward I I I I #
DXID-attrib $-1 -1 $-1 $-1 $219 @10 ASM ENTITY @2 10 #
face $323 -1 $-1 $324 $325 $5 $-1 $221 reversed single #
loop $-1 -1 $-1 $-1 $326 $219 #
coedge $-1 -1 $-1 $327 $328 $329 $330 reversed $220 $-1 #
point $-1 -1 $-1 -20 -2.449293598294706513e-15 -3.000000000000000444 #
ATTRIB_CUSTOM-attrib $-1 -1 $-1 $-1 $226 @17 sketch_attrib_def 1 1 3 @13 102 0 0 0 1 1 #
coedge $331 -1 $-1 $247 $232 $226 $277 reversed $140 $-1 #
edge $332 -1 $-1 $261 -0.785398163397448501 $235 -1.78650551578352237e-16 $226 $142 forward @7 unknown #
ATTRIB_CUSTOM-attrib $-1 -1 $-1 $-1 $232 @17 sketch_attrib_def 1 1 3 @13 102 0 0 0 1 1 #
DXID-attrib $-1 -1 $-1 $-1 $233 @10 ASM ENTITY @2 64 #
loop $-1 -1 $-1 $-1 $333 $281 #
face $334 -1 $-1 $314 $234 $5 $-1 $335 forward single #
point $-1 -1 $-1 20 -3.573011031567044445e-15 0 #
coedge $-1 -1 $-1 $336 $337 $338 $339 forward $240 $-1 #
DXID-attrib $-1 -1 $-1 $-1 $241 @10 ASM ENTITY @2 35 #
cone-surface $-1 -1 $-1 13.25825214724776835 13.2582521472477648 0 -0.3739459122012201431 0.1206680446629877917 0.9195671143234781519 0.3838696818859197446 1.189598279810794246 3.262975470224282498e-17 0.9195671143234781519 I I -0 1 1.249999999999999112 forward I I I I #
coedge $-1 -1 $-1 $287 $243 $340 $341 forward $190 $-1 #
coedge $-1 -1 $-1 $243 $286 $342 $343 forward $190 $-1 #
coedge $-1 -1 $-1 $344 $345 $243 $289 reversed $346 $-1 #
edge $-1 -1 $-1 $347 -2.356194490192344837 $348 0.624279611852713745 $243 $349 forward @7 unknown #
ATTRIB_CUSTOM-attrib $-1 -1 $-1 $244 $191 @22 FPM_tracked_attrib_def 1 616 #
ATTRIB_CUSTOM-attrib $-1 -1 $-1 $-1 $247 @17 sketch_attrib_def 1 1 3 @13 102 0 0 0 1 1 #
coedge $-1 -1 $-1 $307 $306 $250 $293 reversed $308 $-1 #
edge $-1 -1 $-1 $300 0.624279611852713967 $350 3.604753713897776102 $250 $301 forward @7 unknown #
coedge $351 -1 $-1 $352 $353 $251 $295 reversed $354 $-1 #
edge $355 -1 $-1 $350 3.604753713897776102 $299 3.92699081698724406 $251 $301 forward @7 unknown #
coedge $356 -1 $-1 $340 $252 $357 $358 reversed $298 $-1 #
coedge $359 -1 $-1 $252 $340 $360 $361 reversed $298 $-1 #
loop $-1 -1 $-1 $-1 $252 $362 #
vertex $-1 -1 $-1 $253 $363 #
vertex $-1 -1 $-1 $253 $364 #
ellipse-curve $-1 -1 $-1 -18.50715862871813755 -3.007919462263547672 40 0 0 -1 0.8838834764831844382 0.8838834764831843271 0 1 I I #
coedge $-1 -1 $-1 $365 $366 $254 $303 reversed $367 $-1 #
edge $-1 -1 $-1 $310 0.624279611852713745 $368 3.604753713897762779 $254 $311 forward @7 unknown #
coedge $369 -1 $-1 $370 $371 $255 $305 reversed $372 $-1 #
edge $373 -1 $-1 $368 3.604753713897762779 $309 3.926990816987281363 $255 $311 forward @7 unknown #
coedge $374 -1 $-1 $292 $256 $375 $376 reversed $308 $-1 #
coedge $377 -1 $-1 $256 $292 $378 $379 reversed $308 $-1 #
loop $-1 -1 $-1 $-1 $292 $380 #
vertex $-1 -1 $-1 $257 $381 #
vertex $-1 -1 $-1 $379 $382 #
ellipse-curve $-1 -1 $-1 -10.95961711783217218 -15.21345761589127044 40 0 0 -1 7.654042494670957853e-17 1.25 0 1 I I #
DXID-attrib $-1 -1 $-1 $-1 $259 @10 ASM ENTITY @2 70 #
loop $-1 -1 $-1 $-1 $329 $314 #
face $383 -1 $-1 $265 $260 $5 $-1 $384 forward single #
point $-1 -1 $-1 14.14213562373094923 -14.14213562373095456 0 #
coedge $-1 -1 $-1 $385 $386 $387 $388 forward $264 $-1 #
DXID-attrib $-1 -1 $-1 $-1 $265 @10 ASM ENTITY @2 38 #
cone-surface $-1 -1 $-1 -2.201591467893461808e-15 -18.75 0 0.3497448829681918947 0.1790944976607521943 0.9195671143234781519 0.569736155388608001 -1.112609865695521449 3.262975470224282498e-17 0.9195671143234781519 I I -0 1 1.249999999999999112 forward I I I I #
coedge $-1 -1 $-1 $320 $267 $389 $390 forward $215 $-1 #
coedge $-1 -1 $-1 $267 $319 $391 $392 forward $215 $-1 #
coedge $-1 -1 $-1 $366 $365 $267 $322 reversed $367 $-1 #
edge $-1 -1 $-1 $393 -2.356194490192302649 $394 0.624279611852713967 $267 $395 forward @7 unknown #
DXID-attrib $-1 -1 $-1 $-1 $271 @10 ASM ENTITY @2 11 #
face $396 -1 $-1 $362 $346 $5 $-1 $221 reversed single #
loop $-1 -1 $-1 $-1 $338 $271 #
coedge $-1 -1 $-1 $397 $398 $333 $399 reversed $272 $-1 #
coedge $400 -1 $-1 $401 $273 $402 $403 reversed $220 $-1 #
coedge $404 -1 $-1 $273 $401 $405 $406 reversed $220 $-1 #
coedge $-1 -1 $-1 $407 $408 $273 $330 forward $313 $-1 #
edge $-1 -1 $-1 $409 -2.35619449019237992 $410 0.6242796118527143001 $329 $411 forward @7 unknown #
ATTRIB_CUSTOM-attrib $-1 -1 $-1 $-1 $276 @17 sketch_attrib_def 1 1 3 @13 102 0 0 0 1 1 #
DXID-attrib $-1 -1 $-1 $-1 $277 @10 ASM ENTITY @2 67 #
coedge $-1 -1 $-1 $412 $413 $326 $399 forward $280 $-1 #
DXID-attrib $-1 -1 $-1 $-1 $281 @10 ASM ENTITY @2 36 #
cone-surface $-1 -1 $-1 18.75 -3.349697842094104216e-15 0 -0.1790944976607521943 0.3497448829681919502 0.9195671143234781519 1.112609865695521449 0.569736155388608001 3.262975470224282498e-17 0.9195671143234781519 I I -0 1 1.249999999999999112 forward I I I I #
coedge $-1 -1 $-1 $337 $283 $414 $415 forward $240 $-1 #
coedge $-1 -1 $-1 $283 $336 $416 $417 forward $240 $-1 #
coedge $-1 -1 $-1 $418 $419 $283 $339 reversed $325 $-1 #
edge $-1 -1 $-1 $420 -2.356194490192330182 $421 0.6242796118527143001 $283 $422 forward @7 unknown #
coedge $-1 -1 $-1 $297 $296 $286 $341 reversed $298 $-1 #
edge $-1 -1 $-1 $348 0.624279611852713745 $423 3.60475371389779653 $286 $349 forward @7 unknown #
coedge $424 -1 $-1 $425 $426 $287 $343 reversed $427 $-1 #
edge $428 -1 $-1 $423 3.60475371389779653 $347 3.926990816987241395 $287 $349 forward @7 unknown #
coedge $429 -1 $-1 $414 $288 $430 $431 reversed $346 $-1 #
coedge $432 -1 $-1 $288 $414 $433 $434 reversed $346 $-1 #
loop $-1 -1 $-1 $-1 $414 $324 #
vertex $-1 -1 $-1 $289 $435 #
vertex $-1 -1 $-1 $434 $436 #
ellipse-curve $-1 -1 $-1 -15.21345761589127044 10.95961711783217218 40 -0 -0 -1 1.25 0 0 1 I I #
vertex $-1 -1 $-1 $293 $437 #
ATTRIB_CUSTOM-attrib $-1 -1 $-1 $-1 $294 @17 sketch_attrib_def 1 1 3 @13 143 0 0 0 1 2 #
coedge $-1 -1 $-1 $438 $294 $439 $440 forward $354 $-1 #
coedge $-1 -1 $-1 $294 $438 $441 $442 reversed $354 $-1 #
loop $-1 -1 $-1 $-1 $294 $443 #
DXID-attrib $-1 -1 $-1 $-1 $295 @10 ASM ENTITY @3 145 #
ATTRIB_CUSTOM-attrib $-1 -1 $-1 $-1 $296 @17 sketch_attrib_def 1 1 3 @14 155 0 0 0 1 16 #
coedge $444 -1 $-1 $441 $445 $296 $358 forward $446 $-1 #
edge $-1 -1 $-1 $423 -0.6142454277661523188 $299 0.1510843674581707763 $357 $447 forward @7 unknown #
ATTRIB_CUSTOM-attrib $-1 -1 $-1 $-1 $297 @17 sketch_attrib_def 1 1 3 @22 147 0 4294967295 0 1 1 #
coedge $448 -1 $-1 $433 $378 $297 $361 forward $449 $-1 #
edge $-1 -1 $-1 $300 -0.1611185515447341177 $348 0.6242796118527140781 $360 $450 forward @7 unknown #
face $451 -1 $-1 $380 $298 $5 $-1 $221 reversed single #
point $-1 -1 $-1 -19.75715862871813755 -3.007919462263544119 40 #
point $-1 -1 $-1 -17.27334805347026503 -2.80739149811264399 40 #
coedge $452 -1 $-1 $321 $302 $453 $454 reversed $367 $-1 #
coedge $455 -1 $-1 $302 $321 $456 $457 reversed $367 $-1 #
loop $-1 -1 $-1 $-1 $321 $458 #
vertex $-1 -1 $-1 $457 $459 #
ATTRIB_CUSTOM-attrib $-1 -1 $-1 $-1 $304 @17 sketch_attrib_def 1 1 3 @13 141 0 0 0 2 2 #
coedge $-1 -1 $-1 $460 $304 $461 $462 forward $372 $-1 #
coedge $-1 -1 $-1 $304 $460 $463 $464 reversed $372 $-1 #
loop $-1 -1 $-1 $-1 $304 $465 #
DXID-attrib $-1 -1 $-1 $-1 $305 @10 ASM ENTITY @3 140 #
ATTRIB_CUSTOM-attrib $-1 -1 $-1 $-1 $306 @17 sketch_attrib_def 1 1 3 @14 155 0 0 0 3 16 #
coedge $466 -1 $-1 $463 $439 $306 $376 forward $467 $-1 #
edge $-1 -1 $-1 $350 0.171152735631297126 $309 0.9364825308556167238 $375 $468 forward @7 unknown #
ATTRIB_CUSTOM-attrib $-1 -1 $-1 $-1 $307 @17 sketch_attrib_def 1 1 3 @22 147 0 4294967295 0 1 1 #
coedge $469 -1 $-1 $360 $453 $307 $379 forward $449 $-1 #
edge $-1 -1 $-1 $310 -0.9465167149421824799 $300 -0.1611185515447341177 $378 $450 forward @7 unknown #
face $470 -1 $-1 $458 $308 $5 $-1 $221 reversed single #
point $-1 -1 $-1 -11.84350059431539748 -16.09734109237442468 40 #
point $-1 -1 $-1 -10.22897597664336189 -14.19922710816518574 40 #
DXID-attrib $-1 -1 $-1 $-1 $314 @10 ASM ENTITY @2 37 #
cone-surface $-1 -1 $-1 13.2582521472477648 -13.25825214724776835 0 0.1206680446629877917 0.3739459122012201431 0.9195671143234781519 1.189598279810794246 -0.3838696818859197446 3.262975470224282498e-17 0.9195671143234781519 I I -0 1 1.249999999999999112 forward I I I I #
coedge $-1 -1 $-1 $386 $316 $401 $471 forward $264 $-1 #
coedge $-1 -1 $-1 $316 $385 $472 $473 forward $264 $-1 #
coedge $-1 -1 $-1 $474 $475 $316 $388 reversed $476 $-1 #
edge $-1 -1 $-1 $477 -2.356194490192366597 $478 0.6242796118527149662 $316 $479 forward @7 unknown #
coedge $-1 -1 $-1 $475 $474 $319 $390 reversed $476 $-1 #
edge $-1 -1 $-1 $394 0.624279611852713967 $480 3.604753713897740131 $319 $395 forward @7 unknown #
coedge $481 -1 $-1 $482 $483 $320 $392 reversed $484 $-1 #
edge $485 -1 $-1 $480 3.604753713897740131 $393 3.926990816987283583 $320 $395 forward @7 unknown #
vertex $-1 -1 $-1 $322 $486 #
vertex $-1 -1 $-1 $322 $487 #
ellipse-curve $-1 -1 $-1 3.007919462263547672 -18.50715862871813755 40 0 0 -1 -0.8838834764831843271 0.8838834764831844382 0 1 I I #
DXID-attrib $-1 -1 $-1 $-1 $324 @10 ASM ENTITY @2 12 #
coedge $488 -1 $-1 $489 $326 $490 $491 reversed $272 $-1 #
coedge $492 -1 $-1 $326 $489 $493 $494 reversed $272 $-1 #
edge $-1 -1 $-1 $495 -2.356194490192307534 $496 0.6242796118527149662 $333 $497 forward @7 unknown #
ATTRIB_CUSTOM-attrib $-1 -1 $-1 $-1 $327 @17 sketch_attrib_def 1 1 3 @14 155 0 0 0 9 16 #
coedge $-1 -1 $-1 $328 $327 $385 $471 reversed $220 $-1 #
coedge $498 -1 $-1 $499 $500 $327 $403 forward $501 $-1 #
edge $-1 -1 $-1 $502 2.527347225823644017 $409 3.292677021047965891 $402 $503 forward @7 unknown #
ATTRIB_CUSTOM-attrib $-1 -1 $-1 $-1 $328 @17 sketch_attrib_def 1 1 3 @22 147 0 4294967295 0 1 1 #
coedge $504 -1 $-1 $505 $493 $328 $406 forward $449 $-1 #
edge $-1 -1 $-1 $410 -3.302711205134527095 $478 -2.51731304173707926 $405 $450 forward @7 unknown #
coedge $-1 -1 $-1 $408 $329 $489 $506 forward $313 $-1 #
coedge $-1 -1 $-1 $329 $407 $507 $508 forward $313 $-1 #
vertex $-1 -1 $-1 $330 $509 #
vertex $-1 -1 $-1 $330 $510 #
ellipse-curve $-1 -1 $-1 18.5071586287181411 3.00791946226354634 40 0 0 -1 -0.8838834764831846602 -0.8838834764831843271 0 1 I I #
coedge $-1 -1 $-1 $413 $333 $511 $512 forward $280 $-1 #
coedge $-1 -1 $-1 $333 $412 $513 $514 forward $280 $-1 #
coedge $-1 -1 $-1 $345 $344 $336 $415 reversed $346 $-1 #
edge $-1 -1 $-1 $421 0.6242796118527143001 $515 3.604753713897779654 $336 $422 forward @7 unknown #
coedge $516 -1 $-1 $517 $518 $337 $417 reversed $519 $-1 #
edge $520 -1 $-1 $515 3.604753713897779654 $420 3.92699081698725605 $337 $422 forward @7 unknown #
coedge $521 -1 $-1 $511 $338 $522 $523 reversed $325 $-1 #
coedge $524 -1 $-1 $338 $511 $525 $526 reversed $325 $-1 #
vertex $-1 -1 $-1 $339 $527 #
vertex $-1 -1 $-1 $339 $528 #
ellipse-curve $-1 -1 $-1 -3.00791946226354634 18.5071586287181411 40 0 0 -1 0.8838834764831843271 -0.8838834764831846602 0 1 I I #
vertex $-1 -1 $-1 $358 $529 #
ATTRIB_CUSTOM-attrib $-1 -1 $530 $-1 $342 @17 sketch_attrib_def 1 1 3 @13 145 0 0 0 2 2 #
coedge $-1 -1 $-1 $531 $342 $445 $532 forward $427 $-1 #
coedge $-1 -1 $-1 $342 $531 $533 $534 reversed $427 $-1 #
loop $-1 -1 $-1 $-1 $342 $535 #
DXID-attrib $-1 -1 $-1 $-1 $343 @10 ASM ENTITY @3 108 #
ATTRIB_CUSTOM-attrib $-1 -1 $-1 $-1 $344 @17 sketch_attrib_def 1 1 3 @15 155 0 0 0 15 16 #
coedge $536 -1 $-1 $533 $537 $344 $431 forward $538 $-1 #
edge $-1 -1 $-1 $515 -1.399643591163599821 $347 -0.6343137959392773917 $430 $539 forward @7 unknown #
ATTRIB_CUSTOM-attrib $-1 -1 $-1 $-1 $345 @17 sketch_attrib_def 1 1 3 @22 147 0 4294967295 0 1 1 #
coedge $540 -1 $-1 $525 $360 $345 $434 forward $449 $-1 #
edge $-1 -1 $-1 $348 0.6242796118527140781 $421 1.409677775250162579 $433 $450 forward @7 unknown #
point $-1 -1 $-1 -16.09734109237445665 11.84350059431535662 40 #
point $-1 -1 $-1 -14.19922710816518574 10.22897597664336189 40 #
point $-1 -1 $-1 -19.6928202856677288 -3.403781098747240552 40 #
coedge $-1 -1 $-1 $353 $352 $541 $542 reversed $354 $-1 #
coedge $-1 -1 $-1 $375 $543 $352 $440 reversed $467 $-1 #
edge $-1 -1 $-1 $350 0 $544 0.2999999999999998224 $352 $545 forward @7 unknown #
coedge $-1 -1 $-1 $546 $357 $353 $442 forward $446 $-1 #
edge $-1 -1 $-1 $299 0 $547 0.2999999999999998224 $441 $548 forward @7 unknown #
face $549 -1 $-1 $550 $354 $5 $-1 $551 forward single #
ATTRIB_CUSTOM-attrib $-1 -1 $-1 $-1 $357 @17 sketch_attrib_def 1 1 3 @14 155 0 0 0 1 16 #
coedge $-1 -1 $-1 $357 $546 $425 $532 reversed $446 $-1 #
loop $-1 -1 $-1 $-1 $357 $550 #
ellipse-curve $-1 -1 $-1 0 0 40 0 0 1 -19.98481665094266901 0 0 1 F -0.6142454277661523188 F 0.1510843674581707763 #
ATTRIB_CUSTOM-attrib $-1 -1 $-1 $-1 $360 @17 sketch_attrib_def 1 1 3 @22 147 0 4294967295 0 1 1 #
loop $-1 -1 $-1 $-1 $405 $552 #
ellipse-curve $-1 -1 $-1 0 0 40 0 0 -1 -17.50000000000000711 0 0 1 I I #
DXID-attrib $-1 -1 $-1 $-1 $362 @10 ASM ENTITY @2 13 #
ATTRIB_CUSTOM-attrib $-1 -1 $-1 $-1 $365 @17 sketch_attrib_def 1 1 3 @22 147 0 4294967295 0 1 1 #
coedge $553 -1 $-1 $378 $505 $365 $454 forward $449 $-1 #
edge $-1 -1 $-1 $394 -1.731914878339630759 $310 -0.9465167149421824799 $453 $450 forward @7 unknown #
ATTRIB_CUSTOM-attrib $-1 -1 $-1 $-1 $366 @17 sketch_attrib_def 1 1 3 @14 155 0 0 0 5 16 #
coedge $554 -1 $-1 $555 $461 $366 $457 forward $556 $-1 #
edge $-1 -1 $-1 $368 0.9565508990287464597 $393 1.721880694253064892 $456 $557 forward @7 unknown #
face $558 -1 $-1 $552 $367 $5 $-1 $221 reversed single #
point $-1 -1 $-1 -11.51809006808486657 -16.3317634612824385 40 #
coedge $-1 -1 $-1 $371 $370 $559 $560 reversed $372 $-1 #
coedge $-1 -1 $-1 $456 $561 $370 $462 reversed $556 $-1 #
edge $-1 -1 $-1 $368 0 $562 0.2999999999999998224 $370 $563 forward @7 unknown #
coedge $-1 -1 $-1 $543 $375 $371 $464 forward $467 $-1 #
edge $-1 -1 $-1 $309 0 $564 0.2999999999999998224 $463 $565 forward @7 unknown #
face $566 -1 $-1 $567 $372 $5 $-1 $568 forward single #
ATTRIB_CUSTOM-attrib $-1 -1 $-1 $-1 $375 @17 sketch_attrib_def 1 1 3 @14 155 0 0 0 3 16 #
loop $-1 -1 $-1 $-1 $375 $567 #
ellipse-curve $-1 -1 $-1 0 0 40 0 0 1 -19.98481665094266901 0 0 1 F 0.1711527356312970982 F 0.9364825308556169459 #
ATTRIB_CUSTOM-attrib $-1 -1 $-1 $-1 $378 @17 sketch_attrib_def 1 1 3 @22 147 0 4294967295 0 1 1 #
DXID-attrib $-1 -1 $-1 $-1 $380 @10 ASM ENTITY @2 14 #
edge $-1 -1 $-1 $478 0.6242796118527149662 $502 3.604753713897744571 $385 $479 forward @7 unknown #
coedge $569 -1 $-1 $570 $571 $386 $473 reversed $572 $-1 #
edge $573 -1 $-1 $502 3.604753713897744571 $477 3.926990816987219635 $386 $479 forward @7 unknown #
coedge $574 -1 $-1 $389 $387 $575 $576 reversed $476 $-1 #
coedge $577 -1 $-1 $387 $389 $505 $578 reversed $476 $-1 #
loop $-1 -1 $-1 $-1 $389 $579 #
vertex $-1 -1 $-1 $473 $580 #
vertex $-1 -1 $-1 $471 $581 #
ellipse-curve $-1 -1 $-1 15.21345761589126866 -10.95961711783217396 40 0 0 -1 -1.25 1.530808498934191571e-16 0 1 I I #
vertex $-1 -1 $-1 $576 $582 #
ATTRIB_CUSTOM-attrib $-1 -1 $-1 $-1 $391 @17 sketch_attrib_def 1 1 3 @13 139 0 0 0 2 2 #
coedge $-1 -1 $-1 $583 $391 $584 $585 forward $484 $-1 #
coedge $-1 -1 $-1 $391 $583 $555 $586 reversed $484 $-1 #
loop $-1 -1 $-1 $-1 $391 $587 #
DXID-attrib $-1 -1 $-1 $-1 $392 @10 ASM ENTITY @3 135 #
point $-1 -1 $-1 3.007919462263494825 -19.75715862871814466 40 #
point $-1 -1 $-1 2.80739149811264399 -17.27334805347026503 40 #
ATTRIB_CUSTOM-attrib $-1 -1 $-1 $-1 $397 @17 sketch_attrib_def 1 1 3 @15 155 0 0 0 11 16 #
coedge $-1 -1 $-1 $398 $397 $407 $506 reversed $272 $-1 #
coedge $588 -1 $-1 $589 $590 $397 $491 forward $591 $-1 #
edge $-1 -1 $-1 $592 -2.970439917958488163 $495 -2.205110122734176503 $490 $593 forward @7 unknown #
ATTRIB_CUSTOM-attrib $-1 -1 $-1 $-1 $398 @17 sketch_attrib_def 1 1 3 @22 147 0 4294967295 0 1 1 #
coedge $594 -1 $-1 $405 $525 $398 $494 forward $449 $-1 #
edge $-1 -1 $-1 $496 2.195075938647610858 $410 2.980474102045059137 $493 $450 forward @7 unknown #
vertex $-1 -1 $-1 $399 $595 #
vertex $-1 -1 $-1 $399 $596 #
ellipse-curve $-1 -1 $-1 10.95961711783217396 15.21345761589126866 40 0 0 -1 -2.296212748401286986e-16 -1.25 0 1 I I #
ATTRIB_CUSTOM-attrib $-1 -1 $-1 $-1 $402 @17 sketch_attrib_def 1 1 3 @14 155 0 0 0 9 16 #
coedge $-1 -1 $-1 $597 $402 $598 $599 forward $501 $-1 #
coedge $-1 -1 $-1 $402 $597 $570 $600 reversed $501 $-1 #
loop $-1 -1 $-1 $-1 $402 $601 #
vertex $-1 -1 $-1 $403 $602 #
ellipse-curve $-1 -1 $-1 0 0 40 0 0 1 -19.98481665094266901 0 0 1 F 2.527347225823644017 F 3.292677021047966335 #
ATTRIB_CUSTOM-attrib $-1 -1 $-1 $-1 $405 @17 sketch_attrib_def 1 1 3 @22 147 0 4294967295 0 1 1 #
coedge $603 -1 $-1 $453 $405 $475 $578 forward $449 $-1 #
edge $-1 -1 $-1 $410 0.6242796118527143001 $592 3.604753713897649092 $407 $411 forward @7 unknown #
coedge $604 -1 $-1 $605 $598 $408 $508 reversed $606 $-1 #
edge $607 -1 $-1 $592 3.604753713897649092 $409 3.926990816987206312 $408 $411 forward @7 unknown #
point $-1 -1 $-1 19.75715862871813044 3.007919462263590304 40 #
point $-1 -1 $-1 17.27334805347026503 2.807391498112643546 40 #
coedge $-1 -1 $-1 $419 $418 $412 $512 reversed $325 $-1 #
edge $-1 -1 $-1 $496 0.6242796118527149662 $608 3.604753713897727252 $412 $497 forward @7 unknown #
coedge $609 -1 $-1 $610 $611 $413 $514 reversed $612 $-1 #
edge $613 -1 $-1 $608 3.604753713897727252 $495 3.926990816987278698 $413 $497 forward @7 unknown #
vertex $-1 -1 $-1 $415 $614 #
ATTRIB_CUSTOM-attrib $-1 -1 $-1 $-1 $416 @17 sketch_attrib_def 1 1 3 @13 131 0 0 0 2 2 #
coedge $-1 -1 $-1 $615 $416 $537 $616 forward $519 $-1 #
coedge $-1 -1 $-1 $416 $615 $617 $618 reversed $519 $-1 #
loop $-1 -1 $-1 $-1 $416 $619 #
DXID-attrib $-1 -1 $-1 $-1 $417 @10 ASM ENTITY @3 114 #
ATTRIB_CUSTOM-attrib $-1 -1 $-1 $-1 $418 @17 sketch_attrib_def 1 1 3 @15 155 0 0 0 13 16 #
coedge $620 -1 $-1 $617 $621 $418 $523 forward $622 $-1 #
edge $-1 -1 $-1 $608 -2.185041754561044769 $420 -1.41971195933672667 $522 $623 forward @7 unknown #
ATTRIB_CUSTOM-attrib $-1 -1 $-1 $-1 $419 @17 sketch_attrib_def 1 1 3 @22 147 0 4294967295 0 1 1 #
coedge $624 -1 $-1 $493 $433 $419 $526 forward $449 $-1 #
edge $-1 -1 $-1 $421 1.409677775250162579 $496 2.195075938647610858 $525 $450 forward @7 unknown #
point $-1 -1 $-1 -3.007919462263527244 19.75715862871813755 40 #
point $-1 -1 $-1 -2.807391498112643546 17.27334805347026503 40 #
point $-1 -1 $-1 -16.33176346128241363 11.5180900680849021 40 #
ATTRIB_CUSTOM-attrib $-1 -1 $-1 $424 $342 @17 sketch_attrib_def 1 1 3 @13 127 0 0 0 2 2 #
coedge $-1 -1 $-1 $426 $425 $625 $626 reversed $427 $-1 #
edge $-1 -1 $-1 $423 0 $627 0.2999999999999998224 $445 $628 forward @7 unknown #
coedge $-1 -1 $-1 $629 $430 $426 $534 forward $538 $-1 #
edge $-1 -1 $-1 $347 0 $630 0.2999999999999998224 $533 $631 forward @7 unknown #
face $632 -1 $-1 $633 $427 $5 $-1 $634 forward single #
ATTRIB_CUSTOM-attrib $-1 -1 $-1 $-1 $430 @17 sketch_attrib_def 1 1 3 @15 155 0 0 0 15 16 #
coedge $-1 -1 $-1 $430 $629 $517 $616 reversed $538 $-1 #
loop $-1 -1 $-1 $-1 $430 $633 #
ellipse-curve $-1 -1 $-1 0 0 40 0 0 1 -19.98481665094266901 0 0 1 F -1.399643591163599821 F -0.6343137959392772807 #
ATTRIB_CUSTOM-attrib $-1 -1 $-1 $-1 $433 @17 sketch_attrib_def 1 1 3 @22 147 0 4294967295 0 1 1 #
coedge $-1 -1 $-1 $635 $636 $438 $542 forward $637 $-1 #
edge $638 -1 $-1 $547 0 $544 0.3222371030894671251 $438 $639 forward @7 unknown #
coedge $-1 -1 $-1 $439 $463 $635 $640 reversed $467 $-1 #
vertex $-1 -1 $-1 $640 $641 #
straight-curve $-1 -1 $-1 -19.6928202856677288 -3.403781098747240552 40 0 0 10 I I #
coedge $-1 -1 $-1 $445 $441 $636 $642 reversed $446 $-1 #
vertex $-1 -1 $-1 $542 $643 #
straight-curve $-1 -1 $-1 -19.75715862871813755 -3.007919462263544119 40 0 0 10 I I #
DXID-attrib $-1 -1 $-1 $-1 $443 @10 ASM ENTITY @2 31 #
face $644 -1 $-1 $645 $446 $5 $-1 $646 forward single #
cone-surface $-1 -1 $-1 -18.50715862871813755 -3.007919462263544119 39.99999999999999289 0 0 1 -1.25 0 0 1 I I 0 1 1.25 forward I I I I #
face $647 -1 $-1 $535 $648 $5 $-1 $649 forward single #
ATTRIB_CUSTOM-attrib $-1 -1 $-1 $-1 $453 @17 sketch_attrib_def 1 1 3 @22 147 0 4294967295 0 1 1 #
ATTRIB_CUSTOM-attrib $-1 -1 $-1 $-1 $456 @17 sketch_attrib_def 1 1 3 @14 155 0 0 0 5 16 #
coedge $-1 -1 $-1 $561 $456 $483 $586 forward $556 $-1 #
loop $-1 -1 $-1 $-1 $456 $650 #
ellipse-curve $-1 -1 $-1 0 0 40 0 0 1 -19.98481665094266901 0 0 1 F 0.9565508990287464597 F 1.721880694253064892 #
DXID-attrib $-1 -1 $-1 $-1 $458 @10 ASM ENTITY @2 15 #
coedge $-1 -1 $-1 $651 $635 $460 $560 forward $637 $-1 #
edge $652 -1 $-1 $564 -1.258656520868575823 $562 -0.9364194177790573503 $460 $653 forward @7 unknown #
coedge $-1 -1 $-1 $461 $555 $651 $654 reversed $556 $-1 #
vertex $-1 -1 $-1 $654 $655 #
straight-curve $-1 -1 $-1 -11.51809006808486657 -16.3317634612824385 40 0 0 10 I I #
vertex $-1 -1 $-1 $560 $656 #
straight-curve $-1 -1 $-1 -11.84350059431539748 -16.09734109237442468 40 0 0 10 I I #
DXID-attrib $-1 -1 $-1 $-1 $465 @10 ASM ENTITY @2 29 #
face $657 -1 $-1 $443 $467 $5 $-1 $658 forward single #
cone-surface $-1 -1 $-1 -10.95961711783217396 -15.21345761589126511 39.99999999999999289 0 0 1 0.569736155388608223 -1.112609865695521449 0 1 I I 0 1 1.249999999999999556 forward I I I I #
ATTRIB_CUSTOM-attrib $-1 -1 $-1 $-1 $472 @17 sketch_attrib_def 1 1 3 @13 137 0 0 0 2 2 #
coedge $-1 -1 $-1 $659 $472 $500 $600 forward $572 $-1 #
coedge $-1 -1 $-1 $472 $659 $660 $661 reversed $572 $-1 #
loop $-1 -1 $-1 $-1 $472 $662 #
DXID-attrib $-1 -1 $-1 $-1 $473 @10 ASM ENTITY @3 129 #
ATTRIB_CUSTOM-attrib $-1 -1 $-1 $-1 $474 @17 sketch_attrib_def 1 1 3 @14 155 0 0 0 7 16 #
coedge $663 -1 $-1 $660 $584 $474 $576 forward $664 $-1 #
edge $-1 -1 $-1 $480 1.74194906242619596 $477 2.507278857650517168 $575 $665 forward @7 unknown #
ATTRIB_CUSTOM-attrib $-1 -1 $-1 $-1 $475 @17 sketch_attrib_def 1 1 3 @22 147 0 4294967295 0 1 1 #
edge $-1 -1 $-1 $478 -2.51731304173707926 $394 -1.731914878339630759 $505 $450 forward @7 unknown #
face $666 -1 $-1 $241 $476 $5 $-1 $221 reversed single #
point $-1 -1 $-1 16.09734109237446731 -11.84350059431533708 40 #
point $-1 -1 $-1 14.19922710816518396 -10.22897597664336189 40 #
point $-1 -1 $-1 3.403781098747284961 -19.69282028566772169 40 #
coedge $-1 -1 $-1 $483 $482 $667 $668 reversed $484 $-1 #
coedge $-1 -1 $-1 $575 $669 $482 $585 reversed $664 $-1 #
edge $-1 -1 $-1 $480 0 $670 0.2999999999999998224 $482 $671 forward @7 unknown #
edge $-1 -1 $-1 $393 0 $672 0.2999999999999998224 $555 $673 forward @7 unknown #
face $674 -1 $-1 $650 $484 $5 $-1 $675 forward single #
ATTRIB_CUSTOM-attrib $-1 -1 $-1 $-1 $490 @17 sketch_attrib_def 1 1 3 @15 155 0 0 0 11 16 #
coedge $-1 -1 $-1 $676 $490 $611 $677 forward $591 $-1 #
coedge $-1 -1 $-1 $490 $676 $605 $678 reversed $591 $-1 #
loop $-1 -1 $-1 $-1 $490 $679 #
vertex $-1 -1 $-1 $491 $680 #
ellipse-curve $-1 -1 $-1 0 0 40 0 0 1 -19.98481665094266901 0 0 1 F -2.970439917958488163 F -2.205110122734176503 #
ATTRIB_CUSTOM-attrib $-1 -1 $-1 $-1 $493 @17 sketch_attrib_def 1 1 3 @22 147 0 4294967295 0 1 1 #
point $-1 -1 $-1 11.84350059431539748 16.09734109237442468 40 #
point $-1 -1 $-1 10.22897597664336189 14.19922710816518396 40 #
coedge $-1 -1 $-1 $500 $499 $681 $682 reversed $501 $-1 #
coedge $-1 -1 $-1 $507 $683 $499 $599 reversed $606 $-1 #
edge $-1 -1 $-1 $409 0 $684 0.2999999999999998224 $499 $685 forward @7 unknown #
edge $-1 -1 $-1 $502 0 $686 0.2999999999999998224 $570 $687 forward @7 unknown #
face $688 -1 $-1 $662 $501 $5 $-1 $689 forward single #
point $-1 -1 $-1 16.33176346128244916 -11.51809006808485236 40 #
ATTRIB_CUSTOM-attrib $-1 -1 $-1 $-1 $505 @17 sketch_attrib_def 1 1 3 @22 147 0 4294967295 0 1 1 #
ATTRIB_CUSTOM-attrib $-1 -1 $-1 $-1 $507 @17 sketch_attrib_def 1 1 3 @13 135 0 0 0 2 2 #
coedge $-1 -1 $-1 $683 $507 $590 $678 forward $606 $-1 #
loop $-1 -1 $-1 $-1 $507 $690 #
DXID-attrib $-1 -1 $-1 $-1 $508 @10 ASM ENTITY @3 124 #
vertex $-1 -1 $-1 $523 $691 #
ATTRIB_CUSTOM-attrib $-1 -1 $-1 $-1 $513 @17 sketch_attrib_def 1 1 3 @13 133 0 0 0 2 2 #
coedge $-1 -1 $-1 $692 $513 $621 $693 forward $612 $-1 #
coedge $-1 -1 $-1 $513 $692 $589 $677 reversed $612 $-1 #
loop $-1 -1 $-1 $-1 $513 $694 #
DXID-attrib $-1 -1 $-1 $-1 $514 @10 ASM ENTITY @3 119 #
point $-1 -1 $-1 -3.403781098747234335 19.6928202856677288 40 #
coedge $-1 -1 $-1 $518 $517 $695 $696 reversed $519 $-1 #
edge $-1 -1 $-1 $515 0 $697 0.2999999999999998224 $517 $698 forward @7 unknown #
coedge $-1 -1 $-1 $699 $522 $518 $618 forward $622 $-1 #
edge $-1 -1 $-1 $420 0 $700 0.2999999999999998224 $617 $701 forward @7 unknown #
face $702 -1 $-1 $703 $519 $5 $-1 $704 forward single #
ATTRIB_CUSTOM-attrib $-1 -1 $-1 $-1 $522 @17 sketch_attrib_def 1 1 3 @15 155 0 0 0 13 16 #
coedge $-1 -1 $-1 $522 $699 $610 $693 reversed $622 $-1 #
loop $-1 -1 $-1 $-1 $522 $703 #
ellipse-curve $-1 -1 $-1 0 0 40 0 0 1 -19.98481665094266901 0 0 1 F -2.185041754561044769 F -1.41971195933672667 #
ATTRIB_CUSTOM-attrib $-1 -1 $-1 $-1 $525 @17 sketch_attrib_def 1 1 3 @22 147 0 4294967295 0 1 1 #
coedge $-1 -1 $-1 $636 $705 $531 $626 forward $637 $-1 #
edge $706 -1 $-1 $630 -2.82945284766341798 $627 -2.507215744573989546 $531 $707 forward @7 unknown #
vertex $-1 -1 $-1 $532 $708 #
straight-curve $-1 -1 $-1 -16.33176346128241363 11.5180900680849021 40 0 0 10 I I #
coedge $-1 -1 $-1 $537 $533 $705 $709 reversed $538 $-1 #
vertex $-1 -1 $-1 $626 $710 #
straight-curve $-1 -1 $-1 -16.09734109237445665 11.84350059431535662 40 0 0 10 I I #
DXID-attrib $-1 -1 $-1 $-1 $535 @10 ASM ENTITY @2 17 #
face $711 -1 $-1 $619 $538 $5 $-1 $712 forward single #
cone-surface $-1 -1 $-1 -15.21345761589126511 10.95961711783217218 39.99999999999999289 0 0 1 0.569736155388608223 -1.112609865695521449 0 1 I I 0 1 1.249999999999999556 forward I I I I #
coedge $-1 -1 $-1 $559 $541 $543 $640 forward $637 $-1 #
coedge $-1 -1 $-1 $541 $625 $546 $642 forward $637 $-1 #
loop $-1 -1 $-1 $713 $714 $645 #
DXID-attrib $-1 -1 $-1 $-1 $542 @10 ASM ENTITY @3 146 #
ellipse-curve $-1 -1 $-1 -18.50715862871813755 -3.007919462263544119 42.99999999999998579 2.932586174565321186e-33 -9.463118273107149142e-34 1 -1.25 0 0 1 I I #
edge $-1 -1 $-1 $544 0.171152735631297126 $564 0.9364825308556167238 $543 $715 forward @7 unknown #
point $-1 -1 $-1 -19.6928202856677288 -3.403781098747240552 43 #
edge $-1 -1 $-1 $627 -0.6142454277661523188 $547 0.1510843674581707763 $546 $716 forward @7 unknown #
point $-1 -1 $-1 -19.757158628718134 -3.007919462263544119 43 #
DXID-attrib $-1 -1 $-1 $-1 $550 @10 ASM ENTITY @2 32 #
face $717 -1 $-1 $579 $637 $5 $-1 $718 forward single #
cone-surface $-1 -1 $-1 0 0 40 0 0 1 -19.98481665094266901 0 0 1 I I 0 1 19.98481665094266901 forward I I I I #
DXID-attrib $-1 -1 $-1 $-1 $552 @10 ASM ENTITY @2 16 #
loop $-1 -1 $-1 $449 $719 $552 #
cone-surface $-1 -1 $-1 0 0 40 0 0 1 -17.50000000000000711 0 0 1 I I 0 -1 17.50000000000000711 forward I I I I #
face $720 -1 $-1 $465 $556 $5 $-1 $721 forward single #
coedge $-1 -1 $-1 $667 $559 $561 $654 forward $637 $-1 #
DXID-attrib $-1 -1 $-1 $-1 $560 @10 ASM ENTITY @3 141 #
ellipse-curve $-1 -1 $-1 -10.95961711783217396 -15.21345761589126511 42.99999999999998579 0 0 1 0.569736155388608223 -1.112609865695521449 0 0.999999999999999778 I I #
edge $-1 -1 $-1 $562 0.9565508990287464597 $672 1.721880694253064892 $561 $722 forward @7 unknown #
point $-1 -1 $-1 -11.5180900680848648 -16.3317634612824385 43 #
point $-1 -1 $-1 -11.84350059431539748 -16.09734109237442468 43 #
DXID-attrib $-1 -1 $-1 $-1 $567 @10 ASM ENTITY @2 30 #
cone-surface $-1 -1 $-1 0 0 40 0 0 1 -19.98481665094266901 0 0 1 I I 0 1 19.98481665094266901 forward I I I I #
coedge $-1 -1 $-1 $571 $570 $723 $724 reversed $572 $-1 #
coedge $-1 -1 $-1 $669 $575 $571 $661 forward $664 $-1 #
edge $-1 -1 $-1 $477 0 $725 0.2999999999999998224 $660 $726 forward @7 unknown #
face $727 -1 $-1 $728 $572 $5 $-1 $729 forward single #
ATTRIB_CUSTOM-attrib $-1 -1 $-1 $-1 $575 @17 sketch_attrib_def 1 1 3 @14 155 0 0 0 7 16 #
loop $-1 -1 $-1 $-1 $575 $728 #
ellipse-curve $-1 -1 $-1 0 0 40 0 0 1 -19.98481665094266901 0 0 1 F 1.74194906242619596 F 2.507278857650517168 #
DXID-attrib $-1 -1 $-1 $-1 $579 @10 ASM ENTITY @2 34 #
coedge $-1 -1 $-1 $714 $651 $583 $668 forward $637 $-1 #
edge $730 -1 $-1 $672 1.570796326794857256 $670 1.893033429884399155 $583 $731 forward @7 unknown #
coedge $-1 -1 $-1 $584 $660 $714 $732 reversed $664 $-1 #
vertex $-1 -1 $-1 $732 $733 #
straight-curve $-1 -1 $-1 3.403781098747284961 -19.69282028566772169 40 0 0 10 I I #
vertex $-1 -1 $-1 $668 $734 #
straight-curve $-1 -1 $-1 3.007919462263494825 -19.75715862871814466 40 0 0 10 I I #
DXID-attrib $-1 -1 $-1 $-1 $587 @10 ASM ENTITY @2 27 #
cone-surface $-1 -1 $-1 3.007919462263544119 -18.50715862871813755 39.99999999999999289 0 0 1 -1.249999999999999112 0 0 1 I I 0 1 1.249999999999999112 forward I I I I #
coedge $-1 -1 $-1 $590 $589 $735 $736 reversed $591 $-1 #
edge $-1 -1 $-1 $495 0 $737 0.2999999999999998224 $589 $738 forward @7 unknown #
edge $-1 -1 $-1 $592 0 $739 0.2999999999999998224 $605 $740 forward @7 unknown #
face $741 -1 $-1 $690 $591 $5 $-1 $742 forward single #
point $-1 -1 $-1 19.69282028566770038 3.403781098747397316 40 #
coedge $-1 -1 $-1 $743 $723 $597 $682 forward $637 $-1 #
edge $-1 -1 $-1 $686 2.527347225823644017 $684 3.292677021047965891 $597 $744 forward @7 unknown #
coedge $-1 -1 $-1 $598 $605 $743 $745 reversed $606 $-1 #
vertex $-1 -1 $-1 $745 $746 #
straight-curve $-1 -1 $-1 19.75715862871813044 3.007919462263590304 40 0 0 10 I I #
vertex $-1 -1 $-1 $682 $747 #
straight-curve $-1 -1 $-1 16.33176346128244916 -11.51809006808485236 40 0 0 10 I I #
DXID-attrib $-1 -1 $-1 $-1 $601 @10 ASM ENTITY @2 24 #
cone-surface $-1 -1 $-1 0 0 40 0 0 1 -19.98481665094266901 0 0 1 I I 0 1 19.98481665094266901 forward I I I I #
face $748 -1 $-1 $601 $606 $5 $-1 $749 forward single #
point $-1 -1 $-1 11.5180900680848346 16.33176346128246337 40 #
coedge $-1 -1 $-1 $611 $610 $750 $751 reversed $612 $-1 #
edge $-1 -1 $-1 $608 0 $752 0.2999999999999998224 $610 $753 forward @7 unknown #
face $754 -1 $-1 $679 $612 $5 $-1 $755 forward single #
coedge $-1 -1 $-1 $705 $756 $615 $696 forward $637 $-1 #
edge $757 -1 $-1 $700 -2.829452847663447734 $697 -2.507215744573974003 $615 $758 forward @7 unknown #
vertex $-1 -1 $-1 $709 $759 #
straight-curve $-1 -1 $-1 -3.403781098747234335 19.6928202856677288 40 0 0 10 I I #
coedge $-1 -1 $-1 $621 $617 $756 $760 reversed $622 $-1 #
vertex $-1 -1 $-1 $696 $761 #
straight-curve $-1 -1 $-1 -3.007919462263527244 19.75715862871813755 40 0 0 10 I I #
DXID-attrib $-1 -1 $-1 $-1 $619 @10 ASM ENTITY @2 19 #
face $762 -1 $-1 $694 $622 $5 $-1 $763 forward single #
cone-surface $-1 -1 $-1 -3.007919462263544119 18.50715862871813755 39.99999999999999289 0 0 1 -0.3838696818859196891 -1.189598279810794246 0 1 I I 0 1 1.249999999999999112 forward I I I I #
coedge $-1 -1 $-1 $625 $695 $629 $709 forward $637 $-1 #
DXID-attrib $-1 -1 $-1 $-1 $626 @10 ASM ENTITY @3 110 #
ellipse-curve $-1 -1 $-1 -15.21345761589126511 10.95961711783217218 42.99999999999998579 0 0 1 0.569736155388608223 -1.112609865695521449 0 1 I I #
point $-1 -1 $-1 -16.33176346128241718 11.5180900680849021 43 #
edge $-1 -1 $-1 $697 -1.399643591163599821 $630 -0.6343137959392773917 $629 $764 forward @7 unknown #
point $-1 -1 $-1 -16.09734109237445665 11.84350059431535662 43 #
DXID-attrib $-1 -1 $-1 $-1 $633 @10 ASM ENTITY @2 18 #
cone-surface $-1 -1 $-1 0 0 40 0 0 1 -19.98481665094266901 0 0 1 I I 0 1 19.98481665094266901 forward I I I I #
loop $-1 -1 $-1 $-1 $765 $645 #
coedge $-1 -1 $-1 $723 $667 $669 $732 forward $637 $-1 #
ellipse-curve $-1 -1 $-1 0 0 43 0 0 1 -19.98481665094266901 0 0 1 I I #
ellipse-curve $-1 -1 $-1 0 0 43 0 0 1 -19.98481665094266901 0 0 1 I I #
DXID-attrib $-1 -1 $-1 $-1 $645 @10 ASM ENTITY @2 33 #
plane-surface $-1 -1 $-1 0 0 43 0 0 1 -10 0 0 forward_v I I I I #
coedge $-1 -1 $-1 $719 $719 $765 $766 reversed $648 $-1 #
DXID-attrib $-1 -1 $-1 $-1 $650 @10 ASM ENTITY @2 28 #
cone-surface $-1 -1 $-1 0 0 40 0 0 1 -19.98481665094266901 0 0 1 I I 0 1 19.98481665094266901 forward I I I I #
ellipse-curve $-1 -1 $-1 0 0 43 0 0 1 -19.98481665094266901 0 0 1 I I #
coedge $-1 -1 $-1 $681 $714 $659 $724 forward $637 $-1 #
edge $767 -1 $-1 $725 -1.258656520868512096 $686 -0.9364194177790412521 $659 $768 forward @7 unknown #
vertex $-1 -1 $-1 $724 $769 #
straight-curve $-1 -1 $-1 16.09734109237446731 -11.84350059431533708 40 0 0 10 I I #
DXID-attrib $-1 -1 $-1 $-1 $662 @10 ASM ENTITY @2 25 #
face $770 -1 $-1 $587 $664 $5 $-1 $771 forward single #
cone-surface $-1 -1 $-1 15.21345761589126333 -10.95961711783217751 39.99999999999999289 0 0 1 1.112609865695521671 0.569736155388608112 0 1 I I 0 1 1.249999999999999556 forward I I I I #
DXID-attrib $-1 -1 $-1 $-1 $668 @10 ASM ENTITY @3 136 #
ellipse-curve $-1 -1 $-1 3.007919462263544119 -18.50715862871813755 42.99999999999998579 9.463118273107149142e-34 2.932586174565321186e-33 1 -1.249999999999999112 0 0 1 I I #
edge $-1 -1 $-1 $670 1.74194906242619596 $725 2.507278857650517168 $669 $772 forward @7 unknown #
point $-1 -1 $-1 3.403781098747284961 -19.69282028566772169 43 #
point $-1 -1 $-1 3.007919462263495269 -19.75715862871814466 43 #
coedge $-1 -1 $-1 $750 $743 $676 $736 forward $637 $-1 #
edge $-1 -1 $-1 $739 -2.970439917958488163 $737 -2.205110122734176503 $676 $773 forward @7 unknown #
vertex $-1 -1 $-1 $751 $774 #
straight-curve $-1 -1 $-1 11.84350059431539748 16.09734109237442468 40 0 0 10 I I #
vertex $-1 -1 $-1 $736 $775 #
straight-curve $-1 -1 $-1 19.69282028566770038 3.403781098747397316 40 0 0 10 I I #
DXID-attrib $-1 -1 $-1 $-1 $679 @10 ASM ENTITY @2 22 #
cone-surface $-1 -1 $-1 0 0 40 0 0 1 -19.98481665094266901 0 0 1 I I 0 1 19.98481665094266901 forward I I I I #
coedge $-1 -1 $-1 $735 $681 $683 $745 forward $637 $-1 #
ellipse-curve $-1 -1 $-1 0 0 43 0 0 1 -19.98481665094266901 0 0 1 I I #
edge $776 -1 $-1 $684 -2.82945284766339622 $739 -2.507215744573843441 $683 $777 forward @7 unknown #
point $-1 -1 $-1 19.75715862871813044 3.007919462263590304 43 #
point $-1 -1 $-1 16.33176346128244916 -11.51809006808485236 43 #
DXID-attrib $-1 -1 $-1 $-1 $690 @10 ASM ENTITY @2 23 #
cone-surface $-1 -1 $-1 18.50715862871813755 3.007919462263544119 39.99999999999999289 0 0 1 -1.189598279810794246 0.3838696818859196891 0 1 I I 0 1 1.249999999999999112 forward I I I I #
coedge $-1 -1 $-1 $756 $735 $692 $751 forward $637 $-1 #
edge $778 -1 $-1 $737 -2.829452847663470827 $752 -2.50721574457391938 $692 $779 forward @7 unknown #
vertex $-1 -1 $-1 $760 $780 #
straight-curve $-1 -1 $-1 11.5180900680848346 16.33176346128246337 40 0 0 10 I I #
DXID-attrib $-1 -1 $-1 $-1 $694 @10 ASM ENTITY @2 21 #
cone-surface $-1 -1 $-1 10.95961711783217751 15.21345761589126511 39.99999999999999289 0 0 1 -1.112609865695521671 -0.569736155388608112 0 1 I I 0 1 1.249999999999999556 forward I I I I #
coedge $-1 -1 $-1 $695 $750 $699 $760 forward $637 $-1 #
DXID-attrib $-1 -1 $-1 $-1 $696 @10 ASM ENTITY @3 115 #
ellipse-curve $-1 -1 $-1 -3.007919462263544119 18.50715862871813755 42.99999999999998579 0 0 1 -0.3838696818859196891 -1.189598279810794246 0 1 I I #
point $-1 -1 $-1 -3.403781098747236111 19.6928202856677288 43 #
edge $-1 -1 $-1 $752 -2.185041754561044769 $700 -1.41971195933672667 $699 $781 forward @7 unknown #
point $-1 -1 $-1 -3.007919462263528576 19.75715862871813755 43 #
DXID-attrib $-1 -1 $-1 $-1 $703 @10 ASM ENTITY @2 20 #
cone-surface $-1 -1 $-1 0 0 40 0 0 1 -19.98481665094266901 0 0 1 I I 0 1 19.98481665094266901 forward I I I I #
ellipse-curve $-1 -1 $-1 0 0 43 0 0 1 -19.98481665094266901 0 0 1 I I #
coedge $-1 -1 $-1 $765 $765 $719 $766 forward $713 $-1 #
edge $-1 -1 $-1 $782 -3.141592653589793116 $782 3.141592653589793116 $719 $783 forward @7 unknown #
DXID-attrib $-1 -1 $-1 $-1 $724 @10 ASM ENTITY @3 130 #
ellipse-curve $-1 -1 $-1 15.21345761589126333 -10.95961711783217751 42.99999999999998579 0 0 1 1.112609865695521671 0.569736155388608112 0 0.999999999999999778 I I #
point $-1 -1 $-1 16.09734109237446731 -11.84350059431533708 43 #
DXID-attrib $-1 -1 $-1 $-1 $728 @10 ASM ENTITY @2 26 #
cone-surface $-1 -1 $-1 0 0 40 0 0 1 -19.98481665094266901 0 0 1 I I 0 1 19.98481665094266901 forward I I I I #
ellipse-curve $-1 -1 $-1 0 0 43 0 0 1 -19.98481665094266901 0 0 1 I I #
ellipse-curve $-1 -1 $-1 0 0 43 0 0 1 -19.98481665094266901 0 0 1 I I #
point $-1 -1 $-1 11.84350059431539748 16.09734109237442468 43 #
point $-1 -1 $-1 19.69282028566770038 3.403781098747397316 43 #
DXID-attrib $-1 -1 $-1 $-1 $745 @10 ASM ENTITY @3 125 #
ellipse-curve $-1 -1 $-1 18.50715862871813755 3.007919462263544119 42.99999999999998579 0 0 1 -1.189598279810794246 0.3838696818859196891 0 1 I I #
DXID-attrib $-1 -1 $-1 $-1 $751 @10 ASM ENTITY @3 120 #
ellipse-curve $-1 -1 $-1 10.95961711783217751 15.21345761589126511 42.99999999999998579 0 0 1 -1.112609865695521671 -0.569736155388608112 0 1 I I #
point $-1 -1 $-1 11.5180900680848346 16.33176346128246337 43 #
ellipse-curve $-1 -1 $-1 0 0 43 0 0 1 -19.98481665094266901 0 0 1 I I #
vertex $-1 -1 $-1 $766 $784 #
ellipse-curve $-1 -1 $-1 0 0 43 0 0 -1 -17.50000000000000711 0 0 1 I I #
point $-1 -1 $-1 17.50000000000000711 2.143131898507869037e-15 43 #
End-of-ACIS-data 