                                                                        S      1
,,19Hto modle anicies v3,19Hto modle anicies v3,7Hunknown,7Hunknown,32, G      1
38,7,99,15,,1.,2,2HMM,1,0.08,15H20240504.113559,0.01,10000.,7Hunknown,7HG      2
unknown,11,0,15H19000100.000000;                                        G      3
     186       1                                                00000000D      1
     186            -109       1       0                               0D      2
     514       2                                                00010000D      3
     514                       1       1                               0D      4
     514       3                                                00010000D      5
     514                       1       1                               0D      6
     510       4                                                00010000D      7
     510            -109       1       1                               0D      8
     510       5                                                00010000D      9
     510            -109       1       1                               0D     10
     510       6                                                00010000D     11
     510            -109       1       1                               0D     12
     510       7                                                00010000D     13
     510            -109       1       1                               0D     14
     510       8                                                00010000D     15
     510            -109       1       1                               0D     16
     510       9                                                00010000D     17
     510            -109       1       1                               0D     18
     510      10                                                00010000D     19
     510            -109       1       1                               0D     20
     510      11                                                00010000D     21
     510            -109       1       1                               0D     22
     510      12                                                00010000D     23
     510            -109       1       1                               0D     24
     510      13                                                00010000D     25
     510            -109       1       1                               0D     26
     508      14                                                00010000D     27
     508                       1       1                               0D     28
     508      15                                                00010000D     29
     508                       1       1                               0D     30
     508      16                                                00010000D     31
     508                       2       1                               0D     32
     508      18                                                00010000D     33
     508                       1       1                               0D     34
     508      19                                                00010000D     35
     508                       1       1                               0D     36
     508      20                                                00010000D     37
     508                       2       1                               0D     38
     508      22                                                00010000D     39
     508                       1       1                               0D     40
     508      23                                                00010000D     41
     508                       1       1                               0D     42
     508      24                                                00010000D     43
     508                       1       1                               0D     44
     508      25                                                00010000D     45
     508                       2       1                               0D     46
     508      27                                                00010000D     47
     508                       1       1                               0D     48
     508      28                                                00010000D     49
     508                       1       1                               0D     50
     126      29                                                00010000D     51
     126       0               8       0                               0D     52
     126      37                                                00010000D     53
     126       0               9       0                               0D     54
     126      46                                                00010000D     55
     126       0               8       0                               0D     56
     126      54                                                00010000D     57
     126       0               9       0                               0D     58
     126      63                                                00010000D     59
     126       0               4       0                               0D     60
     126      67                                                00010000D     61
     126       0              15       0                               0D     62
     126      82                                                00010000D     63
     126       0               4       0                               0D     64
     126      86                                                00010000D     65
     126       0              15       0                               0D     66
     126     101                                                00010000D     67
     126       0               8       0                               0D     68
     126     109                                                00010000D     69
     126       0              10       0                               0D     70
     126     119                                                00010000D     71
     126       0               4       0                               0D     72
     126     123                                                00010000D     73
     126       0              15       0                               0D     74
     126     138                                                00010000D     75
     126       0               8       0                               0D     76
     126     146                                                00010000D     77
     126       0              10       0                               0D     78
     126     156                                                00010000D     79
     126       0              15       0                               0D     80
     126     171                                                00010000D     81
     126       0               4       0                               0D     82
     128     175                                                00010000D     83
     128       0    -109       7       0                               0D     84
     128     182                                                00010000D     85
     128       0    -109       8       0                               0D     86
     128     190                                                00010000D     87
     128       0    -109      23       0                               0D     88
     128     213                                                00010000D     89
     128       0    -109      24       0                               0D     90
     128     237                                                00010000D     91
     128       0    -109       9       0                               0D     92
     128     246                                                00010000D     93
     128       0    -109      24       0                               0D     94
     128     270                                                00010000D     95
     128       0    -109       9       0                               0D     96
     128     279                                                00010000D     97
     128       0    -109       8       0                               0D     98
     128     287                                                00010000D     99
     128       0    -109      24       0                               0D    100
     128     311                                                00010000D    101
     128       0    -109       8       0                               0D    102
     502     319                                                00010000D    103
     502                      10       1                               0D    104
     504     329                                                00010001D    105
     504                       5       1                               0D    106
     406     334                                                00000000D    107
     406                       1      15                               0D    108
     314     335                                                00000200D    109
     314                       2       0                               0D    110
186,3,1,1,5,1,0,1,107;                                                 1P      1
514,3,7,1,9,1,11,1;                                                    3P      2
514,7,13,1,15,1,17,1,19,1,21,1,23,1,25,1;                              5P      3
510,83,1,1,27;                                                         7P      4
510,85,1,1,29;                                                         9P      5
510,87,1,1,31;                                                        11P      6
510,89,1,1,33;                                                        13P      7
510,91,1,1,35;                                                        15P      8
510,93,1,1,37;                                                        17P      9
510,95,2,1,39,41;                                                     19P     10
510,97,1,1,43;                                                        21P     11
510,99,1,1,45;                                                        23P     12
510,101,2,1,47,49;                                                    25P     13
508,2,0,105,1,1,0,0,105,2,1,0;                                        27P     14
508,2,0,105,3,0,0,0,105,4,0,0;                                        29P     15
508,6,0,105,3,1,0,0,105,5,1,0,0,105,1,0,0,0,105,2,0,0,0,105,5,0,      31P     16
0,0,105,4,1,0;                                                        31P     17
508,4,0,105,6,0,0,0,105,7,1,0,0,105,8,1,0,0,105,7,0,0;                33P     18
508,2,0,105,9,1,0,0,105,10,1,0;                                       35P     19
508,5,0,105,9,0,0,0,105,10,0,0,0,105,11,1,0,0,105,12,1,0,0,105,       37P     20
11,0,0;                                                               37P     21
508,1,0,105,6,1,0;                                                    39P     22
508,1,0,105,12,0,0;                                                   41P     23
508,2,0,105,13,0,0,0,105,14,0,0;                                      43P     24
508,5,0,105,15,1,0,0,105,16,1,0,0,105,14,1,0,0,105,13,1,0,0,105,      45P     25
16,0,0;                                                               45P     26
508,1,0,105,8,0,0;                                                    47P     27
508,1,0,105,15,0,0;                                                   49P     28
126,4,2,0,0,0,0,0.,0.,0.,1.5707963267949,1.5707963267949,             51P     29
3.14159265358979,3.14159265358979,3.14159265358979,1.,                51P     30
0.707106781186548,1.,0.707106781186547,1.,16.84863260812,0.,          51P     31
22.6959996500237,16.84863260812,16.84863260812,22.6959996500237,      51P     32
1.0316811996772D-15,16.84863260812,22.6959996500237,                  51P     33
-16.84863260812,16.84863260812,22.6959996500237,-16.84863260812,      51P     34
2.06336239935439D-15,22.6959996500237,0.,3.14159265358979,0.,0.,      51P     35
0.;                                                                   51P     36
126,4,2,0,0,0,0,3.14159265358979,3.14159265358979,                    53P     37
3.14159265358979,4.71238898038469,4.71238898038469,                   53P     38
6.28318530717959,6.28318530717959,6.28318530717959,1.,                53P     39
0.707106781186548,1.,0.707106781186548,1.,-16.84863260812,            53P     40
2.06336239935439D-15,22.6959996500237,-16.84863260812,                53P     41
-16.84863260812,22.6959996500237,-3.09504359903159D-15,               53P     42
-16.84863260812,22.6959996500237,16.84863260812,-16.84863260812,      53P     43
22.6959996500237,16.84863260812,-4.12672479870878D-15,                53P     44
22.6959996500237,3.14159265358979,6.28318530717959,0.,0.,0.;          53P     45
126,4,2,0,0,0,0,0.,0.,0.,1.5707963267949,1.5707963267949,             55P     46
3.14159265358979,3.14159265358979,3.14159265358979,1.,                55P     47
0.707106781186548,1.,0.707106781186547,1.,16.84863260812,0.,          55P     48
36.5199267095836,16.84863260812,16.84863260812,36.5199267095836,      55P     49
1.0316811996772D-15,16.84863260812,36.5199267095836,                  55P     50
-16.84863260812,16.84863260812,36.5199267095836,-16.84863260812,      55P     51
2.06336239935439D-15,36.5199267095836,0.,3.14159265358979,0.,0.,      55P     52
0.;                                                                   55P     53
126,4,2,0,0,0,0,3.14159265358979,3.14159265358979,                    57P     54
3.14159265358979,4.71238898038469,4.71238898038469,                   57P     55
6.28318530717959,6.28318530717959,6.28318530717959,1.,                57P     56
0.707106781186548,1.,0.707106781186548,1.,-16.84863260812,            57P     57
2.06336239935439D-15,36.5199267095836,-16.84863260812,                57P     58
-16.84863260812,36.5199267095836,-3.09504359903159D-15,               57P     59
-16.84863260812,36.5199267095836,16.84863260812,-16.84863260812,      57P     60
36.5199267095836,16.84863260812,-4.12672479870878D-15,                57P     61
36.5199267095836,3.14159265358979,6.28318530717959,0.,0.,0.;          57P     62
126,1,1,0,0,1,0,-0.410238841960907,-0.410238841960907,                59P     63
0.410238841960907,0.410238841960907,1.,1.,-16.84863260812,0.,         59P     64
36.5199267095836,-16.84863260812,0.,22.6959996500237,                 59P     65
-0.410238841960907,0.410238841960907,0.,0.,0.;                        59P     66
126,8,2,0,1,0,0,-3.14159265358979,-3.14159265358979,                  61P     67
-3.14159265358979,-1.5707963267949,-1.5707963267949,0.,0.,            61P     68
1.5707963267949,1.5707963267949,3.14159265358979,                     61P     69
3.14159265358979,3.14159265358979,1.,0.707106781186548,1.,            61P     70
0.707106781186548,1.,0.707106781186548,1.,0.707106781186548,1.,       61P     71
-21.9440653980981,-2.6873729450061D-15,36.5299267095836,              61P     72
-21.9440653980981,-21.9440653980981,36.5299267095836,                 61P     73
1.34368647250305D-15,-21.9440653980981,36.5299267095836,              61P     74
21.9440653980981,-21.9440653980981,36.5299267095836,                  61P     75
21.9440653980981,0.,36.5299267095836,21.9440653980981,                61P     76
21.9440653980981,36.5299267095836,1.34368647250305D-15,               61P     77
21.9440653980981,36.5299267095836,-21.9440653980981,                  61P     78
21.9440653980981,36.5299267095836,-21.9440653980981,                  61P     79
2.6873729450061D-15,36.5299267095836,-3.14159265358979,               61P     80
3.14159265358979,0.,0.,0.;                                            61P     81
126,1,1,0,0,1,0,-0.315436697995799,-0.315436697995799,                63P     82
0.315436697995799,0.315436697995799,1.,1.,-21.9440653980981,0.,       63P     83
36.5299267095836,-21.9440653980981,0.,22.6859996500237,               63P     84
-0.315436697995799,0.315436697995799,0.,0.,0.;                        63P     85
126,8,2,0,1,0,0,-3.14159265358979,-3.14159265358979,                  65P     86
-3.14159265358979,-1.5707963267949,-1.5707963267949,0.,0.,            65P     87
1.5707963267949,1.5707963267949,3.14159265358979,                     65P     88
3.14159265358979,3.14159265358979,1.,0.707106781186548,1.,            65P     89
0.707106781186548,1.,0.707106781186548,1.,0.707106781186548,1.,       65P     90
-21.9440653980981,-2.6873729450061D-15,22.6859996500237,              65P     91
-21.9440653980981,-21.9440653980981,22.6859996500237,                 65P     92
1.34368647250305D-15,-21.9440653980981,22.6859996500237,              65P     93
21.9440653980981,-21.9440653980981,22.6859996500237,                  65P     94
21.9440653980981,0.,22.6859996500237,21.9440653980981,                65P     95
21.9440653980981,22.6859996500237,1.34368647250305D-15,               65P     96
21.9440653980981,22.6859996500237,-21.9440653980981,                  65P     97
21.9440653980981,22.6859996500237,-21.9440653980981,                  65P     98
2.6873729450061D-15,22.6859996500237,-3.14159265358979,               65P     99
3.14159265358979,0.,0.,0.;                                            65P    100
126,4,2,0,0,0,0,0.,0.,0.,1.5707963267949,1.5707963267949,             67P    101
3.14159265358979,3.14159265358979,3.14159265358979,1.,                67P    102
0.707106781186548,1.,0.707106781186548,1.,11.5157678291157,0.,        67P    103
60.2475627073356,11.5157678291157,11.5157678291157,                   67P    104
60.2475627073356,7.05137410582532D-16,11.5157678291157,               67P    105
60.2475627073356,-11.5157678291157,11.5157678291157,                  67P    106
60.2475627073356,-11.5157678291157,1.41027482116506D-15,              67P    107
60.2475627073356,0.,3.14159265358979,0.,0.,0.;                        67P    108
126,4,2,0,0,0,0,3.14159265358979,3.14159265358979,                    69P    109
3.14159265358979,4.71238898038469,4.71238898038469,                   69P    110
6.28318530717959,6.28318530717959,6.28318530717959,1.,                69P    111
0.707106781186548,1.,0.707106781186547,1.,-11.5157678291157,          69P    112
1.41027482116506D-15,60.2475627073356,-11.5157678291157,              69P    113
-11.5157678291157,60.2475627073356,-2.11541223174759D-15,             69P    114
-11.5157678291157,60.2475627073356,11.5157678291157,                  69P    115
-11.5157678291157,60.2475627073356,11.5157678291157,                  69P    116
-2.82054964233013D-15,60.2475627073356,3.14159265358979,              69P    117
6.28318530717959,0.,0.,0.;                                            69P    118
126,1,1,0,0,1,0,-1.03022379184133,-1.03022379184133,                  71P    119
1.02935541726585,1.02935541726585,1.,1.,-11.5157678291157,0.,         71P    120
60.2475627073356,-11.5157678291157,0.,36.5299267095836,               71P    121
-1.03022379184133,1.02935541726585,0.,0.,0.;                          71P    122
126,8,2,0,1,0,0,-3.14159265358979,-3.14159265358979,                  73P    123
-3.14159265358979,-1.5707963267949,-1.5707963267949,0.,0.,            73P    124
1.5707963267949,1.5707963267949,3.14159265358979,                     73P    125
3.14159265358979,3.14159265358979,1.,0.707106781186548,1.,            73P    126
0.707106781186548,1.,0.707106781186548,1.,0.707106781186548,1.,       73P    127
-11.5157678291157,-1.41027482116506D-15,36.5299267095836,             73P    128
-11.5157678291157,-11.5157678291157,36.5299267095836,                 73P    129
7.05137410582532D-16,-11.5157678291157,36.5299267095836,              73P    130
11.5157678291157,-11.5157678291157,36.5299267095836,                  73P    131
11.5157678291157,0.,36.5299267095836,11.5157678291157,                73P    132
11.5157678291157,36.5299267095836,7.05137410582532D-16,               73P    133
11.5157678291157,36.5299267095836,-11.5157678291157,                  73P    134
11.5157678291157,36.5299267095836,-11.5157678291157,                  73P    135
1.41027482116506D-15,36.5299267095836,-3.14159265358979,              73P    136
3.14159265358979,0.,0.,0.;                                            73P    137
126,4,2,0,0,0,0,0.,0.,0.,1.5707963267949,1.5707963267949,             75P    138
3.14159265358979,3.14159265358979,3.14159265358979,1.,                75P    139
0.707106781186548,1.,0.707106781186548,1.,11.5157678291157,0.,        75P    140
14.8555634072882,11.5157678291157,11.5157678291157,                   75P    141
14.8555634072882,7.05137410582532D-16,11.5157678291157,               75P    142
14.8555634072882,-11.5157678291157,11.5157678291157,                  75P    143
14.8555634072882,-11.5157678291157,1.41027482116506D-15,              75P    144
14.8555634072882,0.,3.14159265358979,0.,0.,0.;                        75P    145
126,4,2,0,0,0,0,3.14159265358979,3.14159265358979,                    77P    146
3.14159265358979,4.71238898038469,4.71238898038469,                   77P    147
6.28318530717959,6.28318530717959,6.28318530717959,1.,                77P    148
0.707106781186548,1.,0.707106781186548,1.,-11.5157678291157,          77P    149
1.41027482116506D-15,14.8555634072882,-11.5157678291157,              77P    150
-11.5157678291157,14.8555634072882,-2.1154122317476D-15,              77P    151
-11.5157678291157,14.8555634072882,11.5157678291157,                  77P    152
-11.5157678291157,14.8555634072882,11.5157678291157,                  77P    153
-2.82054964233013D-15,14.8555634072882,3.14159265358979,              77P    154
6.28318530717959,0.,0.,0.;                                            77P    155
126,8,2,0,1,0,0,-3.14159265358979,-3.14159265358979,                  79P    156
-3.14159265358979,-1.5707963267949,-1.5707963267949,0.,0.,            79P    157
1.5707963267949,1.5707963267949,3.14159265358979,                     79P    158
3.14159265358979,3.14159265358979,1.,0.707106781186548,1.,            79P    159
0.707106781186548,1.,0.707106781186548,1.,0.707106781186548,1.,       79P    160
-11.5157678291157,1.41027482116506D-15,22.6859996500237,              79P    161
-11.5157678291157,11.5157678291157,22.6859996500237,                  79P    162
7.05137410582532D-16,11.5157678291157,22.6859996500237,               79P    163
11.5157678291157,11.5157678291157,22.6859996500237,                   79P    164
11.5157678291157,0.,22.6859996500237,11.5157678291157,                79P    165
-11.5157678291157,22.6859996500237,7.05137410582532D-16,              79P    166
-11.5157678291157,22.6859996500237,-11.5157678291157,                 79P    167
-11.5157678291157,22.6859996500237,-11.5157678291157,                 79P    168
-1.41027482116506D-15,22.6859996500237,-3.14159265358979,             79P    169
3.14159265358979,0.,0.,0.;                                            79P    170
126,1,1,0,0,1,0,-0.339553400119911,-0.339553400119911,                81P    171
0.340421774695396,0.340421774695396,1.,1.,-11.5157678291157,0.,       81P    172
22.6859996500237,-11.5157678291157,0.,14.8555634072882,               81P    173
-0.339553400119911,0.340421774695396,0.,0.,0.;                        81P    174
128,1,1,1,1,0,0,1,0,0,-1.685863260812,-1.685863260812,                83P    175
1.685863260812,1.685863260812,-1.685863260812,-1.685863260812,        83P    176
1.685863260812,1.685863260812,1.,1.,1.,1.,-16.85863260812,            83P    177
-16.85863260812,22.6959996500237,16.85863260812,-16.85863260812,      83P    178
22.6959996500237,-16.85863260812,16.85863260812,                      83P    179
22.6959996500237,16.85863260812,16.85863260812,22.6959996500237,      83P    180
-1.685863260812,1.685863260812,-1.685863260812,1.685863260812;        83P    181
128,1,1,1,1,0,0,1,0,0,-0.53428647790043,-0.53428647790043,            85P    182
2.83744004372357,2.83744004372357,-1.685863260812,                    85P    183
-1.685863260812,1.685863260812,1.685863260812,1.,1.,1.,1.,            85P    184
16.85863260812,-16.85863260812,36.5199267095836,-16.85863260812,      85P    185
-16.85863260812,36.5199267095836,16.85863260812,16.85863260812,       85P    186
36.5199267095836,-16.85863260812,16.85863260812,                      85P    187
36.5199267095836,-0.53428647790043,2.83744004372357,                  85P    188
-1.685863260812,1.685863260812;                                       85P    189
128,1,8,1,2,0,1,0,0,1,-0.410238841960907,-0.410238841960907,          87P    190
0.410238841960907,0.410238841960907,-3.14159265358979,                87P    191
-3.14159265358979,-3.14159265358979,-1.5707963267949,                 87P    192
-1.5707963267949,0.,0.,1.5707963267949,1.5707963267949,               87P    193
3.14159265358979,3.14159265358979,3.14159265358979,1.,1.,             87P    194
0.707106781186548,0.707106781186548,1.,1.,0.707106781186548,          87P    195
0.707106781186548,1.,1.,0.707106781186548,0.707106781186548,1.,       87P    196
1.,0.707106781186548,0.707106781186548,1.,1.,-16.84863260812,0.,      87P    197
22.6959996500237,-16.84863260812,0.,36.5199267095836,                 87P    198
-16.84863260812,-16.84863260812,22.6959996500237,                     87P    199
-16.84863260812,-16.84863260812,36.5199267095836,0.,                  87P    200
-16.84863260812,22.6959996500237,0.,-16.84863260812,                  87P    201
36.5199267095836,16.84863260812,-16.84863260812,                      87P    202
22.6959996500237,16.84863260812,-16.84863260812,                      87P    203
36.5199267095836,16.84863260812,0.,22.6959996500237,                  87P    204
16.84863260812,0.,36.5199267095836,16.84863260812,                    87P    205
16.84863260812,22.6959996500237,16.84863260812,16.84863260812,        87P    206
36.5199267095836,0.,16.84863260812,22.6959996500237,0.,               87P    207
16.84863260812,36.5199267095836,-16.84863260812,16.84863260812,       87P    208
22.6959996500237,-16.84863260812,16.84863260812,                      87P    209
36.5199267095836,-16.84863260812,0.,22.6959996500237,                 87P    210
-16.84863260812,0.,36.5199267095836,-0.410238841960907,               87P    211
0.410238841960907,-3.14159265358979,3.14159265358979;                 87P    212
128,1,8,1,2,0,1,0,0,1,-0.315436697995799,-0.315436697995799,          89P    213
0.315436697995799,0.315436697995799,-3.14159265358979,                89P    214
-3.14159265358979,-3.14159265358979,-1.5707963267949,                 89P    215
-1.5707963267949,0.,0.,1.5707963267949,1.5707963267949,               89P    216
3.14159265358979,3.14159265358979,3.14159265358979,1.,1.,             89P    217
0.707106781186548,0.707106781186548,1.,1.,0.707106781186548,          89P    218
0.707106781186548,1.,1.,0.707106781186548,0.707106781186548,1.,       89P    219
1.,0.707106781186548,0.707106781186548,1.,1.,-21.9440653980981,       89P    220
0.,36.5299267095836,-21.9440653980981,0.,22.6859996500237,            89P    221
-21.9440653980981,-21.9440653980981,36.5299267095836,                 89P    222
-21.9440653980981,-21.9440653980981,22.6859996500237,0.,              89P    223
-21.9440653980981,36.5299267095836,0.,-21.9440653980981,              89P    224
22.6859996500237,21.9440653980981,-21.9440653980981,                  89P    225
36.5299267095836,21.9440653980981,-21.9440653980981,                  89P    226
22.6859996500237,21.9440653980981,0.,36.5299267095836,                89P    227
21.9440653980981,0.,22.6859996500237,21.9440653980981,                89P    228
21.9440653980981,36.5299267095836,21.9440653980981,                   89P    229
21.9440653980981,22.6859996500237,0.,21.9440653980981,                89P    230
36.5299267095836,0.,21.9440653980981,22.6859996500237,                89P    231
-21.9440653980981,21.9440653980981,36.5299267095836,                  89P    232
-21.9440653980981,21.9440653980981,22.6859996500237,                  89P    233
-21.9440653980981,0.,36.5299267095836,-21.9440653980981,0.,           89P    234
22.6859996500237,-0.315436697995799,0.315436697995799,                89P    235
-3.14159265358979,3.14159265358979;                                   89P    236
128,1,1,1,1,0,0,1,0,0,-1.15257678291157,-1.15257678291157,            91P    237
1.15257678291157,1.15257678291157,-1.15257678291157,                  91P    238
-1.15257678291157,1.15257678291157,1.15257678291157,1.,1.,1.,1.,      91P    239
-11.5257678291157,-11.5257678291157,60.2475627073356,                 91P    240
11.5257678291157,-11.5257678291157,60.2475627073356,                  91P    241
-11.5257678291157,11.5257678291157,60.2475627073356,                  91P    242
11.5257678291157,11.5257678291157,60.2475627073356,                   91P    243
-1.15257678291157,1.15257678291157,-1.15257678291157,                 91P    244
1.15257678291157;                                                     91P    245
128,1,8,1,2,0,1,0,0,1,-1.02935541726585,-1.02935541726585,            93P    246
1.03022379184133,1.03022379184133,-3.14159265358979,                  93P    247
-3.14159265358979,-3.14159265358979,-1.5707963267949,                 93P    248
-1.5707963267949,0.,0.,1.5707963267949,1.5707963267949,               93P    249
3.14159265358979,3.14159265358979,3.14159265358979,1.,1.,             93P    250
0.707106781186548,0.707106781186548,1.,1.,0.707106781186548,          93P    251
0.707106781186548,1.,1.,0.707106781186548,0.707106781186548,1.,       93P    252
1.,0.707106781186548,0.707106781186548,1.,1.,-11.5157678291157,       93P    253
0.,60.2475627073356,-11.5157678291157,0.,36.5299267095836,            93P    254
-11.5157678291157,-11.5157678291157,60.2475627073356,                 93P    255
-11.5157678291157,-11.5157678291157,36.5299267095836,0.,              93P    256
-11.5157678291157,60.2475627073356,0.,-11.5157678291157,              93P    257
36.5299267095836,11.5157678291157,-11.5157678291157,                  93P    258
60.2475627073356,11.5157678291157,-11.5157678291157,                  93P    259
36.5299267095836,11.5157678291157,0.,60.2475627073356,                93P    260
11.5157678291157,0.,36.5299267095836,11.5157678291157,                93P    261
11.5157678291157,60.2475627073356,11.5157678291157,                   93P    262
11.5157678291157,36.5299267095836,0.,11.5157678291157,                93P    263
60.2475627073356,0.,11.5157678291157,36.5299267095836,                93P    264
-11.5157678291157,11.5157678291157,60.2475627073356,                  93P    265
-11.5157678291157,11.5157678291157,36.5299267095836,                  93P    266
-11.5157678291157,0.,60.2475627073356,-11.5157678291157,0.,           93P    267
36.5299267095836,-1.02935541726585,1.03022379184133,                  93P    268
-3.14159265358979,3.14159265358979;                                   93P    269
128,1,1,1,1,0,0,1,0,0,-3.34698332272138,-3.34698332272138,            95P    270
1.04382975689824,1.04382975689824,-2.19540653980981,                  95P    271
-2.19540653980981,2.19540653980981,2.19540653980981,1.,1.,1.,1.,      95P    272
-21.9540653980981,-21.9540653980981,36.5299267095836,                 95P    273
21.9540653980981,-21.9540653980981,36.5299267095836,                  95P    274
-21.9540653980981,21.9540653980981,36.5299267095836,                  95P    275
21.9540653980981,21.9540653980981,36.5299267095836,                   95P    276
-3.34698332272138,1.04382975689824,-2.19540653980981,                 95P    277
2.19540653980981;                                                     95P    278
128,1,1,1,1,0,0,1,0,0,-0.001,-0.001,2.30415356582315,                 97P    279
2.30415356582315,-1.15257678291157,-1.15257678291157,                 97P    280
1.15257678291157,1.15257678291157,1.,1.,1.,1.,11.5257678291157,       97P    281
-11.5257678291157,14.8555634072882,-11.5257678291157,                 97P    282
-11.5257678291157,14.8555634072882,11.5257678291157,                  97P    283
11.5257678291157,14.8555634072882,-11.5257678291157,                  97P    284
11.5257678291157,14.8555634072882,-0.001,2.30415356582315,            97P    285
-1.15257678291157,1.15257678291157;                                   97P    286
128,1,8,1,2,0,1,0,0,1,-0.340421774695396,-0.340421774695396,          99P    287
0.339553400119911,0.339553400119911,-3.14159265358979,                99P    288
-3.14159265358979,-3.14159265358979,-1.5707963267949,                 99P    289
-1.5707963267949,0.,0.,1.5707963267949,1.5707963267949,               99P    290
3.14159265358979,3.14159265358979,3.14159265358979,1.,1.,             99P    291
0.707106781186548,0.707106781186548,1.,1.,0.707106781186548,          99P    292
0.707106781186548,1.,1.,0.707106781186548,0.707106781186548,1.,       99P    293
1.,0.707106781186548,0.707106781186548,1.,1.,-11.5157678291157,       99P    294
0.,22.6859996500237,-11.5157678291157,0.,14.8555634072882,            99P    295
-11.5157678291157,-11.5157678291157,22.6859996500237,                 99P    296
-11.5157678291157,-11.5157678291157,14.8555634072882,0.,              99P    297
-11.5157678291157,22.6859996500237,0.,-11.5157678291157,              99P    298
14.8555634072882,11.5157678291157,-11.5157678291157,                  99P    299
22.6859996500237,11.5157678291157,-11.5157678291157,                  99P    300
14.8555634072882,11.5157678291157,0.,22.6859996500237,                99P    301
11.5157678291157,0.,14.8555634072882,11.5157678291157,                99P    302
11.5157678291157,22.6859996500237,11.5157678291157,                   99P    303
11.5157678291157,14.8555634072882,0.,11.5157678291157,                99P    304
22.6859996500237,0.,11.5157678291157,14.8555634072882,                99P    305
-11.5157678291157,11.5157678291157,22.6859996500237,                  99P    306
-11.5157678291157,11.5157678291157,14.8555634072882,                  99P    307
-11.5157678291157,0.,22.6859996500237,-11.5157678291157,0.,           99P    308
14.8555634072882,-0.340421774695396,0.339553400119911,                99P    309
-3.14159265358979,3.14159265358979;                                   99P    310
128,1,1,1,1,0,0,1,0,0,-0.001,-0.001,4.38981307961962,                101P    311
4.38981307961962,-2.19540653980981,-2.19540653980981,                101P    312
2.19540653980981,2.19540653980981,1.,1.,1.,1.,21.9540653980981,      101P    313
-21.9540653980981,22.6859996500237,-21.9540653980981,                101P    314
-21.9540653980981,22.6859996500237,21.9540653980981,                 101P    315
21.9540653980981,22.6859996500237,-21.9540653980981,                 101P    316
21.9540653980981,22.6859996500237,-0.001,4.38981307961962,           101P    317
-2.19540653980981,2.19540653980981;                                  101P    318
502,12,16.84863260812,0.,22.6959996500237,-16.84863260812,0.,        103P    319
22.6959996500237,16.84863260812,0.,36.5199267095836,                 103P    320
-16.84863260812,0.,36.5199267095836,-21.9440653980981,               103P    321
-2.6873729450061D-15,36.5299267095836,-21.9440653980981,             103P    322
-2.6873729450061D-15,22.6859996500237,11.5157678291157,0.,           103P    323
60.2475627073356,-11.5157678291157,0.,60.2475627073356,              103P    324
-11.5157678291157,-1.41027482116506D-15,36.5299267095836,            103P    325
11.5157678291157,0.,14.8555634072882,-11.5157678291157,0.,           103P    326
14.8555634072882,-11.5157678291157,-1.41027482116506D-15,            103P    327
22.6859996500237;                                                    103P    328
504,16,51,103,1,103,2,53,103,2,103,1,55,103,3,103,4,57,103,4,        105P    329
103,3,59,103,4,103,2,61,103,5,103,5,63,103,5,103,6,65,103,6,103,     105P    330
6,67,103,7,103,8,69,103,8,103,7,71,103,8,103,9,73,103,9,103,9,       105P    331
75,103,10,103,11,77,103,11,103,10,79,103,12,103,12,81,103,12,        105P    332
103,11;                                                              105P    333
406,1,5HBody1;                                                       107P    334
314,62.7450980392157,62.7450980392157,62.7450980392157,13HSteel      109P    335
- Satin;                                                             109P    336
S      1G      3D    110P    336                                        T      1
