                                                                        S      1
,,20Hto modle anicies-dup,20Hto modle anicies-dup,7Hunknown,7Hunknown,  G      1
32,38,7,99,15,,1.,2,2HMM,1,0.08,15H20240504.120523,0.01,10000.,7HunknownG      2
,7Hunknown,11,0,15H19000100.000000;                                     G      3
     186       1                                                00000000D      1
     186            -167       1       0                               0D      2
     514       2                                                00010000D      3
     514                       2       1                               0D      4
     510       4                                                00010000D      5
     510            -167       1       1                               0D      6
     510       5                                                00010000D      7
     510            -167       1       1                               0D      8
     510       6                                                00010000D      9
     510            -167       1       1                               0D     10
     510       7                                                00010000D     11
     510            -167       1       1                               0D     12
     510       8                                                00010000D     13
     510            -167       1       1                               0D     14
     510       9                                                00010000D     15
     510            -167       1       1                               0D     16
     510      10                                                00010000D     17
     510            -167       1       1                               0D     18
     510      11                                                00010000D     19
     510            -167       1       1                               0D     20
     510      12                                                00010000D     21
     510            -167       1       1                               0D     22
     510      13                                                00010000D     23
     510            -167       1       1                               0D     24
     510      14                                                00010000D     25
     510            -167       1       1                               0D     26
     510      15                                                00010000D     27
     510            -167       1       1                               0D     28
     510      16                                                00010000D     29
     510            -167       1       1                               0D     30
     510      17                                                00010000D     31
     510            -167       1       1                               0D     32
     508      18                                                00010000D     33
     508                       1       1                               0D     34
     508      19                                                00010000D     35
     508                       1       1                               0D     36
     508      20                                                00010000D     37
     508                       1       1                               0D     38
     508      21                                                00010000D     39
     508                       1       1                               0D     40
     508      22                                                00010000D     41
     508                       1       1                               0D     42
     508      23                                                00010000D     43
     508                       1       1                               0D     44
     508      24                                                00010000D     45
     508                       1       1                               0D     46
     508      25                                                00010000D     47
     508                       1       1                               0D     48
     508      26                                                00010000D     49
     508                       1       1                               0D     50
     508      27                                                00010000D     51
     508                       1       1                               0D     52
     508      28                                                00010000D     53
     508                       3       1                               0D     54
     508      31                                                00010000D     55
     508                       3       1                               0D     56
     508      34                                                00010000D     57
     508                       1       1                               0D     58
     508      35                                                00010000D     59
     508                       1       1                               0D     60
     126      36                                                00010000D     61
     126       0               3       0                               0D     62
     126      39                                                00010000D     63
     126       0               3       0                               0D     64
     126      42                                                00010000D     65
     126       0               3       0                               0D     66
     126      45                                                00010000D     67
     126       0               3       0                               0D     68
     126      48                                                00010000D     69
     126       0               7       0                               0D     70
     126      55                                                00010000D     71
     126       0               3       0                               0D     72
     126      58                                                00010000D     73
     126       0               7       0                               0D     74
     126      65                                                00010000D     75
     126       0               3       0                               0D     76
     126      68                                                00010000D     77
     126       0               3       0                               0D     78
     126      71                                                00010000D     79
     126       0               3       0                               0D     80
     126      74                                                00010000D     81
     126       0               8       0                               0D     82
     126      82                                                00010000D     83
     126       0               3       0                               0D     84
     126      85                                                00010000D     85
     126       0               9       0                               0D     86
     126      94                                                00010000D     87
     126       0               3       0                               0D     88
     126      97                                                00010000D     89
     126       0               3       0                               0D     90
     126     100                                                00010000D     91
     126       0               3       0                               0D     92
     126     103                                                00010000D     93
     126       0               3       0                               0D     94
     126     106                                                00010000D     95
     126       0               3       0                               0D     96
     126     109                                                00010000D     97
     126       0               3       0                               0D     98
     126     112                                                00010000D     99
     126       0               3       0                               0D    100
     126     115                                                00010000D    101
     126       0               7       0                               0D    102
     126     122                                                00010000D    103
     126       0               7       0                               0D    104
     126     129                                                00010000D    105
     126       0               3       0                               0D    106
     126     132                                                00010000D    107
     126       0               3       0                               0D    108
     126     135                                                00010000D    109
     126       0               3       0                               0D    110
     126     138                                                00010000D    111
     126       0               3       0                               0D    112
     126     141                                                00010000D    113
     126       0               7       0                               0D    114
     126     148                                                00010000D    115
     126       0               7       0                               0D    116
     126     155                                                00010000D    117
     126       0               3       0                               0D    118
     126     158                                                00010000D    119
     126       0               3       0                               0D    120
     126     161                                                00010000D    121
     126       0               3       0                               0D    122
     126     164                                                00010000D    123
     126       0               3       0                               0D    124
     126     167                                                00010000D    125
     126       0               3       0                               0D    126
     126     170                                                00010000D    127
     126       0               3       0                               0D    128
     126     173                                                00010000D    129
     126       0               3       0                               0D    130
     126     176                                                00010000D    131
     126       0               3       0                               0D    132
     128     179                                                00010000D    133
     128       0    -167       6       0                               0D    134
     128     185                                                00010000D    135
     128       0    -167      12       0                               0D    136
     128     197                                                00010000D    137
     128       0    -167       6       0                               0D    138
     128     203                                                00010000D    139
     128       0    -167      13       0                               0D    140
     128     216                                                00010000D    141
     128       0    -167       6       0                               0D    142
     128     222                                                00010000D    143
     128       0    -167       6       0                               0D    144
     128     228                                                00010000D    145
     128       0    -167      12       0                               0D    146
     128     240                                                00010000D    147
     128       0    -167       6       0                               0D    148
     128     246                                                00010000D    149
     128       0    -167      12       0                               0D    150
     128     258                                                00010000D    151
     128       0    -167       6       0                               0D    152
     128     264                                                00010000D    153
     128       0    -167       7       0                               0D    154
     128     271                                                00010000D    155
     128       0    -167       7       0                               0D    156
     128     278                                                00010000D    157
     128       0    -167       6       0                               0D    158
     128     284                                                00010000D    159
     128       0    -167       7       0                               0D    160
     502     291                                                00010000D    161
     502                      16       1                               0D    162
     504     307                                                00010001D    163
     504                      10       1                               0D    164
     406     317                                                00000000D    165
     406                       1      15                               0D    166
     314     318                                                00000200D    167
     314                       2       0                               0D    168
186,3,1,0,0,1,165;                                                     1P      1
514,14,5,1,7,1,9,1,11,1,13,1,15,1,17,1,19,1,21,1,23,1,25,1,27,1,       3P      2
29,1,31,1;                                                             3P      3
510,133,1,1,33;                                                        5P      4
510,135,1,1,35;                                                        7P      5
510,137,1,1,37;                                                        9P      6
510,139,1,1,39;                                                       11P      7
510,141,1,1,41;                                                       13P      8
510,143,1,1,43;                                                       15P      9
510,145,1,1,45;                                                       17P     10
510,147,1,1,47;                                                       19P     11
510,149,1,1,49;                                                       21P     12
510,151,1,1,51;                                                       23P     13
510,153,1,1,53;                                                       25P     14
510,155,1,1,55;                                                       27P     15
510,157,1,1,57;                                                       29P     16
510,159,1,1,59;                                                       31P     17
508,4,0,163,1,0,0,0,163,2,1,0,0,163,3,0,0,0,163,4,0,0;                33P     18
508,4,0,163,5,1,0,0,163,6,1,0,0,163,7,0,0,0,163,2,0,0;                35P     19
508,4,0,163,8,0,0,0,163,9,1,0,0,163,10,0,0,0,163,6,0,0;               37P     20
508,4,0,163,11,0,0,0,163,12,1,0,0,163,13,0,0,0,163,9,0,0;             39P     21
508,4,0,163,14,0,0,0,163,15,1,0,0,163,16,0,0,0,163,12,0,0;            41P     22
508,4,0,163,17,1,0,0,163,18,1,0,0,163,19,1,0,0,163,20,0,0;            43P     23
508,4,0,163,21,0,0,0,163,20,1,0,0,163,22,1,0,0,163,23,0,0;            45P     24
508,4,0,163,24,1,0,0,163,23,1,0,0,163,25,1,0,0,163,26,0,0;            47P     25
508,4,0,163,27,1,0,0,163,26,1,0,0,163,28,1,0,0,163,29,0,0;            49P     26
508,4,0,163,30,1,0,0,163,29,1,0,0,163,31,1,0,0,163,32,0,0;            51P     27
508,12,0,163,17,0,0,0,163,21,1,0,0,163,24,0,0,0,163,27,0,0,0,         53P     28
163,30,0,0,0,163,33,1,0,0,163,14,1,0,0,163,11,1,0,0,163,8,1,0,0,      53P     29
163,5,0,0,0,163,1,1,0,0,163,34,0,0;                                   53P     30
508,12,0,163,19,0,0,0,163,35,1,0,0,163,3,1,0,0,163,7,1,0,0,163,       55P     31
10,1,0,0,163,13,1,0,0,163,16,1,0,0,163,36,0,0,0,163,31,0,0,0,         55P     32
163,28,0,0,0,163,25,0,0,0,163,22,0,0;                                 55P     33
508,4,0,163,18,0,0,0,163,34,1,0,0,163,4,1,0,0,163,35,0,0;             57P     34
508,4,0,163,32,1,0,0,163,36,1,0,0,163,15,0,0,0,163,33,0,0;            59P     35
126,1,1,0,0,1,0,0.,0.,5.28897725752871,5.28897725752871,1.,1.,        61P     36
-22.9576294874872,2.27463948243256,0.,29.9321430877999,               61P     37
2.27463948243255,0.,0.,5.28897725752871,0.,0.,0.;                     61P     38
126,1,1,0,0,1,0,0.,0.,1.,1.,1.,1.,-22.9576294874872,                  63P     39
2.27463948243256,0.,-22.9576294874872,2.27463948243256,10.,0.,        63P     40
1.,0.,0.,0.;                                                          63P     41
126,1,1,0,0,1,0,-5.28897725752871,-5.28897725752871,0.,0.,1.,1.,      65P     42
29.9321430877999,2.27463948243255,10.,-22.9576294874872,              65P     43
2.27463948243256,10.,-5.28897725752871,0.,0.,0.,0.;                   65P     44
126,1,1,0,0,1,0,0.,0.,1.,1.,1.,1.,29.9321430877999,                   67P     45
2.27463948243255,0.,29.9321430877999,2.27463948243255,10.,0.,1.,      67P     46
0.,0.,0.;                                                             67P     47
126,4,2,0,0,0,0,0.,0.,0.,1.5707963267949,1.5707963267949,             69P     48
3.14159265358979,3.14159265358979,3.14159265358979,1.,                69P     49
0.707106781186549,1.,0.707106781186549,1.,-22.9576294874872,          69P     50
2.27463948243256,0.,-29.1733070348014,2.27463948243255,0.,            69P     51
-29.1733070348014,-3.94103806488164,0.,-29.1733070348014,             69P     52
-10.1567156121958,0.,-22.9576294874872,-10.1567156121958,0.,0.,       69P     53
3.14159265358979,0.,0.,0.;                                            69P     54
126,1,1,0,0,1,0,0.,0.,1.,1.,1.,1.,-22.9576294874872,                  71P     55
-10.1567156121958,0.,-22.9576294874872,-10.1567156121958,10.,0.,      71P     56
1.,0.,0.,0.;                                                          71P     57
126,4,2,0,0,0,0,0.,0.,0.,1.5707963267949,1.5707963267949,             73P     58
3.14159265358979,3.14159265358979,3.14159265358979,1.,                73P     59
0.707106781186548,1.,0.707106781186548,1.,-22.9576294874872,          73P     60
2.27463948243256,10.,-29.1733070348014,2.27463948243255,10.,          73P     61
-29.1733070348014,-3.94103806488164,10.,-29.1733070348014,            73P     62
-10.1567156121958,10.,-22.9576294874872,-10.1567156121958,10.,        73P     63
0.,3.14159265358979,0.,0.,0.;                                         73P     64
126,1,1,0,0,1,0,0.,0.,5.28897725752871,5.28897725752871,1.,1.,        75P     65
29.9321430877999,-10.1567156121958,0.,-22.9576294874872,              75P     66
-10.1567156121958,0.,0.,5.28897725752871,0.,0.,0.;                    75P     67
126,1,1,0,0,1,0,0.,0.,1.,1.,1.,1.,29.9321430877999,                   77P     68
-10.1567156121958,0.,29.9321430877999,-10.1567156121958,10.,0.,       77P     69
1.,0.,0.,0.;                                                          77P     70
126,1,1,0,0,1,0,-5.28897725752871,-5.28897725752871,0.,0.,1.,1.,      79P     71
-22.9576294874872,-10.1567156121958,10.,29.9321430877999,             79P     72
-10.1567156121958,10.,-5.28897725752871,0.,0.,0.,0.;                  79P     73
126,4,2,0,0,0,0,7.26148830467839D-16,7.26148830467839D-16,            81P     74
7.26148830467839D-16,1.5707963267949,1.5707963267949,                 81P     75
3.14159265358979,3.14159265358979,3.14159265358979,1.,                81P     76
0.707106781186544,1.,0.707106781186547,1.,29.9321430877999,           81P     77
-22.1880707068242,0.,35.9478206351141,-22.1880707068242,0.,           81P     78
35.9478206351141,-16.17239315951,0.,35.9478206351141,                 81P     79
-10.1567156121958,0.,29.9321430877999,-10.1567156121958,0.,           81P     80
7.26148830467839D-16,3.14159265358979,0.,0.,0.;                       81P     81
126,1,1,0,0,1,0,0.,0.,1.,1.,1.,1.,29.9321430877999,                   83P     82
-22.1880707068242,0.,29.9321430877999,-22.1880707068242,10.,0.,       83P     83
1.,0.,0.,0.;                                                          83P     84
126,4,2,0,0,0,0,-3.14159265358979,-3.14159265358979,                  85P     85
-3.14159265358979,-1.5707963267949,-1.5707963267949,                  85P     86
-7.26148830467839D-16,-7.26148830467839D-16,                          85P     87
-7.26148830467839D-16,1.,0.707106781186546,1.,0.707106781186544,      85P     88
1.,29.9321430877999,-10.1567156121958,10.,35.9478206351141,           85P     89
-10.1567156121958,10.,35.9478206351141,-16.17239315951,10.,           85P     90
35.9478206351141,-22.1880707068242,10.,29.9321430877999,              85P     91
-22.1880707068242,10.,-3.14159265358979,-7.26148830467839D-16,        85P     92
0.,0.,0.;                                                             85P     93
126,1,1,0,0,1,0,0.,0.,5.28897725752871,5.28897725752871,1.,1.,        87P     94
-22.9576294874872,-22.1880707068242,0.,29.9321430877999,              87P     95
-22.1880707068242,0.,0.,5.28897725752871,0.,0.,0.;                    87P     96
126,1,1,0,0,1,0,0.,0.,1.,1.,1.,1.,-22.9576294874872,                  89P     97
-22.1880707068242,0.,-22.9576294874872,-22.1880707068242,10.,0.,      89P     98
1.,0.,0.,0.;                                                          89P     99
126,1,1,0,0,1,0,-5.28897725752871,-5.28897725752871,0.,0.,1.,1.,      91P    100
29.9321430877999,-22.1880707068242,10.,-22.9576294874872,             91P    101
-22.1880707068242,10.,-5.28897725752871,0.,0.,0.,0.;                  91P    102
126,1,1,0,0,1,0,0.,0.,5.28897725752871,5.28897725752871,1.,1.,        93P    103
-22.9576294874872,2.17463948243256,0.,29.9321430877999,               93P    104
2.17463948243255,0.,0.,5.28897725752871,0.,0.,0.;                     93P    105
126,1,1,0,0,1,0,0.,0.,1.,1.,1.,1.,29.9321430877999,                   95P    106
2.17463948243255,0.,29.9321430877999,2.17463948243255,10.,0.,1.,      95P    107
0.,0.,0.;                                                             95P    108
126,1,1,0,0,1,0,-5.28897725752871,-5.28897725752871,0.,0.,1.,1.,      97P    109
29.9321430877999,2.17463948243255,10.,-22.9576294874872,              97P    110
2.17463948243256,10.,-5.28897725752871,0.,0.,0.,0.;                   97P    111
126,1,1,0,0,1,0,0.,0.,1.,1.,1.,1.,-22.9576294874872,                  99P    112
2.17463948243256,0.,-22.9576294874872,2.17463948243256,10.,0.,        99P    113
1.,0.,0.,0.;                                                          99P    114
126,4,2,0,0,0,0,0.,0.,0.,1.5707963267949,1.5707963267949,            101P    115
3.14159265358979,3.14159265358979,3.14159265358979,1.,               101P    116
0.707106781186548,1.,0.707106781186547,1.,-22.9576294874872,         101P    117
2.17463948243256,0.,-29.0733070348014,2.17463948243256,0.,           101P    118
-29.0733070348014,-3.94103806488164,0.,-29.0733070348014,            101P    119
-10.0567156121958,0.,-22.9576294874872,-10.0567156121958,0.,0.,      101P    120
3.14159265358979,0.,0.,0.;                                           101P    121
126,4,2,0,0,0,0,0.,0.,0.,1.5707963267949,1.5707963267949,            103P    122
3.14159265358979,3.14159265358979,3.14159265358979,1.,               103P    123
0.707106781186548,1.,0.707106781186547,1.,-22.9576294874872,         103P    124
2.17463948243256,10.,-29.0733070348014,2.17463948243256,10.,         103P    125
-29.0733070348014,-3.94103806488164,10.,-29.0733070348014,           103P    126
-10.0567156121958,10.,-22.9576294874872,-10.0567156121958,10.,       103P    127
0.,3.14159265358979,0.,0.,0.;                                        103P    128
126,1,1,0,0,1,0,0.,0.,1.,1.,1.,1.,-22.9576294874872,                 105P    129
-10.0567156121958,0.,-22.9576294874872,-10.0567156121958,10.,0.,     105P    130
1.,0.,0.,0.;                                                         105P    131
126,1,1,0,0,1,0,0.,0.,5.28897725752871,5.28897725752871,1.,1.,       107P    132
29.9321430877999,-10.0567156121958,0.,-22.9576294874872,             107P    133
-10.0567156121958,0.,0.,5.28897725752871,0.,0.,0.;                   107P    134
126,1,1,0,0,1,0,-5.28897725752871,-5.28897725752871,0.,0.,1.,1.,     109P    135
-22.9576294874872,-10.0567156121958,10.,29.9321430877999,            109P    136
-10.0567156121958,10.,-5.28897725752871,0.,0.,0.,0.;                 109P    137
126,1,1,0,0,1,0,0.,0.,1.,1.,1.,1.,29.9321430877999,                  111P    138
-10.0567156121958,0.,29.9321430877999,-10.0567156121958,10.,0.,      111P    139
1.,0.,0.,0.;                                                         111P    140
126,4,2,0,0,0,0,0.,0.,0.,1.5707963267949,1.5707963267949,            113P    141
3.14159265358979,3.14159265358979,3.14159265358979,1.,               113P    142
0.707106781186548,1.,0.707106781186548,1.,29.9321430877999,          113P    143
-22.2880707068242,0.,36.0478206351141,-22.2880707068242,0.,          113P    144
36.0478206351141,-16.17239315951,0.,36.0478206351141,                113P    145
-10.0567156121958,0.,29.9321430877999,-10.0567156121958,0.,0.,       113P    146
3.14159265358979,0.,0.,0.;                                           113P    147
126,4,2,0,0,0,0,-3.14159265358979,-3.14159265358979,                 115P    148
-3.14159265358979,-1.5707963267949,-1.5707963267949,0.,0.,0.,1.,     115P    149
0.707106781186548,1.,0.707106781186548,1.,29.9321430877999,          115P    150
-10.0567156121958,10.,36.0478206351141,-10.0567156121958,10.,        115P    151
36.0478206351141,-16.17239315951,10.,36.0478206351141,               115P    152
-22.2880707068242,10.,29.9321430877999,-22.2880707068242,10.,        115P    153
-3.14159265358979,0.,0.,0.,0.;                                       115P    154
126,1,1,0,0,1,0,0.,0.,1.,1.,1.,1.,29.9321430877999,                  117P    155
-22.2880707068242,0.,29.9321430877999,-22.2880707068242,10.,0.,      117P    156
1.,0.,0.,0.;                                                         117P    157
126,1,1,0,0,1,0,0.,0.,5.28897725752871,5.28897725752871,1.,1.,       119P    158
-22.9576294874872,-22.2880707068242,0.,29.9321430877999,             119P    159
-22.2880707068242,0.,0.,5.28897725752871,0.,0.,0.;                   119P    160
126,1,1,0,0,1,0,-5.28897725752871,-5.28897725752871,0.,0.,1.,1.,     121P    161
29.9321430877999,-22.2880707068242,10.,-22.9576294874872,            121P    162
-22.2880707068242,10.,-5.28897725752871,0.,0.,0.,0.;                 121P    163
126,1,1,0,0,1,0,0.,0.,1.,1.,1.,1.,-22.9576294874872,                 123P    164
-22.2880707068242,0.,-22.9576294874872,-22.2880707068242,10.,0.,     123P    165
1.,0.,0.,0.;                                                         123P    166
126,1,1,0,0,1,0,0.,0.,0.00999999999999979,0.00999999999999979,       125P    167
1.,1.,-22.9576294874872,-22.2880707068242,0.,-22.9576294874872,      125P    168
-22.1880707068242,0.,0.,0.00999999999999979,0.,0.,0.;                125P    169
126,1,1,0,0,1,0,0.,0.,0.01,0.01,1.,1.,29.9321430877999,              127P    170
2.17463948243255,0.,29.9321430877999,2.27463948243255,0.,0.,         127P    171
0.01,0.,0.,0.;                                                       127P    172
126,1,1,0,0,1,0,0.,0.,0.01,0.01,1.,1.,29.9321430877999,              129P    173
2.17463948243255,10.,29.9321430877999,2.27463948243255,10.,0.,       129P    174
0.01,0.,0.,0.;                                                       129P    175
126,1,1,0,0,1,0,0.,0.,0.00999999999999979,0.00999999999999979,       131P    176
1.,1.,-22.9576294874872,-22.2880707068242,10.,-22.9576294874872,     131P    177
-22.1880707068242,10.,0.,0.00999999999999979,0.,0.,0.;               131P    178
128,1,1,1,1,0,0,1,0,0,-0.001,-0.001,5.28997725752871,                133P    179
5.28997725752871,-0.001,-0.001,1.001,1.001,1.,1.,1.,1.,              133P    180
29.9421430877999,2.27463948243255,-0.01,-22.9676294874872,           133P    181
2.27463948243256,-0.01,29.9421430877999,2.27463948243255,10.01,      133P    182
-22.9676294874872,2.27463948243256,10.01,-0.001,                     133P    183
5.28997725752871,-0.001,1.001;                                       133P    184
128,1,4,1,2,0,0,0,0,0,0.,0.,1.63514180115524,1.63514180115524,       135P    185
0.,0.,0.,1.5707963267949,1.5707963267949,3.14159265358979,           135P    186
3.14159265358979,3.14159265358979,1.,1.,0.707106781186547,           135P    187
0.707106781186547,1.,1.,0.707106781186547,0.707106781186547,1.,      135P    188
1.,-22.9576294874872,2.27463948243256,10.,-22.9576294874872,         135P    189
2.27463948243256,0.,-29.1733070348014,2.27463948243256,10.,          135P    190
-29.1733070348014,2.27463948243256,0.,-29.1733070348014,             135P    191
-3.94103806488164,10.,-29.1733070348014,-3.94103806488164,0.,        135P    192
-29.1733070348014,-10.1567156121958,10.,-29.1733070348014,           135P    193
-10.1567156121958,0.,-22.9576294874872,-10.1567156121958,10.,        135P    194
-22.9576294874872,-10.1567156121958,0.,0.,1.63514180115524,0.,       135P    195
3.14159265358979;                                                    135P    196
128,1,1,1,1,0,0,1,0,0,-0.001,-0.001,5.28997725752871,                137P    197
5.28997725752871,-0.001,-0.001,1.001,1.001,1.,1.,1.,1.,              137P    198
-22.9676294874872,-10.1567156121958,-0.01,29.9421430877999,          137P    199
-10.1567156121958,-0.01,-22.9676294874872,-10.1567156121958,         137P    200
10.01,29.9421430877999,-10.1567156121958,10.01,-0.001,               137P    201
5.28997725752871,-0.001,1.001;                                       137P    202
128,1,4,1,2,0,0,0,0,0,0.,0.,1.63514180115524,1.63514180115524,       139P    203
7.26148830467839D-16,7.26148830467839D-16,7.26148830467839D-16,      139P    204
1.5707963267949,1.5707963267949,3.14159265358979,                    139P    205
3.14159265358979,3.14159265358979,1.,1.,0.707106781186548,           139P    206
0.707106781186548,1.,1.,0.707106781186548,0.707106781186548,1.,      139P    207
1.,29.9321430877999,-22.1880707068242,0.,29.9321430877999,           139P    208
-22.1880707068242,10.,35.9478206351141,-22.1880707068242,0.,         139P    209
35.9478206351141,-22.1880707068242,10.,35.9478206351141,             139P    210
-16.17239315951,0.,35.9478206351141,-16.17239315951,10.,             139P    211
35.9478206351141,-10.1567156121958,0.,35.9478206351141,              139P    212
-10.1567156121958,10.,29.9321430877999,-10.1567156121958,0.,         139P    213
29.9321430877999,-10.1567156121958,10.,0.,1.63514180115524,          139P    214
7.26148830467839D-16,3.14159265358979;                               139P    215
128,1,1,1,1,0,0,1,0,0,-0.001,-0.001,5.28997725752871,                141P    216
5.28997725752871,-0.001,-0.001,1.001,1.001,1.,1.,1.,1.,              141P    217
29.9421430877999,-22.1880707068242,-0.01,-22.9676294874872,          141P    218
-22.1880707068242,-0.01,29.9421430877999,-22.1880707068242,          141P    219
10.01,-22.9676294874872,-22.1880707068242,10.01,-0.001,              141P    220
5.28997725752871,-0.001,1.001;                                       141P    221
128,1,1,1,1,0,0,1,0,0,-0.001,-0.001,5.28997725752871,                143P    222
5.28997725752871,-0.001,-0.001,1.001,1.001,1.,1.,1.,1.,              143P    223
-22.9676294874872,2.17463948243256,-0.01,29.9421430877999,           143P    224
2.17463948243255,-0.01,-22.9676294874872,2.17463948243256,10.01,     143P    225
29.9421430877999,2.17463948243255,10.01,-0.001,5.28997725752871,     143P    226
-0.001,1.001;                                                        143P    227
128,1,4,1,2,0,0,0,0,0,0.,0.,1.63514180115524,1.63514180115524,       145P    228
0.,0.,0.,1.5707963267949,1.5707963267949,3.14159265358979,           145P    229
3.14159265358979,3.14159265358979,1.,1.,0.707106781186547,           145P    230
0.707106781186547,1.,1.,0.707106781186547,0.707106781186547,1.,      145P    231
1.,-22.9576294874872,2.17463948243256,0.,-22.9576294874872,          145P    232
2.17463948243256,10.,-29.0733070348014,2.17463948243256,0.,          145P    233
-29.0733070348014,2.17463948243256,10.,-29.0733070348014,            145P    234
-3.94103806488164,0.,-29.0733070348014,-3.94103806488164,10.,        145P    235
-29.0733070348014,-10.0567156121958,0.,-29.0733070348014,            145P    236
-10.0567156121958,10.,-22.9576294874872,-10.0567156121958,0.,        145P    237
-22.9576294874872,-10.0567156121958,10.,0.,1.63514180115524,0.,      145P    238
3.14159265358979;                                                    145P    239
128,1,1,1,1,0,0,1,0,0,-0.001,-0.001,5.28997725752871,                147P    240
5.28997725752871,-0.001,-0.001,1.001,1.001,1.,1.,1.,1.,              147P    241
29.9421430877999,-10.0567156121958,-0.01,-22.9676294874872,          147P    242
-10.0567156121958,-0.01,29.9421430877999,-10.0567156121958,          147P    243
10.01,-22.9676294874872,-10.0567156121958,10.01,-0.001,              147P    244
5.28997725752871,-0.001,1.001;                                       147P    245
128,1,4,1,2,0,0,0,0,0,0.,0.,1.63514180115524,1.63514180115524,       149P    246
0.,0.,0.,1.5707963267949,1.5707963267949,3.14159265358979,           149P    247
3.14159265358979,3.14159265358979,1.,1.,0.707106781186548,           149P    248
0.707106781186548,1.,1.,0.707106781186548,0.707106781186548,1.,      149P    249
1.,29.9321430877999,-22.2880707068242,10.,29.9321430877999,          149P    250
-22.2880707068242,0.,36.0478206351141,-22.2880707068242,10.,         149P    251
36.0478206351141,-22.2880707068242,0.,36.0478206351141,              149P    252
-16.17239315951,10.,36.0478206351141,-16.17239315951,0.,             149P    253
36.0478206351141,-10.0567156121958,10.,36.0478206351141,             149P    254
-10.0567156121958,0.,29.9321430877999,-10.0567156121958,10.,         149P    255
29.9321430877999,-10.0567156121958,0.,0.,1.63514180115524,0.,        149P    256
3.14159265358979;                                                    149P    257
128,1,1,1,1,0,0,1,0,0,-0.001,-0.001,5.28997725752871,                151P    258
5.28997725752871,-0.001,-0.001,1.001,1.001,1.,1.,1.,1.,              151P    259
-22.9676294874872,-22.2880707068242,-0.01,29.9421430877999,          151P    260
-22.2880707068242,-0.01,-22.9676294874872,-22.2880707068242,         151P    261
10.01,29.9421430877999,-22.2880707068242,10.01,-0.001,               151P    262
5.28997725752871,-0.001,1.001;                                       151P    263
128,1,1,1,1,0,0,1,0,0,-3.26705638349578,-3.26705638349578,           153P    264
3.25705638349578,3.25705638349578,-2.44727101892568,                 153P    265
-2.44727101892568,0.011,0.011,1.,1.,1.,1.,36.0578206351141,          153P    266
-22.2980707068242,0.,-29.1833070348014,-22.2980707068242,0.,         153P    267
36.0578206351141,2.28463948243256,0.,-29.1833070348014,              153P    268
2.28463948243256,0.,-3.26705638349578,3.25705638349578,              153P    269
-2.44727101892568,0.011;                                             153P    270
128,1,1,1,1,0,0,1,0,0,-3.25705638349578,-3.25705638349578,           155P    271
3.26705638349578,3.26705638349578,-2.44727101892568,                 155P    272
-2.44727101892568,0.011,0.011,1.,1.,1.,1.,-29.1833070348014,         155P    273
-22.2980707068242,10.,36.0578206351141,-22.2980707068242,10.,        155P    274
-29.1833070348014,2.28463948243256,10.,36.0578206351141,             155P    275
2.28463948243256,10.,-3.25705638349578,3.26705638349578,             155P    276
-2.44727101892568,0.011;                                             155P    277
128,1,1,1,1,0,0,1,0,0,-0.501,-0.501,0.501,0.501,                     157P    278
-0.00100000000000006,-0.00100000000000006,0.011,0.011,1.,1.,1.,      157P    279
1.,29.9321430877999,2.16463948243255,10.01,29.9321430877999,         157P    280
2.16463948243255,-0.01,29.9321430877999,2.28463948243256,10.01,      157P    281
29.9321430877999,2.28463948243256,-0.01,-0.501,0.501,                157P    282
-0.00100000000000006,0.011;                                          157P    283
128,1,1,1,1,0,0,1,0,0,-0.501,-0.501,0.501,0.501,                     159P    284
-0.000999999999999979,-0.000999999999999979,0.0109999999999998,      159P    285
0.0109999999999998,1.,1.,1.,1.,-22.9576294874872,                    159P    286
-22.2980707068242,-0.01,-22.9576294874872,-22.2980707068242,         159P    287
10.01,-22.9576294874872,-22.1780707068242,-0.01,                     159P    288
-22.9576294874872,-22.1780707068242,10.01,-0.501,0.501,              159P    289
-0.000999999999999979,0.0109999999999998;                            159P    290
502,24,-22.9576294874872,2.27463948243256,0.,29.9321430877999,       161P    291
2.27463948243255,0.,-22.9576294874872,2.27463948243255,10.,          161P    292
29.9321430877999,2.27463948243255,10.,-22.9576294874872,             161P    293
-10.1567156121958,0.,-22.9576294874872,-10.1567156121958,10.,        161P    294
29.9321430877999,-10.1567156121958,0.,29.9321430877999,              161P    295
-10.1567156121958,10.,29.9321430877999,-22.1880707068242,0.,         161P    296
29.9321430877999,-22.1880707068242,10.,-22.9576294874872,            161P    297
-22.1880707068242,0.,-22.9576294874872,-22.1880707068242,10.,        161P    298
-22.9576294874872,2.17463948243256,0.,29.9321430877999,              161P    299
2.17463948243255,0.,29.9321430877999,2.17463948243255,10.,           161P    300
-22.9576294874872,2.17463948243255,10.,-22.9576294874872,            161P    301
-10.0567156121958,0.,-22.9576294874872,-10.0567156121958,10.,        161P    302
29.9321430877999,-10.0567156121958,0.,29.9321430877999,              161P    303
-10.0567156121958,10.,29.9321430877999,-22.2880707068242,0.,         161P    304
29.9321430877999,-22.2880707068242,10.,-22.9576294874872,            161P    305
-22.2880707068242,0.,-22.9576294874872,-22.2880707068242,10.;        161P    306
504,36,61,161,1,161,2,63,161,1,161,3,65,161,4,161,3,67,161,2,        163P    307
161,4,69,161,1,161,5,71,161,5,161,6,73,161,3,161,6,75,161,7,161,     163P    308
5,77,161,7,161,8,79,161,6,161,8,81,161,9,161,7,83,161,9,161,10,      163P    309
85,161,8,161,10,87,161,11,161,9,89,161,11,161,12,91,161,10,161,      163P    310
12,93,161,13,161,14,95,161,14,161,15,97,161,15,161,16,99,161,13,     163P    311
161,16,101,161,13,161,17,103,161,16,161,18,105,161,17,161,18,        163P    312
107,161,19,161,17,109,161,18,161,20,111,161,19,161,20,113,161,       163P    313
21,161,19,115,161,20,161,22,117,161,21,161,22,119,161,23,161,21,     163P    314
121,161,22,161,24,123,161,23,161,24,125,161,23,161,11,127,161,       163P    315
14,161,2,129,161,15,161,4,131,161,24,161,12;                         163P    316
406,1,5HBody2;                                                       165P    317
314,62.7450980392157,62.7450980392157,62.7450980392157,13HSteel      167P    318
- Satin;                                                             167P    319
S      1G      3D    168P    319                                        T      1
