700 0 3 0           
30 Autodesk Translation Framework 21 ASM 229.10.0.65535 NT 24 Sat May  4 12:28:52 2024 
1 9.999999999999999547e-07 1.000000000000000036e-10 
body $3 -1 $-1 $4 $-1 $5 #
body $6 -1 $-1 $7 $-1 $8 #
body $9 -1 $-1 $10 $-1 $11 #
rgb_color-st-attrib $-1 -1 $12 $-1 $0 0.627450980392156854 0.627450980392156854 0.627450980392156854 #
lump $-1 -1 $-1 $-1 $13 $0 #
transform $-1 -1 1 0 0 0 1 0 0 0 1 0 0 0 1 no_rotate no_reflect no_shear #
rgb_color-st-attrib $-1 -1 $14 $-1 $1 0.627450980392156854 0.627450980392156854 0.627450980392156854 #
lump $-1 -1 $-1 $-1 $15 $1 #
transform $-1 -1 1 0 0 0 1 0 0 0 1 0 0 0 1 no_rotate no_reflect no_shear #
rgb_color-st-attrib $-1 -1 $16 $-1 $2 0.627450980392156854 0.627450980392156854 0.627450980392156854 #
lump $-1 -1 $-1 $-1 $17 $2 #
transform $-1 -1 1 0 0 0 1 0 0 0 1 0 0 0 1 no_rotate no_reflect no_shear #
ATTRIB_CUSTOM-attrib $-1 -1 $-1 $3 $0 @20 Timestamp_attrib_def 1 1705637447169461 #
shell $-1 -1 $-1 $-1 $-1 $18 $-1 $4 #
ATTRIB_CUSTOM-attrib $-1 -1 $-1 $6 $1 @20 Timestamp_attrib_def 1 1705637447169461 #
shell $-1 -1 $-1 $-1 $-1 $19 $-1 $7 #
ATTRIB_CUSTOM-attrib $-1 -1 $-1 $9 $2 @20 Timestamp_attrib_def 1 1705637447189832 #
shell $-1 -1 $-1 $-1 $-1 $20 $-1 $10 #
face $21 -1 $-1 $22 $23 $13 $-1 $24 forward single #
face $25 -1 $-1 $26 $27 $15 $-1 $28 forward single #
face $29 -1 $-1 $30 $31 $17 $-1 $32 forward single #
DXID-attrib $-1 -1 $-1 $-1 $18 @10 ASM ENTITY @1 0 #
face $33 -1 $-1 $34 $35 $13 $-1 $36 forward single #
loop $-1 -1 $-1 $-1 $37 $18 #
plane-surface $-1 -1 $-1 -185.5035867749137992 143.2023097877612656 0 -1 0 0 -0 -10 -0 forward_v I I I I #
DXID-attrib $-1 -1 $-1 $-1 $19 @10 ASM ENTITY @1 0 #
face $38 -1 $-1 $39 $40 $15 $-1 $41 forward single #
loop $-1 -1 $-1 $-1 $42 $19 #
plane-surface $-1 -1 $-1 -176.6396484324378093 -37.6024489224915115 0 -1 0 0 -0 -10 -0 forward_v I I I I #
DXID-attrib $-1 -1 $-1 $-1 $20 @10 ASM ENTITY @1 0 #
face $43 -1 $-1 $44 $45 $17 $-1 $46 forward single #
loop $-1 -1 $-1 $-1 $47 $20 #
plane-surface $-1 -1 $-1 16.86632984417649084 5.281976928996030551 -245.0740000000000407 0 0 -1 -10 0 0 forward_v I I I I #
DXID-attrib $-1 -1 $-1 $-1 $22 @10 ASM ENTITY @1 1 #
face $48 -1 $-1 $49 $50 $13 $-1 $51 forward single #
loop $-1 -1 $-1 $-1 $52 $22 #
plane-surface $-1 -1 $-1 197.903294429443406 143.2023097877612656 0 0 1 0 -10 -0 -0 forward_v I I I I #
coedge $53 -1 $-1 $54 $55 $56 $57 reversed $23 $-1 #
DXID-attrib $-1 -1 $-1 $-1 $26 @10 ASM ENTITY @1 1 #
face $58 -1 $-1 $59 $60 $15 $-1 $61 forward single #
loop $-1 -1 $-1 $-1 $62 $26 #
plane-surface $-1 -1 $-1 201.0978873050570428 -37.60244892249150439 0 0 1 0 -10 -0 -0 forward_v I I I I #
coedge $63 -1 $-1 $64 $65 $66 $67 reversed $27 $-1 #
DXID-attrib $-1 -1 $-1 $-1 $30 @10 ASM ENTITY @1 1 #
face $68 -1 $-1 $69 $70 $17 $-1 $71 forward single #
loop $-1 -1 $-1 $-1 $72 $30 #
plane-surface $-1 -1 $-1 543.0784969983444626 12.29285028382378187 0 0 1 0 -10 0 0 forward_v I I I I #
coedge $-1 -1 $-1 $73 $74 $75 $76 forward $31 $-1 #
DXID-attrib $-1 -1 $-1 $-1 $34 @10 ASM ENTITY @1 2 #
face $77 -1 $-1 $78 $79 $13 $-1 $80 forward single #
loop $-1 -1 $-1 $-1 $81 $34 #
plane-surface $-1 -1 $-1 197.903294429443406 31.9807267795788519 0 1 0 0 0 10 0 forward_v I I I I #
coedge $82 -1 $-1 $83 $84 $85 $86 reversed $35 $-1 #
ATTRIB_CUSTOM-attrib $-1 -1 $-1 $-1 $37 @17 sketch_attrib_def 1 1 3 @13 108 0 1 0 1 1 #
coedge $-1 -1 $-1 $87 $37 $88 $89 forward $23 $-1 #
coedge $-1 -1 $-1 $37 $87 $83 $90 reversed $23 $-1 #
coedge $91 -1 $-1 $85 $92 $37 $57 forward $93 $-1 #
edge $-1 -1 $-1 $94 0 $95 11.12215830081824031 $37 $96 forward @7 unknown #
DXID-attrib $-1 -1 $-1 $-1 $39 @10 ASM ENTITY @1 2 #
face $97 -1 $-1 $98 $99 $15 $-1 $100 forward single #
loop $-1 -1 $-1 $-1 $101 $39 #
plane-surface $-1 -1 $-1 201.0978873050570428 -191.7030953050152675 0 1 0 0 0 10 0 forward_v I I I I #
coedge $102 -1 $-1 $103 $104 $105 $106 reversed $40 $-1 #
ATTRIB_CUSTOM-attrib $-1 -1 $-1 $-1 $42 @17 sketch_attrib_def 1 1 3 @13 124 0 1 0 1 1 #
coedge $-1 -1 $-1 $107 $42 $108 $109 forward $27 $-1 #
coedge $-1 -1 $-1 $42 $107 $103 $110 reversed $27 $-1 #
coedge $111 -1 $-1 $105 $112 $42 $67 forward $113 $-1 #
edge $-1 -1 $-1 $114 0 $115 15.4100646382523756 $42 $116 forward @7 unknown #
DXID-attrib $-1 -1 $-1 $-1 $44 @10 ASM ENTITY @1 2 #
face $117 -1 $-1 $118 $119 $17 $-1 $120 forward single #
loop $-1 -1 $-1 $-1 $121 $44 #
plane-surface $-1 -1 $-1 543.0784969983444626 -1.728896425831721873 0 1 0 0 0 10 0 forward_v I I I I #
coedge $-1 -1 $-1 $122 $123 $124 $125 reversed $45 $-1 #
coedge $-1 -1 $-1 $126 $47 $123 $127 forward $31 $-1 #
coedge $-1 -1 $-1 $47 $126 $128 $129 forward $31 $-1 #
coedge $-1 -1 $-1 $130 $124 $47 $76 reversed $131 $-1 #
edge $-1 -1 $-1 $132 -1.402174670965550263 $133 -0 $75 $134 forward @7 unknown #
DXID-attrib $-1 -1 $-1 $-1 $49 @10 ASM ENTITY @1 3 #
face $135 -1 $-1 $136 $137 $13 $-1 $138 forward single #
loop $-1 -1 $-1 $-1 $139 $49 #
plane-surface $-1 -1 $-1 -185.5035867749137992 31.9807267795788519 0 0 -1 0 10 0 0 forward_v I I I I #
coedge $140 -1 $-1 $141 $142 $143 $144 reversed $50 $-1 #
ATTRIB_CUSTOM-attrib $-1 -1 $-1 $-1 $52 @17 sketch_attrib_def 1 1 3 @13 105 0 1 0 1 1 #
coedge $-1 -1 $-1 $145 $52 $55 $90 forward $35 $-1 #
coedge $-1 -1 $-1 $52 $145 $141 $146 reversed $35 $-1 #
coedge $147 -1 $-1 $143 $56 $52 $86 forward $93 $-1 #
edge $-1 -1 $-1 $95 0 $148 38.34068812043572194 $52 $149 forward @7 unknown #
coedge $-1 -1 $-1 $55 $54 $150 $151 reversed $23 $-1 #
coedge $-1 -1 $-1 $139 $152 $54 $89 reversed $79 $-1 #
edge $-1 -1 $-1 $94 0 $153 1 $88 $154 forward @7 unknown #
edge $-1 -1 $-1 $95 0 $155 1 $83 $156 forward @7 unknown #
ATTRIB_CUSTOM-attrib $-1 -1 $-1 $-1 $56 @17 sketch_attrib_def 1 1 3 @13 108 0 1 0 1 1 #
coedge $157 -1 $-1 $56 $143 $139 $158 forward $93 $-1 #
loop $-1 -1 $-1 $-1 $92 $136 #
vertex $-1 -1 $-1 $57 $159 #
vertex $-1 -1 $-1 $57 $160 #
straight-curve $-1 -1 $-1 -185.5035867749137992 31.9807267795788519 0 0 10 0 F 0 F 11.12215830081824031 #
DXID-attrib $-1 -1 $-1 $-1 $59 @10 ASM ENTITY @1 3 #
face $161 -1 $-1 $162 $163 $15 $-1 $164 forward single #
loop $-1 -1 $-1 $-1 $165 $59 #
plane-surface $-1 -1 $-1 -176.6396484324378093 -191.7030953050152675 0 0 -1 0 10 0 0 forward_v I I I I #
coedge $166 -1 $-1 $167 $168 $169 $170 reversed $60 $-1 #
ATTRIB_CUSTOM-attrib $-1 -1 $-1 $-1 $62 @17 sketch_attrib_def 1 1 3 @13 121 0 1 0 1 1 #
coedge $-1 -1 $-1 $171 $62 $65 $110 forward $40 $-1 #
coedge $-1 -1 $-1 $62 $171 $167 $172 reversed $40 $-1 #
coedge $173 -1 $-1 $169 $66 $62 $106 forward $113 $-1 #
edge $-1 -1 $-1 $115 0 $174 37.77375357374948806 $62 $175 forward @7 unknown #
coedge $-1 -1 $-1 $65 $64 $176 $177 reversed $27 $-1 #
coedge $-1 -1 $-1 $165 $178 $64 $109 reversed $99 $-1 #
edge $-1 -1 $-1 $114 0 $179 1 $108 $180 forward @7 unknown #
edge $-1 -1 $-1 $115 0 $181 1 $103 $182 forward @7 unknown #
ATTRIB_CUSTOM-attrib $-1 -1 $-1 $-1 $66 @17 sketch_attrib_def 1 1 3 @13 124 0 1 0 1 1 #
coedge $183 -1 $-1 $66 $169 $165 $184 forward $113 $-1 #
loop $-1 -1 $-1 $-1 $112 $162 #
vertex $-1 -1 $-1 $67 $185 #
vertex $-1 -1 $-1 $67 $186 #
straight-curve $-1 -1 $-1 -176.6396484324378093 -191.7030953050152675 0 0 10 0 F 0 F 15.4100646382523756 #
DXID-attrib $-1 -1 $-1 $-1 $69 @10 ASM ENTITY @1 3 #
face $187 -1 $-1 $188 $131 $17 $-1 $189 forward single #
loop $-1 -1 $-1 $-1 $190 $69 #
plane-surface $-1 -1 $-1 -509.3458373099914525 -1.728896425831721873 0 0 -1 0 10 0 0 forward_v I I I I #
coedge $-1 -1 $-1 $191 $192 $193 $194 forward $70 $-1 #
coedge $-1 -1 $-1 $193 $72 $195 $196 reversed $45 $-1 #
coedge $-1 -1 $-1 $72 $193 $73 $127 reversed $45 $-1 #
coedge $-1 -1 $-1 $75 $197 $72 $125 forward $131 $-1 #
edge $-1 -1 $-1 $198 -24.50740000000000407 $133 24.50740000000000407 $124 $199 forward @7 unknown #
coedge $-1 -1 $-1 $74 $73 $192 $200 forward $31 $-1 #
edge $-1 -1 $-1 $133 -105.2424334308335858 $201 -0 $123 $202 forward @7 unknown #
coedge $-1 -1 $-1 $190 $203 $74 $129 reversed $119 $-1 #
edge $-1 -1 $-1 $204 -105.2424334308335858 $132 -0 $128 $205 forward @7 unknown #
coedge $-1 -1 $-1 $197 $75 $203 $206 forward $131 $-1 #
loop $-1 -1 $-1 $-1 $130 $118 #
vertex $-1 -1 $-1 $76 $207 #
vertex $-1 -1 $-1 $76 $208 #
straight-curve $-1 -1 $-1 -509.3458373099914525 12.29285028382378187 -245.0740000000000407 0 10 0 I I #
DXID-attrib $-1 -1 $-1 $-1 $78 @10 ASM ENTITY @1 4 #
face $209 -1 $-1 $-1 $93 $13 $-1 $210 reversed single #
loop $-1 -1 $-1 $-1 $211 $78 #
plane-surface $-1 -1 $-1 6.19985382726479628 87.59151828367006942 10 0 0 1 10 0 0 forward_v I I I I #
coedge $212 -1 $-1 $213 $88 $92 $158 reversed $79 $-1 #
ATTRIB_CUSTOM-attrib $-1 -1 $-1 $-1 $81 @17 sketch_attrib_def 1 1 3 @13 106 0 1 0 1 1 #
coedge $-1 -1 $-1 $214 $81 $84 $146 forward $50 $-1 #
coedge $-1 -1 $-1 $81 $214 $213 $215 reversed $50 $-1 #
coedge $216 -1 $-1 $92 $85 $81 $144 forward $93 $-1 #
edge $-1 -1 $-1 $148 0 $217 11.12215830081824031 $81 $218 forward @7 unknown #
coedge $-1 -1 $-1 $84 $83 $219 $220 reversed $35 $-1 #
edge $-1 -1 $-1 $148 0 $221 1 $141 $222 forward @7 unknown #
ATTRIB_CUSTOM-attrib $-1 -1 $-1 $-1 $85 @17 sketch_attrib_def 1 1 3 @13 105 0 1 0 1 1 #
vertex $-1 -1 $-1 $86 $223 #
straight-curve $-1 -1 $-1 -185.5035867749137992 143.2023097877612656 0 10 0 0 F 0 F 38.34068812043572194 #
coedge $-1 -1 $-1 $211 $219 $87 $151 forward $137 $-1 #
edge $-1 -1 $-1 $155 -11.12215830081824031 $153 -0 $87 $224 forward @7 unknown #
coedge $-1 -1 $-1 $88 $213 $211 $225 reversed $79 $-1 #
vertex $-1 -1 $-1 $89 $226 #
straight-curve $-1 -1 $-1 -185.5035867749137992 31.9807267795788519 0 0 0 10 I I #
vertex $-1 -1 $-1 $151 $227 #
straight-curve $-1 -1 $-1 -185.5035867749137992 143.2023097877612656 0 0 0 10 I I #
ATTRIB_CUSTOM-attrib $-1 -1 $-1 $-1 $92 @17 sketch_attrib_def 1 1 3 @13 107 0 1 0 1 1 #
edge $-1 -1 $-1 $217 0 $94 38.34068812043572194 $139 $228 forward @7 unknown #
point $-1 -1 $-1 -185.5035867749137992 31.9807267795788519 0 #
point $-1 -1 $-1 -185.5035867749137992 143.2023097877612656 0 #
DXID-attrib $-1 -1 $-1 $-1 $98 @10 ASM ENTITY @1 4 #
face $229 -1 $-1 $-1 $113 $15 $-1 $230 reversed single #
loop $-1 -1 $-1 $-1 $231 $98 #
plane-surface $-1 -1 $-1 12.22911943630961673 -114.652772113753386 10 0 0 1 10 0 0 forward_v I I I I #
coedge $232 -1 $-1 $233 $108 $112 $184 reversed $99 $-1 #
ATTRIB_CUSTOM-attrib $-1 -1 $-1 $-1 $101 @17 sketch_attrib_def 1 1 3 @13 122 0 1 0 1 1 #
coedge $-1 -1 $-1 $234 $101 $104 $172 forward $60 $-1 #
coedge $-1 -1 $-1 $101 $234 $233 $235 reversed $60 $-1 #
coedge $236 -1 $-1 $112 $105 $101 $170 forward $113 $-1 #
edge $-1 -1 $-1 $174 0 $237 15.4100646382523756 $101 $238 forward @7 unknown #
coedge $-1 -1 $-1 $104 $103 $239 $240 reversed $40 $-1 #
edge $-1 -1 $-1 $174 0 $241 1 $167 $242 forward @7 unknown #
ATTRIB_CUSTOM-attrib $-1 -1 $-1 $-1 $105 @17 sketch_attrib_def 1 1 3 @13 121 0 1 0 1 1 #
vertex $-1 -1 $-1 $106 $243 #
straight-curve $-1 -1 $-1 -176.6396484324378093 -37.60244892249150439 0 10 0 0 F 0 F 37.77375357374948806 #
coedge $-1 -1 $-1 $231 $239 $107 $177 forward $163 $-1 #
edge $-1 -1 $-1 $181 -15.4100646382523756 $179 -0 $107 $244 forward @7 unknown #
coedge $-1 -1 $-1 $108 $233 $231 $245 reversed $99 $-1 #
vertex $-1 -1 $-1 $109 $246 #
straight-curve $-1 -1 $-1 -176.6396484324378093 -191.7030953050152675 0 0 0 10 I I #
vertex $-1 -1 $-1 $177 $247 #
straight-curve $-1 -1 $-1 -176.6396484324378093 -37.6024489224915115 0 0 0 10 I I #
ATTRIB_CUSTOM-attrib $-1 -1 $-1 $-1 $112 @17 sketch_attrib_def 1 1 3 @13 123 0 1 0 1 1 #
edge $-1 -1 $-1 $237 0 $114 37.77375357374948806 $165 $248 forward @7 unknown #
point $-1 -1 $-1 -176.6396484324378093 -191.7030953050152675 0 #
point $-1 -1 $-1 -176.6396484324378093 -37.6024489224915115 0 #
DXID-attrib $-1 -1 $-1 $-1 $118 @10 ASM ENTITY @1 4 #
face $249 -1 $-1 $-1 $250 $17 $-1 $251 forward single #
plane-surface $-1 -1 $-1 -509.3458373099914525 12.29285028382378187 0 -1 0 0 0 -10 0 forward_v I I I I #
coedge $-1 -1 $-1 $252 $128 $253 $254 forward $119 $-1 #
coedge $-1 -1 $-1 $253 $121 $255 $256 reversed $70 $-1 #
coedge $-1 -1 $-1 $121 $253 $126 $200 reversed $70 $-1 #
coedge $-1 -1 $-1 $123 $122 $121 $194 reversed $45 $-1 #
edge $-1 -1 $-1 $201 -24.50740000000000407 $257 24.50740000000000407 $121 $258 forward @7 unknown #
coedge $-1 -1 $-1 $259 $255 $122 $196 forward $250 $-1 #
edge $-1 -1 $-1 $257 0 $198 105.2424334308335858 $122 $260 forward @7 unknown #
coedge $-1 -1 $-1 $124 $130 $259 $261 reversed $131 $-1 #
vertex $-1 -1 $-1 $125 $262 #
straight-curve $-1 -1 $-1 -509.3458373099914525 12.29285028382378187 0 0 0 -10 I I #
edge $-1 -1 $-1 $201 -1.402174670965550263 $204 -0 $192 $263 forward @7 unknown #
vertex $-1 -1 $-1 $127 $264 #
straight-curve $-1 -1 $-1 543.0784969983444626 12.29285028382378187 -245.0740000000000407 10 0 0 I I #
coedge $-1 -1 $-1 $128 $252 $130 $206 reversed $119 $-1 #
vertex $-1 -1 $-1 $200 $265 #
straight-curve $-1 -1 $-1 -509.3458373099914525 -1.728896425831721873 -245.0740000000000407 -10 -0 -0 I I #
edge $-1 -1 $-1 $132 -24.50740000000000407 $266 24.50740000000000407 $130 $267 forward @7 unknown #
point $-1 -1 $-1 -509.3458373099914525 -1.728896425831720762 -245.0740000000000407 #
point $-1 -1 $-1 -509.3458373099914525 12.29285028382378187 -245.0740000000000407 #
DXID-attrib $-1 -1 $-1 $-1 $136 @10 ASM ENTITY @1 5 #
plane-surface $-1 -1 $-1 6.19985382726479628 87.59151828367006942 0 0 0 1 10 0 0 forward_v I I I I #
coedge $-1 -1 $-1 $268 $150 $152 $225 forward $137 $-1 #
ATTRIB_CUSTOM-attrib $-1 -1 $-1 $-1 $139 @17 sketch_attrib_def 1 1 3 @13 107 0 1 0 1 1 #
coedge $-1 -1 $-1 $152 $139 $142 $215 forward $79 $-1 #
coedge $-1 -1 $-1 $142 $141 $268 $269 reversed $50 $-1 #
edge $-1 -1 $-1 $217 0 $270 1 $213 $271 forward @7 unknown #
ATTRIB_CUSTOM-attrib $-1 -1 $-1 $-1 $143 @17 sketch_attrib_def 1 1 3 @13 106 0 1 0 1 1 #
vertex $-1 -1 $-1 $144 $272 #
straight-curve $-1 -1 $-1 197.903294429443406 143.2023097877612656 0 0 -10 0 F 0 F 11.12215830081824031 #
coedge $-1 -1 $-1 $150 $268 $145 $220 forward $137 $-1 #
edge $-1 -1 $-1 $221 -38.34068812043572194 $155 -0 $145 $273 forward @7 unknown #
vertex $-1 -1 $-1 $220 $274 #
straight-curve $-1 -1 $-1 197.903294429443406 143.2023097877612656 0 0 0 10 I I #
point $-1 -1 $-1 197.903294429443406 143.2023097877612656 0 #
straight-curve $-1 -1 $-1 -185.5035867749137992 31.9807267795788519 10 -0 -10 -0 I I #
edge $-1 -1 $-1 $153 -38.34068812043572194 $270 -0 $152 $275 forward @7 unknown #
point $-1 -1 $-1 -185.5035867749137992 31.9807267795788519 10 #
point $-1 -1 $-1 -185.5035867749137992 143.2023097877612656 10 #
straight-curve $-1 -1 $-1 197.903294429443406 31.9807267795788519 0 -10 0 0 F 0 F 38.34068812043572194 #
DXID-attrib $-1 -1 $-1 $-1 $162 @10 ASM ENTITY @1 5 #
plane-surface $-1 -1 $-1 12.22911943630961673 -114.652772113753386 0 0 0 1 10 0 0 forward_v I I I I #
coedge $-1 -1 $-1 $276 $176 $178 $245 forward $163 $-1 #
ATTRIB_CUSTOM-attrib $-1 -1 $-1 $-1 $165 @17 sketch_attrib_def 1 1 3 @13 123 0 1 0 1 1 #
coedge $-1 -1 $-1 $178 $165 $168 $235 forward $99 $-1 #
coedge $-1 -1 $-1 $168 $167 $276 $277 reversed $60 $-1 #
edge $-1 -1 $-1 $237 0 $278 1 $233 $279 forward @7 unknown #
ATTRIB_CUSTOM-attrib $-1 -1 $-1 $-1 $169 @17 sketch_attrib_def 1 1 3 @13 122 0 1 0 1 1 #
vertex $-1 -1 $-1 $170 $280 #
straight-curve $-1 -1 $-1 201.0978873050570428 -37.60244892249150439 0 0 -10 0 F 0 F 15.4100646382523756 #
coedge $-1 -1 $-1 $176 $276 $171 $240 forward $163 $-1 #
edge $-1 -1 $-1 $241 -37.77375357374948806 $181 -0 $171 $281 forward @7 unknown #
vertex $-1 -1 $-1 $240 $282 #
straight-curve $-1 -1 $-1 201.0978873050570428 -37.60244892249150439 0 0 0 10 I I #
point $-1 -1 $-1 201.0978873050570428 -37.60244892249150439 0 #
straight-curve $-1 -1 $-1 -176.6396484324378093 -191.7030953050152675 10 -0 -10 -0 I I #
edge $-1 -1 $-1 $179 -37.77375357374948806 $278 -0 $178 $283 forward @7 unknown #
point $-1 -1 $-1 -176.6396484324378093 -191.7030953050152675 10 #
point $-1 -1 $-1 -176.6396484324378093 -37.6024489224915115 10 #
straight-curve $-1 -1 $-1 201.0978873050570428 -191.7030953050152675 0 -10 0 0 F 0 F 37.77375357374948806 #
DXID-attrib $-1 -1 $-1 $-1 $188 @10 ASM ENTITY @1 5 #
loop $-1 -1 $-1 $-1 $259 $188 #
plane-surface $-1 -1 $-1 16.86632984417649084 5.281976928996030551 245.0740000000000407 0 0 1 10 0 0 forward_v I I I I #
coedge $-1 -1 $-1 $203 $190 $284 $285 reversed $119 $-1 #
coedge $-1 -1 $-1 $192 $191 $190 $254 reversed $70 $-1 #
edge $-1 -1 $-1 $204 -24.50740000000000407 $286 24.50740000000000407 $190 $287 forward @7 unknown #
coedge $-1 -1 $-1 $195 $284 $191 $256 forward $250 $-1 #
edge $-1 -1 $-1 $286 0 $257 1.402174670965550263 $191 $288 forward @7 unknown #
vertex $-1 -1 $-1 $196 $289 #
straight-curve $-1 -1 $-1 543.0784969983444626 12.29285028382378187 0 0 0 10 I I #
coedge $-1 -1 $-1 $284 $195 $197 $261 forward $250 $-1 #
straight-curve $-1 -1 $-1 543.0784969983444626 12.29285028382378187 245.0740000000000407 -10 0 0 I I #
edge $-1 -1 $-1 $198 0 $266 1.402174670965550263 $197 $290 forward @7 unknown #
point $-1 -1 $-1 -509.3458373099914525 12.29285028382378187 245.0740000000000407 #
straight-curve $-1 -1 $-1 543.0784969983444626 -1.728896425831721873 -245.0740000000000407 -0 -10 -0 I I #
point $-1 -1 $-1 543.0784969983444626 12.29285028382378187 -245.0740000000000407 #
point $-1 -1 $-1 543.0784969983444626 -1.728896425831720762 -245.0740000000000407 #
vertex $-1 -1 $-1 $285 $291 #
straight-curve $-1 -1 $-1 -509.3458373099914525 -1.728896425831720762 0 0 0 10 I I #
coedge $-1 -1 $-1 $219 $211 $214 $269 forward $137 $-1 #
edge $-1 -1 $-1 $270 -11.12215830081824031 $221 -0 $214 $292 forward @7 unknown #
vertex $-1 -1 $-1 $269 $293 #
straight-curve $-1 -1 $-1 197.903294429443406 31.9807267795788519 0 0 0 10 I I #
point $-1 -1 $-1 197.903294429443406 31.9807267795788519 0 #
straight-curve $-1 -1 $-1 -185.5035867749137992 143.2023097877612656 10 -10 -0 -0 I I #
point $-1 -1 $-1 197.903294429443406 143.2023097877612656 10 #
straight-curve $-1 -1 $-1 197.903294429443406 31.9807267795788519 10 10 0 0 I I #
coedge $-1 -1 $-1 $239 $231 $234 $277 forward $163 $-1 #
edge $-1 -1 $-1 $278 -15.4100646382523756 $241 -0 $234 $294 forward @7 unknown #
vertex $-1 -1 $-1 $277 $295 #
straight-curve $-1 -1 $-1 201.0978873050570428 -191.7030953050152675 0 0 0 10 I I #
point $-1 -1 $-1 201.0978873050570428 -191.7030953050152675 0 #
straight-curve $-1 -1 $-1 -176.6396484324378093 -37.60244892249150439 10 -10 -0 -0 I I #
point $-1 -1 $-1 201.0978873050570428 -37.6024489224915115 10 #
straight-curve $-1 -1 $-1 201.0978873050570428 -191.7030953050152675 10 10 0 0 I I #
coedge $-1 -1 $-1 $255 $259 $252 $285 forward $250 $-1 #
edge $-1 -1 $-1 $266 0 $286 105.2424334308335858 $252 $296 forward @7 unknown #
vertex $-1 -1 $-1 $256 $297 #
straight-curve $-1 -1 $-1 543.0784969983444626 -1.728896425831721873 0 0 0 10 I I #
straight-curve $-1 -1 $-1 543.0784969983444626 -1.728896425831721873 245.0740000000000407 0 10 0 I I #
point $-1 -1 $-1 543.0784969983444626 12.29285028382378187 245.0740000000000407 #
straight-curve $-1 -1 $-1 -509.3458373099914525 12.29285028382378187 245.0740000000000407 0 -10 0 I I #
point $-1 -1 $-1 -509.3458373099914525 -1.728896425831720762 245.0740000000000407 #
straight-curve $-1 -1 $-1 197.903294429443406 143.2023097877612656 10 0 10 0 I I #
point $-1 -1 $-1 197.903294429443406 31.9807267795788519 10 #
straight-curve $-1 -1 $-1 201.0978873050570428 -37.60244892249150439 10 0 10 0 I I #
point $-1 -1 $-1 201.0978873050570428 -191.7030953050152675 10 #
straight-curve $-1 -1 $-1 -509.3458373099914525 -1.728896425831721873 245.0740000000000407 10 0 0 I I #
point $-1 -1 $-1 543.0784969983444626 -1.728896425831720762 245.0740000000000407 #
End-of-ACIS-data 