700 0 1 0           
30 Autodesk Translation Framework 21 ASM 229.10.0.65535 NT 24 Sat May  4 12:29:46 2024 
1 9.999999999999999547e-07 1.000000000000000036e-10 
body $1 -1 $-1 $2 $-1 $3 #
rgb_color-st-attrib $-1 -1 $4 $-1 $0 0.627450980392156854 0.627450980392156854 0.627450980392156854 #
lump $-1 -1 $-1 $-1 $5 $0 #
transform $-1 -1 1 0 0 0 1 0 0 0 1 0 0 0 1 no_rotate no_reflect no_shear #
ATTRIB_CUSTOM-attrib $-1 -1 $-1 $1 $0 @20 Timestamp_attrib_def 1 1705225224167018 #
shell $-1 -1 $-1 $-1 $-1 $6 $-1 $2 #
face $7 -1 $-1 $8 $9 $5 $-1 $10 forward single #
DXID-attrib $-1 -1 $-1 $-1 $6 @10 ASM ENTITY @1 0 #
face $11 -1 $-1 $12 $13 $5 $-1 $14 forward single #
loop $-1 -1 $-1 $-1 $15 $6 #
plane-surface $-1 -1 $-1 44.1893528816081087 0.6700770851941859618 0 0.7422915194838640707 0.6700770851941858508 0 -6.70077085194185873 7.422915194838640929 0 forward_v I I I I #
DXID-attrib $-1 -1 $-1 $-1 $8 @10 ASM ENTITY @1 1 #
face $16 -1 $-1 $17 $18 $5 $-1 $19 reversed single #
loop $-1 -1 $-1 $-1 $20 $8 #
plane-surface $-1 -1 $-1 9.715061691498455332 36.43918471225417477 0 -0.9863692985640449828 0.1645466707359163894 0 -1.645466707359164005 -9.863692985640449606 -0 forward_v I I I I #
coedge $-1 -1 $-1 $21 $22 $23 $24 reversed $9 $-1 #
DXID-attrib $-1 -1 $-1 $-1 $12 @10 ASM ENTITY @1 2 #
face $25 -1 $-1 $26 $27 $5 $-1 $28 reversed single #
loop $-1 -1 $-1 $-1 $29 $12 #
plane-surface $-1 -1 $-1 10.70143099006249976 36.27463804151825855 0 -0.9863692985640449828 0.1645466707359163894 0 -1.645466707359164005 -9.863692985640449606 -0 forward_v I I I I #
coedge $-1 -1 $-1 $30 $31 $32 $33 reversed $13 $-1 #
coedge $-1 -1 $-1 $34 $15 $35 $36 reversed $9 $-1 #
coedge $-1 -1 $-1 $15 $34 $37 $38 reversed $9 $-1 #
coedge $-1 -1 $-1 $39 $40 $15 $24 forward $41 $-1 #
edge $-1 -1 $-1 $42 -1 $43 0 $23 $44 forward @7 unknown #
DXID-attrib $-1 -1 $-1 $-1 $17 @10 ASM ENTITY @1 3 #
face $45 -1 $-1 $46 $47 $5 $-1 $48 reversed single #
loop $-1 -1 $-1 $-1 $49 $17 #
plane-surface $-1 -1 $-1 43.44706136212424497 0 0 0.7422915194838640707 0.6700770851941858508 0 -6.70077085194185873 7.422915194838640929 0 forward_v I I I I #
coedge $-1 -1 $-1 $50 $51 $52 $53 forward $18 $-1 #
coedge $-1 -1 $-1 $54 $20 $55 $56 reversed $13 $-1 #
coedge $-1 -1 $-1 $20 $54 $57 $58 reversed $13 $-1 #
coedge $-1 -1 $-1 $59 $60 $20 $33 forward $61 $-1 #
edge $-1 -1 $-1 $62 0 $63 1 $32 $64 forward @7 unknown #
coedge $-1 -1 $-1 $22 $21 $65 $66 reversed $9 $-1 #
coedge $-1 -1 $-1 $67 $68 $21 $36 forward $69 $-1 #
edge $70 -1 $-1 $71 -4.88684527431231075 $42 0.1107770338495833451 $21 $72 forward @7 unknown #
coedge $-1 -1 $-1 $73 $74 $22 $38 forward $75 $-1 #
edge $76 -1 $-1 $43 -0.1107770338495833451 $77 4.88684527431231075 $22 $78 forward @7 unknown #
coedge $79 -1 $-1 $80 $23 $74 $81 reversed $41 $-1 #
coedge $-1 -1 $-1 $23 $80 $67 $82 reversed $41 $-1 #
loop $-1 -1 $-1 $-1 $23 $83 #
vertex $-1 -1 $-1 $24 $84 #
vertex $-1 -1 $-1 $24 $85 #
straight-curve $-1 -1 $-1 10.70143099006249443 37.76700365451367247 0 0 0 -10 I I #
DXID-attrib $-1 -1 $-1 $-1 $26 @10 ASM ENTITY @1 4 #
face $86 -1 $-1 $87 $88 $5 $-1 $89 reversed single #
loop $-1 -1 $-1 $-1 $90 $26 #
plane-surface $-1 -1 $-1 8.35018596749534936 22.18018147615950397 5 0.1645466707359163894 0.9863692985640449828 0 0 0 10 forward_v I I I I #
coedge $-1 -1 $-1 $91 $92 $93 $94 forward $27 $-1 #
coedge $-1 -1 $-1 $95 $29 $92 $96 forward $18 $-1 #
coedge $-1 -1 $-1 $29 $95 $90 $97 reversed $18 $-1 #
coedge $-1 -1 $-1 $98 $93 $29 $53 reversed $75 $-1 #
edge $99 -1 $-1 $100 0 $101 1.428922877656212842 $29 $102 forward @7 unknown #
coedge $-1 -1 $-1 $31 $30 $103 $104 forward $13 $-1 #
coedge $-1 -1 $-1 $105 $98 $30 $56 forward $75 $-1 #
edge $106 -1 $-1 $107 0 $62 1.412240822469027046 $30 $108 forward @7 unknown #
coedge $-1 -1 $-1 $109 $110 $31 $58 forward $69 $-1 #
edge $111 -1 $-1 $63 -1.412240822469027046 $112 -0 $31 $113 forward @7 unknown #
coedge $-1 -1 $-1 $114 $32 $110 $115 reversed $61 $-1 #
coedge $116 -1 $-1 $32 $114 $105 $117 reversed $61 $-1 #
loop $-1 -1 $-1 $-1 $32 $118 #
vertex $-1 -1 $-1 $33 $119 #
vertex $-1 -1 $-1 $33 $120 #
straight-curve $-1 -1 $-1 9.687611925077613151 36.27463804151825855 0 0 0 10 I I #
coedge $-1 -1 $-1 $121 $122 $34 $66 forward $88 $-1 #
edge $123 -1 $-1 $77 0 $71 1 $34 $124 forward @7 unknown #
coedge $-1 -1 $-1 $125 $35 $40 $82 forward $69 $-1 #
coedge $-1 -1 $-1 $35 $126 $121 $127 forward $69 $-1 #
loop $-1 -1 $-1 $-1 $126 $128 #
DXID-attrib $-1 -1 $-1 $-1 $36 @10 ASM ENTITY @2 31 #
vertex $-1 -1 $-1 $36 $129 #
straight-curve $-1 -1 $-1 11.4437225095463635 36.94471512671243829 10 -6.70077085194185873 7.422915194838640929 0 I I #
coedge $-1 -1 $-1 $93 $37 $122 $130 reversed $75 $-1 #
coedge $131 -1 $-1 $37 $132 $39 $81 forward $75 $-1 #
loop $-1 -1 $-1 $-1 $105 $87 #
DXID-attrib $-1 -1 $-1 $-1 $38 @10 ASM ENTITY @2 33 #
vertex $-1 -1 $-1 $66 $133 #
straight-curve $-1 -1 $-1 11.4437225095463635 36.94471512671243829 0 6.70077085194185873 -7.422915194838640929 0 I I #
ATTRIB_CUSTOM-attrib $-1 -1 $-1 $-1 $39 @17 sketch_attrib_def 1 1 3 @13 116 0 1 0 1 1 #
coedge $-1 -1 $-1 $40 $39 $134 $135 forward $41 $-1 #
edge $-1 -1 $-1 $136 0 $43 0.8933563256365832927 $39 $137 forward @7 unknown #
edge $-1 -1 $-1 $42 -0.8933563256365832927 $138 -0 $40 $139 forward @7 unknown #
face $140 -1 $-1 $141 $41 $5 $-1 $142 forward single #
point $-1 -1 $-1 10.70143099006249976 37.76700365451367247 10 #
point $-1 -1 $-1 10.70143099006249976 37.76700365451367247 0 #
DXID-attrib $-1 -1 $-1 $-1 $46 @10 ASM ENTITY @1 5 #
face $143 -1 $-1 $128 $75 $5 $-1 $144 reversed single #
loop $-1 -1 $-1 $-1 $145 $46 #
plane-surface $-1 -1 $-1 43.44706136212424497 0 5 -0.6700770851941858508 0.7422915194838640707 0 0 0 10 forward_v I I I I #
coedge $-1 -1 $-1 $146 $147 $148 $97 forward $47 $-1 #
coedge $-1 -1 $-1 $149 $49 $150 $151 forward $27 $-1 #
coedge $-1 -1 $-1 $49 $149 $50 $96 reversed $27 $-1 #
coedge $-1 -1 $-1 $52 $73 $49 $94 reversed $75 $-1 #
edge $152 -1 $-1 $101 0 $153 4.88684527431231075 $49 $154 forward @7 unknown #
coedge $-1 -1 $-1 $51 $50 $155 $156 forward $18 $-1 #
edge $-1 -1 $-1 $101 0 $157 1 $92 $158 forward @7 unknown #
edge $159 -1 $-1 $100 0 $160 1 $161 $162 forward @7 unknown #
coedge $-1 -1 $-1 $55 $52 $147 $163 forward $75 $-1 #
DXID-attrib $-1 -1 $-1 $-1 $53 @10 ASM ENTITY @2 38 #
vertex $-1 -1 $-1 $53 $164 #
vertex $-1 -1 $-1 $53 $165 #
straight-curve $-1 -1 $-1 8.35018596749534936 22.18018147615950397 0 1.645466707359164005 9.863692985640449606 0 F 0 F 1.428922877656212842 #
coedge $-1 -1 $-1 $147 $146 $54 $104 reversed $47 $-1 #
edge $166 -1 $-1 $107 0 $112 1 $54 $167 forward @7 unknown #
coedge $168 -1 $-1 $169 $55 $60 $117 forward $75 $-1 #
DXID-attrib $-1 -1 $-1 $-1 $56 @10 ASM ENTITY @2 35 #
vertex $-1 -1 $-1 $56 $170 #
straight-curve $-1 -1 $-1 7.363816668931304932 22.3447281468954202 0 1.645466707359164005 9.863692985640449606 0 I I #
coedge $-1 -1 $-1 $155 $57 $146 $171 reversed $69 $-1 #
coedge $-1 -1 $-1 $57 $172 $59 $115 forward $69 $-1 #
DXID-attrib $-1 -1 $-1 $-1 $58 @10 ASM ENTITY @2 37 #
vertex $-1 -1 $-1 $104 $173 #
straight-curve $-1 -1 $-1 7.363816668931304932 22.3447281468954202 10 -1.645466707359164005 -9.863692985640449606 -0 I I #
coedge $-1 -1 $-1 $60 $59 $174 $175 forward $61 $-1 #
edge $-1 -1 $-1 $176 -2.03890429151400987 $63 -0.1013819064984887719 $59 $177 forward @7 unknown #
ATTRIB_CUSTOM-attrib $-1 -1 $-1 $-1 $60 @17 sketch_attrib_def 1 1 3 @13 113 0 1 0 1 1 #
edge $-1 -1 $-1 $62 0.1013819064984887719 $178 2.03890429151400987 $60 $179 forward @7 unknown #
face $180 -1 $-1 $83 $61 $5 $-1 $181 forward single #
point $-1 -1 $-1 9.687611925077611374 36.27463804151825855 0 #
point $-1 -1 $-1 9.687611925077611374 36.27463804151825855 10 #
coedge $-1 -1 $-1 $145 $65 $68 $127 reversed $88 $-1 #
coedge $-1 -1 $-1 $65 $145 $73 $130 forward $88 $-1 #
DXID-attrib $-1 -1 $-1 $-1 $66 @10 ASM ENTITY @2 32 #
straight-curve $-1 -1 $-1 44.1893528816081087 0.6700770851941859618 0 0 0 10 I I #
coedge $-1 -1 $-1 $182 $67 $183 $184 forward $69 $-1 #
coedge $-1 -1 $-1 $68 $155 $149 $185 reversed $69 $-1 #
edge $-1 -1 $-1 $186 0 $71 0.09999999999999983902 $68 $187 forward @7 unknown #
face $188 -1 $-1 $189 $69 $5 $-1 $190 forward single #
point $-1 -1 $-1 44.1893528816081087 0.6700770851941859618 10 #
edge $-1 -1 $-1 $153 0 $77 0.09999999999999983902 $73 $191 forward @7 unknown #
ATTRIB_CUSTOM-attrib $-1 -1 $-1 $-1 $74 @17 sketch_attrib_def 1 1 3 @13 116 0 1 0 1 1 #
coedge $192 -1 $-1 $74 $193 $194 $195 forward $75 $-1 #
point $-1 -1 $-1 44.1893528816081087 0.6700770851941859618 0 #
coedge $-1 -1 $-1 $194 $183 $80 $135 reversed $196 $-1 #
edge $-1 -1 $-1 $136 0 $138 1 $134 $197 forward @7 unknown #
vertex $-1 -1 $-1 $195 $198 #
straight-curve $-1 -1 $-1 10.70143099006249976 46.70056691087950185 0 0 -10 0 F 0 F 1.042592886936124508 #
vertex $-1 -1 $-1 $82 $199 #
straight-curve $-1 -1 $-1 10.70143099006249976 46.70056691087950185 10 0 10 0 I I #
DXID-attrib $-1 -1 $-1 $-1 $83 @10 ASM ENTITY @2 16 #
face $200 -1 $-1 $201 $196 $5 $-1 $202 forward single #
plane-surface $-1 -1 $-1 10.70143099006249976 36.27463804151825855 0 1 0 0 0 10 0 forward_v I I I I #
DXID-attrib $-1 -1 $-1 $-1 $87 @10 ASM ENTITY @1 6 #
plane-surface $-1 -1 $-1 6.661338147750939243e-15 41.4876024761988873 0 0 0 1 10 0 0 forward_v I I I I #
coedge $-1 -1 $-1 $122 $121 $91 $151 reversed $88 $-1 #
coedge $-1 -1 $-1 $103 $90 $109 $171 forward $47 $-1 #
coedge $-1 -1 $-1 $90 $103 $98 $163 reversed $47 $-1 #
coedge $-1 -1 $-1 $203 $204 $161 $97 reversed $205 $-1 #
coedge $-1 -1 $-1 $92 $91 $126 $185 forward $27 $-1 #
coedge $-1 -1 $-1 $206 $207 $208 $151 reversed $209 $-1 #
edge $210 -1 $-1 $153 0 $186 1 $208 $211 forward @7 unknown #
DXID-attrib $-1 -1 $-1 $-1 $94 @10 ASM ENTITY @2 42 #
vertex $-1 -1 $-1 $94 $212 #
straight-curve $-1 -1 $-1 10.70143099006249976 36.27463804151825855 0 6.70077085194185873 -7.422915194838640929 0 F 0 F 4.88684527431231075 #
coedge $-1 -1 $-1 $126 $109 $95 $156 reversed $69 $-1 #
edge $213 -1 $-1 $157 -1.428922877656212842 $160 -0 $95 $214 forward @7 unknown #
vertex $-1 -1 $-1 $96 $215 #
straight-curve $-1 -1 $-1 10.70143099006249976 36.27463804151825855 0 0 0 10 I I #
DXID-attrib $-1 -1 $-1 $-1 $97 @10 ASM ENTITY @2 41 #
vertex $-1 -1 $-1 $156 $216 #
coedge $-1 -1 $-1 $217 $218 $51 $97 forward $219 $-1 #
straight-curve $-1 -1 $-1 8.35018596749534936 22.18018147615950397 0 0 0 10 I I #
edge $-1 -1 $-1 $100 0 $107 0.0999999999999999778 $98 $220 forward @7 unknown #
point $-1 -1 $-1 8.35018596749534936 22.18018147615950397 0 #
point $-1 -1 $-1 10.70143099006249976 36.27463804151825855 0 #
DXID-attrib $-1 -1 $-1 $-1 $104 @10 ASM ENTITY @2 36 #
straight-curve $-1 -1 $-1 7.363816668931304932 22.3447281468954202 0 0 0 10 I I #
ATTRIB_CUSTOM-attrib $-1 -1 $-1 $-1 $105 @17 sketch_attrib_def 1 1 3 @13 113 0 1 0 1 1 #
coedge $-1 -1 $-1 $221 $105 $222 $223 reversed $75 $-1 #
point $-1 -1 $-1 7.363816668931304932 22.3447281468954202 0 #
edge $-1 -1 $-1 $160 0 $112 0.0999999999999999778 $146 $224 forward @7 unknown #
coedge $-1 -1 $-1 $110 $225 $226 $227 forward $69 $-1 #
point $-1 -1 $-1 7.363816668931304932 22.3447281468954202 10 #
coedge $-1 -1 $-1 $226 $222 $114 $175 reversed $228 $-1 #
edge $-1 -1 $-1 $176 -1 $178 0 $114 $229 forward @7 unknown #
vertex $-1 -1 $-1 $227 $230 #
straight-curve $-1 -1 $-1 10.70143099006249976 36.27463804151825855 10 10 0 0 I I #
vertex $-1 -1 $-1 $117 $231 #
straight-curve $-1 -1 $-1 10.70143099006249976 36.27463804151825855 0 -10 0 0 F 0 F 2.140286198012498531 #
DXID-attrib $-1 -1 $-1 $-1 $118 @10 ASM ENTITY @2 15 #
plane-surface $-1 -1 $-1 -10.70143099006248555 36.27463804151825855 0 0 -1 0 10 0 0 forward_v I I I I #
coedge $-1 -1 $-1 $232 $125 $233 $234 forward $69 $-1 #
coedge $-1 -1 $-1 $134 $235 $125 $184 reversed $196 $-1 #
edge $-1 -1 $-1 $138 -2.140286198012498531 $236 -0 $183 $237 forward @7 unknown #
edge $238 -1 $-1 $186 -4.88684527431231075 $157 -0 $149 $239 forward @7 unknown #
vertex $-1 -1 $-1 $151 $240 #
straight-curve $-1 -1 $-1 43.44706136212424497 0 10 7.422915194838640929 6.70077085194185873 0 I I #
DXID-attrib $-1 -1 $-1 $-1 $128 @10 ASM ENTITY @1 7 #
face $241 -1 $-1 $242 $228 $5 $-1 $243 forward single #
plane-surface $-1 -1 $-1 6.661338147750939243e-15 41.4876024761988873 10 0 0 1 10 0 0 forward_v I I I I #
straight-curve $-1 -1 $-1 43.44706136212424497 0 0 7.422915194838640929 6.70077085194185873 0 I I #
ATTRIB_CUSTOM-attrib $-1 -1 $-1 $-1 $132 @17 sketch_attrib_def 1 1 3 @13 115 0 1 0 1 1 #
coedge $244 -1 $-1 $132 $245 $246 $247 forward $75 $-1 #
coedge $248 -1 $-1 $235 $134 $132 $195 reversed $196 $-1 #
edge $-1 -1 $-1 $249 0 $136 2.140286198012498531 $194 $250 forward @7 unknown #
loop $-1 -1 $-1 $-1 $194 $141 #
straight-curve $-1 -1 $-1 10.70143099006249976 46.70056691087950185 0 0 0 10 I I #
point $-1 -1 $-1 10.70143099006249976 46.70056691087950185 0 #
point $-1 -1 $-1 10.70143099006249976 46.70056691087950185 10 #
DXID-attrib $-1 -1 $-1 $-1 $141 @10 ASM ENTITY @2 17 #
face $251 -1 $-1 $252 $253 $5 $-1 $254 forward single #
plane-surface $-1 -1 $-1 10.70143099006249976 46.70056691087950185 0 0 1 0 -10 -0 -0 forward_v I I I I #
coedge $255 -1 $-1 $256 $148 $257 $258 forward $205 $-1 #
coedge $-1 -1 $-1 $148 $256 $259 $260 reversed $205 $-1 #
loop $-1 -1 $-1 $-1 $203 $261 #
coedge $262 -1 $-1 $263 $150 $264 $265 reversed $209 $-1 #
coedge $-1 -1 $-1 $150 $263 $266 $267 reversed $209 $-1 #
coedge $-1 -1 $-1 $268 $269 $145 $151 forward $270 $-1 #
loop $-1 -1 $-1 $-1 $206 $252 #
DXID-attrib $-1 -1 $-1 $-1 $151 @10 ASM ENTITY @2 43 #
straight-curve $-1 -1 $-1 43.44706136212424497 0 0 0 0 10 I I #
point $-1 -1 $-1 43.44706136212424497 0 0 #
DXID-attrib $-1 -1 $-1 $-1 $156 @10 ASM ENTITY @2 40 #
straight-curve $-1 -1 $-1 8.35018596749534936 22.18018147615950397 10 -1.645466707359164005 -9.863692985640449606 -0 F -1.428922877656212842 F -0 #
point $-1 -1 $-1 10.70143099006249976 36.27463804151825855 10 #
point $-1 -1 $-1 8.35018596749534936 22.18018147615950397 10 #
coedge $-1 -1 $-1 $271 $161 $272 $273 reversed $219 $-1 #
coedge $274 -1 $-1 $161 $271 $275 $276 forward $219 $-1 #
loop $-1 -1 $-1 $-1 $218 $277 #
straight-curve $-1 -1 $-1 8.35018596749534936 22.18018147615950397 0 -9.863692985640449606 1.645466707359164005 0 I I #
coedge $-1 -1 $-1 $278 $169 $279 $280 reversed $75 $-1 #
coedge $-1 -1 $-1 $174 $281 $169 $223 forward $228 $-1 #
edge $282 -1 $-1 $283 0 $178 1.412240822469027046 $222 $284 forward @7 unknown #
straight-curve $-1 -1 $-1 8.35018596749534936 22.18018147615950397 10 -9.863692985640449606 1.645466707359164005 0 I I #
coedge $-1 -1 $-1 $172 $285 $286 $287 forward $69 $-1 #
coedge $-1 -1 $-1 $281 $174 $172 $227 reversed $228 $-1 #
edge $288 -1 $-1 $289 0 $176 1.412240822469027046 $226 $290 forward @7 unknown #
loop $-1 -1 $-1 $-1 $174 $189 #
straight-curve $-1 -1 $-1 -9.68761192507759894 36.27463804151825855 0 0 0 -10 I I #
point $-1 -1 $-1 -9.68761192507759894 36.27463804151825855 10 #
point $-1 -1 $-1 -9.68761192507759894 36.27463804151825855 0 #
coedge $-1 -1 $-1 $291 $182 $292 $293 forward $69 $-1 #
coedge $-1 -1 $-1 $294 $295 $182 $234 reversed $296 $-1 #
edge $-1 -1 $-1 $236 -1.042592886936124508 $297 -0.149236561299541215 $233 $298 forward @7 unknown #
coedge $-1 -1 $-1 $183 $194 $294 $299 forward $196 $-1 #
vertex $-1 -1 $-1 $184 $300 #
straight-curve $-1 -1 $-1 -10.70143099006248555 46.70056691087950185 10 -10 -0 -0 I I #
DXID-attrib $-1 -1 $-1 $-1 $185 @10 ASM ENTITY @2 44 #
straight-curve $-1 -1 $-1 10.70143099006249976 36.27463804151825855 10 -6.70077085194185873 7.422915194838640929 0 F -4.88684527431231075 F -0 #
point $-1 -1 $-1 43.44706136212424497 0 10 #
DXID-attrib $-1 -1 $-1 $-1 $189 @10 ASM ENTITY @1 8 #
face $301 -1 $-1 $302 $303 $5 $-1 $304 forward single #
plane-surface $-1 -1 $-1 -7.363816668931304932 22.3447281468954202 0 0.9863692985640450939 0.1645466707359154734 0 -1.645466707359154679 9.863692985640451383 0 forward_v I I I I #
ATTRIB_CUSTOM-attrib $-1 -1 $-1 $-1 $193 @17 sketch_attrib_def 1 1 3 @13 114 0 1 0 1 1 #
coedge $-1 -1 $-1 $193 $305 $306 $307 reversed $75 $-1 #
coedge $308 -1 $-1 $295 $294 $193 $247 reversed $296 $-1 #
edge $-1 -1 $-1 $309 0.149236561299541215 $249 1.042592886936124508 $246 $310 forward @7 unknown #
ATTRIB_CUSTOM-attrib $-1 -1 $-1 $-1 $194 @17 sketch_attrib_def 1 1 3 @13 115 0 1 0 1 1 #
vertex $-1 -1 $-1 $247 $311 #
straight-curve $-1 -1 $-1 -10.70143099006248555 46.70056691087950185 0 10 0 0 F 0 F 2.140286198012498531 #
DXID-attrib $-1 -1 $-1 $-1 $201 @10 ASM ENTITY @2 18 #
face $312 -1 $-1 $313 $209 $5 $-1 $314 forward single #
loop $-1 -1 $-1 $-1 $315 $201 #
plane-surface $-1 -1 $-1 -43.44706136212424497 0 0 -1 0 0 -0 -10 -0 forward_v I I I I #
ATTRIB_CUSTOM-attrib $-1 -1 $-1 $-1 $203 @17 sketch_attrib_def 1 1 3 @13 126 0 0 0 1 1 #
coedge $-1 -1 $-1 $204 $203 $316 $317 forward $205 $-1 #
coedge $318 -1 $-1 $275 $319 $203 $258 reversed $320 $-1 #
edge $-1 -1 $-1 $100 0 $321 1.670037193499069872 $203 $322 forward @7 unknown #
coedge $-1 -1 $-1 $323 $272 $204 $260 forward $324 $-1 #
edge $-1 -1 $-1 $160 0 $325 1.670037193499069872 $204 $326 forward @7 unknown #
face $327 -1 $-1 $277 $205 $5 $-1 $328 forward single #
ATTRIB_CUSTOM-attrib $-1 -1 $-1 $-1 $206 @17 sketch_attrib_def 1 1 3 @13 105 0 1 0 1 1 #
coedge $-1 -1 $-1 $207 $206 $329 $330 forward $209 $-1 #
coedge $331 -1 $-1 $332 $333 $206 $265 forward $334 $-1 #
edge $-1 -1 $-1 $335 0 $153 8.689412272424849704 $206 $336 forward @7 unknown #
coedge $-1 -1 $-1 $337 $338 $207 $267 forward $339 $-1 #
edge $-1 -1 $-1 $186 -8.689412272424849704 $340 -0 $207 $341 forward @7 unknown #
coedge $-1 -1 $-1 $342 $208 $338 $343 reversed $270 $-1 #
coedge $344 -1 $-1 $208 $342 $332 $345 reversed $270 $-1 #
loop $-1 -1 $-1 $-1 $269 $313 #
coedge $-1 -1 $-1 $218 $217 $346 $347 reversed $219 $-1 #
coedge $-1 -1 $-1 $259 $348 $217 $273 forward $324 $-1 #
edge $-1 -1 $-1 $349 0 $160 0.730641272155843069 $217 $350 forward @7 unknown #
ATTRIB_CUSTOM-attrib $-1 -1 $-1 $-1 $218 @17 sketch_attrib_def 1 1 3 @13 125 0 0 0 1 1 #
coedge $351 -1 $-1 $352 $257 $218 $276 reversed $320 $-1 #
edge $-1 -1 $-1 $353 0 $100 0.730641272155843069 $218 $354 forward @7 unknown #
face $355 -1 $-1 $356 $219 $5 $-1 $357 forward single #
coedge $-1 -1 $-1 $358 $221 $359 $360 forward $75 $-1 #
coedge $-1 -1 $-1 $361 $316 $221 $280 forward $362 $-1 #
edge $-1 -1 $-1 $321 0 $283 0.0999999999999999778 $221 $363 forward @7 unknown #
coedge $-1 -1 $-1 $222 $226 $361 $364 reversed $228 $-1 #
DXID-attrib $-1 -1 $-1 $-1 $223 @10 ASM ENTITY @2 50 #
vertex $-1 -1 $-1 $223 $365 #
straight-curve $-1 -1 $-1 -7.363816668931304932 22.3447281468954202 0 -1.645466707359154457 9.863692985640449606 0 I I #
coedge $-1 -1 $-1 $225 $366 $367 $368 reversed $69 $-1 #
coedge $-1 -1 $-1 $316 $361 $225 $287 reversed $362 $-1 #
edge $-1 -1 $-1 $325 0 $289 0.0999999999999999778 $225 $369 forward @7 unknown #
DXID-attrib $-1 -1 $-1 $-1 $227 @10 ASM ENTITY @2 67 #
vertex $-1 -1 $-1 $287 $370 #
straight-curve $-1 -1 $-1 -7.363816668931304932 22.3447281468954202 10 -1.645466707359154457 9.863692985640449606 0 I I #
coedge $-1 -1 $-1 $366 $232 $371 $372 reversed $69 $-1 #
coedge $-1 -1 $-1 $373 $374 $232 $293 reversed $303 $-1 #
edge $375 -1 $-1 $297 -0.1107770338495833451 $376 4.886845274312311638 $292 $377 forward @7 unknown #
coedge $-1 -1 $-1 $246 $233 $235 $299 reversed $296 $-1 #
coedge $-1 -1 $-1 $233 $246 $373 $378 forward $296 $-1 #
loop $-1 -1 $-1 $-1 $295 $379 #
vertex $-1 -1 $-1 $234 $380 #
straight-curve $-1 -1 $-1 -10.70143099006248555 36.27463804151825855 10 -0 -10 -0 I I #
edge $-1 -1 $-1 $249 0 $236 1 $235 $381 forward @7 unknown #
point $-1 -1 $-1 -10.70143099006248555 46.70056691087950185 10 #
DXID-attrib $-1 -1 $-1 $-1 $242 @10 ASM ENTITY @1 9 #
face $382 -1 $-1 $383 $384 $5 $-1 $385 reversed single #
loop $-1 -1 $-1 $-1 $373 $242 #
plane-surface $-1 -1 $-1 -11.44372250954635106 36.94471512671243829 0 -0.7422915194838639596 0.6700770851941860728 0 -6.700770851941860506 -7.422915194838639152 0 forward_v I I I I #
coedge $-1 -1 $-1 $245 $358 $386 $387 forward $75 $-1 #
coedge $-1 -1 $-1 $374 $373 $245 $307 forward $303 $-1 #
edge $388 -1 $-1 $309 -0.1107770338495833451 $389 4.886845274312311638 $306 $390 forward @7 unknown #
ATTRIB_CUSTOM-attrib $-1 -1 $-1 $-1 $246 @17 sketch_attrib_def 1 1 3 @13 114 0 1 0 1 1 #
vertex $-1 -1 $-1 $307 $391 #
straight-curve $-1 -1 $-1 -10.70143099006248555 36.27463804151825855 0 0 10 0 F 0 F 1.042592886936124508 #
point $-1 -1 $-1 -10.70143099006248555 46.70056691087950185 0 #
DXID-attrib $-1 -1 $-1 $-1 $252 @10 ASM ENTITY @2 19 #
face $392 -1 $-1 $393 $270 $5 $-1 $394 forward single #
plane-surface $-1 -1 $-1 43.44706136212424497 0 0 0 1 0 -10 -0 -0 forward_v I I I I #
coedge $395 -1 $-1 $396 $397 $333 $398 reversed $253 $-1 #
coedge $-1 -1 $-1 $279 $286 $399 $317 reversed $362 $-1 #
edge $400 -1 $-1 $321 0 $325 1 $401 $402 forward @7 unknown #
ATTRIB_CUSTOM-attrib $-1 -1 $-1 $-1 $257 @17 sketch_attrib_def 1 1 3 @13 126 0 0 0 1 1 #
coedge $403 -1 $-1 $257 $352 $404 $405 reversed $320 $-1 #
loop $-1 -1 $-1 $-1 $319 $406 #
vertex $-1 -1 $-1 $280 $407 #
straight-curve $-1 -1 $-1 8.35018596749534936 22.18018147615950397 0 -10 0 0 F 0 F 1.670037193499069872 #
coedge $-1 -1 $-1 $348 $259 $408 $409 forward $324 $-1 #
loop $-1 -1 $-1 $-1 $323 $410 #
vertex $-1 -1 $-1 $368 $411 #
straight-curve $-1 -1 $-1 8.35018596749534936 22.18018147615950397 10 -10 0 0 I I #
DXID-attrib $-1 -1 $-1 $-1 $261 @10 ASM ENTITY @2 24 #
plane-surface $-1 -1 $-1 8.35018596749534936 22.18018147615950397 0 0 1 0 -10 0 0 forward_v I I I I #
coedge $-1 -1 $-1 $412 $413 $414 $330 reversed $415 $-1 #
edge $416 -1 $-1 $335 0 $340 1 $263 $417 forward @7 unknown #
ATTRIB_CUSTOM-attrib $-1 -1 $-1 $-1 $264 @17 sketch_attrib_def 1 1 3 @13 105 0 1 0 1 1 #
coedge $418 -1 $-1 $419 $264 $269 $345 forward $334 $-1 #
coedge $420 -1 $-1 $264 $419 $315 $398 forward $334 $-1 #
loop $-1 -1 $-1 $-1 $419 $421 #
vertex $-1 -1 $-1 $422 $423 #
straight-curve $-1 -1 $-1 -43.44706136212424497 0 0 10 0 0 F 0 F 8.689412272424849704 #
coedge $-1 -1 $-1 $424 $266 $425 $426 forward $339 $-1 #
coedge $-1 -1 $-1 $266 $424 $268 $343 forward $339 $-1 #
loop $-1 -1 $-1 $-1 $424 $427 #
vertex $-1 -1 $-1 $372 $428 #
straight-curve $-1 -1 $-1 -43.44706136212424497 0 10 -10 -0 -0 I I #
coedge $-1 -1 $-1 $269 $268 $429 $430 reversed $270 $-1 #
edge $-1 -1 $-1 $431 -1.148150570530607872 $186 -0 $268 $432 forward @7 unknown #
ATTRIB_CUSTOM-attrib $-1 -1 $-1 $-1 $269 @17 sketch_attrib_def 1 1 3 @13 106 0 1 0 1 1 #
edge $-1 -1 $-1 $153 0 $433 1.148150570530607872 $269 $434 forward @7 unknown #
coedge $-1 -1 $-1 $435 $436 $271 $347 forward $437 $-1 #
edge $-1 -1 $-1 $353 0 $349 1 $346 $438 forward @7 unknown #
coedge $-1 -1 $-1 $272 $323 $435 $439 forward $324 $-1 #
vertex $-1 -1 $-1 $273 $440 #
straight-curve $-1 -1 $-1 8.35018596749534936 14.87376875460107328 10 0 10 0 I I #
ATTRIB_CUSTOM-attrib $-1 -1 $-1 $-1 $275 @17 sketch_attrib_def 1 1 3 @13 125 0 0 0 1 1 #
coedge $441 -1 $-1 $319 $275 $436 $442 reversed $320 $-1 #
vertex $-1 -1 $-1 $276 $443 #
straight-curve $-1 -1 $-1 8.35018596749534936 14.87376875460107328 0 0 10 0 F 0 F 0.730641272155843069 #
DXID-attrib $-1 -1 $-1 $-1 $277 @10 ASM ENTITY @2 25 #
face $444 -1 $-1 $445 $437 $5 $-1 $446 forward single #
plane-surface $-1 -1 $-1 8.35018596749534936 14.87376875460107328 0 1 0 0 0 10 0 forward_v I I I I #
coedge $-1 -1 $-1 $305 $278 $412 $422 forward $75 $-1 #
coedge $-1 -1 $-1 $399 $447 $278 $360 reversed $384 $-1 #
edge $448 -1 $-1 $321 0 $449 1.428922877656212842 $359 $450 forward @7 unknown #
coedge $-1 -1 $-1 $286 $279 $281 $364 forward $362 $-1 #
loop $-1 -1 $-1 $-1 $316 $451 #
straight-curve $-1 -1 $-1 -8.35018596749534936 22.18018147615950397 0 9.863692985640451383 1.645466707359154679 0 I I #
edge $452 -1 $-1 $283 0 $289 1 $281 $453 forward @7 unknown #
point $-1 -1 $-1 -7.363816668931304932 22.3447281468954202 0 #
coedge $-1 -1 $-1 $285 $291 $413 $454 reversed $69 $-1 #
coedge $-1 -1 $-1 $447 $399 $285 $368 forward $384 $-1 #
edge $455 -1 $-1 $325 0 $456 1.428922877656212842 $367 $457 forward @7 unknown #
straight-curve $-1 -1 $-1 -8.35018596749534936 22.18018147615950397 10 9.863692985640451383 1.645466707359154679 0 I I #
point $-1 -1 $-1 -7.363816668931304932 22.3447281468954202 10 #
coedge $-1 -1 $-1 $458 $414 $291 $372 forward $459 $-1 #
edge $-1 -1 $-1 $340 0 $376 0.09999999999999986677 $371 $460 forward @7 unknown #
coedge $-1 -1 $-1 $306 $292 $295 $378 reversed $303 $-1 #
coedge $-1 -1 $-1 $292 $306 $458 $461 forward $303 $-1 #
DXID-attrib $-1 -1 $-1 $-1 $293 @10 ASM ENTITY @2 62 #
vertex $-1 -1 $-1 $293 $462 #
straight-curve $-1 -1 $-1 -11.44372250954635106 36.94471512671243829 10 -6.700770851941860506 -7.422915194838639152 0 I I #
edge $-1 -1 $-1 $309 0 $297 1 $295 $463 forward @7 unknown #
face $464 -1 $-1 $118 $296 $5 $-1 $465 forward single #
point $-1 -1 $-1 -10.70143099006248555 37.76700365451367247 10 #
straight-curve $-1 -1 $-1 -10.70143099006248555 46.70056691087950185 0 0 0 10 I I #
DXID-attrib $-1 -1 $-1 $-1 $302 @10 ASM ENTITY @2 10 #
face $466 -1 $-1 $451 $415 $5 $-1 $467 reversed single #
loop $-1 -1 $-1 $-1 $359 $302 #
plane-surface $-1 -1 $-1 -8.35018596749534936 22.18018147615950397 0 0.9863692985640450939 0.1645466707359154734 0 -1.645466707359154679 9.863692985640451383 0 forward_v I I I I #
coedge $-1 -1 $-1 $414 $458 $305 $387 reversed $459 $-1 #
edge $-1 -1 $-1 $335 0 $389 0.09999999999999986677 $305 $468 forward @7 unknown #
DXID-attrib $-1 -1 $-1 $-1 $307 @10 ASM ENTITY @2 55 #
vertex $-1 -1 $-1 $387 $469 #
straight-curve $-1 -1 $-1 -11.44372250954635106 36.94471512671243829 0 -6.700770851941860506 -7.422915194838639152 0 I I #
point $-1 -1 $-1 -10.70143099006248555 37.76700365451367247 0 #
DXID-attrib $-1 -1 $-1 $-1 $313 @10 ASM ENTITY @2 20 #
face $470 -1 $-1 $427 $471 $5 $-1 $472 forward single #
plane-surface $-1 -1 $-1 43.44706136212424497 -11.48150570530607872 0 1 0 0 0 10 0 forward_v I I I I #
ATTRIB_CUSTOM-attrib $-1 -1 $-1 $-1 $315 @17 sketch_attrib_def 1 1 3 @13 108 0 1 0 1 1 #
coedge $-1 -1 $-1 $425 $315 $473 $474 forward $253 $-1 #
coedge $-1 -1 $-1 $315 $425 $263 $330 reversed $253 $-1 #
edge $-1 -1 $-1 $475 0 $335 1.148150570530607872 $315 $476 forward @7 unknown #
coedge $-1 -1 $-1 $367 $359 $401 $317 forward $384 $-1 #
DXID-attrib $-1 -1 $-1 $-1 $317 @10 ASM ENTITY @2 73 #
coedge $-1 -1 $-1 $404 $408 $256 $317 reversed $477 $-1 #
straight-curve $-1 -1 $-1 -8.35018596749534936 22.18018147615950397 0 0 0 10 I I #
ATTRIB_CUSTOM-attrib $-1 -1 $-1 $-1 $319 @17 sketch_attrib_def 1 1 3 @13 127 0 0 0 1 1 #
coedge $478 -1 $-1 $479 $401 $319 $405 forward $477 $-1 #
edge $-1 -1 $-1 $321 0 $480 0.730641272155843069 $404 $481 forward @7 unknown #
face $482 -1 $-1 $-1 $320 $5 $-1 $483 reversed single #
point $-1 -1 $-1 -8.35018596749534936 22.18018147615950397 0 #
coedge $-1 -1 $-1 $401 $479 $323 $409 reversed $477 $-1 #
edge $-1 -1 $-1 $325 0 $484 0.730641272155843069 $408 $485 forward @7 unknown #
face $486 -1 $-1 $406 $324 $5 $-1 $487 forward single #
point $-1 -1 $-1 -8.35018596749534936 22.18018147615950397 10 #
coedge $-1 -1 $-1 $488 $329 $358 $422 reversed $415 $-1 #
coedge $-1 -1 $-1 $329 $488 $366 $454 forward $415 $-1 #
coedge $-1 -1 $-1 $371 $386 $397 $330 forward $459 $-1 #
loop $-1 -1 $-1 $-1 $412 $383 #
DXID-attrib $-1 -1 $-1 $-1 $330 @10 ASM ENTITY @2 75 #
straight-curve $-1 -1 $-1 -43.44706136212424497 0 0 0 0 10 I I #
ATTRIB_CUSTOM-attrib $-1 -1 $-1 $-1 $332 @17 sketch_attrib_def 1 1 3 @13 106 0 1 0 1 1 #
coedge $489 -1 $-1 $333 $332 $490 $491 forward $334 $-1 #
ATTRIB_CUSTOM-attrib $-1 -1 $-1 $-1 $333 @17 sketch_attrib_def 1 1 3 @13 108 0 1 0 1 1 #
face $492 -1 $-1 $261 $334 $5 $-1 $493 reversed single #
edge $494 -1 $-1 $449 0 $335 4.886845274312311638 $412 $495 forward @7 unknown #
point $-1 -1 $-1 -43.44706136212424497 0 0 #
coedge $-1 -1 $-1 $338 $337 $496 $497 forward $339 $-1 #
coedge $-1 -1 $-1 $397 $396 $337 $426 reversed $253 $-1 #
edge $-1 -1 $-1 $340 -1.148150570530607872 $498 -0 $425 $499 forward @7 unknown #
face $500 -1 $-1 $421 $339 $5 $-1 $501 forward single #
point $-1 -1 $-1 -43.44706136212424497 0 10 #
coedge $-1 -1 $-1 $496 $490 $342 $430 forward $471 $-1 #
edge $-1 -1 $-1 $433 0 $431 1 $429 $502 forward @7 unknown #
vertex $-1 -1 $-1 $343 $503 #
straight-curve $-1 -1 $-1 43.44706136212424497 0 10 0 10 0 I I #
vertex $-1 -1 $-1 $345 $504 #
straight-curve $-1 -1 $-1 43.44706136212424497 0 0 0 -10 0 F 0 F 1.148150570530607872 #
coedge $-1 -1 $-1 $505 $346 $348 $439 reversed $437 $-1 #
coedge $506 -1 $-1 $346 $505 $352 $442 forward $437 $-1 #
loop $-1 -1 $-1 $-1 $436 $356 #
straight-curve $-1 -1 $-1 8.35018596749534936 14.87376875460107328 0 0 0 10 I I #
edge $-1 -1 $-1 $484 0 $349 1.670037193499069872 $435 $507 forward @7 unknown #
point $-1 -1 $-1 8.35018596749534936 14.87376875460107328 10 #
ATTRIB_CUSTOM-attrib $-1 -1 $-1 $-1 $352 @17 sketch_attrib_def 1 1 3 @13 124 0 0 0 1 1 #
edge $-1 -1 $-1 $480 0 $353 1.670037193499069872 $436 $508 forward @7 unknown #
point $-1 -1 $-1 8.35018596749534936 14.87376875460107328 0 #
DXID-attrib $-1 -1 $-1 $-1 $356 @10 ASM ENTITY @2 26 #
face $509 -1 $-1 $410 $477 $5 $-1 $510 forward single #
plane-surface $-1 -1 $-1 -8.35018596749534936 14.87376875460107328 0 0 -1 0 10 0 0 forward_v I I I I #
coedge $-1 -1 $-1 $359 $367 $488 $511 reversed $384 $-1 #
DXID-attrib $-1 -1 $-1 $-1 $360 @10 ASM ENTITY @2 52 #
vertex $-1 -1 $-1 $360 $512 #
straight-curve $-1 -1 $-1 -8.35018596749534936 22.18018147615950397 0 -1.645466707359154457 9.863692985640449606 0 F 0 F 1.428922877656212842 #
face $513 -1 $-1 $514 $362 $5 $-1 $515 reversed single #
DXID-attrib $-1 -1 $-1 $-1 $364 @10 ASM ENTITY @2 70 #
straight-curve $-1 -1 $-1 -7.363816668931304932 22.3447281468954202 0 0 0 10 I I #
edge $516 -1 $-1 $456 0 $340 4.886845274312311638 $413 $517 forward @7 unknown #
DXID-attrib $-1 -1 $-1 $-1 $368 @10 ASM ENTITY @2 65 #
vertex $-1 -1 $-1 $454 $518 #
straight-curve $-1 -1 $-1 -8.35018596749534936 22.18018147615950397 10 -1.645466707359154457 9.863692985640449606 0 F 0 F 1.428922877656212842 #
coedge $-1 -1 $-1 $386 $371 $374 $461 reversed $459 $-1 #
loop $-1 -1 $-1 $-1 $414 $514 #
straight-curve $-1 -1 $-1 -43.44706136212424497 0 10 -7.422915194838639152 6.700770851941860506 0 I I #
edge $519 -1 $-1 $389 0 $376 1 $374 $520 forward @7 unknown #
point $-1 -1 $-1 -44.1893528816081087 0.6700770851941860728 10 #
straight-curve $-1 -1 $-1 -10.70143099006248555 37.76700365451367247 0 0 0 10 I I #
DXID-attrib $-1 -1 $-1 $-1 $379 @10 ASM ENTITY @2 14 #
plane-surface $-1 -1 $-1 -10.70143099006248555 46.70056691087950185 0 -1 0 0 -0 -10 -0 forward_v I I I I #
DXID-attrib $-1 -1 $-1 $-1 $383 @10 ASM ENTITY @2 11 #
plane-surface $-1 -1 $-1 -10.70143099006248555 36.27463804151825855 0 -0.7422915194838639596 0.6700770851941860728 0 -6.700770851941860506 -7.422915194838639152 0 forward_v I I I I #
straight-curve $-1 -1 $-1 -43.44706136212424497 0 0 -7.422915194838639152 6.700770851941860506 0 I I #
point $-1 -1 $-1 -44.1893528816081087 0.6700770851941860728 0 #
DXID-attrib $-1 -1 $-1 $-1 $393 @10 ASM ENTITY @2 21 #
loop $-1 -1 $-1 $-1 $490 $393 #
plane-surface $-1 -1 $-1 -43.44706136212424497 -11.48150570530607872 0 0 -1 0 10 0 0 forward_v I I I I #
coedge $-1 -1 $-1 $490 $496 $396 $474 reversed $471 $-1 #
edge $-1 -1 $-1 $475 0 $498 1 $473 $521 forward @7 unknown #
vertex $-1 -1 $-1 $398 $522 #
straight-curve $-1 -1 $-1 -43.44706136212424497 -11.48150570530607872 0 0 10 0 F 0 F 1.148150570530607872 #
loop $-1 -1 $-1 $-1 $404 $445 #
ATTRIB_CUSTOM-attrib $-1 -1 $-1 $-1 $404 @17 sketch_attrib_def 1 1 3 @13 127 0 0 0 1 1 #
coedge $-1 -1 $-1 $408 $404 $505 $523 forward $477 $-1 #
vertex $-1 -1 $-1 $442 $524 #
straight-curve $-1 -1 $-1 -8.35018596749534936 22.18018147615950397 0 0 -10 0 F 0 F 0.730641272155843069 #
DXID-attrib $-1 -1 $-1 $-1 $406 @10 ASM ENTITY @2 29 #
plane-surface $-1 -1 $-1 0 18.52697511538028863 0 0 0 1 10 0 0 forward_v I I I I #
vertex $-1 -1 $-1 $439 $525 #
straight-curve $-1 -1 $-1 -8.35018596749534936 22.18018147615950397 10 0 -10 0 I I #
DXID-attrib $-1 -1 $-1 $-1 $410 @10 ASM ENTITY @2 28 #
plane-surface $-1 -1 $-1 0 18.52697511538028863 10 0 0 1 10 0 0 forward_v I I I I #
coedge $-1 -1 $-1 $413 $412 $447 $511 forward $415 $-1 #
ATTRIB_CUSTOM-attrib $-1 -1 $-1 $-1 $419 @17 sketch_attrib_def 1 1 3 @13 107 0 1 0 1 1 #
coedge $526 -1 $-1 $429 $473 $419 $491 reversed $471 $-1 #
edge $-1 -1 $-1 $433 0 $475 8.689412272424849704 $490 $527 forward @7 unknown #
DXID-attrib $-1 -1 $-1 $-1 $421 @10 ASM ENTITY @2 23 #
plane-surface $-1 -1 $-1 0 -5.740752852653039362 0 0 0 1 10 0 0 forward_v I I I I #
DXID-attrib $-1 -1 $-1 $-1 $422 @10 ASM ENTITY @2 53 #
straight-curve $-1 -1 $-1 -10.70143099006248555 36.27463804151825855 0 -6.700770851941860506 -7.422915194838639152 0 F 0 F 4.886845274312311638 #
coedge $-1 -1 $-1 $473 $429 $424 $497 reversed $471 $-1 #
edge $-1 -1 $-1 $498 -8.689412272424849704 $431 -0 $496 $528 forward @7 unknown #
vertex $-1 -1 $-1 $474 $529 #
straight-curve $-1 -1 $-1 -43.44706136212424497 -11.48150570530607872 10 -0 -10 -0 I I #
DXID-attrib $-1 -1 $-1 $-1 $427 @10 ASM ENTITY @2 22 #
plane-surface $-1 -1 $-1 0 -5.740752852653039362 10 0 0 1 10 0 0 forward_v I I I I #
straight-curve $-1 -1 $-1 43.44706136212424497 -11.48150570530607872 0 0 0 10 I I #
point $-1 -1 $-1 43.44706136212424497 -11.48150570530607872 10 #
point $-1 -1 $-1 43.44706136212424497 -11.48150570530607872 0 #
coedge $-1 -1 $-1 $436 $435 $479 $523 reversed $437 $-1 #
ATTRIB_CUSTOM-attrib $-1 -1 $-1 $-1 $436 @17 sketch_attrib_def 1 1 3 @13 124 0 0 0 1 1 #
straight-curve $-1 -1 $-1 -8.35018596749534936 14.87376875460107328 10 10 0 0 I I #
straight-curve $-1 -1 $-1 -8.35018596749534936 14.87376875460107328 0 10 0 0 F 0 F 1.670037193499069872 #
DXID-attrib $-1 -1 $-1 $-1 $445 @10 ASM ENTITY @2 27 #
plane-surface $-1 -1 $-1 -8.35018596749534936 22.18018147615950397 0 -1 0 0 0 -10 0 forward_v I I I I #
edge $-1 -1 $-1 $449 0 $456 1 $488 $530 forward @7 unknown #
point $-1 -1 $-1 -10.70143099006248555 36.27463804151825855 0 #
DXID-attrib $-1 -1 $-1 $-1 $451 @10 ASM ENTITY @2 12 #
face $531 -1 $-1 $379 $459 $5 $-1 $532 reversed single #
plane-surface $-1 -1 $-1 -8.35018596749534936 22.18018147615950397 5 -0.1645466707359154734 0.9863692985640450939 0 0 0 10 forward_v I I I I #
DXID-attrib $-1 -1 $-1 $-1 $454 @10 ASM ENTITY @2 64 #
straight-curve $-1 -1 $-1 -10.70143099006248555 36.27463804151825855 10 -6.700770851941860506 -7.422915194838639152 0 F 0 F 4.886845274312311638 #
point $-1 -1 $-1 -10.70143099006248555 36.27463804151825855 10 #
DXID-attrib $-1 -1 $-1 $-1 $461 @10 ASM ENTITY @2 72 #
straight-curve $-1 -1 $-1 -44.1893528816081087 0.6700770851941860728 0 0 0 10 I I #
straight-curve $-1 -1 $-1 -43.44706136212424497 -11.48150570530607872 0 0 0 10 I I #
point $-1 -1 $-1 -43.44706136212424497 -11.48150570530607872 0 #
edge $-1 -1 $-1 $480 0 $484 1 $479 $533 forward @7 unknown #
point $-1 -1 $-1 -8.35018596749534936 14.87376875460107328 0 #
point $-1 -1 $-1 -8.35018596749534936 14.87376875460107328 10 #
ATTRIB_CUSTOM-attrib $-1 -1 $-1 $-1 $490 @17 sketch_attrib_def 1 1 3 @13 107 0 1 0 1 1 #
straight-curve $-1 -1 $-1 43.44706136212424497 -11.48150570530607872 0 -10 0 0 F 0 F 8.689412272424849704 #
straight-curve $-1 -1 $-1 43.44706136212424497 -11.48150570530607872 10 10 0 0 I I #
point $-1 -1 $-1 -43.44706136212424497 -11.48150570530607872 10 #
straight-curve $-1 -1 $-1 -10.70143099006248555 36.27463804151825855 0 0 0 10 I I #
DXID-attrib $-1 -1 $-1 $-1 $514 @10 ASM ENTITY @2 13 #
plane-surface $-1 -1 $-1 -43.44706136212424497 0 5 0.6700770851941860728 0.7422915194838639596 0 0 0 -10 forward_v I I I I #
straight-curve $-1 -1 $-1 -8.35018596749534936 14.87376875460107328 0 0 0 10 I I #
End-of-ACIS-data 