700 0 2 0           
30 Autodesk Translation Framework 21 ASM 229.10.0.65535 NT 24 Sat May  4 12:29:06 2024 
1 9.999999999999999547e-07 1.000000000000000036e-10 
body $2 -1 $-1 $3 $-1 $4 #
body $5 -1 $-1 $6 $-1 $7 #
rgb_color-st-attrib $-1 -1 $8 $-1 $0 0.627450980392156854 0.627450980392156854 0.627450980392156854 #
lump $-1 -1 $-1 $-1 $9 $0 #
transform $-1 -1 1 0 0 0 1 0 0 0 1 0 0 0 1 no_rotate no_reflect no_shear #
rgb_color-st-attrib $-1 -1 $10 $-1 $1 0.627450980392156854 0.627450980392156854 0.627450980392156854 #
lump $-1 -1 $-1 $-1 $11 $1 #
transform $-1 -1 1 0 0 0 1 0 0 0 1 0 0 0 1 no_rotate no_reflect no_shear #
ATTRIB_CUSTOM-attrib $-1 -1 $-1 $2 $0 @20 Timestamp_attrib_def 1 1704618384622930 #
shell $-1 -1 $-1 $-1 $-1 $12 $-1 $3 #
ATTRIB_CUSTOM-attrib $-1 -1 $-1 $5 $1 @20 Timestamp_attrib_def 1 1704618384622930 #
shell $-1 -1 $-1 $-1 $-1 $13 $-1 $6 #
face $14 -1 $-1 $15 $16 $9 $-1 $17 forward single #
face $18 -1 $-1 $19 $20 $11 $-1 $21 forward single #
DXID-attrib $-1 -1 $-1 $-1 $12 @10 ASM ENTITY @1 0 #
face $22 -1 $-1 $23 $24 $9 $-1 $25 reversed single #
loop $-1 -1 $-1 $-1 $26 $12 #
spline-surface $-1 -1 $-1 forward { offsur 
	spline forward { rotsur 
	straight 21.45450019790139962 -12.83372203447810378 0 -3.146685037679473051 7.860118192500124223 5.321364042571483211 F 0 F 4.698043546729243403 
	0 0 0 0 0 -1 
	full nurbs 1 2 v open open none none 2 3 
	0 1 4.698043546729243403 1 
	0 2 1.278628210011045763 2 2.557256420022091525 2 
	21.45450019790139962 -12.83372203447810378 0 1 
	6.671236863041885456 24.09345551632623028 24.99999999999999645 1 
	11.91290701900408422 -28.78467626233097931 0 0.8025051825423836771 
	24.5841969686947408 19.1335360185998411 24.99999999999999645 0.8025051825423836771 
	-6.110328862789289772 -24.24177966215690461 0 1 
	24.99392511816291318 0.5510963506183874649 24.99999999999999645 1 
	-24.13356474458266376 -19.6988830619828299 0 0.8025051825423836771 
	25.403653267631082 -18.03134331736306706 24.99999999999999645 0.8025051825423836771 
	-24.97440568413201589 -1.130955668624813448 0 1 
	7.726720451762723485 -23.77599190486721881 24.99999999999999645 1 
	9.999999999999999124e-06 
	
	0 
	0 
	0 
	0 
	0 
	0 
	} F 0 F 4.698043546729243403 F 0 F 2.557256420022091525 
	0.1000000000000000194 
	forward forward full nubs 3 3 open open none none 2 4 
	0 3 4.698043546729243403 3 
	0 3 0.6550271427170002436 3 1.617759062071062903 3 2.557256420022091525 3 
	21.50770108845055972 -12.86554591454972751 0.07846595377590750986 
	16.59819030889238078 -0.5441863505661848066 8.404418590285837709 
	11.63722584730988885 11.84782827749685552 16.59558140971416051 
	6.687779580835560012 24.15320024484713457 24.92153404622408885 
	18.6986071618166001 -17.56158857800942386 0.07846595377590750986 
	16.47937136545339598 -4.168274741335110889 8.404418590285837709 
	14.22410888198003498 9.306928678858248816 16.59558140971416051 
	11.96144682878681564 22.69297452819519378 24.92153404622408885 
	14.30727756861137223 -21.29199642471133558 0.07846595377590749598 
	15.13333023574544534 -7.741221537693539823 8.404418590285837709 
	15.94254227949716096 5.897418128827471406 16.59558140971416051 
	16.72464198722115469 19.45080084661012876 24.92153404622408885 
	9.218839018283368603 -23.30485968514938477 0.07846595377590749598 
	12.83137813215492251 -10.54285518936915267 8.404418590285837709 
	16.4461545671063476 2.306525583902867549 16.59558140971416051 
	20.01728424973098086 15.0801793442583616 24.92153404622408885 
	1.740061586629708668 -26.26328321257874165 0.07846595377590749598 
	9.44806372817715534 -14.66058095507824 8.404418590285837709 
	17.18634316791636607 -2.971220400225091041 16.59558140971416051 
	24.85667425116476181 8.656419848925244409 24.92153404622408885 
	-7.160433336194783394 -25.32816720308232306 0.07846595377590750986 
	3.989668506277714854 -16.97884234458036445 8.404418590285837709 
	15.19733364101048245 -8.558013341652987549 16.59558140971416051 
	26.32029785360090912 -0.1725697746292453871 24.92153404622408885 
	-13.86105028317042454 -20.88000868862237525 0.07846595377590750986 
	-1.322796279198492631 -16.55434294431796616 8.404418590285837709 
	11.28845040586887549 -12.18059718357808308 16.59558140971416051 
	23.81260923065928381 -7.814289437782871772 24.92153404622408885 
	-20.39995461548883782 -16.53920198213405257 0.07846595377590750986 
	-6.507050098799154192 -16.14008840784649124 8.404418590285837709 
	7.473904115123092495 -15.71575362746975735 16.59558140971416051 
	21.36544113697206981 -15.27158392382442997 24.92153404622408885 
	-24.68128003622548761 -8.974283608915460064 0.07846595377590750986 
	-11.4190876949733493 -13.13196828414883655 8.404418590285837709 
	1.934564107185066328 -17.29455453362630024 16.59558140971416051 
	15.21017112826875106 -21.40920467389227611 24.92153404622408885 
	-25.03633491161697222 -1.133760108168380576 0.07846595377590750986 
	-14.14439072679646614 -8.702429044931401236 8.404418590285837709 
	-3.170553561131053133 -16.30164563565135083 16.59558140971416051 
	7.745880460398040235 -23.83494941640842768 24.92153404622408885 
	0.07979209942857208582 
	
	0 
	0 
	0 
	0 
	0 
	0 
	} I I I I #
DXID-attrib $-1 -1 $-1 $-1 $13 @10 ASM ENTITY @1 0 #
face $27 -1 $-1 $28 $29 $11 $-1 $30 reversed single #
loop $-1 -1 $-1 $-1 $31 $13 #
spline-surface $-1 -1 $-1 forward { offsur 
	spline forward { rotsur 
	straight -21.45450019790139962 12.83372203447810556 0 3.146685037679471719 -7.860118192500124223 5.321364042571483211 F 0 F 4.698043546729243403 
	0 0 0 0 0 -1 
	full nurbs 1 2 v open open none none 2 3 
	0 1 4.698043546729243403 1 
	0 2 1.278628210011045763 2 2.557256420022091525 2 
	-21.45450019790139962 12.83372203447810556 0 1 
	-6.671236863041888121 -24.09345551632623028 24.99999999999999645 1 
	-11.91290701900408067 28.78467626233097931 0 0.8025051825423836771 
	-24.58419696869474791 -19.13353601859983755 24.99999999999999645 0.8025051825423836771 
	6.110328862789292437 24.24177966215690461 0 1 
	-24.99392511816291318 -0.5510963506183843563 24.99999999999999645 1 
	24.13356474458266732 19.69888306198282635 0 0.8025051825423836771 
	-25.403653267631082 18.03134331736306706 24.99999999999999645 0.8025051825423836771 
	24.97440568413201589 1.13095566862481034 0 1 
	-7.726720451762719932 23.77599190486721881 24.99999999999999645 1 
	9.999999999999999124e-06 
	
	0 
	0 
	0 
	0 
	0 
	0 
	} F 0 F 4.698043546729243403 F 0 F 2.557256420022091525 
	0.1000000000000000194 
	forward forward full nubs 3 3 open open none none 2 4 
	0 3 4.698043546729243403 3 
	0 3 0.6550271427170002436 3 1.617759062071062903 3 2.557256420022091525 3 
	-21.50770108845055972 12.86554591454972929 0.07846595377590750986 
	-16.59819030889238078 0.5441863505661870271 8.404418590285837709 
	-11.63722584730989595 -11.84782827749685019 16.59558140971416051 
	-6.687779580835567117 -24.15320024484712746 24.92153404622408885 
	-18.6986071618166001 17.56158857800942386 0.07846595377590750986 
	-16.47937136545339598 4.168274741335112665 8.404418590285837709 
	-14.22410888198004209 -9.306928678858243487 16.59558140971416051 
	-11.96144682878682097 -22.69297452819518668 24.92153404622408885 
	-14.30727756861136868 21.29199642471133558 0.07846595377590749598 
	-15.13333023574544534 7.741221537693540711 8.404418590285837709 
	-15.94254227949716451 -5.897418128827465189 16.59558140971416051 
	-16.72464198722115825 -19.45080084661012165 24.92153404622408885 
	-9.218839018283366826 23.30485968514938477 0.07846595377590749598 
	-12.83137813215492251 10.54285518936915267 8.404418590285837709 
	-16.44615456710635115 -2.306525583902860888 16.59558140971416051 
	-20.01728424973098441 -15.08017934425835449 24.92153404622408885 
	-1.740061586629706447 26.26328321257874165 0.07846595377590749598 
	-9.44806372817715534 14.66058095507824 8.404418590285837709 
	-17.18634316791636607 2.971220400225098146 16.59558140971416051 
	-24.85667425116476537 -8.656419848925235527 24.92153404622408885 
	7.160433336194786058 25.32816720308232306 0.07846595377590750986 
	-3.989668506277712634 16.97884234458036445 8.404418590285837709 
	-15.19733364101047535 8.558013341652992878 16.59558140971416051 
	-26.32029785360090912 0.1725697746292531587 24.92153404622408885 
	13.86105028317042631 20.88000868862237525 0.07846595377590750986 
	1.322796279198494851 16.55434294431796971 8.404418590285837709 
	-11.28845040586887016 12.1805971835780884 16.59558140971416051 
	-23.8126092306592767 7.814289437782878878 24.92153404622408885 
	20.39995461548883782 16.53920198213405257 0.07846595377590750986 
	6.507050098799156856 16.14008840784649124 8.404418590285837709 
	-7.473904115123087166 15.71575362746976268 16.59558140971416051 
	-21.36544113697206626 15.27158392382443353 24.92153404622408885 
	24.68128003622548761 8.974283608915458288 0.07846595377590749598 
	11.41908769497335641 13.13196828414883832 8.404418590285837709 
	-1.934564107185058335 17.29455453362629669 16.59558140971416051 
	-15.2101711282687404 21.40920467389228321 24.92153404622408885 
	25.03633491161697222 1.133760108168378355 0.07846595377590749598 
	14.14439072679646969 8.702429044931403013 8.404418590285837709 
	3.170553561131060682 16.30164563565134728 16.59558140971416051 
	-7.745880460398030465 23.83494941640842768 24.92153404622408885 
	0.07979209942857529159 
	
	0 
	0 
	0 
	0 
	0 
	0 
	} I I I I #
DXID-attrib $-1 -1 $-1 $-1 $15 @10 ASM ENTITY @1 1 #
face $32 -1 $-1 $33 $34 $9 $-1 $35 forward single #
loop $-1 -1 $-1 $-1 $36 $15 #
spline-surface $-1 -1 $-1 forward { ref 1 } I I I I #
coedge $-1 -1 $-1 $37 $38 $39 $40 forward $16 $41 #
DXID-attrib $-1 -1 $-1 $-1 $19 @10 ASM ENTITY @1 1 #
face $42 -1 $-1 $43 $44 $11 $-1 $45 forward single #
loop $-1 -1 $-1 $-1 $46 $19 #
spline-surface $-1 -1 $-1 forward { ref 3 } I I I I #
coedge $-1 -1 $-1 $47 $48 $49 $50 forward $20 $51 #
DXID-attrib $-1 -1 $-1 $-1 $23 @10 ASM ENTITY @1 2 #
face $52 -1 $-1 $53 $54 $9 $-1 $55 reversed single #
loop $-1 -1 $-1 $-1 $56 $23 #
spline-surface $-1 -1 $-1 forward { orthosur spline forward { ref 1 } I I I I straight 21.45450019790139962 -12.83372203447810378 0 -3.146685037679473051 7.860118192500124223 5.321364042571483211 F 0 F 4.698043546729243403 nubs 1 open 2 
	0 1 4.698043546729243403 1 
	0 0 
	4.698043546729243403 0 
	10 full nubs 3 1 open open none none 4 2 
	0 3 2.210178224319550466 3 4.176763439811769452 3 4.698043546729243403 3 
	0 1 0.01000000000000000194 1 
	21.45450019790139962 -12.83372203447810378 0 
	19.13625528154429745 -7.042968011264197692 3.920387643522848631 
	16.81801036518718817 -1.252213988050289162 7.84077528704569815 
	14.49976544883008422 4.53854003516361626 11.76116293056854722 
	12.43702402452640854 9.69107077829433905 15.24946821469287528 
	10.37428260022273285 14.8436015214250574 18.73777349881720511 
	8.311541175919057167 19.99613226455578285 22.22607878294153494 
	7.764773071626667189 21.36190668181259866 23.15071918862768996 
	7.218004967334275435 22.72768109906941447 24.07535959431383787 
	6.671236863041885456 24.09345551632623028 24.99999999999999645 
	21.50770108845055972 -12.86554591454972751 0.07846595377590750986 
	19.19803884093990476 -7.069005220224547692 3.995381374183509138 
	16.91740708729599518 -1.263670076714433765 7.916473244553494659 
	14.59448465398482675 4.568187887483072807 11.77338082841136924 
	12.52758124148225782 9.757292333923038186 15.20520245640242862 
	10.41307299363219308 14.90607549388793274 18.66843194390497729 
	8.336889622819183998 20.05711624889608302 22.15098943686811594 
	7.786558479784121189 21.42249571699853661 23.07410628325592938 
	7.236954541286118037 22.78783494948595489 23.99771257939853797 
	6.687779580835560012 24.15320024484713457 24.92153404622408885 
	0.009538249174197075547 
	
	0 
	0 
	0 
	0 
	0 
	0 
	F } I I I I #
coedge $-1 -1 $-1 $57 $58 $56 $59 reversed $24 $60 #
coedge $-1 -1 $-1 $61 $26 $62 $63 forward $16 $64 #
coedge $-1 -1 $-1 $26 $61 $65 $66 reversed $16 $67 #
coedge $-1 -1 $-1 $68 $69 $26 $40 reversed $34 $70 #
edge $71 -1 $-1 $72 6.938893903907228378e-17 $73 4.698043546729243403 $26 $74 forward @7 unknown #
pcurve $-1 -1 $-1 0 forward { exppc nubs 1 open 2 
	0 1 4.698043546729243403 1 
	0 0 
	4.698043546729243403 0 
	7.181725630930399163e-15 
	spline forward { ref 0 } I I I I 
	} 0 0 #
DXID-attrib $-1 -1 $-1 $-1 $28 @10 ASM ENTITY @1 2 #
face $75 -1 $-1 $76 $77 $11 $-1 $78 reversed single #
loop $-1 -1 $-1 $-1 $79 $28 #
spline-surface $-1 -1 $-1 forward { orthosur spline forward { ref 3 } I I I I straight -21.45450019790139962 12.83372203447810556 0 3.146685037679471719 -7.860118192500124223 5.321364042571483211 F 0 F 4.698043546729243403 nubs 1 open 2 
	0 1 4.698043546729243403 1 
	0 0 
	4.698043546729243403 0 
	10 full nubs 3 1 open open none none 4 2 
	0 3 2.210178224319550466 3 4.176763439811763234 3 4.698043546729243403 3 
	0 1 0.01000000000000000194 1 
	-21.45450019790139962 12.83372203447810556 0 
	-19.13625528154429745 7.042968011264200356 3.920387643522848631 
	-16.81801036518719172 1.252213988050291382 7.84077528704569815 
	-14.49976544883008955 -4.538540035163613595 11.76116293056854722 
	-12.4370240245264192 -9.69107077829431951 15.24946821469286462 
	-10.37428260022275062 -14.84360152142502542 18.73777349881718024 
	-8.311541175919082036 -19.99613226455572956 22.22607878294149941 
	-7.764773071626684953 -21.36190668181256314 23.15071918862766509 
	-7.218004967334287869 -22.72768109906939671 24.07535959431383077 
	-6.671236863041891674 -24.09345551632622673 24.99999999999999645 
	-21.50770108845055972 12.86554591454972929 0.07846595377590750986 
	-19.19803884093990476 7.069005220224550357 3.995381374183509138 
	-16.91740708729599874 1.263670076714435986 7.916473244553494659 
	-14.59448465398483208 -4.568187887483070142 11.77338082841136924 
	-12.52758124148226848 -9.757292333923020422 15.20520245640241797 
	-10.41307299363221084 -14.90607549388789721 18.66843194390495597 
	-8.336889622819208867 -20.05711624889602973 22.15098943686808042 
	-7.786558479784140729 -21.42249571699849753 23.07410628325590807 
	-7.236954541286131359 -22.78783494948593358 23.99771257939853086 
	-6.687779580835567117 -24.15320024484712746 24.92153404622408885 
	0.009538249174198565675 
	
	0 
	0 
	0 
	0 
	0 
	0 
	F } I I I I #
coedge $-1 -1 $-1 $80 $81 $79 $82 reversed $29 $83 #
coedge $-1 -1 $-1 $84 $31 $85 $86 forward $20 $87 #
coedge $-1 -1 $-1 $31 $84 $88 $89 reversed $20 $90 #
coedge $-1 -1 $-1 $91 $92 $31 $50 reversed $44 $93 #
edge $94 -1 $-1 $95 6.852157730108388023e-17 $96 4.698043546729243403 $31 $97 forward @7 unknown #
pcurve $-1 -1 $-1 0 forward { exppc nubs 1 open 2 
	0 1 4.698043546729243403 1 
	0 0 
	4.698043546729243403 0 
	4.918261728451888927e-15 
	spline forward { ref 2 } I I I I 
	} 0 0 #
DXID-attrib $-1 -1 $-1 $-1 $33 @10 ASM ENTITY @1 3 #
face $98 -1 $-1 $99 $100 $9 $-1 $101 reversed single #
loop $-1 -1 $-1 $-1 $102 $33 #
cone-surface $-1 -1 $-1 0 1.11022302462515654e-15 24.99999999999999645 0 0 -1 6.671236863041887233 24.09345551632622673 0 1 F 0 F 2.557256420022091525 -0.6199269390853369144 -0.7846595377590750431 24.99999999999999289 forward I I I I #
coedge $-1 -1 $-1 $69 $68 $36 $59 forward $34 $103 #
coedge $-1 -1 $-1 $104 $36 $105 $106 forward $24 $107 #
coedge $-1 -1 $-1 $36 $104 $102 $108 reversed $24 $109 #
edge $110 -1 $-1 $111 0 $112 4.698043546729243403 $36 $113 forward @7 unknown #
pcurve $-1 -1 $-1 0 reversed { exppc nubs 1 open 2 
	0 1 4.698043546729243403 1 
	0 0 
	4.698043546729243403 0 
	0 
	spline forward { ref 1 } I I I I 
	} 0 0 #
coedge $-1 -1 $-1 $38 $37 $114 $115 reversed $16 $116 #
coedge $-1 -1 $-1 $117 $118 $37 $63 reversed $54 $-1 #
edge $119 -1 $-1 $73 0 $120 2.557256420022091525 $37 $121 forward @7 unknown #
pcurve $-1 -1 $-1 0 forward { exppc nubs 1 open 2 
	0 1 2.557256420022091525 1 
	4.698043546729243403 2.341587531205896959e-16 
	4.698043546729243403 2.557256420022091525 
	3.428819297113397196e-14 
	spline forward { ref 0 } I I I I 
	} 0 0 #
coedge $-1 -1 $-1 $122 $123 $38 $66 forward $124 $-1 #
edge $125 -1 $-1 $72 7.087851557119017165e-17 $126 2.557256420022091081 $38 $127 forward @7 unknown #
pcurve $-1 -1 $-1 0 forward { exppc nubs 1 open 2 
	-2.557256420022091081 1 -0 1 
	0 2.557256420022091081 
	0 0 
	3.173592144986780556e-14 
	spline forward { ref 0 } I I I I 
	} 0 0 #
coedge $-1 -1 $-1 $56 $39 $123 $128 reversed $34 $129 #
coedge $-1 -1 $-1 $39 $56 $117 $130 forward $34 $131 #
pcurve $-1 -1 $-1 0 forward { exppc nubs 1 open 2 
	-4.698043546729243403 1 -0 1 
	4.698043546729243403 0.01000000000000000194 
	2.635549233885346594e-17 0.009999999999999887451 
	9.542196794562446574e-15 
	spline forward { ref 4 } I I I I 
	} 0 0 #
DXID-attrib $-1 -1 $-1 $-1 $40 @10 ASM ENTITY @1 6 #
vertex $-1 -1 $-1 $40 $132 #
vertex $-1 -1 $-1 $40 $133 #
intcurve-curve $-1 -1 $-1 forward { offsurfintcur full nubs 3 open 4 
	0 3 2.210178224319546025 3 4.176763439811869816 3 4.698043546729243403 3 
	21.50770108845055972 -12.86554591454972751 0.07846595377590750986 
	19.19803884093991186 -7.069005220224559238 3.995381374183501588 
	16.91740708729600229 -1.263670076714457746 7.916473244553476007 
	14.59448465398484096 4.568187887483036391 11.77338082841134437 
	12.52758124148216012 9.757292333923277994 15.2052024564025885 
	10.41307299363198702 14.90607549388844788 18.66843194390532545 
	8.336889622818867807 20.05711624889687528 22.15098943686864885 
	7.786558479783911579 21.42249571699906596 23.07410628325628466 
	7.236954541286012343 22.78783494948621779 23.9977125793987156 
	6.687779580835560012 24.15320024484713457 24.92153404622408885 
	0.009538249174198111177 
	
	spline forward { ref 1 } I I I I 
	null_surface 
	nubs 1 open 2 
	0 1 4.698043546729243403 1 
	0 0 
	4.698043546729243403 0 
	
	nullbs 
	I I 
	0 
	0 
	0 
	F 0 F 4.698043546729243403 F 0 F 2.557256420022091525 straight 21.45450019790139962 -12.83372203447810378 0 -3.146685037679473051 7.860118192500124223 5.321364042571483211 F 0 F 4.698043546729243403 F 0 F 4.698043546729243403 0.1000000000000000194 0 1 } I I #
DXID-attrib $-1 -1 $-1 $-1 $43 @10 ASM ENTITY @1 3 #
face $134 -1 $-1 $135 $136 $11 $-1 $137 reversed single #
loop $-1 -1 $-1 $-1 $138 $43 #
cone-surface $-1 -1 $-1 -1.35963107344689111e-31 -1.11022302462515654e-15 24.99999999999999645 0 0 -1 -6.671236863041890786 -24.09345551632622673 0 1 F 0 F 2.557256420022091525 -0.6199269390853369144 -0.7846595377590749321 24.99999999999999645 forward I I I I #
coedge $-1 -1 $-1 $92 $91 $46 $82 forward $44 $139 #
coedge $-1 -1 $-1 $140 $46 $141 $142 forward $29 $143 #
coedge $-1 -1 $-1 $46 $140 $138 $144 reversed $29 $145 #
edge $146 -1 $-1 $147 0 $148 4.698043546729243403 $46 $149 forward @7 unknown #
pcurve $-1 -1 $-1 0 reversed { exppc nubs 1 open 2 
	0 1 4.698043546729243403 1 
	0 0 
	4.698043546729243403 0 
	0 
	spline forward { ref 3 } I I I I 
	} 0 0 #
coedge $-1 -1 $-1 $48 $47 $150 $151 reversed $20 $152 #
coedge $-1 -1 $-1 $153 $154 $47 $86 reversed $77 $-1 #
edge $155 -1 $-1 $96 0 $156 2.557256420022091525 $47 $157 forward @7 unknown #
pcurve $-1 -1 $-1 0 forward { exppc nubs 1 open 2 
	0 1 2.557256420022091525 1 
	4.698043546729243403 4.113936772916831897e-17 
	4.698043546729243403 2.557256420022091525 
	3.621669466724313896e-14 
	spline forward { ref 2 } I I I I 
	} 0 0 #
coedge $-1 -1 $-1 $158 $159 $48 $89 forward $160 $-1 #
edge $161 -1 $-1 $95 7.087851557119015933e-17 $162 2.557256420022091081 $48 $163 forward @7 unknown #
pcurve $-1 -1 $-1 0 forward { exppc nubs 1 open 2 
	-2.557256420022091081 1 -0 1 
	0 2.557256420022091081 
	0 0 
	3.457294939289903105e-14 
	spline forward { ref 2 } I I I I 
	} 0 0 #
coedge $-1 -1 $-1 $79 $49 $159 $164 reversed $44 $165 #
coedge $-1 -1 $-1 $49 $79 $153 $166 forward $44 $167 #
pcurve $-1 -1 $-1 0 forward { exppc nubs 1 open 2 
	-4.698043546729243403 1 -0 1 
	4.698043546729243403 0.01000000000000000194 
	0 0.01000000000000000194 
	9.319242949932420463e-15 
	spline forward { ref 6 } I I I I 
	} 0 0 #
DXID-attrib $-1 -1 $-1 $-1 $50 @10 ASM ENTITY @1 6 #
vertex $-1 -1 $-1 $50 $168 #
vertex $-1 -1 $-1 $50 $169 #
intcurve-curve $-1 -1 $-1 forward { offsurfintcur full nubs 3 open 4 
	0 3 2.210178224319547802 3 4.176763439811826295 3 4.698043546729243403 3 
	-21.50770108845055972 12.86554591454972929 0.07846595377590750986 
	-19.19803884093990831 7.069005220224555686 3.995381374183505585 
	-16.91740708729600229 1.263670076714449308 7.916473244553484889 
	-14.59448465398483918 -4.568187887483048826 11.77338082841135325 
	-12.52758124148220631 -9.757292333923169636 15.20520245640251566 
	-10.41307299363208116 -14.90607549388822228 18.66843194390517269 
	-8.336889622819009915 -20.05711624889652711 22.15098943686841793 
	-7.786558479784007503 -21.42249571699883148 23.07410628325612834 
	-7.236954541286064746 -22.78783494948610411 23.997712579398641 
	-6.687779580835567117 -24.15320024484712746 24.92153404622408885 
	0.009538249174197113711 
	
	spline forward { ref 3 } I I I I 
	null_surface 
	nubs 1 open 2 
	0 1 4.698043546729243403 1 
	0 0 
	4.698043546729243403 0 
	
	nullbs 
	I I 
	0 
	0 
	0 
	F 0 F 4.698043546729243403 F 0 F 2.557256420022091525 straight -21.45450019790139962 12.83372203447810556 0 3.146685037679471719 -7.860118192500124223 5.321364042571483211 F 0 F 4.698043546729243403 F 0 F 4.698043546729243403 0.1000000000000000194 0 1 } I I #
DXID-attrib $-1 -1 $-1 $-1 $53 @10 ASM ENTITY @1 4 #
face $170 -1 $-1 $-1 $124 $9 $-1 $171 reversed single #
loop $-1 -1 $-1 $-1 $172 $53 #
spline-surface $-1 -1 $-1 forward { orthosur spline forward { ref 1 } I I I I straight -24.97440568413201945 -1.130955668624813448 0 6.960583870845793442 -4.820099262810745522 5.321364042571483211 F 0 F 4.698043546729243403 nubs 1 open 2 
	0 1 4.698043546729243403 1 
	0 2.557256420022091525 
	4.698043546729243403 2.557256420022091525 
	10 full nubs 3 1 open open none none 4 2 
	0 3 2.21017822431955091 3 4.176763439811796985 3 4.698043546729243403 3 
	0 1 0.01000000000000000194 1 
	-24.97440568413201945 -1.130955668624813448 0 
	-19.84636205083426574 -4.682048478532490066 3.920387643522849519 
	-14.71831841753651204 -8.233141288440165795 7.840775287045699926 
	-9.590274784238756567 -11.7842340983478433 11.761162930568549 
	-5.027414340372382995 -14.94394608083073805 15.24946821469292502 
	-0.4645538965060064251 -18.10365806331363459 18.73777349881730458 
	4.09830654736036859 -21.26337004579653112 22.2260787829416806 
	5.307777848827818445 -22.10091066548676153 23.15071918862778944 
	6.517249150295266524 -22.93845128517698839 24.07535959431388761 
	7.72672045176271638 -23.77599190486721881 24.99999999999999645 
	-25.03633491161697577 -1.133760108168380576 0.07846595377590750986 
	-19.91225770408367168 -4.694414049480498008 3.99538137418351047 
	-14.80754278382443445 -8.278417803257166696 7.916473244553497324 
	-9.652922915202278631 -11.86121419096327223 11.77338082841137101 
	-5.066415314334118847 -15.04913556701025001 15.20520245640247836 
	-0.4624446181493102603 -18.1771648167514428 18.66843194390507676 
	4.110805517611179738 -21.32821883798987628 22.15098943686826161 
	5.323030800781907601 -22.16346450349879404 23.07410628325602531 
	6.534627342520561655 -22.99907776872892029 23.99771257939858771 
	7.745880460398034018 -23.83494941640842768 24.92153404622408885 
	0.009538249174197868316 
	
	0 
	0 
	0 
	0 
	0 
	0 
	F } I I I I #
coedge $-1 -1 $-1 $118 $117 $58 $108 forward $54 $-1 #
pcurve $-1 -1 $-1 0 forward { exppc nubs 1 open 2 
	0 1 4.698043546729243403 1 
	0 0 
	4.698043546729243403 8.389710996716454759e-17 
	4.714122628419439563e-15 
	spline forward { ref 4 } I I I I 
	} 0 0 #
coedge $-1 -1 $-1 $58 $57 $172 $173 forward $24 $174 #
coedge $-1 -1 $-1 $123 $122 $57 $106 reversed $124 $-1 #
edge $175 -1 $-1 $111 0 $176 2.557256420022091081 $57 $177 forward @7 unknown #
pcurve $-1 -1 $-1 0 reversed { exppc nubs 1 open 2 
	-2.557256420022091081 1 -0 1 
	0 2.557256420022091525 
	0 0 
	0 
	spline forward { ref 1 } I I I I 
	} 0 0 #
edge $178 -1 $-1 $112 0 $179 2.557256420022091525 $58 $180 forward @7 unknown #
pcurve $-1 -1 $-1 0 reversed { exppc nubs 1 open 2 
	0 1 2.557256420022091525 1 
	4.698043546729243403 3.316843911138846722e-17 
	4.698043546729243403 2.557256420022091525 
	0 
	spline forward { ref 1 } I I I I 
	} 0 0 #
DXID-attrib $-1 -1 $-1 $-1 $59 @10 ASM ENTITY @2 10 #
vertex $-1 -1 $-1 $59 $181 #
vertex $-1 -1 $-1 $59 $182 #
straight-curve $-1 -1 $-1 21.45450019790139962 -12.83372203447810378 0 -3.146685037679473051 7.860118192500124223 5.321364042571483211 F 0 F 4.698043546729243403 #
coedge $-1 -1 $-1 $183 $184 $61 $115 forward $100 $185 #
edge $186 -1 $-1 $126 2.706168622523819067e-16 $120 4.698043546729243403 $61 $187 forward @7 unknown #
pcurve $-1 -1 $-1 0 forward { exppc nubs 1 open 2 
	-4.698043546729243403 1 -0 1 
	4.698043546729243403 2.557256420022091525 
	0 2.557256420022091525 
	1.131755309314847927e-14 
	spline forward { ref 0 } I I I I 
	} 0 0 #
coedge $-1 -1 $-1 $102 $62 $69 $130 reversed $54 $-1 #
coedge $-1 -1 $-1 $62 $102 $183 $188 forward $54 $-1 #
DXID-attrib $-1 -1 $-1 $-1 $63 @10 ASM ENTITY @1 7 #
vertex $-1 -1 $-1 $63 $189 #
intcurve-curve $-1 -1 $-1 forward { offsurfintcur full nubs 3 open 6 
	0 3 0.5958865022337658246 3 1.193846374630844531 3 1.789942124700910631 3 2.386501963070160937 3 
	2.557256420022091525 3 
	6.687779580835558235 24.1532002448471772 24.92153404622408885 
	11.48530158472012452 22.82481438413567432 24.92153404622408885 
	15.86582802780930557 20.02897414133332177 24.92153404622408885 
	19.09095640767992563 16.23695972864342707 24.92153404622408885 
	22.32730653016530198 12.43175110948526729 24.92153404622408885 
	24.38649676017476153 7.639098657965944561 24.92153404622408885 
	24.91912353969458138 2.672220013951674744 24.92153404622408885 
	25.4500898708841703 -2.279174531875951537 24.92153404622408885 
	24.4620431387205457 -7.3830993804911067 24.92153404622408885 
	22.12164430227014833 -11.77863876487274908 24.92153404622408885 
	19.77942335634272553 -16.17760028134752304 24.92153404622408885 
	16.09239824018149534 -19.84880495273947787 24.92153404622408885 
	11.68340573007849414 -22.17208849738547372 24.92153404622408885 
	10.42141141979142382 -22.8370863643150166 24.92153404622408885 
	9.102521741756552487 -23.39406821253185598 24.92153404622408885 
	7.745880460398034018 -23.83494941640847031 24.92153404622408885 
	0.008294361190845010029 
	
	spline forward { ref 1 } I I I I 
	null_surface 
	nubs 1 open 2 
	0 1 2.557256420022091525 1 
	4.698043546729243403 3.316843911138846722e-17 
	4.698043546729243403 2.557256420022091525 
	
	nullbs 
	I I 
	0 
	0 
	0 
	F 0 F 4.698043546729243403 F 0 F 2.557256420022091525 ellipse 0 1.11022302462515654e-15 24.99999999999999645 0 0 -1 6.671236863041887233 24.09345551632622673 0 1 F 0 F 2.557256420022091525 F 0 F 2.557256420022091525 0.1000000000000000194 0 1 } I I #
coedge $-1 -1 $-1 $105 $65 $184 $190 reversed $124 $-1 #
coedge $-1 -1 $-1 $65 $105 $68 $128 forward $124 $-1 #
loop $-1 -1 $-1 $-1 $105 $99 #
DXID-attrib $-1 -1 $-1 $-1 $66 @10 ASM ENTITY @1 9 #
vertex $-1 -1 $-1 $115 $191 #
intcurve-curve $-1 -1 $-1 forward { offsurfintcur full nubs 3 open 6 
	0 3 0.5958865022337953565 3 1.193846374630873175 3 1.789942124700943715 3 2.386501963070212451 3 
	2.557256420022091081 3 
	21.50770108845060591 -12.86554591454973817 0.07846595377590845355 
	18.95223270366749446 -17.13759550544533994 0.078465953775908856 
	15.09287605471914695 -20.61769619911754603 0.07846595377590892539 
	10.58018276921272083 -22.71922556689769479 0.07846595377590906417 
	6.051787695565197467 -24.82806714643643176 0.07846595377590920295 
	0.8842551979233975734 -25.53967786181134869 0.07846595377590899478 
	-4.045587408531064355 -24.73331155161919526 0.07846595377590864784 
	-8.960061375557458518 -23.92945906469840978 0.07846595377590830089 
	-13.61793593489943177 -21.62067371419790618 0.07846595377590782905 
	-17.23353383466096744 -18.1963949550211801 0.07846595377590763476 
	-20.85194664575123724 -14.76945023537562207 0.07846595377590745435 
	-23.41141356645005445 -10.23943621461319076 0.078465953775906358 
	-24.4795724414450433 -5.371592954940770603 0.07846595377590542819 
	-24.78531358744085722 -3.97826092205639581 0.07846595377590517839 
	-24.9718033810890141 -2.558782032134542028 0.07846595377590495635 
	-25.0363349116170113 -1.13376010816836903 0.07846595377590478981 
	0.00829436119085240689 
	
	spline forward { ref 1 } I I I I 
	null_surface 
	nubs 1 open 2 
	0 1 2.557256420022091081 1 
	0 0 
	0 2.557256420022091525 
	
	nullbs 
	I I 
	0 
	0 
	0 
	F 0 F 4.698043546729243403 F 0 F 2.557256420022091525 ellipse 0 4.440892098500626162e-15 0 0 0 -1 21.45450019790139962 -12.83372203447810733 0 1 F 0 F 2.557256420022091081 F 0 F 2.557256420022091081 0.1000000000000000194 0 1 } I I #
edge $-1 -1 $-1 $111 0 $72 0.009999999999999890921 $68 $192 forward @7 unknown #
pcurve $-1 -1 $-1 0 forward { exppc nubs 1 open 2 
	-0.009999999999999890921 1 -0 1 
	0 0.009999999999999934289 
	0 3.000017498513829341e-18 
	2.827043374959987462e-15 
	spline forward { ref 4 } I I I I 
	} 0 0 #
edge $-1 -1 $-1 $112 0 $73 0.009999999999999946432 $69 $193 forward @7 unknown #
pcurve $-1 -1 $-1 0 forward { exppc nubs 1 open 2 
	0 1 0.009999999999999946432 1 
	4.698043546729243403 0 
	4.698043546729243403 0.009999999999999774694 
	5.104541720610334187e-15 
	spline forward { ref 4 } I I I I 
	} 0 0 #
point $-1 -1 $-1 21.50770108845055972 -12.86554591454972751 0.07846595377590750986 #
point $-1 -1 $-1 6.687779580835561788 24.15320024484712746 24.92153404622408885 #
DXID-attrib $-1 -1 $-1 $-1 $76 @10 ASM ENTITY @1 4 #
face $194 -1 $-1 $-1 $160 $11 $-1 $195 reversed single #
loop $-1 -1 $-1 $-1 $196 $76 #
spline-surface $-1 -1 $-1 forward { orthosur spline forward { ref 3 } I I I I straight 24.97440568413201945 1.13095566862481034 0 -6.960583870845792553 4.82009926281074641 5.321364042571483211 F 0 F 4.698043546729243403 nubs 1 open 2 
	0 1 4.698043546729243403 1 
	0 2.557256420022091525 
	4.698043546729243403 2.557256420022091525 
	10 full nubs 3 1 open open none none 4 2 
	0 3 2.210178224319553131 3 4.176763439811883138 3 4.698043546729243403 3 
	0 1 0.01000000000000000194 1 
	24.97440568413201945 1.13095566862481034 0 
	19.84636205083426219 4.682048478532490954 3.920387643522853072 
	14.71831841753650139 8.2331412884401729 7.840775287045707032 
	9.590274784238744132 11.78423409834785396 11.76116293056855966 
	5.027414340372173385 14.94394608083088549 15.24946821469308489 
	0.4645538965056056346 18.1036580633139117 18.73777349881761367 
	-4.09830654736096367 21.26337004579694323 22.2260787829421389 
	-5.307777848828212797 22.10091066548703509 23.15071918862809142 
	-6.517249150295462812 22.93845128517712695 24.07535959431404393 
	-7.726720451762711939 23.77599190486721881 24.99999999999999645 
	25.03633491161697577 1.133760108168377467 0.07846595377590749598 
	19.91225770408366813 4.694414049480498896 3.995381374183513579 
	14.80754278382442557 8.278417803257175578 7.916473244553503541 
	9.652922915202266196 11.86121419096328289 11.77338082841138167 
	5.066415314333911013 15.04913556701039568 15.20520245640263468 
	0.4624446181489072494 18.17716481675171991 18.66843194390538585 
	-4.110805517611776594 21.32821883799028839 22.15098943686871991 
	-5.323030800782303729 22.1634645034990676 23.07410628325633439 
	-6.534627342520757054 22.99907776872905885 23.99771257939874403 
	-7.745880460398028688 23.83494941640842768 24.92153404622408885 
	0.009538249174198756494 
	
	0 
	0 
	0 
	0 
	0 
	0 
	F } I I I I #
coedge $-1 -1 $-1 $154 $153 $81 $144 forward $77 $-1 #
pcurve $-1 -1 $-1 0 forward { exppc nubs 1 open 2 
	0 1 4.698043546729243403 1 
	0 0 
	4.698043546729243403 3.495744243357175823e-17 
	4.714122628419439563e-15 
	spline forward { ref 6 } I I I I 
	} 0 0 #
coedge $-1 -1 $-1 $81 $80 $196 $197 forward $29 $198 #
coedge $-1 -1 $-1 $159 $158 $80 $142 reversed $160 $-1 #
edge $199 -1 $-1 $147 0 $200 2.557256420022091081 $80 $201 forward @7 unknown #
pcurve $-1 -1 $-1 0 reversed { exppc nubs 1 open 2 
	-2.557256420022091081 1 -0 1 
	0 2.557256420022091525 
	0 0 
	0 
	spline forward { ref 3 } I I I I 
	} 0 0 #
edge $202 -1 $-1 $148 0 $203 2.557256420022091525 $81 $204 forward @7 unknown #
pcurve $-1 -1 $-1 0 reversed { exppc nubs 1 open 2 
	0 1 2.557256420022091525 1 
	4.698043546729243403 3.316843911138846722e-17 
	4.698043546729243403 2.557256420022091525 
	0 
	spline forward { ref 3 } I I I I 
	} 0 0 #
DXID-attrib $-1 -1 $-1 $-1 $82 @10 ASM ENTITY @2 10 #
vertex $-1 -1 $-1 $82 $205 #
vertex $-1 -1 $-1 $82 $206 #
straight-curve $-1 -1 $-1 -21.45450019790139962 12.83372203447810556 0 3.146685037679471719 -7.860118192500124223 5.321364042571483211 F 0 F 4.698043546729243403 #
coedge $-1 -1 $-1 $207 $208 $84 $151 forward $136 $209 #
edge $210 -1 $-1 $162 2.714842239903703103e-16 $156 4.698043546729243403 $84 $211 forward @7 unknown #
pcurve $-1 -1 $-1 0 forward { exppc nubs 1 open 2 
	-4.698043546729243403 1 -0 1 
	4.698043546729243403 2.557256420022091525 
	0 2.557256420022091525 
	1.214246105739658024e-14 
	spline forward { ref 2 } I I I I 
	} 0 0 #
coedge $-1 -1 $-1 $138 $85 $92 $166 reversed $77 $-1 #
coedge $-1 -1 $-1 $85 $138 $207 $212 forward $77 $-1 #
DXID-attrib $-1 -1 $-1 $-1 $86 @10 ASM ENTITY @1 7 #
vertex $-1 -1 $-1 $86 $213 #
intcurve-curve $-1 -1 $-1 forward { offsurfintcur full nubs 3 open 6 
	0 3 0.5958865022337933581 3 1.19384637463087051 3 1.789942124700937498 3 2.386501963070202237 3 
	2.557256420022091525 3 
	-6.687779580835560012 -24.15320024484717365 24.92153404622408885 
	-11.48530158472034657 -22.82481438413560682 24.92153404622408885 
	-15.8658280278097088 -20.02897414133305176 24.92153404622408885 
	-19.09095640768036972 -16.23695972864289416 24.92153404622408885 
	-22.32730653016563593 -12.43175110948465445 24.92153404622408885 
	-24.38649676017496049 -7.639098657965295303 24.92153404622408885 
	-24.91912353969464888 -2.672220013951024598 24.92153404622408885 
	-25.45008987088411345 2.279174531876623888 24.92153404622408885 
	-24.46204313872034319 7.383099380491762176 24.92153404622408885 
	-22.12164430226982859 11.77863876487334771 24.92153404622408885 
	-19.77942335634222815 16.17760028134816608 24.92153404622408885 
	-16.09239824018077414 19.84880495274008894 24.92153404622408885 
	-11.68340573007757222 22.17208849738596399 24.92153404622408885 
	-10.42141141979078078 22.83708636431529015 24.92153404622408885 
	-9.102521741756220308 23.39406821253196256 24.92153404622408885 
	-7.745880460398028688 23.83494941640847031 24.92153404622408885 
	0.008294361190845450649 
	
	spline forward { ref 3 } I I I I 
	null_surface 
	nubs 1 open 2 
	0 1 2.557256420022091525 1 
	4.698043546729243403 3.316843911138846722e-17 
	4.698043546729243403 2.557256420022091525 
	
	nullbs 
	I I 
	0 
	0 
	0 
	F 0 F 4.698043546729243403 F 0 F 2.557256420022091525 ellipse -1.35963107344689111e-31 -1.11022302462515654e-15 24.99999999999999645 0 0 -1 -6.671236863041890786 -24.09345551632622673 0 1 F 0 F 2.557256420022091525 F 0 F 2.557256420022091525 0.1000000000000000194 0 1 } I I #
coedge $-1 -1 $-1 $141 $88 $208 $214 reversed $160 $-1 #
coedge $-1 -1 $-1 $88 $141 $91 $164 forward $160 $-1 #
loop $-1 -1 $-1 $-1 $141 $135 #
DXID-attrib $-1 -1 $-1 $-1 $89 @10 ASM ENTITY @1 9 #
vertex $-1 -1 $-1 $151 $215 #
intcurve-curve $-1 -1 $-1 forward { offsurfintcur full nubs 3 open 6 
	0 3 0.5958865022337827 3 1.19384637463086074 3 1.789942124700931059 3 2.386501963070204901 3 
	2.557256420022091081 3 
	-21.50770108845060946 12.86554591454973817 0.0784659537759084813 
	-18.95223270366755486 17.13759550544525112 0.07846595377590870335 
	-15.09287605471931748 20.61769619911740392 0.07846595377590903642 
	-10.58018276921301037 22.71922556689756334 0.07846595377590899478 
	-6.051787695565511882 24.8280671464363607 0.07846595377590893927 
	-0.8842551979237156523 25.53967786181134514 0.07846595377590892539 
	4.045587408530758822 24.7333115516192521 0.07846595377590837028 
	8.960061375557161867 23.92945906469852702 0.07846595377590781517 
	13.61793593489916532 21.62067371419807316 0.07846595377590825926 
	17.23353383466074007 18.19639495502139681 0.07846595377590774578 
	20.85194664575108803 14.76945023537585655 0.07846595377590721843 
	23.41141356644996563 10.2394362146134057 0.07846595377590694087 
	24.47957244144500422 5.37159295494095268 0.07846595377590614984 
	24.78531358744084656 3.978260922056518822 0.07846595377590592779 
	24.9718033810890141 2.558782032134603313 0.07846595377590551146 
	25.03633491161701841 1.133760108168366809 0.07846595377590533105 
	0.008294361190839132786 
	
	spline forward { ref 3 } I I I I 
	null_surface 
	nubs 1 open 2 
	0 1 2.557256420022091081 1 
	0 0 
	0 2.557256420022091525 
	
	nullbs 
	I I 
	0 
	0 
	0 
	F 0 F 4.698043546729243403 F 0 F 2.557256420022091525 ellipse -5.438524293787564441e-31 -4.440892098500626162e-15 0 0 0 -1 -21.45450019790139962 12.83372203447811088 0 1 F 0 F 2.557256420022091081 F 0 F 2.557256420022091081 0.1000000000000000194 0 1 } I I #
edge $-1 -1 $-1 $147 0 $95 0.009999999999999887451 $91 $216 forward @7 unknown #
pcurve $-1 -1 $-1 0 forward { exppc nubs 1 open 2 
	-0.009999999999999887451 1 -0 1 
	0 0.009999999999999929085 
	0 7.666711385090900543e-18 
	2.838387283507274851e-15 
	spline forward { ref 6 } I I I I 
	} 0 0 #
edge $-1 -1 $-1 $148 -0 $96 0.009999999999999946432 $92 $217 forward @7 unknown #
pcurve $-1 -1 $-1 0 forward { exppc nubs 1 open 2 
	-0 1 0.009999999999999946432 1 
	4.698043546729243403 0 
	4.698043546729243403 0.009999999999999871839 
	4.039701550488475557e-16 
	spline forward { ref 6 } I I I I 
	} 0 0 #
point $-1 -1 $-1 -21.50770108845055972 12.86554591454972929 0.07846595377590749598 #
point $-1 -1 $-1 -6.687779580835565341 -24.15320024484712746 24.92153404622408885 #
DXID-attrib $-1 -1 $-1 $-1 $99 @10 ASM ENTITY @1 5 #
cone-surface $-1 -1 $-1 0 4.440892098500626162e-15 0 0 0 -1 21.45450019790139962 -12.83372203447810733 0 1 F 0 F 2.557256420022091081 0.6199269390853366923 -0.7846595377590749321 25.00000000000000355 forward I I I I #
coedge $-1 -1 $-1 $184 $183 $104 $173 reversed $100 $218 #
edge $219 -1 $-1 $176 0 $179 4.698043546729243403 $104 $220 forward @7 unknown #
pcurve $-1 -1 $-1 0 reversed { exppc nubs 1 open 2 
	-4.698043546729243403 1 -0 1 
	4.698043546729243403 2.557256420022091525 
	0 2.557256420022091525 
	0 
	spline forward { ref 1 } I I I I 
	} 0 0 #
DXID-attrib $-1 -1 $-1 $-1 $106 @10 ASM ENTITY @2 11 #
vertex $-1 -1 $-1 $106 $221 #
ellipse-curve $-1 -1 $-1 0 4.440892098500626162e-15 0 0 0 -1 21.45450019790139962 -12.83372203447810733 0 1 F 0 F 2.557256420022091081 #
DXID-attrib $-1 -1 $-1 $-1 $108 @10 ASM ENTITY @2 13 #
vertex $-1 -1 $-1 $173 $222 #
ellipse-curve $-1 -1 $-1 0 1.11022302462515654e-15 24.99999999999999645 0 0 -1 6.671236863041887233 24.09345551632622673 0 1 F 0 F 2.557256420022091525 #
point $-1 -1 $-1 21.45450019790139962 -12.83372203447810378 0 #
point $-1 -1 $-1 6.671236863041887233 24.09345551632622673 24.99999999999999645 #
coedge $-1 -1 $-1 $172 $114 $118 $188 reversed $100 $223 #
coedge $-1 -1 $-1 $114 $172 $122 $190 forward $100 $224 #
pcurve $-1 -1 $-1 0 forward { exppc nubs 1 open 2 
	0 1 4.698043546729243403 1 
	3.088722496180669451e-16 0.009999999999999726122 
	4.698043546729243403 0.009999999999999913472 
	1.153198679251182586e-14 
	spline reversed { ref 18 } I I I I 
	} 0 0 #
DXID-attrib $-1 -1 $-1 $-1 $115 @10 ASM ENTITY @1 8 #
intcurve-curve $-1 -1 $-1 forward { offsurfintcur full nubs 3 open 4 
	0 3 2.21017822431950739 3 4.176763439811654877 3 4.698043546729243403 3 
	-25.03633491161697222 -1.133760108168380576 0.07846595377590750986 
	-19.91225770408376761 -4.694414049480426954 3.995381374183431866 
	-14.8075427838246334 -8.278417803257024588 7.916473244553341004 
	-9.652922915202582388 -11.86121419096306084 11.77338082841114186 
	-5.066415314334655307 -15.04913556700988053 15.20520245640207868 
	-0.4624446181500707631 -18.17716481675090989 18.66843194390449767 
	4.110805517610191195 -21.32821883798918705 22.15098943686750843 
	5.323030800781250349 -22.16346450349833574 23.07410628325552437 
	6.53462734252023747 -22.99907776872869292 23.99771257939833902 
	7.745880460398040235 -23.83494941640842768 24.92153404622408885 
	0.009538249174197089425 
	
	spline forward { ref 1 } I I I I 
	null_surface 
	nubs 1 open 2 
	0 1 4.698043546729243403 1 
	0 2.557256420022091525 
	4.698043546729243403 2.557256420022091525 
	
	nullbs 
	I I 
	0 
	0 
	0 
	F 0 F 4.698043546729243403 F 0 F 2.557256420022091525 straight -24.97440568413201945 -1.130955668624813448 0 6.960583870845793442 -4.820099262810745522 5.321364042571483211 F 0 F 4.698043546729243403 F 0 F 4.698043546729243403 0.1000000000000000194 0 1 } I I #
edge $-1 -1 $-1 $179 0 $120 0.009999999999999897859 $118 $225 forward @7 unknown #
point $-1 -1 $-1 7.745880460398034018 -23.83494941640842413 24.92153404622408885 #
edge $-1 -1 $-1 $176 0 $126 0.0100000000000000349 $184 $226 forward @7 unknown #
point $-1 -1 $-1 -25.03633491161697222 -1.133760108168380576 0.07846595377590750986 #
straight-curve $-1 -1 $-1 21.45450019790139962 -12.83372203447810378 0 5.320089054916307347 -3.182388007162421317 7.846595377590750431 F 0 F 0.009999999999999890921 #
straight-curve $-1 -1 $-1 6.671236863041887233 24.09345551632622673 24.99999999999999645 1.654271779367528339 5.974472852089937724 -7.846595377590750431 F 0 F 0.009999999999999946432 #
DXID-attrib $-1 -1 $-1 $-1 $135 @10 ASM ENTITY @1 5 #
cone-surface $-1 -1 $-1 -5.438524293787564441e-31 -4.440892098500626162e-15 0 0 0 -1 -21.45450019790139962 12.83372203447811088 0 1 F 0 F 2.557256420022091081 0.6199269390853368034 -0.7846595377590750431 25.00000000000000355 forward I I I I #
coedge $-1 -1 $-1 $208 $207 $140 $197 reversed $136 $227 #
edge $228 -1 $-1 $200 0 $203 4.698043546729243403 $140 $229 forward @7 unknown #
pcurve $-1 -1 $-1 0 reversed { exppc nubs 1 open 2 
	-4.698043546729243403 1 -0 1 
	4.698043546729243403 2.557256420022091525 
	0 2.557256420022091525 
	0 
	spline forward { ref 3 } I I I I 
	} 0 0 #
DXID-attrib $-1 -1 $-1 $-1 $142 @10 ASM ENTITY @2 11 #
vertex $-1 -1 $-1 $142 $230 #
ellipse-curve $-1 -1 $-1 -5.438524293787564441e-31 -4.440892098500626162e-15 0 0 0 -1 -21.45450019790139962 12.83372203447811088 0 1 F 0 F 2.557256420022091081 #
DXID-attrib $-1 -1 $-1 $-1 $144 @10 ASM ENTITY @2 13 #
vertex $-1 -1 $-1 $197 $231 #
ellipse-curve $-1 -1 $-1 -1.35963107344689111e-31 -1.11022302462515654e-15 24.99999999999999645 0 0 -1 -6.671236863041890786 -24.09345551632622673 0 1 F 0 F 2.557256420022091525 #
point $-1 -1 $-1 -21.45450019790139962 12.83372203447810556 0 #
point $-1 -1 $-1 -6.671236863041890786 -24.09345551632622673 24.99999999999999645 #
coedge $-1 -1 $-1 $196 $150 $154 $212 reversed $136 $232 #
coedge $-1 -1 $-1 $150 $196 $158 $214 forward $136 $233 #
pcurve $-1 -1 $-1 0 forward { exppc nubs 1 open 2 
	0 1 4.698043546729243403 1 
	2.356739543011583984e-16 0.009999999999999561323 
	4.698043546729243403 0.00999999999999976949 
	5.938412092613103139e-15 
	spline reversed { ref 27 } I I I I 
	} 0 0 #
DXID-attrib $-1 -1 $-1 $-1 $151 @10 ASM ENTITY @1 8 #
intcurve-curve $-1 -1 $-1 forward { offsurfintcur full nubs 3 open 4 
	0 3 2.210178224319578888 3 4.176763439811952416 3 4.698043546729243403 3 
	25.03633491161697222 1.133760108168378355 0.07846595377590537268 
	19.91225770408360063 4.694414049480542417 3.995381374183558876 
	14.80754278382430122 8.278417803257255514 7.916473244553589694 
	9.652922915202083232 11.86121419096340546 11.77338082841151667 
	5.06641531433362502 15.04913556701058752 15.2052024564028514 
	0.4624446181485225571 18.17716481675198281 18.66843194390567362 
	-4.110805517612262427 21.32821883799062235 22.15098943686908939 
	-5.323030800782628802 22.16346450349929142 23.07410628325657598 
	-6.534627342520918702 22.99907776872916898 23.99771257939886127 
	-7.745880460398030465 23.83494941640842768 24.92153404622408885 
	0.009538249174198543123 
	
	spline forward { ref 3 } I I I I 
	null_surface 
	nubs 1 open 2 
	0 1 4.698043546729243403 1 
	0 2.557256420022091525 
	4.698043546729243403 2.557256420022091525 
	
	nullbs 
	I I 
	0 
	0 
	0 
	F 0 F 4.698043546729243403 F 0 F 2.557256420022091525 straight 24.97440568413201945 1.13095566862481034 0 -6.960583870845792553 4.82009926281074641 5.321364042571483211 F 0 F 4.698043546729243403 F 0 F 4.698043546729243403 0.1000000000000000194 0 1 } I I #
edge $-1 -1 $-1 $203 0 $156 0.009999999999999897859 $154 $234 forward @7 unknown #
point $-1 -1 $-1 -7.745880460398030465 23.83494941640842413 24.92153404622408885 #
edge $-1 -1 $-1 $200 0 $162 0.0100000000000000349 $208 $235 forward @7 unknown #
point $-1 -1 $-1 25.03633491161697222 1.133760108168377467 0.07846595377590750986 #
straight-curve $-1 -1 $-1 -21.45450019790139962 12.83372203447810556 0 -5.320089054916304683 3.182388007162420873 7.846595377590748654 F 0 F 0.009999999999999887451 #
straight-curve $-1 -1 $-1 -6.671236863041890786 -24.09345551632622673 24.99999999999999645 -1.654271779367530559 -5.974472852089939501 -7.846595377590749543 F -0 F 0.009999999999999946432 #
pcurve $-1 -1 $-1 0 forward { exppc nubs 1 open 2 
	-4.698043546729243403 1 -0 1 
	4.698043546729243403 0 
	0 1.579796739463230948e-17 
	1.090858771485163306e-14 
	spline reversed { ref 18 } I I I I 
	} 0 0 #
DXID-attrib $-1 -1 $-1 $-1 $173 @10 ASM ENTITY @2 12 #
straight-curve $-1 -1 $-1 -24.97440568413201945 -1.130955668624813448 0 6.960583870845793442 -4.820099262810745522 5.321364042571483211 F 0 F 4.698043546729243403 #
point $-1 -1 $-1 -24.97440568413201589 -1.130955668624813448 0 #
point $-1 -1 $-1 7.72672045176271638 -23.77599190486721525 24.99999999999999645 #
pcurve $-1 -1 $-1 0 forward { exppc nubs 1 open 2 
	-0.009999999999999897859 1 -0 1 
	4.698043546729243403 0.00999999999999974 
	4.698043546729243403 0 
	4.675461690138323744e-15 
	spline reversed { ref 18 } I I I I 
	} 0 0 #
pcurve $-1 -1 $-1 0 forward { exppc nubs 1 open 2 
	0 1 0.0100000000000000349 1 
	3.091120191298998213e-16 0 
	1.865976114682409836e-16 0.009999999999999868369 
	3.936812356436807329e-15 
	spline reversed { ref 18 } I I I I 
	} 0 0 #
straight-curve $-1 -1 $-1 7.72672045176271638 -23.77599190486721525 24.99999999999999645 1.916000863531734488 -5.895751154120833171 -7.846595377590750431 F 0 F 0.009999999999999897859 #
straight-curve $-1 -1 $-1 -24.97440568413201589 -1.130955668624813448 0 -6.192922748495758078 -0.2804439543567164295 7.846595377590750431 F 0 F 0.0100000000000000349 #
pcurve $-1 -1 $-1 0 forward { exppc nubs 1 open 2 
	-4.698043546729243403 1 -0 1 
	4.698043546729243403 0 
	0 1.313344730651573711e-16 
	1.090858771485163306e-14 
	spline reversed { ref 27 } I I I I 
	} 0 0 #
DXID-attrib $-1 -1 $-1 $-1 $197 @10 ASM ENTITY @2 12 #
straight-curve $-1 -1 $-1 24.97440568413201945 1.13095566862481034 0 -6.960583870845792553 4.82009926281074641 5.321364042571483211 F 0 F 4.698043546729243403 #
point $-1 -1 $-1 24.97440568413201589 1.13095566862481034 0 #
point $-1 -1 $-1 -7.726720451762712827 23.77599190486721525 24.99999999999999645 #
pcurve $-1 -1 $-1 0 forward { exppc nubs 1 open 2 
	-0.009999999999999897859 1 -0 1 
	4.698043546729243403 0.01000000000000000194 
	4.698043546729243403 0 
	2.822532852163769746e-15 
	spline reversed { ref 27 } I I I I 
	} 0 0 #
pcurve $-1 -1 $-1 0 forward { exppc nubs 1 open 2 
	0 1 0.0100000000000000349 1 
	3.09112019129899772e-16 0 
	1.880903145313419842e-16 0.009999999999999868369 
	3.8396988160434822e-15 
	spline reversed { ref 27 } I I I I 
	} 0 0 #
straight-curve $-1 -1 $-1 -7.726720451762712827 23.77599190486721525 24.99999999999999645 -1.91600086353173249 5.895751154120834059 -7.846595377590749543 F 0 F 0.009999999999999897859 #
straight-curve $-1 -1 $-1 24.97440568413201589 1.13095566862481034 0 6.192922748495758967 0.2804439543567158744 7.846595377590749543 F 0 F 0.0100000000000000349 #
End-of-ACIS-data 