                                                                        S      1
,,12H1mm drill v3,12H1mm drill v3,7Hunknown,7Hunknown,32,38,7,99,15,,1.,G      1
2,2HMM,1,0.08,15H20240504.121822,0.01,10000.,7Hunknown,7Hunknown,11,0,  G      2
15H19000100.000000;                                                     G      3
     186       1                                                00000000D      1
     186             -35       1       0                               0D      2
     514       2                                                00010000D      3
     514                       1       1                               0D      4
     510       3                                                00010000D      5
     510             -35       1       1                               0D      6
     510       4                                                00010000D      7
     510             -35       1       1                               0D      8
     510       5                                                00010000D      9
     510             -35       1       1                               0D     10
     508       6                                                00010000D     11
     508                       1       1                               0D     12
     508       7                                                00010000D     13
     508                       1       1                               0D     14
     508       8                                                00010000D     15
     508                       1       1                               0D     16
     126       9                                                00010000D     17
     126       0              10       0                               0D     18
     126      19                                                00010000D     19
     126       0               2       0                               0D     20
     126      21                                                00010000D     21
     126       0               9       0                               0D     22
     128      30                                                00010000D     23
     128       0     -35      11       0                               0D     24
     128      41                                                00010000D     25
     128       0     -35       3       0                               0D     26
     128      44                                                00010000D     27
     128       0     -35       3       0                               0D     28
     502      47                                                00010000D     29
     502                       2       1                               0D     30
     504      49                                                00010001D     31
     504                       1       1                               0D     32
     406      50                                                00000000D     33
     406                       1      15                               0D     34
     314      51                                                00000200D     35
     314                       2       0                               0D     36
186,3,1,0,0,1,33;                                                      1P      1
514,3,5,1,7,1,9,1;                                                     3P      2
510,23,1,1,11;                                                         5P      3
510,25,1,1,13;                                                         7P      4
510,27,1,1,15;                                                         9P      5
508,4,0,31,1,0,0,0,31,2,1,0,0,31,3,1,0,0,31,2,0,0;                    11P      6
508,1,0,31,1,1,0;                                                     13P      7
508,1,0,31,3,0,0;                                                     15P      8
126,8,2,0,1,0,0,-3.14159265358979,-3.14159265358979,                  17P      9
-3.14159265358979,-1.5707963267949,-1.5707963267949,0.,0.,            17P     10
1.5707963267949,1.5707963267949,3.14159265358979,                     17P     11
3.14159265358979,3.14159265358979,1.,0.707106781186548,1.,            17P     12
0.707106781186548,1.,0.707106781186548,1.,0.707106781186548,1.,       17P     13
-0.5,40.,6.12323399573677D-17,-0.5,40.,0.5,3.06161699786838D-17,      17P     14
40.,0.5,0.5,40.,0.5,0.5,40.,0.,0.5,40.,-0.5,                          17P     15
3.06161699786838D-17,40.,-0.5,-0.5,40.,-0.5,-0.5,40.,                 17P     16
-6.12323399573677D-17,-3.14159265358979,3.14159265358979,0.,0.,       17P     17
0.;                                                                   17P     18
126,1,1,0,0,1,0,-80.,-80.,0.,0.,1.,1.,-0.5,40.,0.,-0.5,0.,0.,         19P     19
-80.,0.,0.,0.,0.;                                                     19P     20
126,8,2,0,1,0,0,-3.14159265358979,-3.14159265358979,                  21P     21
-3.14159265358979,-1.5707963267949,-1.5707963267949,0.,0.,            21P     22
1.5707963267949,1.5707963267949,3.14159265358979,                     21P     23
3.14159265358979,3.14159265358979,1.,0.707106781186548,1.,            21P     24
0.707106781186548,1.,0.707106781186548,1.,0.707106781186548,1.,       21P     25
-0.5,0.,6.12323399573677D-17,-0.5,0.,0.5,3.06161699786838D-17,        21P     26
0.,0.5,0.5,0.,0.5,0.5,0.,0.,0.5,0.,-0.5,3.06161699786838D-17,0.,      21P     27
-0.5,-0.5,0.,-0.5,-0.5,0.,-6.12323399573677D-17,                      21P     28
-3.14159265358979,3.14159265358979,0.,0.,0.;                          21P     29
128,1,8,1,2,0,1,0,0,1,0.,0.,80.,80.,-3.14159265358979,                23P     30
-3.14159265358979,-3.14159265358979,-1.5707963267949,                 23P     31
-1.5707963267949,0.,0.,1.5707963267949,1.5707963267949,               23P     32
3.14159265358979,3.14159265358979,3.14159265358979,1.,1.,             23P     33
0.707106781186548,0.707106781186548,1.,1.,0.707106781186548,          23P     34
0.707106781186548,1.,1.,0.707106781186548,0.707106781186548,1.,       23P     35
1.,0.707106781186548,0.707106781186548,1.,1.,-0.5,40.,0.,-0.5,        23P     36
0.,0.,-0.5,40.,0.5,-0.5,0.,0.5,0.,40.,0.5,0.,0.,0.5,0.5,40.,0.5,      23P     37
0.5,0.,0.5,0.5,40.,0.,0.5,0.,0.,0.5,40.,-0.5,0.5,0.,-0.5,0.,40.,      23P     38
-0.5,0.,0.,-0.5,-0.5,40.,-0.5,-0.5,0.,-0.5,-0.5,40.,0.,-0.5,0.,       23P     39
0.,0.,80.,-3.14159265358979,3.14159265358979;                         23P     40
128,1,1,1,1,0,0,1,0,0,-0.051,-0.051,0.051,0.051,-0.051,-0.051,        25P     41
0.051,0.051,1.,1.,1.,1.,-0.51,40.,0.51,0.51,40.,0.51,-0.51,40.,       25P     42
-0.51,0.51,40.,-0.51,-0.051,0.051,-0.051,0.051;                       25P     43
128,1,1,1,1,0,0,1,0,0,-0.051,-0.051,0.051,0.051,-0.051,-0.051,        27P     44
0.051,0.051,1.,1.,1.,1.,0.51,0.,0.51,-0.51,0.,0.51,0.51,0.,           27P     45
-0.51,-0.51,0.,-0.51,-0.051,0.051,-0.051,0.051;                       27P     46
502,2,-0.5,40.,6.12323399573677D-17,-0.5,0.,                          29P     47
6.12323399573677D-17;                                                 29P     48
504,3,17,29,1,29,1,19,29,1,29,2,21,29,2,29,2;                         31P     49
406,1,5HBody1;                                                        33P     50
314,62.7450980392157,62.7450980392157,62.7450980392157,13HSteel       35P     51
- Satin;                                                              35P     52
S      1G      3D     36P     52                                        T      1
