700 0 1 0           
30 Autodesk Translation Framework 21 ASM 229.10.0.65535 NT 24 Sat May  4 12:41:01 2024 
1 9.999999999999999547e-07 1.000000000000000036e-10 
body $1 -1 $-1 $2 $-1 $3 #
rgb_color-st-attrib $-1 -1 $4 $-1 $0 0.9647058823529411908 0.9647058823529411908 0.9529411764705881804 #
lump $-1 -1 $-1 $-1 $5 $0 #
transform $-1 -1 1 0 0 0 1 0 0 0 1 0 0 0 1 no_rotate no_reflect no_shear #
ATTRIB_CUSTOM-attrib $-1 -1 $-1 $1 $0 @20 Timestamp_attrib_def 1 1708234460267408 #
shell $-1 -1 $-1 $-1 $-1 $6 $-1 $2 #
face $7 -1 $-1 $8 $9 $5 $-1 $10 forward single #
DXID-attrib $-1 -1 $-1 $-1 $6 @10 ASM ENTITY @1 0 #
face $11 -1 $-1 $12 $13 $5 $-1 $14 forward single #
loop $-1 -1 $-1 $-1 $15 $6 #
plane-surface $-1 -1 $-1 8.789232063543796158 -28.01099999999999923 39.72506622527106401 -0.7410506113048866972 -0 -0.6714491726740406952 6.714491726740407174 0 -7.410506113048866972 forward_v I I I I #
DXID-attrib $-1 -1 $-1 $-1 $8 @10 ASM ENTITY @1 1 #
face $16 -1 $-1 $17 $18 $5 $-1 $19 reversed single #
loop $-1 -1 $-1 $-1 $20 $8 #
plane-surface $-1 -1 $-1 47.62270587231439833 -28.01099999999999923 -0.6459160359615998548 0.7410506113048868082 0 0.6714491726740406952 -6.714491726740407174 0 7.41050611304886786 forward_v I I I I #
coedge $21 -1 $-1 $22 $23 $24 $25 forward $9 $-1 #
DXID-attrib $-1 -1 $-1 $-1 $12 @10 ASM ENTITY @1 2 #
face $26 -1 $-1 $27 $28 $5 $-1 $29 forward single #
loop $-1 -1 $-1 $-1 $30 $12 #
plane-surface $-1 -1 $-1 23.81135293615719917 -28.01099999999999923 16.41185830226338993 0 -1 0 -10 0 0 forward_v I I I I #
coedge $31 -1 $-1 $32 $33 $34 $35 forward $13 $-1 #
ATTRIB_CUSTOM-attrib $-1 -1 $-1 $-1 $15 @17 sketch_attrib_def 1 1 3 @13 108 0 0 0 1 3 #
coedge $-1 -1 $-1 $36 $15 $37 $38 forward $9 $-1 #
coedge $-1 -1 $-1 $15 $36 $39 $40 reversed $9 $-1 #
coedge $41 -1 $-1 $30 $42 $15 $25 reversed $18 $-1 #
edge $-1 -1 $-1 $43 0 $44 5.447803651378817058 $15 $45 forward @7 unknown #
DXID-attrib $-1 -1 $-1 $-1 $17 @10 ASM ENTITY @1 3 #
face $46 -1 $-1 $47 $48 $5 $-1 $49 forward single #
loop $-1 -1 $-1 $-1 $50 $17 #
plane-surface $-1 -1 $-1 -8.789232063543796158 -28.01099999999999923 39.72506622527106401 0.7410506113048866972 0 -0.6714491726740406952 -6.714491726740407174 -0 -7.410506113048866972 reverse_v I I I I #
coedge $-1 -1 $-1 $34 $24 $51 $52 forward $18 $-1 #
ATTRIB_CUSTOM-attrib $-1 -1 $-1 $-1 $20 @17 sketch_attrib_def 1 1 3 @13 106 0 0 0 1 1 #
coedge $-1 -1 $-1 $53 $20 $54 $55 forward $13 $-1 #
coedge $-1 -1 $-1 $20 $53 $56 $57 reversed $13 $-1 #
coedge $58 -1 $-1 $42 $30 $20 $35 reversed $18 $-1 #
edge $-1 -1 $-1 $59 0 $60 5.783531410742025258 $20 $61 forward @7 unknown #
coedge $-1 -1 $-1 $23 $22 $62 $63 reversed $9 $-1 #
coedge $-1 -1 $-1 $64 $65 $22 $38 reversed $66 $-1 #
edge $-1 -1 $-1 $44 0 $67 0.2999999999999998224 $37 $68 forward @7 unknown #
coedge $-1 -1 $-1 $69 $51 $23 $40 forward $70 $-1 #
edge $-1 -1 $-1 $43 0 $71 0.2999999999999998224 $23 $72 forward @7 unknown #
ATTRIB_CUSTOM-attrib $-1 -1 $-1 $-1 $24 @17 sketch_attrib_def 1 1 3 @13 108 0 0 0 1 3 #
coedge $-1 -1 $-1 $24 $34 $64 $73 forward $18 $-1 #
vertex $-1 -1 $-1 $25 $74 #
vertex $-1 -1 $-1 $25 $75 #
straight-curve $-1 -1 $-1 8.789232063543796158 -28.01099999999999923 39.72506622527106401 6.714491726740407174 0 -7.410506113048866972 F 0 F 5.447803651378817058 #
DXID-attrib $-1 -1 $-1 $-1 $27 @10 ASM ENTITY @1 4 #
face $76 -1 $-1 $77 $78 $5 $-1 $79 forward single #
loop $-1 -1 $-1 $-1 $80 $27 #
plane-surface $-1 -1 $-1 -47.62270587231439833 -28.01099999999999923 -0.6459160359615998548 -0.7410506113048868082 0 0.6714491726740406952 6.714491726740407174 0 7.41050611304886786 reverse_v I I I I #
coedge $81 -1 $-1 $82 $83 $84 $85 reversed $28 $-1 #
coedge $86 -1 $-1 $39 $87 $30 $52 reversed $70 $-1 #
edge $-1 -1 $-1 $43 1.041264765496320521 $60 1.290056026804446532 $51 $88 forward @7 unknown #
coedge $-1 -1 $-1 $33 $32 $89 $90 reversed $13 $-1 #
coedge $-1 -1 $-1 $91 $92 $32 $55 reversed $93 $-1 #
edge $-1 -1 $-1 $60 0 $94 0.2999999999999998224 $54 $95 forward @7 unknown #
coedge $-1 -1 $-1 $96 $97 $33 $57 forward $98 $-1 #
edge $-1 -1 $-1 $59 0 $99 0.2999999999999998224 $56 $100 forward @7 unknown #
ATTRIB_CUSTOM-attrib $-1 -1 $-1 $-1 $34 @17 sketch_attrib_def 1 1 3 @13 106 0 0 0 1 1 #
vertex $-1 -1 $-1 $35 $101 #
vertex $-1 -1 $-1 $35 $102 #
straight-curve $-1 -1 $-1 47.62270587231439833 -28.01099999999999923 -0.6459160359615998548 -6.714491726740407174 0 7.41050611304886786 F 0 F 5.783531410742025258 #
coedge $-1 -1 $-1 $103 $104 $36 $63 forward $78 $-1 #
edge $-1 -1 $-1 $71 0 $67 5.447803651378817058 $62 $105 forward @7 unknown #
coedge $106 -1 $-1 $107 $37 $42 $73 reversed $66 $-1 #
coedge $-1 -1 $-1 $37 $108 $103 $109 forward $66 $-1 #
loop $-1 -1 $-1 $-1 $110 $111 #
vertex $-1 -1 $-1 $38 $112 #
straight-curve $-1 -1 $-1 45.36846460963304395 -28.01099999999999923 -0.6459160359615998548 0 -10 0 I I #
coedge $-1 -1 $-1 $113 $39 $104 $114 reversed $70 $-1 #
loop $-1 -1 $-1 $-1 $115 $116 #
vertex $-1 -1 $-1 $63 $117 #
straight-curve $-1 -1 $-1 8.789232063543790829 -28.01099999999999923 39.72506622527106401 0 -10 0 I I #
edge $-1 -1 $-1 $59 -3.571702940423579609 $44 -3.346278814155444703 $64 $118 forward @7 unknown #
point $-1 -1 $-1 8.789232063543790829 -28.01099999999999923 39.72506622527106401 #
point $-1 -1 $-1 45.36846460963304395 -28.01099999999999923 -0.6459160359615998548 #
DXID-attrib $-1 -1 $-1 $-1 $47 @10 ASM ENTITY @1 5 #
face $119 -1 $-1 $120 $121 $5 $-1 $122 reversed single #
loop $-1 -1 $-1 $123 $124 $47 #
plane-surface $-1 -1 $-1 -23.81135293615719917 -31.01099999999999568 16.41185830226338993 0 -1 0 0 0 10 reverse_v I I I I #
coedge $125 -1 $-1 $126 $127 $128 $129 reversed $48 $-1 #
ATTRIB_CUSTOM-attrib $-1 -1 $-1 $-1 $50 @17 sketch_attrib_def 1 1 3 @13 108 0 0 0 1 3 #
coedge $-1 -1 $-1 $130 $50 $131 $132 forward $28 $-1 #
coedge $-1 -1 $-1 $50 $130 $108 $133 reversed $28 $-1 #
coedge $134 -1 $-1 $135 $136 $50 $85 forward $121 $-1 #
edge $-1 -1 $-1 $137 0 $138 5.447803651378817058 $84 $139 forward @7 unknown #
ATTRIB_CUSTOM-attrib $-1 -1 $-1 $-1 $51 @17 sketch_attrib_def 1 1 3 @13 116 0 0 0 1 1 #
coedge $-1 -1 $-1 $51 $140 $91 $141 forward $70 $-1 #
straight-curve $-1 -1 $-1 8.789232063543790829 -28.01099999999999923 29.3124185703078588 0 0 10 I I #
coedge $-1 -1 $-1 $142 $143 $53 $90 forward $123 $-1 #
edge $-1 -1 $-1 $99 0 $94 5.783531410742025258 $89 $144 forward @7 unknown #
coedge $-1 -1 $-1 $145 $54 $87 $141 reversed $93 $-1 #
coedge $-1 -1 $-1 $54 $146 $142 $147 forward $93 $-1 #
loop $-1 -1 $-1 $-1 $148 $149 #
vertex $-1 -1 $-1 $55 $150 #
straight-curve $-1 -1 $-1 8.789232063543790829 -28.01099999999999923 42.21297883835232767 0 -10 0 I I #
coedge $-1 -1 $-1 $151 $56 $143 $152 reversed $98 $-1 #
coedge $-1 -1 $-1 $56 $153 $107 $154 reversed $98 $-1 #
loop $-1 -1 $-1 $-1 $153 $155 #
vertex $-1 -1 $-1 $90 $156 #
straight-curve $-1 -1 $-1 47.62270587231439833 -28.01099999999999923 -0.6459160359616000768 0 -10 0 I I #
point $-1 -1 $-1 47.62270587231439833 -28.01099999999999923 -0.6459160359616000768 #
point $-1 -1 $-1 8.789232063543790829 -28.01099999999999923 42.21297883835232767 #
coedge $-1 -1 $-1 $157 $62 $65 $109 reversed $78 $-1 #
coedge $-1 -1 $-1 $62 $124 $69 $114 forward $78 $-1 #
straight-curve $-1 -1 $-1 8.789232063543796158 -31.01099999999999568 39.72506622527106401 6.714491726740407174 0 -7.410506113048866972 I I #
ATTRIB_CUSTOM-attrib $-1 -1 $-1 $-1 $64 @17 sketch_attrib_def 1 1 3 @13 121 0 0 0 1 1 #
coedge $-1 -1 $-1 $158 $64 $97 $154 forward $66 $-1 #
coedge $-1 -1 $-1 $65 $159 $83 $133 forward $66 $-1 #
edge $-1 -1 $-1 $160 0.2254241262681349056 $67 9.299117048194744939 $103 $161 forward @7 unknown #
coedge $-1 -1 $-1 $162 $163 $164 $165 reversed $66 $-1 #
face $166 -1 $-1 $167 $66 $5 $-1 $168 forward single #
point $-1 -1 $-1 45.36846460963304395 -31.01099999999999568 -0.6459160359616000768 #
coedge $-1 -1 $-1 $169 $69 $170 $171 forward $70 $-1 #
edge $-1 -1 $-1 $172 0 $71 0.352602971666598819 $104 $173 forward @7 unknown #
coedge $-1 -1 $-1 $140 $169 $174 $175 reversed $70 $-1 #
face $176 -1 $-1 $177 $70 $5 $-1 $178 forward single #
point $-1 -1 $-1 8.789232063543792606 -31.01099999999999568 39.72506622527106401 #
straight-curve $-1 -1 $-1 11.90567646807859958 -28.01099999999999923 -0.6459160359616000768 -10 -0 -2.914111567919611237e-17 I I #
DXID-attrib $-1 -1 $-1 $-1 $77 @10 ASM ENTITY @1 6 #
face $179 -1 $-1 $116 $180 $5 $-1 $181 forward single #
loop $-1 -1 $-1 $-1 $136 $77 #
plane-surface $-1 -1 $-1 -23.81135293615719917 -28.01099999999999923 16.41185830226338993 0 -1 0 10 0 0 reverse_v I I I I #
loop $-1 -1 $-1 $-1 $142 $47 #
coedge $-1 -1 $-1 $104 $182 $183 $184 forward $78 $-1 #
ATTRIB_CUSTOM-attrib $-1 -1 $-1 $-1 $80 @17 sketch_attrib_def 1 1 3 @13 106 0 0 0 1 1 #
coedge $-1 -1 $-1 $185 $80 $186 $187 forward $48 $-1 #
coedge $-1 -1 $-1 $80 $185 $146 $188 reversed $48 $-1 #
coedge $189 -1 $-1 $136 $135 $80 $129 forward $121 $-1 #
edge $-1 -1 $-1 $190 0 $191 5.783531410742025258 $80 $192 forward @7 unknown #
coedge $-1 -1 $-1 $83 $82 $157 $193 forward $28 $-1 #
coedge $-1 -1 $-1 $194 $195 $82 $132 reversed $196 $-1 #
edge $-1 -1 $-1 $137 0 $197 0.2999999999999998224 $131 $198 forward @7 unknown #
edge $-1 -1 $-1 $138 0 $160 0.2999999999999998224 $108 $199 forward @7 unknown #
ATTRIB_CUSTOM-attrib $-1 -1 $-1 $-1 $84 @17 sketch_attrib_def 1 1 3 @13 108 0 0 0 1 3 #
coedge $-1 -1 $-1 $128 $84 $159 $200 reversed $121 $-1 #
coedge $-1 -1 $-1 $84 $128 $194 $201 reversed $121 $-1 #
vertex $-1 -1 $-1 $85 $202 #
vertex $-1 -1 $-1 $85 $203 #
straight-curve $-1 -1 $-1 -8.789232063543796158 -28.01099999999999923 39.72506622527106401 -6.714491726740407174 -0 -7.410506113048866972 F 0 F 5.447803651378817058 #
coedge $204 -1 $-1 $87 $115 $205 $206 forward $70 $-1 #
edge $-1 -1 $-1 $207 0 $60 5.602199999999999847 $91 $208 forward @7 unknown #
coedge $-1 -1 $-1 $209 $89 $92 $147 reversed $123 $-1 #
coedge $-1 -1 $-1 $89 $210 $96 $152 forward $123 $-1 #
straight-curve $-1 -1 $-1 47.62270587231439833 -31.01099999999999568 -0.6459160359615998548 -6.714491726740407174 0 7.41050611304886786 I I #
coedge $-1 -1 $-1 $148 $91 $211 $212 forward $93 $-1 #
coedge $-1 -1 $-1 $92 $213 $127 $188 forward $93 $-1 #
edge $-1 -1 $-1 $214 0 $94 1.757846412708758077 $142 $215 forward @7 unknown #
coedge $-1 -1 $-1 $216 $145 $217 $218 reversed $93 $-1 #
face $219 -1 $-1 $220 $93 $5 $-1 $221 forward single #
point $-1 -1 $-1 8.789232063543792606 -31.01099999999999568 42.21297883835232767 #
coedge $-1 -1 $-1 $222 $96 $223 $224 reversed $98 $-1 #
edge $-1 -1 $-1 $225 0 $99 0.8743346197863945957 $143 $226 forward @7 unknown #
coedge $-1 -1 $-1 $97 $222 $227 $228 reversed $98 $-1 #
edge $-1 -1 $-1 $59 0 $229 5.602199999999999847 $97 $230 forward @7 unknown #
face $231 -1 $-1 $232 $98 $5 $-1 $233 forward single #
point $-1 -1 $-1 47.62270587231439833 -31.01099999999999568 -0.6459160359616000768 #
coedge $-1 -1 $-1 $182 $103 $130 $193 reversed $78 $-1 #
coedge $234 -1 $-1 $163 $107 $235 $236 forward $66 $-1 #
coedge $237 -1 $-1 $108 $238 $135 $200 forward $66 $-1 #
vertex $-1 -1 $-1 $193 $239 #
straight-curve $-1 -1 $-1 -47.62270587231439833 -31.01099999999999568 -0.6459160359615998548 10 0 -2.914111567919611237e-17 I I #
coedge $-1 -1 $-1 $240 $110 $241 $242 reversed $66 $-1 #
coedge $-1 -1 $-1 $110 $158 $243 $244 forward $66 $-1 #
coedge $-1 -1 $-1 $245 $246 $110 $165 forward $247 $-1 #
edge $-1 -1 $-1 $248 0.2254241262681349056 $249 9.299117048194744939 $110 $250 forward @7 unknown #
DXID-attrib $-1 -1 $-1 $-1 $111 @10 ASM ENTITY @2 13 #
face $251 -1 $-1 $252 $253 $5 $-1 $254 forward single #
plane-surface $-1 -1 $-1 -45.36846460963304395 28.01099999999999923 -0.6459160359615998548 2.91411156791961116e-18 0 1 10 0 -2.914111567919611237e-17 forward_v I I I I #
coedge $-1 -1 $-1 $115 $113 $255 $256 forward $70 $-1 #
coedge $-1 -1 $-1 $183 $257 $113 $171 reversed $258 $-1 #
edge $-1 -1 $-1 $172 -5.902199999999999669 $259 0.2999999999999998224 $170 $260 forward @7 unknown #
vertex $-1 -1 $-1 $184 $261 #
straight-curve $-1 -1 $-1 8.789232063543790829 -31.01099999999999568 36.19903650860507582 0 0 10 I I #
coedge $-1 -1 $-1 $262 $263 $115 $175 forward $180 $-1 #
edge $-1 -1 $-1 $264 0 $265 0.2999999999999998224 $115 $266 forward @7 unknown #
DXID-attrib $-1 -1 $-1 $-1 $116 @10 ASM ENTITY @1 8 #
face $267 -1 $-1 $155 $268 $5 $-1 $269 forward single #
plane-surface $-1 -1 $-1 8.789232063543790829 28.01099999999999923 36.19903650860507582 1 0 0 0 0 10 reverse_v I I I I #
DXID-attrib $-1 -1 $-1 $-1 $120 @10 ASM ENTITY @1 7 #
loop $-1 -1 $-1 $-1 $263 $120 #
plane-surface $-1 -1 $-1 8.789232063543796158 28.01099999999999923 39.72506622527106401 -0.7410506113048866972 0 -0.6714491726740406952 6.714491726740407174 0 -7.410506113048866972 reverse_v I I I I #
coedge $-1 -1 $-1 $124 $157 $195 $270 reversed $78 $-1 #
coedge $-1 -1 $-1 $271 $170 $124 $184 reversed $258 $-1 #
edge $-1 -1 $-1 $272 -0.8789232063543790385 $172 0.8789232063543790385 $124 $273 forward @7 unknown #
coedge $-1 -1 $-1 $127 $126 $209 $274 forward $48 $-1 #
coedge $-1 -1 $-1 $275 $276 $126 $187 reversed $277 $-1 #
edge $-1 -1 $-1 $190 0 $278 0.2999999999999998224 $186 $279 forward @7 unknown #
edge $-1 -1 $-1 $191 0 $214 0.2999999999999998224 $127 $280 forward @7 unknown #
ATTRIB_CUSTOM-attrib $-1 -1 $-1 $-1 $128 @17 sketch_attrib_def 1 1 3 @13 106 0 0 0 1 1 #
vertex $-1 -1 $-1 $129 $281 #
vertex $-1 -1 $-1 $129 $282 #
straight-curve $-1 -1 $-1 -47.62270587231439833 -28.01099999999999923 -0.6459160359615998548 6.714491726740407174 0 7.41050611304886786 F 0 F 5.783531410742025258 #
edge $-1 -1 $-1 $197 0 $160 5.447803651378817058 $157 $283 forward @7 unknown #
coedge $284 -1 $-1 $285 $131 $136 $201 forward $196 $-1 #
coedge $-1 -1 $-1 $131 $286 $182 $270 forward $196 $-1 #
loop $-1 -1 $-1 $-1 $287 $252 #
vertex $-1 -1 $-1 $132 $288 #
straight-curve $-1 -1 $-1 -8.789232063543790829 -28.01099999999999923 39.72506622527106401 0 -10 0 I I #
straight-curve $-1 -1 $-1 -45.36846460963304395 -28.01099999999999923 -0.6459160359615998548 0 -10 0 I I #
edge $-1 -1 $-1 $190 -3.571702940423579609 $138 -3.346278814155444703 $159 $289 forward @7 unknown #
edge $-1 -1 $-1 $137 1.041264765496320521 $191 1.290056026804446532 $136 $290 forward @7 unknown #
point $-1 -1 $-1 -8.789232063543790829 -28.01099999999999923 39.72506622527106401 #
point $-1 -1 $-1 -45.36846460963304395 -28.01099999999999923 -0.6459160359615998548 #
ATTRIB_CUSTOM-attrib $-1 -1 $-1 $-1 $140 @17 sketch_attrib_def 1 1 3 @13 116 0 0 0 1 1 #
coedge $-1 -1 $-1 $291 $292 $140 $206 reversed $293 $-1 #
edge $-1 -1 $-1 $264 1.041264765496320521 $207 1.290056026804446532 $205 $294 forward @7 unknown #
vertex $-1 -1 $-1 $206 $295 #
straight-curve $-1 -1 $-1 8.789232063543790829 28.01099999999999923 42.21297883835232767 0 -10 0 I I #
coedge $-1 -1 $-1 $296 $142 $185 $274 reversed $123 $-1 #
coedge $-1 -1 $-1 $143 $296 $297 $298 forward $123 $-1 #
coedge $-1 -1 $-1 $299 $300 $145 $212 reversed $268 $-1 #
edge $-1 -1 $-1 $207 0 $301 0.2999999999999998224 $211 $302 forward @7 unknown #
coedge $-1 -1 $-1 $146 $216 $285 $303 reversed $93 $-1 #
vertex $-1 -1 $-1 $274 $304 #
straight-curve $-1 -1 $-1 -8.789232063543790829 -31.01099999999999568 42.21297883835232767 10 0 0 I I #
coedge $-1 -1 $-1 $213 $148 $305 $306 reversed $93 $-1 #
coedge $-1 -1 $-1 $307 $308 $148 $218 forward $309 $-1 #
edge $-1 -1 $-1 $310 0 $301 1.757846412708758077 $148 $311 forward @7 unknown #
DXID-attrib $-1 -1 $-1 $-1 $149 @10 ASM ENTITY @2 17 #
face $312 -1 $-1 $313 $314 $5 $-1 $315 forward single #
plane-surface $-1 -1 $-1 -8.789232063543790829 28.01099999999999923 42.21297883835232767 0 0 1 10 0 0 forward_v I I I I #
coedge $-1 -1 $-1 $153 $151 $316 $317 forward $98 $-1 #
coedge $-1 -1 $-1 $297 $318 $151 $224 forward $319 $-1 #
edge $-1 -1 $-1 $320 -0.2999999999999998224 $225 5.902199999999999669 $223 $321 forward @7 unknown #
vertex $-1 -1 $-1 $298 $322 #
straight-curve $-1 -1 $-1 47.62270587231439833 -31.01099999999999568 -9.389262233825546033 0 0 10 I I #
coedge $-1 -1 $-1 $300 $299 $153 $228 forward $268 $-1 #
edge $-1 -1 $-1 $229 0 $323 0.2999999999999998224 $153 $324 forward @7 unknown #
vertex $-1 -1 $-1 $325 $326 #
straight-curve $-1 -1 $-1 47.62270587231439833 -28.01099999999999923 -0.6459160359616000768 0 10 0 I I #
DXID-attrib $-1 -1 $-1 $-1 $155 @10 ASM ENTITY @2 10 #
face $327 -1 $-1 $328 $293 $5 $-1 $329 reversed single #
plane-surface $-1 -1 $-1 47.62270587231439833 28.01099999999999923 -9.389262233825546033 1 0 0 0 0 10 reverse_v I I I I #
ATTRIB_CUSTOM-attrib $-1 -1 $-1 $-1 $158 @17 sketch_attrib_def 1 1 3 @13 121 0 0 0 1 1 #
coedge $-1 -1 $-1 $292 $291 $158 $236 reversed $293 $-1 #
edge $-1 -1 $-1 $229 -3.571702940423579609 $330 -3.346278814155444703 $158 $331 forward @7 unknown #
ATTRIB_CUSTOM-attrib $-1 -1 $-1 $-1 $159 @17 sketch_attrib_def 1 1 3 @13 121 0 0 0 1 1 #
coedge $-1 -1 $-1 $159 $240 $275 $332 reversed $66 $-1 #
point $-1 -1 $-1 -45.36846460963304395 -31.01099999999999568 -0.6459160359616000768 #
coedge $333 -1 $-1 $238 $162 $334 $335 reversed $66 $-1 #
coedge $-1 -1 $-1 $336 $337 $162 $242 forward $253 $-1 #
edge $-1 -1 $-1 $338 0 $248 0.2999999999999998224 $241 $339 forward @7 unknown #
coedge $-1 -1 $-1 $263 $262 $163 $244 reversed $180 $-1 #
edge $-1 -1 $-1 $330 0 $249 0.2999999999999998224 $163 $340 forward @7 unknown #
coedge $-1 -1 $-1 $255 $164 $262 $341 reversed $247 $-1 #
coedge $-1 -1 $-1 $164 $342 $336 $343 forward $247 $-1 #
loop $-1 -1 $-1 $309 $344 $345 #
vertex $-1 -1 $-1 $165 $346 #
vertex $-1 -1 $-1 $341 $347 #
straight-curve $-1 -1 $-1 -47.62270587231439833 31.01099999999999568 -0.6459160359615998548 10 0 -2.914111567919611237e-17 I I #
DXID-attrib $-1 -1 $-1 $-1 $167 @10 ASM ENTITY @2 14 #
face $348 -1 $-1 $349 $196 $5 $-1 $350 forward single #
loop $-1 -1 $-1 $-1 $337 $167 #
plane-surface $-1 -1 $-1 -8.789232063543796158 28.01099999999999923 39.72506622527106401 0.7410506113048866972 0 -0.6714491726740406952 -6.714491726740407174 0 -7.410506113048866972 forward_v I I I I #
coedge $-1 -1 $-1 $344 $245 $169 $256 reversed $247 $-1 #
edge $-1 -1 $-1 $259 0 $265 0.352602971666598819 $255 $351 forward @7 unknown #
coedge $-1 -1 $-1 $170 $271 $344 $352 forward $258 $-1 #
loop $-1 -1 $-1 $-1 $271 $349 #
vertex $-1 -1 $-1 $171 $353 #
straight-curve $-1 -1 $-1 8.789232063543790829 28.01099999999999923 36.19903650860507582 0 10 0 I I #
point $-1 -1 $-1 8.789232063543792606 -31.01099999999999568 36.19903650860507582 #
coedge $-1 -1 $-1 $243 $174 $245 $341 forward $180 $-1 #
coedge $354 -1 $-1 $174 $243 $291 $355 reversed $180 $-1 #
vertex $-1 -1 $-1 $355 $356 #
vertex $-1 -1 $-1 $175 $357 #
straight-curve $-1 -1 $-1 8.789232063543790829 28.01099999999999923 39.72506622527106401 0 10 0 I I #
DXID-attrib $-1 -1 $-1 $-1 $177 @10 ASM ENTITY @1 9 #
loop $-1 -1 $-1 $-1 $299 $177 #
plane-surface $-1 -1 $-1 47.62270587231439833 28.01099999999999923 -0.6459160359615998548 0.7410506113048868082 0 0.6714491726740406952 -6.714491726740407174 0 7.41050611304886786 reverse_v I I I I #
edge $-1 -1 $-1 $272 0 $197 0.352602971666598819 $182 $358 forward @7 unknown #
coedge $-1 -1 $-1 $257 $183 $286 $359 forward $258 $-1 #
vertex $-1 -1 $-1 $184 $360 #
straight-curve $-1 -1 $-1 0 -31.01099999999999568 36.19903650860507582 10 0 0 I I #
edge $-1 -1 $-1 $278 0 $214 5.783531410742025258 $209 $361 forward @7 unknown #
coedge $-1 -1 $-1 $362 $186 $238 $332 forward $277 $-1 #
coedge $-1 -1 $-1 $186 $363 $296 $364 forward $277 $-1 #
loop $-1 -1 $-1 $-1 $362 $313 #
vertex $-1 -1 $-1 $187 $365 #
straight-curve $-1 -1 $-1 -47.62270587231439833 -28.01099999999999923 -0.6459160359616000768 0 -10 0 I I #
straight-curve $-1 -1 $-1 -8.789232063543790829 -28.01099999999999923 42.21297883835232767 0 -10 0 I I #
point $-1 -1 $-1 -47.62270587231439833 -28.01099999999999923 -0.6459160359616000768 #
point $-1 -1 $-1 -8.789232063543790829 -28.01099999999999923 42.21297883835232767 #
straight-curve $-1 -1 $-1 -8.789232063543796158 -31.01099999999999568 39.72506622527106401 -6.714491726740407174 -0 -7.410506113048866972 I I #
ATTRIB_CUSTOM-attrib $-1 -1 $-1 $-1 $194 @17 sketch_attrib_def 1 1 3 @13 116 0 0 0 1 1 #
coedge $-1 -1 $-1 $366 $194 $213 $303 forward $196 $-1 #
coedge $-1 -1 $-1 $195 $367 $271 $359 reversed $196 $-1 #
coedge $-1 -1 $-1 $367 $366 $368 $369 forward $196 $-1 #
point $-1 -1 $-1 -8.789232063543792606 -31.01099999999999568 39.72506622527106401 #
straight-curve $-1 -1 $-1 -11.90567646807859958 -28.01099999999999923 -0.6459160359616000768 10 0 -2.914111567919611237e-17 I I #
straight-curve $-1 -1 $-1 -8.789232063543790829 -28.01099999999999923 29.3124185703078588 0 0 10 I I #
coedge $370 -1 $-1 $235 $205 $263 $355 forward $293 $-1 #
coedge $371 -1 $-1 $205 $235 $299 $325 forward $293 $-1 #
loop $-1 -1 $-1 $-1 $205 $232 #
straight-curve $-1 -1 $-1 8.789232063543790829 28.01099999999999923 29.3124185703078588 0 0 10 I I #
point $-1 -1 $-1 8.789232063543790829 28.01099999999999923 42.21297883835232767 #
coedge $-1 -1 $-1 $210 $209 $276 $364 reversed $123 $-1 #
coedge $-1 -1 $-1 $372 $223 $210 $298 reversed $319 $-1 #
edge $-1 -1 $-1 $373 -4.762270587231439478 $225 4.762270587231439478 $297 $374 forward @7 unknown #
coedge $375 -1 $-1 $227 $211 $292 $325 reversed $268 $-1 #
coedge $-1 -1 $-1 $211 $227 $307 $376 forward $268 $-1 #
vertex $-1 -1 $-1 $376 $377 #
straight-curve $-1 -1 $-1 8.789232063543790829 28.01099999999999923 42.21297883835232767 0 10 0 I I #
edge $-1 -1 $-1 $191 0 $378 5.602199999999999847 $285 $379 forward @7 unknown #
point $-1 -1 $-1 -8.789232063543792606 -31.01099999999999568 42.21297883835232767 #
coedge $-1 -1 $-1 $380 $381 $216 $306 forward $314 $-1 #
edge $-1 -1 $-1 $378 0 $310 0.2999999999999998224 $305 $382 forward @7 unknown #
coedge $-1 -1 $-1 $316 $217 $300 $376 reversed $309 $-1 #
coedge $-1 -1 $-1 $217 $383 $380 $384 forward $309 $-1 #
loop $-1 -1 $-1 $-1 $217 $345 #
vertex $-1 -1 $-1 $218 $385 #
straight-curve $-1 -1 $-1 -8.789232063543790829 31.01099999999999568 42.21297883835232767 10 0 0 I I #
DXID-attrib $-1 -1 $-1 $-1 $220 @10 ASM ENTITY @2 18 #
face $386 -1 $-1 $345 $277 $5 $-1 $387 forward single #
loop $-1 -1 $-1 $-1 $381 $220 #
plane-surface $-1 -1 $-1 -47.62270587231439833 28.01099999999999923 -0.6459160359615998548 -0.7410506113048868082 0 0.6714491726740406952 6.714491726740407174 0 7.41050611304886786 forward_v I I I I #
coedge $-1 -1 $-1 $388 $307 $222 $317 reversed $309 $-1 #
edge $-1 -1 $-1 $320 0 $323 0.8743346197863945957 $222 $389 forward @7 unknown #
coedge $-1 -1 $-1 $223 $372 $388 $390 forward $319 $-1 #
loop $-1 -1 $-1 $-1 $372 $328 #
vertex $-1 -1 $-1 $224 $391 #
straight-curve $-1 -1 $-1 47.62270587231439833 28.01099999999999923 -9.389262233825546033 0 -10 0 I I #
point $-1 -1 $-1 47.62270587231439833 -31.01099999999999568 -9.389262233825546033 #
vertex $-1 -1 $-1 $228 $392 #
straight-curve $-1 -1 $-1 47.62270587231439833 28.01099999999999923 -0.6459160359616000768 0 10 0 I I #
edge $-1 -1 $-1 $229 0 $207 5.783531410742025258 $299 $393 forward @7 unknown #
point $-1 -1 $-1 47.62270587231439833 28.01099999999999923 -0.6459160359616000768 #
DXID-attrib $-1 -1 $-1 $-1 $232 @10 ASM ENTITY @2 11 #
face $394 -1 $-1 $111 $319 $5 $-1 $395 forward single #
plane-surface $-1 -1 $-1 23.81135293615719917 28.01099999999999923 16.41185830226338993 0 1 0 -10 0 0 reverse_v I I I I #
vertex $-1 -1 $-1 $355 $396 #
straight-curve $-1 -1 $-1 11.90567646807859958 28.01099999999999923 -0.6459160359616000768 -10 0 -2.914111567919611237e-17 I I #
edge $-1 -1 $-1 $190 0 $397 5.602199999999999847 $275 $398 forward @7 unknown #
ATTRIB_CUSTOM-attrib $-1 -1 $-1 $-1 $240 @17 sketch_attrib_def 1 1 3 @13 121 0 0 0 1 1 #
coedge $-1 -1 $-1 $399 $400 $240 $335 forward $401 $-1 #
edge $-1 -1 $-1 $397 -3.571702940423579609 $338 -3.346278814155444703 $334 $402 forward @7 unknown #
coedge $-1 -1 $-1 $368 $241 $246 $343 reversed $253 $-1 #
coedge $403 -1 $-1 $241 $368 $399 $404 forward $253 $-1 #
vertex $-1 -1 $-1 $242 $405 #
straight-curve $-1 -1 $-1 -45.36846460963304395 28.01099999999999923 -0.6459160359615998548 0 10 0 I I #
straight-curve $-1 -1 $-1 45.36846460963304395 28.01099999999999923 -0.6459160359615998548 0 10 0 I I #
edge $-1 -1 $-1 $265 0 $249 5.447803651378817058 $245 $406 forward @7 unknown #
coedge $-1 -1 $-1 $246 $344 $367 $407 forward $247 $-1 #
edge $-1 -1 $-1 $408 0 $248 5.447803651378817058 $336 $409 forward @7 unknown #
coedge $-1 -1 $-1 $342 $255 $257 $352 reversed $247 $-1 #
face $410 -1 $-1 $411 $247 $5 $-1 $412 forward single #
point $-1 -1 $-1 -45.36846460963304395 31.01099999999999568 -0.6459160359616000768 #
point $-1 -1 $-1 45.36846460963304395 31.01099999999999568 -0.6459160359616000768 #
DXID-attrib $-1 -1 $-1 $-1 $252 @10 ASM ENTITY @2 15 #
face $413 -1 $-1 $149 $258 $5 $-1 $414 forward single #
plane-surface $-1 -1 $-1 -8.789232063543790829 28.01099999999999923 36.19903650860507582 -1 0 0 0 0 10 forward_v I I I I #
straight-curve $-1 -1 $-1 8.789232063543790829 31.01099999999999568 36.19903650860507582 0 0 10 I I #
edge $-1 -1 $-1 $415 -0.8789232063543790385 $259 0.8789232063543790385 $344 $416 forward @7 unknown #
point $-1 -1 $-1 8.789232063543792606 31.01099999999999568 36.19903650860507582 #
ATTRIB_CUSTOM-attrib $-1 -1 $-1 $-1 $263 @17 sketch_attrib_def 1 1 3 @13 108 0 0 0 1 3 #
edge $-1 -1 $-1 $264 0 $330 5.447803651378817058 $291 $417 forward @7 unknown #
point $-1 -1 $-1 8.789232063543790829 28.01099999999999923 39.72506622527106401 #
point $-1 -1 $-1 8.789232063543792606 31.01099999999999568 39.72506622527106401 #
straight-curve $-1 -1 $-1 -8.789232063543790829 -31.01099999999999568 36.19903650860507582 0 0 10 I I #
edge $-1 -1 $-1 $272 -5.902199999999999669 $415 0.2999999999999998224 $271 $418 forward @7 unknown #
point $-1 -1 $-1 -8.789232063543792606 -31.01099999999999568 36.19903650860507582 #
straight-curve $-1 -1 $-1 -47.62270587231439833 -31.01099999999999568 -0.6459160359615998548 6.714491726740407174 0 7.41050611304886786 I I #
coedge $-1 -1 $-1 $419 $275 $420 $421 forward $277 $-1 #
coedge $-1 -1 $-1 $276 $419 $372 $422 forward $277 $-1 #
edge $-1 -1 $-1 $373 0 $278 0.8743346197863945957 $276 $423 forward @7 unknown #
point $-1 -1 $-1 -47.62270587231439833 -31.01099999999999568 -0.6459160359616000768 #
coedge $424 -1 $-1 $287 $285 $425 $426 reversed $196 $-1 #
coedge $-1 -1 $-1 $286 $287 $342 $407 reversed $196 $-1 #
coedge $-1 -1 $-1 $337 $336 $287 $369 reversed $253 $-1 #
edge $-1 -1 $-1 $427 0 $408 0.2999999999999998224 $287 $428 forward @7 unknown #
ATTRIB_CUSTOM-attrib $-1 -1 $-1 $-1 $291 @17 sketch_attrib_def 1 1 3 @13 108 0 0 0 1 3 #
ATTRIB_CUSTOM-attrib $-1 -1 $-1 $-1 $292 @17 sketch_attrib_def 1 1 3 @13 106 0 0 0 1 1 #
coedge $-1 -1 $-1 $318 $297 $363 $422 reversed $319 $-1 #
vertex $-1 -1 $-1 $364 $429 #
straight-curve $-1 -1 $-1 0 -31.01099999999999568 -9.389262233825546033 10 0 0 I I #
ATTRIB_CUSTOM-attrib $-1 -1 $-1 $-1 $299 @17 sketch_attrib_def 1 1 3 @13 106 0 0 0 1 1 #
edge $-1 -1 $-1 $323 0 $301 5.783531410742025258 $307 $430 forward @7 unknown #
point $-1 -1 $-1 8.789232063543792606 31.01099999999999568 42.21297883835232767 #
vertex $-1 -1 $-1 $303 $431 #
straight-curve $-1 -1 $-1 -8.789232063543790829 -28.01099999999999923 42.21297883835232767 0 10 0 I I #
coedge $-1 -1 $-1 $420 $305 $308 $384 reversed $314 $-1 #
coedge $432 -1 $-1 $305 $420 $400 $433 forward $314 $-1 #
straight-curve $-1 -1 $-1 -8.789232063543790829 28.01099999999999923 42.21297883835232767 0 10 0 I I #
coedge $-1 -1 $-1 $308 $388 $419 $434 forward $309 $-1 #
edge $-1 -1 $-1 $435 0 $310 5.783531410742025258 $380 $436 forward @7 unknown #
point $-1 -1 $-1 -8.789232063543792606 31.01099999999999568 42.21297883835232767 #
DXID-attrib $-1 -1 $-1 $-1 $313 @10 ASM ENTITY @2 19 #
plane-surface $-1 -1 $-1 -47.62270587231439833 28.01099999999999923 -9.389262233825546033 -1 0 0 0 0 10 forward_v I I I I #
coedge $-1 -1 $-1 $383 $316 $318 $390 reversed $309 $-1 #
straight-curve $-1 -1 $-1 47.62270587231439833 31.01099999999999568 -9.389262233825546033 0 0 10 I I #
edge $-1 -1 $-1 $437 -4.762270587231439478 $320 4.762270587231439478 $318 $438 forward @7 unknown #
point $-1 -1 $-1 47.62270587231439833 31.01099999999999568 -9.389262233825546033 #
point $-1 -1 $-1 47.62270587231439833 31.01099999999999568 -0.6459160359616000768 #
straight-curve $-1 -1 $-1 47.62270587231439833 28.01099999999999923 -0.6459160359615998548 -6.714491726740407174 0 7.41050611304886786 F 0 F 5.783531410742025258 #
DXID-attrib $-1 -1 $-1 $-1 $328 @10 ASM ENTITY @2 12 #
plane-surface $-1 -1 $-1 0 28.01099999999999923 -9.389262233825546033 0 0 -1 -10 0 0 forward_v I I I I #
point $-1 -1 $-1 45.36846460963304395 28.01099999999999923 -0.6459160359615998548 #
vertex $-1 -1 $-1 $335 $439 #
straight-curve $-1 -1 $-1 -47.62270587231439833 -28.01099999999999923 -0.6459160359616000768 0 10 0 I I #
coedge $440 -1 $-1 $425 $334 $337 $404 reversed $401 $-1 #
coedge $441 -1 $-1 $334 $425 $381 $433 reversed $401 $-1 #
loop $-1 -1 $-1 $-1 $425 $411 #
straight-curve $-1 -1 $-1 -11.90567646807859958 28.01099999999999923 -0.6459160359616000768 10 0 -2.914111567919611237e-17 I I #
ATTRIB_CUSTOM-attrib $-1 -1 $-1 $-1 $337 @17 sketch_attrib_def 1 1 3 @13 108 0 0 0 1 3 #
edge $-1 -1 $-1 $427 0 $338 5.447803651378817058 $337 $442 forward @7 unknown #
point $-1 -1 $-1 -45.36846460963304395 28.01099999999999923 -0.6459160359615998548 #
straight-curve $-1 -1 $-1 8.789232063543796158 31.01099999999999568 39.72506622527106401 6.714491726740407174 0 -7.410506113048866972 I I #
edge $-1 -1 $-1 $415 0 $408 0.352602971666598819 $367 $443 forward @7 unknown #
vertex $-1 -1 $-1 $343 $444 #
straight-curve $-1 -1 $-1 -8.789232063543796158 31.01099999999999568 39.72506622527106401 -6.714491726740407174 0 -7.410506113048866972 I I #
DXID-attrib $-1 -1 $-1 $-1 $345 @10 ASM ENTITY @2 20 #
face $445 -1 $-1 $-1 $401 $5 $-1 $446 reversed single #
plane-surface $-1 -1 $-1 -23.81135293615719917 31.01099999999999568 16.41185830226338993 0 1 0 0 0 10 forward_v I I I I #
DXID-attrib $-1 -1 $-1 $-1 $349 @10 ASM ENTITY @2 16 #
plane-surface $-1 -1 $-1 0 28.01099999999999923 36.19903650860507582 0 0 -1 -10 0 0 forward_v I I I I #
vertex $-1 -1 $-1 $407 $447 #
straight-curve $-1 -1 $-1 0 31.01099999999999568 36.19903650860507582 10 0 0 I I #
straight-curve $-1 -1 $-1 8.789232063543796158 28.01099999999999923 39.72506622527106401 6.714491726740407174 0 -7.410506113048866972 F 0 F 5.447803651378817058 #
straight-curve $-1 -1 $-1 -8.789232063543790829 28.01099999999999923 36.19903650860507582 0 10 0 I I #
coedge $-1 -1 $-1 $363 $362 $383 $434 reversed $277 $-1 #
coedge $-1 -1 $-1 $381 $380 $362 $421 reversed $314 $-1 #
edge $-1 -1 $-1 $397 0 $435 0.2999999999999998224 $362 $448 forward @7 unknown #
edge $-1 -1 $-1 $437 -0.2999999999999998224 $373 5.902199999999999669 $363 $449 forward @7 unknown #
straight-curve $-1 -1 $-1 -47.62270587231439833 -31.01099999999999568 -9.389262233825546033 0 0 10 I I #
ATTRIB_CUSTOM-attrib $-1 -1 $-1 $-1 $366 @17 sketch_attrib_def 1 1 3 @13 116 0 0 0 1 1 #
coedge $-1 -1 $-1 $400 $399 $366 $426 forward $401 $-1 #
edge $-1 -1 $-1 $427 1.041264765496320521 $378 1.290056026804446532 $425 $450 forward @7 unknown #
vertex $-1 -1 $-1 $404 $451 #
straight-curve $-1 -1 $-1 -8.789232063543790829 28.01099999999999923 39.72506622527106401 0 10 0 I I #
point $-1 -1 $-1 -47.62270587231439833 -31.01099999999999568 -9.389262233825546033 #
straight-curve $-1 -1 $-1 47.62270587231439833 31.01099999999999568 -0.6459160359615998548 -6.714491726740407174 0 7.41050611304886786 I I #
point $-1 -1 $-1 -8.789232063543790829 28.01099999999999923 42.21297883835232767 #
ATTRIB_CUSTOM-attrib $-1 -1 $-1 $-1 $381 @17 sketch_attrib_def 1 1 3 @13 106 0 0 0 1 1 #
edge $-1 -1 $-1 $397 0 $378 5.783531410742025258 $381 $452 forward @7 unknown #
edge $-1 -1 $-1 $437 0 $435 0.8743346197863945957 $419 $453 forward @7 unknown #
vertex $-1 -1 $-1 $384 $454 #
straight-curve $-1 -1 $-1 -47.62270587231439833 31.01099999999999568 -0.6459160359615998548 6.714491726740407174 0 7.41050611304886786 I I #
vertex $-1 -1 $-1 $422 $455 #
straight-curve $-1 -1 $-1 0 31.01099999999999568 -9.389262233825546033 10 0 0 I I #
point $-1 -1 $-1 -47.62270587231439833 28.01099999999999923 -0.6459160359616000768 #
ATTRIB_CUSTOM-attrib $-1 -1 $-1 $-1 $399 @17 sketch_attrib_def 1 1 3 @13 108 0 0 0 1 3 #
ATTRIB_CUSTOM-attrib $-1 -1 $-1 $-1 $400 @17 sketch_attrib_def 1 1 3 @13 106 0 0 0 1 1 #
straight-curve $-1 -1 $-1 -8.789232063543796158 28.01099999999999923 39.72506622527106401 -6.714491726740407174 0 -7.410506113048866972 F 0 F 5.447803651378817058 #
straight-curve $-1 -1 $-1 -8.789232063543790829 31.01099999999999568 36.19903650860507582 0 0 10 I I #
point $-1 -1 $-1 -8.789232063543792606 31.01099999999999568 39.72506622527106401 #
DXID-attrib $-1 -1 $-1 $-1 $411 @10 ASM ENTITY @2 21 #
plane-surface $-1 -1 $-1 -23.81135293615719917 28.01099999999999923 16.41185830226338993 0 1 0 10 0 0 forward_v I I I I #
point $-1 -1 $-1 -8.789232063543792606 31.01099999999999568 36.19903650860507582 #
straight-curve $-1 -1 $-1 -47.62270587231439833 28.01099999999999923 -0.6459160359616000768 0 10 0 I I #
straight-curve $-1 -1 $-1 -47.62270587231439833 28.01099999999999923 -9.389262233825546033 0 -10 0 I I #
straight-curve $-1 -1 $-1 -8.789232063543790829 28.01099999999999923 29.3124185703078588 0 0 10 I I #
point $-1 -1 $-1 -8.789232063543790829 28.01099999999999923 39.72506622527106401 #
straight-curve $-1 -1 $-1 -47.62270587231439833 28.01099999999999923 -0.6459160359615998548 6.714491726740407174 0 7.41050611304886786 F 0 F 5.783531410742025258 #
straight-curve $-1 -1 $-1 -47.62270587231439833 31.01099999999999568 -9.389262233825546033 0 0 10 I I #
point $-1 -1 $-1 -47.62270587231439833 31.01099999999999568 -0.6459160359616000768 #
point $-1 -1 $-1 -47.62270587231439833 31.01099999999999568 -9.389262233825546033 #
End-of-ACIS-data 