700 0 1 0           
30 Autodesk Translation Framework 21 ASM 229.10.0.65535 NT 24 Sat May  4 12:43:53 2024 
1 9.999999999999999547e-07 1.000000000000000036e-10 
body $1 -1 $-1 $2 $-1 $3 #
rgb_color-st-attrib $-1 -1 $4 $-1 $0 0.627450980392156854 0.627450980392156854 0.627450980392156854 #
lump $-1 -1 $-1 $-1 $5 $0 #
transform $-1 -1 1 0 0 0 1 0 0 0 1 0 0 0 1 no_rotate no_reflect no_shear #
ATTRIB_CUSTOM-attrib $-1 -1 $-1 $1 $0 @20 Timestamp_attrib_def 1 1707900481916788 #
shell $-1 -1 $-1 $-1 $-1 $6 $-1 $2 #
face $7 -1 $-1 $-1 $8 $5 $-1 $9 forward double out #
DXID-attrib $-1 -1 $-1 $-1 $6 @10 ASM ENTITY @1 0 #
loop $-1 -1 $-1 $-1 $10 $6 #
spline-surface $-1 -1 $-1 forward { rotsur 
	straight 15.65479406032675058 7.586709038776126772e-12 -9.585795502821836024e-16 0.4969634375075974164 -1.663849843041231402 -9.848077530238697364 F -5.160138196544982847 F -0 
	0 0 0 -6.123233421114495914e-17 -1.655053841592265292e-13 -1 
	full nurbs 1 2 v open open none none 2 3 
	-5.160138196544982847 1 0 1 
	0 2 1.533097214951818943 2 3.06619442990363833 2 
	13.09039404415750063 8.585695128400018916 50.8174410263210774 1 
	15.65479406032675058 7.586709038776126772e-12 -9.585795502821836024e-16 1 
	21.35836737607085922 -4.020276460717779443 50.8174410263231664 0.7203090248879069346 
	15.65479406033405141 -15.0754735489378362 2.494113461550187985e-12 0.7203090248879069346 
	9.072974099849048457 -12.75749654329779936 50.8174410263246159 1 
	0.5900320478015018688 -15.64367090084066092 2.589075633097483071e-12 1 
	-3.212419176372770302 -21.49471662587781395 50.81744102632605831 0.7203090248879069346 
	-14.47472996473105056 -16.21186825274347498 2.684037804644776138e-12 0.7203090248879069346 
	-12.40646994179170548 -9.547359878639735342 50.81744102632407589 1 
	-15.61031722900124308 -1.179225627769632689 1.961240467290083168e-13 1 
	9.999999999999999124e-06 
	
	0 
	0 
	0 
	0 
	0 
	0 
	} I I I I #
coedge $-1 -1 $-1 $11 $12 $-1 $13 reversed $8 $14 #
coedge $-1 -1 $-1 $15 $10 $-1 $16 forward $8 $17 #
coedge $-1 -1 $-1 $10 $15 $-1 $18 reversed $8 $19 #
edge $20 -1 $-1 $21 0 $22 5.160138196544982847 $10 $23 forward @7 unknown #
pcurve $-1 -1 $-1 0 forward { exppc nubs 1 open 2 
	-5.160138196544982847 1 -0 1 
	-5.160138196544982847 0 
	0 0 
	0 
	spline forward { ref 0 } I I I I 
	} 0 0 #
coedge $-1 -1 $-1 $12 $11 $-1 $24 reversed $8 $25 #
edge $26 -1 $-1 $21 -1.013428100985331156e-29 $27 3.06619442990363833 $11 $28 forward @7 unknown #
pcurve $-1 -1 $-1 0 forward { exppc nubs 1 open 2 
	-1.013428100985331156e-29 1 3.06619442990363833 1 
	-0 0 
	-0 3.06619442990363833 
	0 
	spline forward { ref 0 } I I I I 
	} 0 0 #
edge $29 -1 $-1 $22 -1.257793407008683877e-26 $30 3.06619442990363833 $12 $31 forward @7 unknown #
pcurve $-1 -1 $-1 0 forward { exppc nubs 1 open 2 
	-3.06619442990363833 1 1.257793407008683877e-26 1 
	-5.160138196544982847 3.06619442990363833 
	-5.160138196544982847 1.30336582192687562e-16 
	0 
	spline forward { ref 0 } I I I I 
	} 0 0 #
DXID-attrib $-1 -1 $-1 $-1 $13 @10 ASM ENTITY @1 1 #
vertex $-1 -1 $-1 $13 $32 #
vertex $-1 -1 $-1 $13 $33 #
straight-curve $-1 -1 $-1 15.65479406032675058 7.586709038776126772e-12 -9.585795502821836024e-16 -0.4969634375075974164 1.663849843041231402 9.848077530238697364 F 0 F 5.160138196544982847 #
edge $34 -1 $-1 $30 -5.160138196544982847 $27 -0 $15 $35 forward @7 unknown #
pcurve $-1 -1 $-1 0 forward { exppc nubs 1 open 2 
	0 1 5.160138196544982847 1 
	0 3.06619442990363833 
	-5.160138196544982847 3.06619442990363833 
	0 
	spline forward { ref 0 } I I I I 
	} 0 0 #
DXID-attrib $-1 -1 $-1 $-1 $16 @10 ASM ENTITY @1 2 #
vertex $-1 -1 $-1 $16 $36 #
ellipse-curve $-1 -1 $-1 1.457167719820517959e-15 0 3.288174201352913784e-23 -6.123233421112528692e-17 -1.655053841592265544e-13 -1 15.65479406032674881 7.586709038776126772e-12 -9.58579583163925616e-16 1 F -1.013428100985331156e-29 F 3.06619442990363833 #
DXID-attrib $-1 -1 $-1 $-1 $18 @10 ASM ENTITY @1 4 #
vertex $-1 -1 $-1 $24 $37 #
ellipse-curve $-1 -1 $-1 2.220446049250313081e-15 8.41104963456018595e-12 50.81744102632249849 5.572324855271061143e-17 -1.656347386311683067e-13 -1 13.09039404415750063 8.585695128391607867 -1.421085471520200372e-12 1 F -1.257793407008683877e-26 F 3.06619442990363833 #
point $-1 -1 $-1 15.65479406032675058 7.586709038776126772e-12 -9.585795502821836024e-16 #
point $-1 -1 $-1 13.09039404415750241 8.585695128400018916 50.8174410263210774 #
DXID-attrib $-1 -1 $-1 $-1 $24 @10 ASM ENTITY @1 3 #
straight-curve $-1 -1 $-1 -15.61031722900124308 -1.179225627769632689 1.961240467290083673e-13 -0.6208840083691367084 1.621688011470906465 -9.848077530239240929 F -5.160138196544982847 F -0 #
point $-1 -1 $-1 -15.61031722900124308 -1.179225627769632689 1.961240467290083168e-13 #
point $-1 -1 $-1 -12.40646994179170548 -9.547359878639735342 50.81744102632407589 #
End-of-ACIS-data 