700 0 1 0           
30 Autodesk Translation Framework 21 ASM 229.10.0.65535 NT 24 Sat May  4 12:44:18 2024 
1 9.999999999999999547e-07 1.000000000000000036e-10 
body $1 -1 $-1 $2 $-1 $3 #
rgb_color-st-attrib $-1 -1 $4 $-1 $0 0.627450980392156854 0.627450980392156854 0.627450980392156854 #
lump $-1 -1 $-1 $-1 $5 $0 #
transform $-1 -1 1 0 0 0 1 0 0 0 1 0 0 0 1 no_rotate no_reflect no_shear #
ATTRIB_CUSTOM-attrib $-1 -1 $-1 $1 $0 @20 Timestamp_attrib_def 1 1709084444599728 #
shell $-1 -1 $-1 $-1 $-1 $6 $-1 $2 #
face $7 -1 $-1 $8 $9 $5 $-1 $10 forward single #
DXID-attrib $-1 -1 $-1 $-1 $6 @10 ASM ENTITY @1 0 #
face $11 -1 $-1 $12 $13 $5 $-1 $14 reversed single #
loop $-1 -1 $-1 $-1 $15 $6 #
spline-surface $-1 -1 $-1 forward { offsur 
	spline forward { rotsur 
	straight 2.868788555989312705 3.119798591312267 -2.206720610303607032e-13 -4.215562944837163868e-12 1.21869343404434316 -9.925461516414095797 F -5.119907113866866588 F -0 
	0 0 0 -3.694923588260011612e-16 -7.075043032033356797e-14 -1 
	full nurbs 1 2 v open open none none 2 3 
	-5.119907113866866588 1 0 1 
	0 2 1.539380400258998582 2 3.078760800517997165 2 
	2.868788556010896329 -3.119798591274206778 50.8174410263001235 1 
	2.868788555989312705 3.119798591312267 -2.206720610303607032e-13 1 
	-0.1545066070035183703 -5.899848107722779567 50.81744102630032245 0.7181262977631888145 
	5.892083719037126244 0.3397490748845916064 -2.509944589248918313e-14 0.7181262977631888145 
	-3.028148332822962363 -2.965368223954321536 50.81744102630011639 1 
	3.208369985214651443 -2.76937774008945814 1.958642259053367615e-13 1 
	-5.901790058642408354 -0.03088834018586505969 50.81744102629991033 0.7181262977631888145 
	0.5246562513921770865 -5.878504555063509329 4.168278977031628387e-13 0.7181262977631888145 
	-3.0590214314811357 2.933509657560037898 50.81744102629969007 1 
	-2.667233882711161463 -3.293775105292830574 2.351365558850115801e-13 1 
	9.999999999999999124e-06 
	
	0 
	0 
	0 
	0 
	0 
	0 
	} F -5.119907113866866588 F 0 F 0 F 3.078760800517997165 
	0.1000000000000000194 
	forward forward full nubs 3 3 open open none none 2 3 
	-5.119907113866866588 3 0 3 
	0 3 1.558182985656651587 3 3.078760800517997165 3 
	2.801375910215073706 -3.046487549598634104 50.82644249036157191 
	2.776857772796179624 -0.9888324520240610038 33.88456835914850984 
	2.776857772789584011 0.9888324520611593282 16.93287266715136141 
	2.801375910194169094 3.0464875496360726 -0.009001464061684658069 
	1.219047554946733891 -4.501506309507139036 50.82644249036167849 
	2.263263805325254729 -2.431116630410531165 33.88456835914860932 
	3.290451740277910542 -0.4534517263218881822 16.93287266715146444 
	4.383704265480087514 1.591468789738416101 -0.009001464061582297241 
	-1.536050501710152894 -4.403428760857926783 50.82644249036167139 
	0.4949181453712625522 -3.28447060460771123 33.88456835914866616 
	2.459469803591483483 -2.232420078842605626 16.93287266715158523 
	4.516524082573132759 -1.162173053996991445 -0.009001464061387531163 
	-3.010911437170790794 -2.83957843661840359 50.8264424903615577 
	-0.9537292675892607985 -2.789109032047582204 33.88456835914863063 
	1.023778318924531971 -2.764164731386727247 16.93287266715162431 
	3.08157898336854652 -2.762727700944322073 -0.009001464061273761058 
	-4.450178095266148937 -1.313470058660329176 50.82644249036144402 
	-2.367415040044127394 -2.305702510154179041 33.88456835914860221 
	-0.3772642034656845111 -3.283076264417619683 16.93287266715166339 
	1.681264833182271712 -4.324654579895385709 -0.009001464061162735286 
	-4.439075553427133336 1.350517273332174417 50.82644249036125217 
	-3.245301320485800556 -0.6236484397636045118 33.88456835914847431 
	-2.12070292397048199 -2.534469795729231034 16.93287266715160655 
	-0.9743075775917009462 -4.536519967877683968 -0.009001464061146761952 
	-2.987138570748792965 2.864576153531264602 50.82644249036114559 
	-2.833467581684548264 0.8125208748491857813 33.88456835914837484 
	-2.709288974895502466 -1.161241559304381887 16.93287266715150707 
	-2.60455749876762388 -3.216375851158748134 -0.009001464061239560985 
	0.06100445732514059999 
	
	0 
	0 
	0 
	0 
	0 
	0 
	} I I I I #
DXID-attrib $-1 -1 $-1 $-1 $8 @10 ASM ENTITY @1 1 #
face $16 -1 $-1 $17 $18 $5 $-1 $19 reversed single #
loop $-1 -1 $-1 $-1 $20 $8 #
spline-surface $-1 -1 $-1 forward { ref 1 } I I I I #
coedge $-1 -1 $-1 $21 $22 $23 $24 reversed $9 $25 #
DXID-attrib $-1 -1 $-1 $-1 $12 @10 ASM ENTITY @1 2 #
face $26 -1 $-1 $27 $28 $5 $-1 $29 reversed single #
loop $-1 -1 $-1 $-1 $30 $12 #
spline-surface $-1 -1 $-1 forward { orthosur spline forward { ref 1 } I I I I straight 2.868788555989312705 3.119798591312267 -2.206720610303607032e-13 4.215562944837163868e-12 -1.21869343404434316 9.925461516414095797 F 0 F 5.119907113866866588 nubs 1 open 2 
	0 1 5.119907113866866588 1 
	0 0 
	-5.119907113866866588 0 
	10 full nubs 3 1 open open none none 3 2 
	0 3 4.175699105050298066 3 5.119907113866866588 3 
	0 1 0.01000000000000000194 1 
	2.868788555989312705 3.119798591312267 -2.206720610303607032e-13 
	2.868788555995180456 1.423499564022387753 13.81524692376695107 
	2.868788556001048207 -0.2727994632674921038 27.63049384753412241 
	2.868788556006915957 -1.969098490557371628 41.44574077130129552 
	2.868788556008242452 -2.35266519079631653 44.56964085630090722 
	2.86878855600956939 -2.73623189103526121 47.6935409413005118 
	2.868788556010896329 -3.119798591274206778 50.8174410263001235 
	2.801375910194169094 3.0464875496360726 -0.009001464061684658069 
	2.781379382495348551 1.368303090747240658 13.80846964903255092 
	2.763617532992142412 -0.2492446754819327426 27.63338601180956289 
	2.78653985175440555 -1.912644068688236443 41.45267250270151749 
	2.791723040583744098 -2.288771512120752138 44.57748601358154161 
	2.796854300506669944 -2.667016910912615835 47.70203947224275964 
	2.801375910215073706 -3.046487549598634104 50.82644249036157191 
	0.009119205178332501563 
	
	0 
	0 
	0 
	0 
	0 
	0 
	F } I I I I #
coedge $-1 -1 $-1 $31 $32 $30 $33 forward $13 $34 #
coedge $-1 -1 $-1 $35 $15 $36 $37 forward $9 $38 #
coedge $-1 -1 $-1 $15 $35 $39 $40 reversed $9 $41 #
coedge $-1 -1 $-1 $42 $43 $15 $24 forward $18 $44 #
edge $45 -1 $-1 $46 0 $47 5.119907113866866588 $15 $48 forward @7 unknown #
pcurve $-1 -1 $-1 0 forward { exppc nubs 1 open 2 
	-5.119907113866866588 1 -0 1 
	-5.119907113866866588 0 
	0 0 
	9.31707014954519854e-15 
	spline forward { ref 0 } I I I I 
	} 0 0 #
DXID-attrib $-1 -1 $-1 $-1 $17 @10 ASM ENTITY @1 3 #
face $49 -1 $-1 $50 $51 $5 $-1 $52 reversed single #
loop $-1 -1 $-1 $-1 $53 $17 #
cone-surface $-1 -1 $-1 5.551115123125782702e-16 5.551115123125782702e-16 1.11502726827821325e-15 -3.694923588259951954e-16 -7.075043032033355534e-14 -1 2.868788555989312261 3.119798591312266556 -2.217870882986389101e-13 1 F -2.491777386110279401e-27 F 3.078760800517997609 0.9959404422328715922 -0.09001464061469197087 4.238288691126318675 forward I I I I #
coedge $-1 -1 $-1 $43 $42 $20 $33 reversed $18 $54 #
coedge $-1 -1 $-1 $55 $20 $56 $57 forward $13 $58 #
coedge $-1 -1 $-1 $20 $55 $53 $59 reversed $13 $60 #
edge $61 -1 $-1 $62 0 $63 5.119907113866866588 $20 $64 forward @7 unknown #
pcurve $-1 -1 $-1 0 reversed { exppc nubs 1 open 2 
	-5.119907113866866588 1 -0 1 
	-5.119907113866866588 0 
	0 0 
	0 
	spline forward { ref 1 } I I I I 
	} 0 0 #
coedge $-1 -1 $-1 $22 $21 $65 $66 reversed $9 $67 #
coedge $-1 -1 $-1 $68 $69 $21 $37 reversed $28 $-1 #
edge $70 -1 $-1 $46 -2.491777386110279401e-27 $71 3.078760800517997609 $21 $72 forward @7 unknown #
pcurve $-1 -1 $-1 0 forward { exppc nubs 1 open 2 
	-2.491777386110279401e-27 1 3.078760800517997609 1 
	-9.749871578309124733e-19 0 
	-1.620807670322499592e-17 3.078760800517997165 
	2.818927148145081101e-15 
	spline forward { ref 0 } I I I I 
	} 0 0 #
coedge $-1 -1 $-1 $73 $74 $22 $40 forward $75 $-1 #
edge $76 -1 $-1 $47 2.72286583082308855e-27 $77 3.078760800517998053 $22 $78 forward @7 unknown #
pcurve $-1 -1 $-1 0 forward { exppc nubs 1 open 2 
	-3.078760800517998053 1 -2.72286583082308855e-27 1 
	-5.119907113866866588 3.078760800517997165 
	-5.119907113866866588 0 
	1.826846606202914819e-14 
	spline forward { ref 0 } I I I I 
	} 0 0 #
coedge $-1 -1 $-1 $30 $23 $74 $79 reversed $18 $80 #
coedge $-1 -1 $-1 $23 $30 $68 $81 forward $18 $82 #
pcurve $-1 -1 $-1 0 forward { exppc nubs 1 open 2 
	0 1 5.119907113866866588 1 
	0 0.01000000000000000194 
	5.119907113866866588 0.01000000000000000194 
	1.368627492040773038e-14 
	spline reversed { ref 2 } I I I I 
	} 0 0 #
DXID-attrib $-1 -1 $-1 $-1 $24 @10 ASM ENTITY @1 6 #
vertex $-1 -1 $-1 $24 $83 #
vertex $-1 -1 $-1 $24 $84 #
intcurve-curve $-1 -1 $-1 forward { offsurfintcur full nubs 3 open 3 
	0 3 4.175699105050346027 3 5.119907113866866588 3 
	2.801375910194169094 3.0464875496360726 -0.009001464061684658069 
	2.781379382495348107 1.368303090747221562 13.80846964903271079 
	2.763617532992143744 -0.2492446754819691024 27.63338601180987553 
	2.786539851754406438 -1.912644068688293064 41.45267250270198645 
	2.791723040583744542 -2.288771512120789886 44.57748601358184715 
	2.796854300506670388 -2.667016910912635375 47.70203947224291596 
	2.801375910215073706 -3.046487549598634104 50.82644249036157191 
	0.009119205178332865855 
	
	spline forward { ref 1 } I I I I 
	null_surface 
	nubs 1 open 2 
	0 1 5.119907113866866588 1 
	0 0 
	-5.119907113866866588 0 
	
	nullbs 
	I I 
	0 
	0 
	0 
	F -5.119907113866866588 F 0 F 0 F 3.078760800517997165 straight 2.868788555989312705 3.119798591312267 -2.206720610303607032e-13 4.215562944837163868e-12 -1.21869343404434316 9.925461516414095797 F 0 F 5.119907113866866588 F 0 F 5.119907113866866588 0.1000000000000000194 0 1 } I I #
DXID-attrib $-1 -1 $-1 $-1 $27 @10 ASM ENTITY @1 4 #
face $85 -1 $-1 $-1 $75 $5 $-1 $86 reversed single #
loop $-1 -1 $-1 $-1 $87 $27 #
spline-surface $-1 -1 $-1 forward { orthosur spline forward { ref 1 } I I I I straight -2.667233882711162352 -3.293775105292829242 2.351365558850114792e-13 0.0765223938748510607 -1.216288620937430176 -9.925461516413923491 F -5.119907113866866588 F -0 nubs 1 open 2 
	-5.119907113866866588 1 -0 1 
	-5.119907113866866588 3.078760800517997165 
	0 3.078760800517997165 
	10 full nubs 3 1 open open none none 3 2 
	-5.119907113866866588 3 -0.9442080088155719864 3 0 3 
	0 1 0.01000000000000000194 1 
	-3.059021431481134812 2.933509657560040118 50.81744102629969717 
	-2.952509934274601733 1.240557888915873042 37.00219410252947227 
	-2.845998437068069098 -0.4523938797282933688 23.18694717875924383 
	-2.739486939861536463 -2.145345648372460445 9.371700254989015377 
	-2.715402587478078722 -2.528155467345916563 6.24780016999275567 
	-2.691318235094620093 -2.910965286319373124 3.123900084996495075 
	-2.667233882711162352 -3.293775105292829242 2.351365558850114792e-13 
	-2.987138570748792077 2.864576153531266378 50.82644249036115269 
	-2.861807427578253016 1.190958800688923791 37.00897137726384756 
	-2.742513962411940565 -0.4222818287604335197 23.18405501448373229 
	-2.660945337118487242 -2.083838187537634834 9.364768523588745452 
	-2.642501060523703593 -2.459548884498066634 6.23995501271207953 
	-2.623871969974961971 -2.837370096873715219 3.115401554054218369 
	-2.604557498767625212 -3.216375851158747246 -0.009001464061239560985 
	0.009119205178328919359 
	
	0 
	0 
	0 
	0 
	0 
	0 
	F } I I I I #
coedge $-1 -1 $-1 $69 $68 $32 $59 forward $28 $-1 #
pcurve $-1 -1 $-1 0 forward { exppc nubs 1 open 2 
	-5.119907113866866588 1 -0 1 
	5.119907113866866588 0 
	1.23989270424858384e-18 1.376534115131483094e-17 
	9.289186865220066508e-15 
	spline reversed { ref 2 } I I I I 
	} 0 0 #
coedge $-1 -1 $-1 $32 $31 $87 $88 forward $13 $89 #
coedge $-1 -1 $-1 $74 $73 $31 $57 reversed $75 $-1 #
edge $90 -1 $-1 $63 2.72286583082308855e-27 $91 3.078760800517998053 $31 $92 forward @7 unknown #
pcurve $-1 -1 $-1 0 reversed { exppc nubs 1 open 2 
	-3.078760800517998053 1 -2.72286583082308855e-27 1 
	-5.119907113866866588 3.078760800517997165 
	-5.119907113866866588 0 
	0 
	spline forward { ref 1 } I I I I 
	} 0 0 #
edge $93 -1 $-1 $62 -2.491777386110279401e-27 $94 3.078760800517997609 $32 $95 forward @7 unknown #
pcurve $-1 -1 $-1 0 reversed { exppc nubs 1 open 2 
	-2.491777386110279401e-27 1 3.078760800517997609 1 
	-0 0 
	-0 3.078760800517997165 
	0 
	spline forward { ref 1 } I I I I 
	} 0 0 #
DXID-attrib $-1 -1 $-1 $-1 $33 @10 ASM ENTITY @2 10 #
vertex $-1 -1 $-1 $33 $96 #
vertex $-1 -1 $-1 $33 $97 #
straight-curve $-1 -1 $-1 2.868788555989312705 3.119798591312267 -2.206720610303607032e-13 4.215562944837163868e-12 -1.21869343404434316 9.925461516414095797 F 0 F 5.119907113866866588 #
coedge $-1 -1 $-1 $98 $99 $35 $66 forward $51 $100 #
edge $101 -1 $-1 $77 -5.1199071138668657 $71 -0 $35 $102 forward @7 unknown #
pcurve $-1 -1 $-1 0 forward { exppc nubs 1 open 2 
	0 1 5.119907113866866588 1 
	0 3.078760800517997165 
	-5.119907113866866588 3.078760800517997165 
	9.129855720366445212e-15 
	spline forward { ref 0 } I I I I 
	} 0 0 #
coedge $-1 -1 $-1 $53 $36 $43 $81 reversed $28 $-1 #
coedge $-1 -1 $-1 $36 $53 $98 $103 forward $28 $-1 #
DXID-attrib $-1 -1 $-1 $-1 $37 @10 ASM ENTITY @1 7 #
vertex $-1 -1 $-1 $37 $104 #
intcurve-curve $-1 -1 $-1 forward { offsurfintcur full nubs 3 open 5 
	-2.491777386110279401e-27 3 0.9464074035055004552 3 1.885457318453368281 3 2.82621024907379903 3 3.078760800517997609 3 
	2.801375910194169094 3.0464875496360726 -0.009001464061684647661 
	3.762448700748473041 2.162739915832832427 -0.009001464061622504662 
	4.264524557025106688 0.8045461278449456133 -0.009001464061526590066 
	4.109366672375181828 -0.4918322196399316226 -0.009001464061434788499 
	3.955415004368016518 -1.778132361034436837 -0.00900146406134369817 
	3.158857532023444659 -2.971309752031296991 -0.009001464061258967336 
	2.029899750257299296 -3.606702147975235473 -0.009001464061213566153 
	0.8988945450630647649 -4.243246860948647559 -0.009001464061168081704 
	-0.5375515511335680063 -4.30397416999319038 -0.009001464061163248764 
	-1.718246360958181729 -3.765159070126757435 -0.009001464061200947775 
	-2.035210694103394502 -3.620511048134432031 -0.009001464061211068152 
	-2.333791667146976501 -3.435636662019375898 -0.009001464061224036944 
	-2.604557498767624324 -3.216375851158747246 -0.009001464061239444758 
	0.00851828061686396576 
	
	spline forward { ref 1 } I I I I 
	null_surface 
	nubs 1 open 2 
	-2.491777386110279401e-27 1 3.078760800517997609 1 
	-0 0 
	-0 3.078760800517997165 
	
	nullbs 
	I I 
	0 
	0 
	0 
	F -5.119907113866866588 F 0 F 0 F 3.078760800517997165 ellipse 5.551115123125782702e-16 5.551115123125782702e-16 1.11502726827821325e-15 -3.694923588259951954e-16 -7.075043032033355534e-14 -1 2.868788555989312261 3.119798591312266556 -2.217870882986389101e-13 1 F -2.491777386110279401e-27 F 3.078760800517997609 F -2.491777386110279401e-27 F 3.078760800517997609 0.1000000000000000194 0 1 } I I #
coedge $-1 -1 $-1 $56 $39 $99 $105 reversed $75 $-1 #
coedge $-1 -1 $-1 $39 $56 $42 $79 forward $75 $-1 #
loop $-1 -1 $-1 $-1 $56 $50 #
DXID-attrib $-1 -1 $-1 $-1 $40 @10 ASM ENTITY @1 9 #
vertex $-1 -1 $-1 $66 $106 #
intcurve-curve $-1 -1 $-1 forward { offsurfintcur full nubs 3 open 5 
	2.72286583082308855e-27 3 0.9464074035060883183 3 1.885457318454563769 3 2.82621024907559093 3 3.078760800517998053 3 
	2.801375910215073262 -3.046487549598634104 50.82644249036157191 
	1.840303119670849252 -3.930235183409012567 50.82644249036164297 
	0.4448582960426101796 -4.316893010675105558 50.82644249036167139 
	-0.8339889766260129011 -4.053795230034658026 50.82644249036165007 
	-2.102894331954665574 -3.792742804178444338 50.82644249036163586 
	-3.225228739258755084 -2.899131271515691832 50.82644249036157902 
	-3.763918525430328899 -1.720962147789572683 50.82644249036149375 
	-4.303585253438422242 -0.5406563533171144798 50.82644249036140138 
	-4.243894230800532519 0.895833178545590858 50.82644249036130191 
	-3.608165605103538454 2.027297300934644664 50.82644249036121664 
	-3.437500588007591507 2.331045372022787721 50.82644249036118822 
	-3.22828866648951962 2.613108322438767672 50.82644249036117401 
	-2.987138570748792077 2.864576153531265934 50.82644249036115269 
	0.008518280616862683799 
	
	spline forward { ref 1 } I I I I 
	null_surface 
	nubs 1 open 2 
	2.72286583082308855e-27 1 3.078760800517998053 1 
	-5.119907113866866588 0 
	-5.119907113866866588 3.078760800517997165 
	
	nullbs 
	I I 
	0 
	0 
	0 
	F -5.119907113866866588 F 0 F 0 F 3.078760800517997165 ellipse 1.776356839400250465e-14 3.594902153736256878e-12 50.81744102629990323 -1.932380495511045359e-15 -7.378811580262831926e-14 -1 2.868788556010878565 -3.119798591277801236 2.220446049250313081e-13 1 F 2.72286583082308855e-27 F 3.078760800517998053 F 2.72286583082308855e-27 F 3.078760800517998053 0.1000000000000000194 0 1 } I I #
edge $-1 -1 $-1 $63 0 $47 0.01000000000000000888 $42 $107 forward @7 unknown #
pcurve $-1 -1 $-1 0 forward { exppc nubs 1 open 2 
	-0.01000000000000000888 1 -0 1 
	5.119907113866866588 0.01000000000000000194 
	5.119907113866866588 0 
	9.129880440625150851e-15 
	spline reversed { ref 2 } I I I I 
	} 0 0 #
edge $-1 -1 $-1 $62 -0 $46 0.01000000000000001756 $43 $108 forward @7 unknown #
pcurve $-1 -1 $-1 0 forward { exppc nubs 1 open 2 
	-0 1 0.01000000000000001756 1 
	0 0 
	0 0.01000000000000000194 
	4.207862354856393566e-16 
	spline reversed { ref 2 } I I I I 
	} 0 0 #
point $-1 -1 $-1 2.801375910194169094 3.0464875496360726 -0.009001464061684658069 #
point $-1 -1 $-1 2.801375910215073706 -3.046487549598634104 50.82644249036157191 #
DXID-attrib $-1 -1 $-1 $-1 $50 @10 ASM ENTITY @1 5 #
cone-surface $-1 -1 $-1 1.776356839400250465e-14 3.594902153736256878e-12 50.81744102629990323 -1.932380495511045359e-15 -7.378811580262831926e-14 -1 2.868788556010878565 -3.119798591277801236 2.220446049250313081e-13 1 F 2.72286583082308855e-27 F 3.078760800517998053 -0.9959404422328885786 -0.09001464061450328846 4.238288691115546847 forward I I I I #
coedge $-1 -1 $-1 $99 $98 $55 $88 reversed $51 $109 #
edge $110 -1 $-1 $91 -5.119907113866866588 $94 -0 $55 $111 forward @7 unknown #
pcurve $-1 -1 $-1 0 reversed { exppc nubs 1 open 2 
	0 1 5.119907113866866588 1 
	0 3.078760800517997165 
	-5.119907113866866588 3.078760800517997165 
	0 
	spline forward { ref 1 } I I I I 
	} 0 0 #
DXID-attrib $-1 -1 $-1 $-1 $57 @10 ASM ENTITY @2 11 #
vertex $-1 -1 $-1 $57 $112 #
ellipse-curve $-1 -1 $-1 1.776356839400250465e-14 3.594902153736256878e-12 50.81744102629990323 -1.932380495511045359e-15 -7.378811580262831926e-14 -1 2.868788556010878565 -3.119798591277801236 2.220446049250313081e-13 1 F 2.72286583082308855e-27 F 3.078760800517998053 #
DXID-attrib $-1 -1 $-1 $-1 $59 @10 ASM ENTITY @2 13 #
vertex $-1 -1 $-1 $88 $113 #
ellipse-curve $-1 -1 $-1 5.551115123125782702e-16 5.551115123125782702e-16 1.11502726827821325e-15 -3.694923588259951954e-16 -7.075043032033355534e-14 -1 2.868788555989312261 3.119798591312266556 -2.217870882986389101e-13 1 F -2.491777386110279401e-27 F 3.078760800517997609 #
point $-1 -1 $-1 2.868788555989312705 3.119798591312267 -2.206720610303607032e-13 #
point $-1 -1 $-1 2.868788556010896329 -3.119798591274206778 50.8174410263001235 #
coedge $-1 -1 $-1 $87 $65 $69 $103 reversed $51 $114 #
coedge $-1 -1 $-1 $65 $87 $73 $105 forward $51 $115 #
pcurve $-1 -1 $-1 0 forward { exppc nubs 1 open 2 
	-5.119907113866866588 1 -0 1 
	-5.119907113866866588 0.01000000000000000194 
	0 0.009999999999999970718 
	1.829260064778276814e-14 
	spline reversed { ref 9 } I I I I 
	} 0 0 #
DXID-attrib $-1 -1 $-1 $-1 $66 @10 ASM ENTITY @1 8 #
intcurve-curve $-1 -1 $-1 forward { offsurfintcur full nubs 3 open 3 
	-5.119907113866866588 3 -0.9442080088155542228 3 -0 3 
	-2.987138570748792077 2.864576153531266822 50.82644249036115269 
	-2.861807427578252572 1.190958800688917574 37.00897137726378361 
	-2.742513962411940565 -0.4222818287604468424 23.1840550144836115 
	-2.660945337118486798 -2.08383818753765615 9.364768523588567817 
	-2.642501060523703593 -2.459548884498081289 6.239955012711959625 
	-2.623871969974961971 -2.837370096873722325 3.115401554054159305 
	-2.604557498767625656 -3.216375851158747246 -0.009001464061239545372 
	0.009119205178329809272 
	
	spline forward { ref 1 } I I I I 
	null_surface 
	nubs 1 open 2 
	-5.119907113866866588 1 -0 1 
	-5.119907113866866588 3.078760800517997165 
	0 3.078760800517997165 
	
	nullbs 
	I I 
	0 
	0 
	0 
	F -5.119907113866866588 F 0 F 0 F 3.078760800517997165 straight -2.667233882711162352 -3.293775105292829242 2.351365558850114792e-13 0.0765223938748510607 -1.216288620937430176 -9.925461516413923491 F -5.119907113866866588 F -0 F -5.119907113866866588 F -0 0.1000000000000000194 0 1 } I I #
edge $-1 -1 $-1 $94 0 $71 0.009999999999999993269 $69 $116 forward @7 unknown #
point $-1 -1 $-1 -2.604557498767624324 -3.216375851158747246 -0.009001464061239560985 #
edge $-1 -1 $-1 $91 0 $77 0.01000000000000002102 $99 $117 forward @7 unknown #
point $-1 -1 $-1 -2.987138570748791189 2.864576153531265934 50.82644249036114559 #
straight-curve $-1 -1 $-1 2.868788556010896329 -3.119798591274206778 50.8174410263001235 -6.741264579582248118 7.331104167557228379 0.9001464061444843789 F 0 F 0.01000000000000000888 #
straight-curve $-1 -1 $-1 2.868788555989312705 3.119798591312267 -2.206720610303607032e-13 -6.741264579514322008 -7.331104167619453271 -0.9001464061463982924 F -0 F 0.01000000000000001756 #
pcurve $-1 -1 $-1 0 forward { exppc nubs 1 open 2 
	0 1 5.119907113866866588 1 
	0 0 
	-5.119907113866866588 0 
	1.362681443193157823e-14 
	spline reversed { ref 9 } I I I I 
	} 0 0 #
DXID-attrib $-1 -1 $-1 $-1 $88 @10 ASM ENTITY @2 12 #
straight-curve $-1 -1 $-1 -2.667233882711162352 -3.293775105292829242 2.351365558850114792e-13 0.0765223938748510607 -1.216288620937430176 -9.925461516413923491 F -5.119907113866866588 F -0 #
point $-1 -1 $-1 -3.059021431481134368 2.93350965756003923 50.81744102629969007 #
point $-1 -1 $-1 -2.667233882711161908 -3.293775105292829242 2.351365558850114792e-13 #
pcurve $-1 -1 $-1 0 forward { exppc nubs 1 open 2 
	-0.009999999999999993269 1 -0 1 
	-4.127477375052236192e-19 0.01000000000000000194 
	-0 3.479238227718108191e-17 
	4.426654257225375607e-16 
	spline reversed { ref 9 } I I I I 
	} 0 0 #
pcurve $-1 -1 $-1 0 forward { exppc nubs 1 open 2 
	0 1 0.01000000000000002102 1 
	-5.1199071138668657 0 
	-5.1199071138668657 0.01000000000000000194 
	4.277089231390198813e-16 
	spline reversed { ref 9 } I I I I 
	} 0 0 #
straight-curve $-1 -1 $-1 -2.667233882711161908 -3.293775105292829242 2.351365558850114792e-13 6.267638394353727271 7.739925413408247579 -0.9001464061474695466 F 0 F 0.009999999999999993269 #
straight-curve $-1 -1 $-1 -3.059021431481134368 2.93350965756003923 50.81744102629969007 7.188286073234290363 -6.893350402877350902 0.9001464061454856891 F 0 F 0.01000000000000002102 #
End-of-ACIS-data 